<svg width="568" height="495" fill="none" xmlns="http://www.w3.org/2000/svg"><path opacity=".4" d="M567 272c-3.8 48.3-38.2 92.4-34.9 140l.6 6c.6 4.7 1.6 9.3 2.6 14 1.4 6.2 2.7 12.5 2.9 19 .2 7.6-1.5 15.8-5.7 22a22.5 22.5 0 01-9.7 8 45.7 45.7 0 01-12.9 2.9c-63.8 6.7-127.2-16.1-191.4-15.4-54 .7-107 18-160.4 24.2a303 303 0 01-54.5 1.3c-3.8-.3-7.4-.7-11.2-1.3-20.7-3-41-9.8-57.4-22.8-32.4-26-42.7-74.1-29.3-113.5 8.7-25.6 26.1-49 27.5-75.9 1.5-30.1-17.4-57.3-23.6-86.8A161 161 0 017 155.4c.6-20.2 4-42.3 18.7-56 4-3.7 8.5-6.8 13.3-9.3a1395 1395 0 0139.7-19.3c38-17.8 76.5-34.4 115.6-49.7 23.3-9.2 47.1-18 72.1-20.4C312.2-3.7 357.1 14 398.6 34c22.2 10.6 44 22 66.8 31.5a332.8 332.8 0 0033.4 11.8c6.8 2 15.9 2.6 23 5.2l1.5.6c2 .8 3.7 1.9 5.3 3.2l.3.3c14 13.3 19.4 49.6 23.5 68 5.2 23.2 8.4 46.8 11.6 70.4 2 15.6 4.1 31.3 3 47z" fill="#BAE5FF"/><path d="M409.4 337.3l7.3-33.5-1.5-7.4-41.8 4.3s-5 29.7-19.2 19.8c-14.2-10-1.7-21.2-1.7-21.2l-1.6-7.5-41.3 3.5-7.3 40.3s-17.7-11.5-26-2.2c-6 6.6-1.4 22.2 9.2 24.2 4.3.9 8.7 1 13 .3l-10.1 39.7 1.6 7.4 103.6 13.5 15.8-81.2z" fill="#0D3DBF"/><path d="M409.4 337.3l7.3-33.5-1.5-7.4-41.8 4.3s-5 29.7-19.2 19.8c-14.2-10-1.7-21.2-1.7-21.2l-1.6-7.5-41.3 3.5-7.3 40.3s-17.7-11.5-26-2.2c-6 6.6-1.4 22.2 9.2 24.2 4.3.9 8.7 1 13 .3l-10.1 39.7 1.6 7.4 103.6 13.5 15.8-81.2z" fill="url(#paint0_linear)"/><path d="M167 399.1l32.9 10 10.2-5.7-3.9-37.4s-29.2-7.2-18.2-20.6c11-13.4 21.3 0 21.3 0l10.3-5.7-3-36.9-39.7-10.3s15-21.7 6.3-30.8c-6.1-6.5-24.1 2-27 12.4a36.7 36.7 0 00-1.3 13l-36-18-10.2 5.8-21.5 102.3 79.9 22z" fill="#0D3DBF"/><path d="M167 399.1l32.9 10 10.2-5.7-3.9-37.4s-29.2-7.2-18.2-20.6c11-13.4 21.3 0 21.3 0l10.3-5.7-3-36.9-39.7-10.3s15-21.7 6.3-30.8c-6.1-6.5-24.1 2-27 12.4a36.7 36.7 0 00-1.3 13l-36-18-10.2 5.8-21.5 102.3 79.9 22z" fill="url(#paint1_linear)"/><path d="M131.4 188.1l-16.2 17.8-2.1 11.2 39.7 17.7s14.8-26.2 24.8-12c5 7 0 11.6-3.6 9.3l-2.1 11.2 39 18.4 19.1-33.3s16.3 7.8 24.1 3.5c4.1-2.2 6.5-6.6 7.4-10 0 0 2-10 1.5-11.2-.9-2.4-5.4 2.4-8.2.7-9.2-5.7-12.7-2.8-12.7-2.8l24.8-43.3 2-11.1-90.6-25.7-46.9 59.6z" fill="url(#paint2_linear)"/><path d="M133.6 177l-18.4 28.9 39.7 17.7s11.3-20.9 24.8-12c12.3 8-5.7 20.6-5.7 20.6l39 18.4 19.2-33.3s16.2 7.8 24 3.5c7.8-4.2 10-14.9.7-20.5-9.2-5.7-12.7-2.9-12.7-2.9l24.8-43.2-88.6-36.9-46.8 59.6z" fill="#1280FF"/><path d="M133.6 177l-18.4 28.9 39.7 17.7s11.3-20.9 24.8-12c12.3 8-5.7 20.6-5.7 20.6l39 18.4 19.2-33.3s16.2 7.8 24 3.5c7.8-4.2 10-14.9.7-20.5-9.2-5.7-12.7-2.9-12.7-2.9l24.8-43.2-88.6-36.9-46.8 59.6z" fill="url(#paint3_linear)"/><path d="M334.2 256.7l37.5-8.5s5.3 17.3 13.7 20.1c4.4 1.5 9.3.3 12.4-1.4 0 0 8.6-5.3 9.2-6.5 1.2-2.2-5.4-2.2-6-5.5-2.1-10.6-6.6-11.3-6.6-11.3l48.6-11 9.6-6-42.6-84.1-75.5 6h-24.1l-9.7 6 13.9 41.3s29.4-6.9 25.7 10c-1.9 8.5-8.5 8-9.3 3.8l-9.7 6" fill="url(#paint4_linear)"/><path d="M344.1 142.5l-33.7 6 13.9 41.3s23-5.9 25.6 10c2.4 14.5-19 9.8-19 9.8l13 41.1 37.4-8.5s5.3 17.3 13.7 20.1c8.4 2.9 17.7-2.8 15.6-13.4-2.1-10.6-6.6-11.3-6.6-11.3l48.6-11-33-90.1-75.5 6z" fill="#FA3D38"/><path d="M410.6 248.9c2 10.6-7.2 16.3-15.6 13.4-8.4-2.9-13.7-20-13.7-20l-37.5 8.4-12.9-41.1s21.4 4.7 19-9.8c-2.6-16-25.7-10-25.7-10l-13.8-41.2 33.7-6.2 39.5-3 36-3 16.7 45.4 1.4 4 6 16.4 8.9 24.4-48.6 11s4.6.7 6.6 11.3z" fill="url(#paint5_linear)"/><path d="M389.4 193.3l-5.5 8c3.6-.6 7.4.4 11-.5l4.8-2.1c4-1.8 8-3.3 12.2-4.5l17.3-5.3c3-.9 6.6-1.6 8.5.8l-4.5-19.2a5 5 0 00-1-2.4c-.7-.6-1.7-1-2.7-1-7.5-1-16.3.8-22-4.4-2.7-2.5-4.4-6.5-7.9-7.7-3-1.1-6.3.2-8.8 2.3-2.4 2-4.2 4.7-6.4 6.9-8.3 8.3-22 10.3-28.6 19.9 11.4 2.6 21.8-8.6 33.5-8.8-3.4 0-9.8 6.4-12.4 8.4-2.9 2.3-8 5.2-8.2 9.2-.6 10.7 16.5 2.3 20.7.4z" fill="url(#paint6_linear)"/><path d="M177.3 393.5l32.8 9.9 6.4-43s-29.2-7.3-18.3-20.7c11-13.4 21.4 0 21.4 0l7.2-42.6-39.7-10.3s8-14.2-.6-23.3c-6.1-6.4-17.1-5.6-20 4.9a36.5 36.5 0 00-1.3 13L119 269.2 97.5 371.5l79.8 22z" fill="#1280FF"/><path d="M177.3 393.5l32.8 9.9 6.4-43s-29.2-7.3-18.3-20.7c11-13.4 21.4 0 21.4 0l7.2-42.6-39.7-10.3s8-14.2-.6-23.3c-6.1-6.4-17.1-5.6-20 4.9a36.5 36.5 0 00-1.3 13L119 269.2 97.5 371.5l79.8 22z" fill="url(#paint7_linear)"/><path d="M112.3 373c8.2-14.8 14.7-30.8 26.5-42.9 1.7-1.7 4.5-3.4 6.3-1.8 1.6 1.3 1 3.7.4 5.6l-6 17.4 12-19.7c2-3.2 4.3-6.6 7.8-8a4.2 4.2 0 013.4 0c1.7 1 2 3.3 2 5.3a69 69 0 01-2 15.9A61.4 61.4 0 01175 330c1.8 1.3 2 3.8 2 6a75.2 75.2 0 01-5.5 22.6 39 39 0 01-5.4 11.3c-4.7 6-12.3 8.7-19.7 10.3-7.5 1.5-15.2 2.2-22 5.4-2.8 1.3-5.4 3-8.3 3.5-3.3.6-10.6-1.2-11.5-5.2-.3-2.1 6.1-8 7.7-10.9z" fill="url(#paint8_linear)"/><path d="M407.8 329.8l7.4-33.4-43.4-3.1s-5 29.7-19.2 19.8c-14.2-10-1.7-21.3-1.7-21.3l-42.9-4-7.3 40.4s-14.7-7-23.1 2.4c-6 6.6-4.3 17.5 6.3 19.5 4.3.9 8.7 1 13 .3l-8.5 47.1L392 411.1l15.8-81.3z" fill="#1280FF"/><path d="M373 316.3c-2.4-1-6-2-7 .3-.5 1.2 0 2.6.6 3.8l6.4 12.8-15.4-5.8c-1-.5-2.1-.6-3.2-.4-2.5 1-1.7 4.6-.4 7l9.4 17.3c-4.2.6-8.2-4.6-12-2.7-3 1.5-2.5 5.8-1.2 9 5.5 13.3 16.9 23.3 25 35.3 2.8 4.1 5.3 9.3 3.4 14-.8 2-2.4 4.4-.9 6 .7.6 1.6 1 2.5 1 8 1.4 16 1.7 24 .8.9-27.3 2.2-54.5 4-81.8.2-2.4.3-5-1-7-1-1.7-2.6-3-4.3-4-3.9-2.4-7.6-5-11.6-7.3-4.3-2.4-5.4-1.3-5.2 3.5-4.2 1-9.2 0-13.1-1.8z" fill="url(#paint9_linear)"/><path d="M218.5 188.9c0 2-2 3.3-4 3.2-1.8-.2-3.6-1-5.1-2.1a3726 3726 0 01-16.7-11 36 36 0 00-14.1-6.6 634.3 634.3 0 0130.2 26.5c1.2 1.1 2.5 2.7 1.7 4.2-.4.6-1.1 1.1-1.9 1.3-4.7 1.5-9.6-1.6-13.8-4.2a124 124 0 00-26.7-12.6c8.5 5.5 16.6 11.7 24 18.5 1 1 2.2 2.4 1.7 3.7-.3.5-.7 1-1.3 1.2-3.5 1.9-7.6-.5-11-2.6a185 185 0 00-44.3-20.8c-.9-.3-2.2-1-3.4-1.3-.7-.3-1.6-.3-2.4-.1l-11.2 13.3-4-9.3c-7.4-18.6-11.6-39-23.8-54.4a110.7 110.7 0 00-15-14c-11.3-9-26.3-21.7-38.4-31.6a1227.5 1227.5 0 0139.7-19.3c10.2 11.2 25 26.8 35 35.7a61.6 61.6 0 0018.2 12c2.3 1 4.6 1.6 7 2.3a134 134 0 0138.2 18.7c12.5 8.9 25.6 16.7 36.4 27.6a9.7 9.7 0 013 4.4c.5 1.7-.4 3.9-2.1 4.3-1.3.2-2.6-.6-3.7-1.3l-22.6-15c8.1 10.6 22 15.9 29.4 27 .5.7.8 1.5 1 2.3z" fill="#E5C5D5"/><path d="M529.5 85.5l-1 .8-37.4 29.8c-4 3.1-7.9 6.5-11.5 10-19.4 20.5-20.7 52.5-35.9 76.1l-6-16.4a4 4 0 00-.6-3.4c-.2-.3-.5-.5-.9-.6-1.3-.8-3.2-.4-4.8.2-15.7 5-30.6 11.9-44.3 20.8-3.4 2.1-7.6 4.4-11 2.6-.6-.3-1-.7-1.3-1.3-.6-1.2.5-2.6 1.6-3.6 7.5-6.8 15.5-13 24-18.5-9.3 3.1-18.3 7.3-26.7 12.6-4.2 2.6-9 5.6-13.8 4.1a3 3 0 01-1.8-1.2c-.8-1.5.4-3.1 1.6-4.2 9.8-9.2 20-18 30.3-26.5-5.2.7-9.8 3.7-14.1 6.5l-16.7 11c-1.6 1.1-3.3 2.2-5.2 2.2-2 .1-4-1.3-4-3.2.2-.9.5-1.7 1-2.4 7.4-11.1 21.3-16.4 29.5-27l-22.7 15c-1 .7-2.3 1.5-3.6 1.2-1.8-.4-2.6-2.5-2.2-4.2a10 10 0 013-4.4c8.6-8.6 18.6-15.3 28.6-22.2l7.8-5.4a134.2 134.2 0 0138.3-18.7c2.3-.7 4.6-1.3 6.9-2.2a61.7 61.7 0 0018.3-12.1c10-8.9 19.2-18.7 28.2-28.6 5.1 1.8 10.4 3.5 15.7 5 6.7 2 15.8 2.6 23 5.2l1.4.6 6.3 2.4z" fill="#E8D0D1"/><path d="M192.3 350.4c-3 15-9.7 28.8-15.3 43.1a133.4 133.4 0 01-21.6 36.6c-1.6 1.9-3.2 3.7-4.6 5.7a62 62 0 00-8.6 20c-2.4 8.8-5.5 24.5-8 38.8a242.4 242.4 0 01-41.7-2c4.2-10.6 8.4-21.4 11-29.5 1.7-4.8 3-9.7 4-14.7 4.3-23-6.3-45.7-10.2-68.8 0 0 8.4 3.4 13.8 2 2-.5 5-4.8 6.2-6.4 10.4-12.7 19-26.7 25.6-41.7 1.6-3.6 3.8-7.8 7.8-8.2.6 0 1.2 0 1.7.3 1.2.8 1 2.6.6 4a178 178 0 01-9.9 28.6c6.2-7.7 11.3-16.1 15.5-25.1 2-4.5 4.5-9.7 9.2-11.1a3 3 0 012.3 0c1.4.8 1.3 2.9.9 4.4-3.2 13-6.8 26-10.8 38.8 4-3.4 6.2-8.4 8.2-13.2l8-18.3c.7-1.8 1.6-3.6 3.1-4.7s4-1 5 .5c.4.8.6 1.7.5 2.6 0 13.3-8.7 25.3-9.7 38.7l10.6-25c.5-1.2 1.2-2.6 2.4-3 1.7-.7 3.6.7 4.2 2.3.4 1.8.4 3.6-.2 5.3z" fill="#E8CFD2"/><path d="M538.2 451c.2 7.6-1.5 15.8-5.7 22a22.5 22.5 0 01-9.7 8c-13.8-11-28.4-22.6-37.2-29.3-4.7-3.7-9.7-7.1-14.8-10.2-31-17.3-71-7.2-103.6-21.2-1.4-.6-3-1.5-3.1-3-.3-1.3.7-2.5 1.8-3.4 6-4.9 14.8-3.4 22.5-3 2 .2 4.5 0 5.7-1.6 1.4-2 .1-4.7-1.2-6.7a218.7 218.7 0 00-36.6-44.7c-3.5-3.2-7.3-7.3-6.2-11.9a3 3 0 011-1.8c1.3-1 3.2 0 4.6.8a213 213 0 0128.1 22.1 147 147 0 00-22-26.9c-4.3-4-9.2-8.7-9-14.6a3.6 3.6 0 011-2.5c1.5-1.3 3.7-.3 5.3.7a755.6 755.6 0 0139.1 26.9c-2.3-5.7-7-10.1-11.6-14.3l-17.4-16c-1.7-1.4-3.4-3-4-5.2-.6-2.1.3-5 2.5-5.4 1-.2 2 0 3 .4 14.9 5.2 25 19.5 39.4 25.8l-23.7-21.6c-1.2-1-2.4-2.2-2.5-3.8-.1-2.1 2.1-3.7 4.2-3.7 2.2 0 4 1 5.9 2.1 15.6 9.1 28.4 21.9 42.2 33.6 12.8 11 23.8 24 32.5 38.4 1.5 2.4 2.9 4.9 4.5 7.2 5 7.1 12 12.5 19.1 17.4 10.7 7.3 28.3 18 43 26.4 1.4 6.3 2.7 12.6 2.9 19z" fill="url(#paint10_linear)"/><path d="M134.5 185.7l-.7.7-13.6 13.1-4.1-9.3c-7.4-18.6-11.5-39-23.7-54.3l7 3.9c7.3 4 20.2 32.6 24 39a15.2 15.2 0 0011.1 6.9z" fill="url(#paint11_linear)"/><defs><linearGradient id="paint0_linear" x1="331.5" y1="266.2" x2="386.8" y2="496.4" gradientUnits="userSpaceOnUse"><stop stop-color="#010101" stop-opacity="0"/><stop offset=".9" stop-color="#010101"/></linearGradient><linearGradient id="paint1_linear" x1="33734.2" y1="36126.7" x2="20001.5" y2="73045.3" gradientUnits="userSpaceOnUse"><stop stop-color="#010101" stop-opacity="0"/><stop offset=".9" stop-color="#010101"/></linearGradient><linearGradient id="paint2_linear" x1="41407.4" y1="19100.2" x2="38418.2" y2="35361" gradientUnits="userSpaceOnUse"><stop stop-color="#010101" stop-opacity="0"/><stop offset=".9" stop-color="#010101"/></linearGradient><linearGradient id="paint3_linear" x1="164.7" y1="136.5" x2="263.8" y2="293.8" gradientUnits="userSpaceOnUse"><stop stop-color="#fff" stop-opacity="0"/><stop offset=".9" stop-color="#fff"/></linearGradient><linearGradient id="paint4_linear" x1="66542.6" y1="3261" x2="53288.3" y2="11709.7" gradientUnits="userSpaceOnUse"><stop stop-color="#010101" stop-opacity="0"/><stop offset=".9" stop-color="#010101"/></linearGradient><linearGradient id="paint5_linear" x1="52118.3" y1="37327.2" x2="101244" y2="-33351" gradientUnits="userSpaceOnUse"><stop stop-color="#010101" stop-opacity="0"/><stop offset=".9" stop-color="#010101"/></linearGradient><linearGradient id="paint6_linear" x1="37791.1" y1="10789" x2="37607" y2="-1031.7" gradientUnits="userSpaceOnUse"><stop stop-color="#010101" stop-opacity="0"/><stop offset=".9" stop-color="#010101"/></linearGradient><linearGradient id="paint7_linear" x1="29587.3" y1="44103.8" x2="13122.3" y2="134907" gradientUnits="userSpaceOnUse"><stop stop-color="#010101" stop-opacity="0"/><stop offset=".9" stop-color="#010101"/></linearGradient><linearGradient id="paint8_linear" x1="14555.2" y1="21530.2" x2="14724.9" y2="35509.8" gradientUnits="userSpaceOnUse"><stop stop-color="#010101" stop-opacity="0"/><stop offset=".9" stop-color="#010101"/></linearGradient><linearGradient id="paint9_linear" x1="23617.7" y1="34899.5" x2="39251.8" y2="40696.9" gradientUnits="userSpaceOnUse"><stop stop-color="#010101" stop-opacity="0"/><stop offset=".9" stop-color="#010101"/></linearGradient><linearGradient id="paint10_linear" x1="460.1" y1="323.5" x2="411.1" y2="551.5" gradientUnits="userSpaceOnUse"><stop stop-color="#E5C6D6"/><stop offset=".4" stop-color="#EAD4D0"/><stop offset="1" stop-color="#F0E9CB"/></linearGradient><linearGradient id="paint11_linear" x1="7845.8" y1="10977.4" x2="4409" y2="11659.6" gradientUnits="userSpaceOnUse"><stop stop-color="#010101" stop-opacity="0"/><stop offset=".9" stop-color="#010101"/></linearGradient></defs></svg>