<svg data-name="Layer 1" xmlns="http://www.w3.org/2000/svg" xmlns:xlink="http://www.w3.org/1999/xlink" width="635.4" height="597"><defs><linearGradient id="d" x1="95.1" y1="375.4" x2="729" y2="375.4" gradientTransform="translate(-95.1 -170)" gradientUnits="userSpaceOnUse"><stop offset="0" stop-color="#68e1fd"/><stop offset="1" stop-color="#69b9eb"/></linearGradient><linearGradient id="c" x1="4.7" y1="290.9" x2="969.3" y2="487.8" gradientTransform="translate(-95.1 -170)" gradientUnits="userSpaceOnUse"><stop offset="0" stop-color="#fff" stop-opacity="0"/><stop offset="1" stop-color="#fff"/></linearGradient><linearGradient id="a" x1="41" y1="226.9" x2="1173.8" y2="204" gradientTransform="translate(-95.1 -170)" gradientUnits="userSpaceOnUse"><stop offset="0" stop-opacity="0"/><stop offset=".9" stop-opacity=".8"/><stop offset="1"/></linearGradient><linearGradient id="e" x1="313.9" y1="340" x2="117.3" y2="414.2" gradientTransform="translate(0 -170)" xlink:href="#a"/><linearGradient id="f" x1="353.3" y1="120.4" x2="322.9" y2="380.3" xlink:href="#a"/><linearGradient id="g" x1="299.9" y1="340.4" x2="402.5" y2="340.7" gradientTransform="translate(0 -170)" xlink:href="#a"/><linearGradient id="h" x1="329.5" y1="117.6" x2="299.1" y2="377.5" xlink:href="#a"/><linearGradient id="i" x1="333" y1="418.7" x2="366.5" y2="329" gradientTransform="translate(0 -170)" xlink:href="#a"/><linearGradient id="j" x1="383.6" y1="410.5" x2="358.2" y2="321.7" gradientTransform="translate(0 -170)" xlink:href="#a"/><linearGradient id="k" x1="371.6" y1="340.2" x2="244.5" y2="521.3" gradientTransform="translate(0 -170)" xlink:href="#a"/><linearGradient id="l" x1="385.5" y1="350" x2="258.4" y2="531" gradientTransform="translate(0 -170)" xlink:href="#a"/><linearGradient id="m" x1="520.3" y1="443.9" x2="770.9" y2="679.9" gradientTransform="translate(-95.1 -170)" gradientUnits="userSpaceOnUse"><stop offset="0" stop-opacity="0"/><stop offset="0" stop-color="#030304" stop-opacity="0"/><stop offset=".2" stop-color="#181821" stop-opacity=".4"/><stop offset=".3" stop-color="#292839" stop-opacity=".7"/><stop offset=".5" stop-color="#363449" stop-opacity=".8"/><stop offset=".7" stop-color="#3d3b53"/><stop offset="1" stop-color="#3f3d56"/></linearGradient><linearGradient id="n" x1="643.4" y1="504.7" x2="429.6" y2="567.8" xlink:href="#a"/><linearGradient id="b" x1="477.5" y1="483.1" x2="508" y2="483.1" gradientTransform="translate(-95.1 -170)" gradientUnits="userSpaceOnUse"><stop offset="0" stop-color="#ecc4d7"/><stop offset=".4" stop-color="#efd4d1"/><stop offset="1" stop-color="#f2eac9"/></linearGradient><linearGradient id="o" x1="492.3" y1="411.8" x2="492.8" y2="398.8" xlink:href="#a"/><linearGradient id="p" x1="486.4" y1="446.3" x2="513.6" y2="445.8" gradientTransform="translate(0 -170)" xlink:href="#b"/><linearGradient id="q" x1="583.1" y1="441.9" x2="577.5" y2="444.9" xlink:href="#b"/><linearGradient id="r" x1="595.8" y1="503.3" x2="525" y2="475.6" xlink:href="#c"/><linearGradient id="s" x1="470.8" y1="26.1" x2="474.9" y2="7.9" gradientTransform="matrix(1 0 0 -1 0 598)" xlink:href="#a"/><linearGradient id="t" x1="502.1" y1="21.2" x2="505.3" y2="2.2" gradientTransform="matrix(1 0 0 -1 0 598)" xlink:href="#a"/></defs><path d="M372.3 589.5A61 61 0 00393 593q88.1 4.3 176.3 4.1c5.9 0 12 0 17.4-2.1s10.5-6.5 11.5-12.3c-36.8-2.9-74-2.6-110.6-4-19.3-.7-39.2 1.7-58.4 3.6q-14.5 1.4-29 3.2c-6.1.8-22.4 6.4-27.8 4.1z" fill="#1d2741" opacity=".2" style="isolation:isolate"/><path d="M487.4 571.5l4.5 11-18.3 8.7-16.9 1.3s-2.9-11.2 5-12.1a27.2 27.2 0 0012.8-5zM501.9 576.5a13.7 13.7 0 00-8.4 11.3l-.5 4.7h20.8v-16z" fill="#1280ff"/><path d="M633.9 66.5v277.8a30.8 30.8 0 01-30.8 30.8H30.8A30.8 30.8 0 010 344.3V66.5a30.8 30.8 0 0130.8-30.8H603A30.8 30.8 0 01634 66.5z" opacity=".2" fill="url(#d)" style="isolation:isolate"/><path d="M635.4 65.4v277.9a30.7 30.7 0 01-30.6 30.8H32.3a30.8 30.8 0 01-30.8-30.8V65.4a30.8 30.8 0 0130.8-30.8h572.3a30.8 30.8 0 0130.5 26.9 29.3 29.3 0 01.3 4z" fill="#1280ff"/><path d="M635.4 65.4v277.9a30.7 30.7 0 01-30.6 30.8H32.3a30.8 30.8 0 01-30.8-30.8V65.4a30.8 30.8 0 0130.8-30.8h572.3a30.8 30.8 0 0130.5 26.9 29.3 29.3 0 01.3 4z" fill="url(#c)"/><path d="M633.7 62.5H.3a30.8 30.8 0 0130.5-26.8H603a30.8 30.8 0 0130.6 26.8z" fill="url(#a)"/><rect x="191.5" y="279" width="230.1" height="28.9" rx="7.9" fill="#fff" stroke="#a0a0a0" stroke-miterlimit="10" stroke-width=".9"/><circle cx="210.3" cy="293.8" r="6.3" fill="#1280ff"/><circle cx="229.8" cy="293.8" r="6.3" fill="#1280ff"/><circle cx="249.4" cy="293.8" r="6.3" fill="#1280ff"/><circle cx="269" cy="293.8" r="6.3" fill="#1280ff"/><path d="M437.1 292.1v-3.3h2.7v-2.1H437V285h2.7v-2.2h-5.3v9.2a6.6 6.6 0 102.6 0zm-1.3 11a4.6 4.6 0 114.6-4.6 4.6 4.6 0 01-4.6 4.6z" fill="#1280ff"/><rect x="268.3" y="125.8" width="89.1" height="89.1" rx="11.8" fill="url(#e)"/><rect x="273.7" y="125.8" width="83.7" height="89.1" rx="11.4" fill="#1280ff"/><path d="M360.8 170.7l-4.6 4.4-2 1.8a15.5 15.5 0 00-13-5.5 5.7 5.7 0 01-3-.5c-3.4-1.9 1.8-8.3 1.8-8.3a28 28 0 013.4.2h1.3c4.3.7 11.3 2.8 16.1 7.9z" fill="#fff"/><path d="M356 174.7l.2.4-2 1.8a15.5 15.5 0 00-13-5.5 5.7 5.7 0 01-3-.5l1.8-8.3 3.4.2h.3a6.8 6.8 0 011 0s1 4.8.2 6.7c0 0 7.7 1.3 11.2 5.2z" opacity=".3" fill="url(#f)"/><rect x="306.8" y="144.6" width="12.1" height="51.6" rx="4.5" fill="url(#g)"/><path d="M341.2 169.7a20.5 20.5 0 01-20.4 20.3h-4.5a3.6 3.6 0 01-1.6-6.8 3.7 3.7 0 011.6-.3h1.7a13.3 13.3 0 0013.3-13.4v-.3a13.5 13.5 0 00-13.6-13h-2a3 3 0 01-2.9-3V152a3 3 0 013-3h4.6c11.3 0 20.9 9.3 20.8 20.7z" fill="#fff"/><path d="M335.8 170.5a17.8 17.8 0 01-17.8 17.7h-3.8a3 3 0 01-1-.2 3.5 3.5 0 011.6-4.7 3.7 3.7 0 011.6-.4h1.6a13.3 13.3 0 0013.3-13.4v-.2a13.5 13.5 0 00-13.6-13.1h-2a3 3 0 01-2.9-3v-.5a2.7 2.7 0 01.8-.1h4a18 18 0 0118.2 18z" opacity=".3" fill="url(#h)"/><path d="M330.7 165.5s1.3 3.6-.3 9c0 0-6.4 6.5-1 16.9l4.5 4.8-5.2 5a23 23 0 01-8.7-21.5c1.2-8.8 10.7-14.2 10.7-14.2z" fill="#fff"/><path fill="#1280ff" d="M324.3 205.4l41-39 34.6 29.8-42.5 40.7-33.1-31.5z"/><path fill="#1280ff" d="M324.3 205.4l2.7 15.5 30.4 29.1V237l-33.1-31.5zM399.9 196.2v14.2L357.4 250V237l42.5-40.7z"/><path fill="url(#i)" d="M324.3 205.4l2.7 15.5 30.4 29.1V237l-33.1-31.5z"/><path fill="url(#j)" d="M399.9 196.2v14.2L357.4 250V237l42.5-40.7z"/><path fill="url(#k)" d="M331.9 212.6l41.4-39.3 3.9 3.3-41.4 39.7-4-3.7z"/><path fill="url(#l)" d="M344.1 224l42.5-39.3 3.8 3.3-42.4 39.7-3.9-3.7z"/><path d="M462.6 262.7a76.3 76.3 0 001 18.5c.7 3.8 1.6 8-.3 11.2-1 1.8-2.9 3.1-4.5 4.4-10.2 8.4-16 20.9-24.8 30.8a4.4 4.4 0 01-2.4 1.7 4.3 4.3 0 01-2.8-.8 37 37 0 01-13-12.6c-1.6-2.6-3-5.5-5.7-6.8-5-2.5-11 2.8-11.6 8.3s2.4 10.9 5.3 15.7l13.4 22.1c4 6.8 8.4 13.8 15 18a36.3 36.3 0 0015.1 5.1c7.6 1 15.3.5 23 0q20.8-1.7 41.7-4.2c4.7-.6 10.1-1.6 12.5-5.8 1.7-2.7 1.4-6.2 1.2-9.4l-3-34.7c-.6-6.6-1.4-13.8-6-18.4-2.8-2.8-6.7-4.4-9.1-7.5a18.6 18.6 0 01-3.3-8.3c-2.4-12.5-.1-26-5-37.7-1-2.4-2.4-4.7-4.6-6a12.2 12.2 0 00-6.6-1.4c-11 .3-24.7 5.5-25.5 17.8z" opacity=".2" fill="url(#m)" style="isolation:isolate"/><path d="M611.4 439.2c-6 68.4-194 46.5-329.1 18.8S35.5 485.7 9.8 439.2C-1.6 418.7 6 393 18.1 370.7a30.5 30.5 0 0015 4h567.2a134.8 134.8 0 0111 64.5z" fill="#1280ff" opacity=".2" style="isolation:isolate"/><path d="M463.7 410.8l-12.3 89.7a23.9 23.9 0 001.1 11.2l22 64.8 12.9-4-9.7-64.5a9.2 9.2 0 01.3-4l16.6-57.6 7.3 130h11.9L524 448a76.3 76.3 0 00-2.9-37.3z" fill="#3f3d56"/><path d="M526.8 387l-12.2-78.4-1.7-9.5s22.7 13 29.3 35.7c8.5 29.9-15.4 52.3-15.4 52.3z" fill="#1280ff"/><path d="M526.8 387l-12.2-78.4-1.7-9.5s22.7 13 29.3 35.7c8.5 29.9-15.4 52.3-15.4 52.3z" fill="url(#n)"/><path d="M539.3 368.8c9.2-18.2-9-50-9-50l-15.7-10.2 1.7-11.3s25.4 2.6 27.8 38.3c.9 11.6 0 25.8-4.8 33.2z" fill="#1280ff"/><path d="M408.8 307.6c-.8-3-2.3-6.3-5.3-6.6a12 12 0 01-.3 8c-6.6-2.4-8.1-12-14.6-14.5-1 1-.5 2.8.2 4.1l3.4 7.4a95.1 95.1 0 00-4.9-7c-.5-.7-1.4-1.4-2.1-1s-.5 1.4-.2 2.1c1.1 3.2 2.4 6.3 3.9 9.4a54 54 0 00-5.5-7.6c-1.4.3-1 2.3-.5 3.6l4.3 9.1-3.5-5c-1 .1-.9 1.8-.4 2.8a42.7 42.7 0 0020.5 18.4c1.8.8 3.8 1.4 5.6.6 7.4-3.4.9-18.9-.6-23.8z" fill="url(#b)"/><path d="M526.8 331.8v61.6c0 7.5-1.2 13.6-8.8 13.6h-52.7c-7.5 0-7.8-6-7.9-13.6l-.4-41.8S445.6 372 436.5 370s-36-39-36-39l13.5-11.3 22.6 22.6s3.6-8.2 8.9-26.7 22.4-18.5 22.4-18.5h45.8c16.6 0 13 34.8 13 34.8z" fill="#1280ff"/><path d="M526.8 338.8s7.9 11.1 0 22.2z" fill="#3f3d56"/><path fill="#1280ff" d="M463.7 406.6h57.4v4.2h-57.4z"/><path fill="url(#o)" d="M463.7 406.6h57.4v4.2h-57.4z"/><path fill="url(#p)" d="M483.2 255.2h16.6v42.1h-16.6z"/><path d="M499.8 250.5v46.8h-8.7v-2.9a6.3 6.3 0 00-6.3-6.3h-.5a15.7 15.7 0 01-15.7-15.7v-21.9z" fill="url(#q)"/><path d="M468.6 255.2s-14.5-8-9.4-16.6 13.7-3.2 13.7-3.2h28s3.2-.5 4.5 5-5.5 39.1-5.5 39.1H486l-1.8-8.8s2.8-3 2.5-6.1a2.6 2.6 0 00-4.9-1.3c-1.3 2.2-.8-7.2-5.2-8.1a17.9 17.9 0 00-8 0z" fill="#3f3d56"/><path d="M496.1 297.2s-6.4 8.4-15.3 8.4-34.9 25.5-36.6 33.2-7.6 3.4-7.6 3.4 3.6-8.2 8.9-26.7 22.4-18.5 22.4-18.5h23.3z" fill="url(#r)"/><path d="M487.4 571.5l4.5 11-18.3 8.7-16.9 1.3s-2.9-11.2 5-12.1a27.2 27.2 0 0012.8-5z" fill="url(#s)"/><path d="M501.9 576.5a13.7 13.7 0 00-8.4 11.3l-.5 4.7h20.8v-16z" fill="url(#t)"/><path d="M120.1 36.2s128.4-81.4 292.8 0z" fill="#1280ff" opacity=".2" style="isolation:isolate"/></svg>