<svg data-name="Layer 1" xmlns="http://www.w3.org/2000/svg" xmlns:xlink="http://www.w3.org/1999/xlink" viewBox="0 0 509.1 400.2"><defs><linearGradient id="a" x1="90.8" y1="141.9" x2="173.9" y2="141.9" gradientUnits="userSpaceOnUse"><stop offset="0" stop-color="#010101" stop-opacity="0"/><stop offset=".9" stop-color="#010101"/></linearGradient><linearGradient id="c" x1="262.5" y1="174" x2="251.5" y2="676.5" xlink:href="#a"/><linearGradient id="d" x1="307.7" y1="242.7" x2="462.6" y2="271" gradientTransform="rotate(-11.5 290.3 239.5)" xlink:href="#a"/><linearGradient id="e" x1="330.6" y1="149.7" x2="287.2" y2="171.3" gradientTransform="rotate(-11.5 304.9 159.6)" xlink:href="#a"/><linearGradient id="f" x1="246.1" y1="413.2" x2="309.3" y2="111.1" gradientUnits="userSpaceOnUse"><stop offset="0" stop-color="#fff" stop-opacity="0"/><stop offset=".9" stop-color="#fff"/></linearGradient><linearGradient id="g" x1="308.3" y1="281.4" x2="331.4" y2="281.4" xlink:href="#a"/><linearGradient id="b" x1="317.8" y1="281" x2="367.6" y2="281" gradientUnits="userSpaceOnUse"><stop offset="0" stop-color="#e5c6d6"/><stop offset=".4" stop-color="#ead4d0"/><stop offset="1" stop-color="#f0e9cb"/></linearGradient><linearGradient id="h" x1="119.5" y1="96.9" x2="159.5" y2="182" xlink:href="#a"/><linearGradient id="i" x1="147.4" y1="298.2" x2="232.3" y2="298.2" xlink:href="#b"/><linearGradient id="j" x1="332.4" y1="261.4" x2="366.5" y2="246.1" xlink:href="#a"/><linearGradient id="k" x1="343.2" y1="251.1" x2="252.7" y2="284.8" xlink:href="#a"/><linearGradient id="l" x1="234.5" y1="573.2" x2="259.6" y2="561.9" gradientTransform="translate(110.3 -286.3)" xlink:href="#a"/><linearGradient id="m" x1="331.3" y1="243.3" x2="353.1" y2="246.5" xlink:href="#b"/><linearGradient id="n" x1="352.4" y1="295.9" x2="343.1" y2="275.7" xlink:href="#a"/><linearGradient id="o" x1="92" y1="226.3" x2="91.1" y2="174.7" xlink:href="#a"/><linearGradient id="p" x1="144.4" y1="136.9" x2="152.3" y2="144.8" xlink:href="#a"/><linearGradient id="q" x1="123.8" y1="124.9" x2="141.4" y2="124.9" xlink:href="#a"/><linearGradient id="r" x1="218.3" y1="66.1" x2="301.4" y2="66.1" gradientTransform="rotate(31.4 242.6 67)" xlink:href="#a"/><linearGradient id="s" x1="247" y1="21.1" x2="287" y2="106.2" gradientTransform="rotate(31.4 242.6 67)" xlink:href="#a"/><linearGradient id="t" x1="271.9" y1="61.1" x2="279.8" y2="69" gradientTransform="rotate(31.4 242.6 67)" xlink:href="#a"/><linearGradient id="u" x1="251.3" y1="49" x2="268.9" y2="49" gradientTransform="rotate(31.4 242.6 67)" xlink:href="#a"/><linearGradient id="v" x1="453.5" y1="108.6" x2="536.5" y2="108.6" gradientTransform="rotate(-65 539 185.8)" xlink:href="#a"/><linearGradient id="w" x1="482.1" y1="63.5" x2="522.1" y2="148.6" gradientTransform="rotate(-65 539 185.8)" xlink:href="#a"/><linearGradient id="x" x1="507.1" y1="103.6" x2="514.9" y2="111.5" gradientTransform="rotate(-65 539 185.8)" xlink:href="#a"/><linearGradient id="y" x1="486.5" y1="91.5" x2="504" y2="91.5" gradientTransform="rotate(-65 539 185.8)" xlink:href="#a"/></defs><path d="M508.6 252c-1.7 26-8.4 53.6-28 70.9-16.6 14.7-39.6 19.3-59.4 29.4-18 9.2-34.2 23.2-51.5 33.7l-5.6 3.3a80 80 0 01-33 10.7 77.4 77.4 0 01-15.4-.4l-2.4-.4c-6.2-.9-12.3-2.2-18.4-3.4a786.4 786.4 0 00-85.7-12.7l-9.3-.9-3.9-.3c-14.7-1.1-30.4-.6-45.8-1.8l-5.7-.5a113.9 113.9 0 01-21.2-4c-40-12-75-61-96.4-94C7.5 251.8-7.4 215 3.9 181.3c8.6-25.5 30.4-43.8 48.2-64 28-31.6 48.6-71 84-93.9C181.4-5.6 239.6-1.5 293 3.8c21.5 2 43.6 4.4 62.1 15.4 21.4 12.7 34.8 35 50.7 54.2 32.2 38.5 78.1 67.7 95.4 114.8 7.5 20.3 8.9 42.3 7.5 63.8z" fill="#1280ff" opacity=".2" style="isolation:isolate"/><path d="M465.7 273.3c-1.4 21-6.8 43.2-22.6 57.2-13.4 11.8-32 15.5-48 23.6-14.5 7.5-27.6 18.8-41.5 27.3-1.5 1-3 1.8-4.5 2.6-8.3 4.6-17 8-26.7 8.7a62.1 62.1 0 01-12.3-.4c-.7 0-1.3-.1-2-.3-5-.7-10-1.7-14.9-2.7a637.4 637.4 0 00-69-10.3l-7.6-.7-3.1-.2c-12-1-24.6-.6-37-1.5l-4.5-.4a92.6 92.6 0 01-17.2-3.2c-32.2-9.7-60.5-49.3-77.8-75.9-15.6-24-27.7-53.7-18.6-80.9 7-20.6 24.5-35.3 39-51.6 22.5-25.5 39.2-57.2 67.8-75.7 36.4-23.5 83.3-20.1 126.5-15.9 17.2 1.7 35.1 3.6 50 12.5 17.3 10.2 28.1 28.2 41 43.7 25.9 31 63 54.7 77 92.6 6 16.3 7 34.1 6 51.5z" fill="#1280ff" opacity=".2" style="isolation:isolate"/><path d="M88 113s1 6.6 2.2 8.7 13.7 22.3 15.5 22.6 64.2-31 64.2-31l1.2-4.5z" fill="#1280ff"/><path d="M90.8 128.3s1 6.7 2 8.8 13.8 22.3 15.6 22.5 64.2-30.8 64.2-30.8l1.3-4.6z" transform="translate(-2.7 -15.4)" opacity=".3" fill="url(#a)"/><path d="M61.3 203.5s4.8-8.8 6.7-11.3 31.7-15.4 31.7-15.4-11.2 13-13.3 14l-25.1 12.7z" fill="#1280ff"/><path d="M372.5 304.3c-1.9 7.4-1 17.5-1 17.5l1 79.6-5.6 3.3a80 80 0 01-33.1 10.7 80.4 80.4 0 01-17.7-.8v-67a14.7 14.7 0 00-11.4-14.3c-22-5-68-15.3-71.8-15-5 .5-13.4 12-18.5 18.5s-3.4 11.8-3.4 11.8l1 49.9-9.3-.9-3.9-.3c-14.8-1.1-30.5-.7-45.8-1.8l-3.5-38.6 2-14.2s-.1-18.1-2.5-25.5-.9-10.6-.9-15.6 43.8-21.2 43.8-21.2l-3.3-13.4s-34.5 9.2-40 8.3-2.4-9.7-2.4-9.7l52.6-49.7 11 39.6s-4.1 18 1.4 26.7 12.9 2.3 15.2-.4 10-7.3 10-7.3l26.4-93.7 86.1-3.7c13.3-.5 16.2 9.7 16.7 11.6s-7.9 27.6-9.7 42.4 6 18 6 18c19.3 18.3 12.4 47.8 10.6 55.2z" transform="translate(-2.7 -15.4)" opacity=".3" fill="url(#c)"/><rect x="233" y="157.8" width="114.9" height="163.6" rx="9.9" transform="rotate(11.5 365.4 218.2)" fill="#1280ff"/><rect x="233" y="157.8" width="114.9" height="163.6" rx="9.9" transform="rotate(11.5 365.4 218.2)" fill="url(#d)"/><rect x="230.7" y="156.4" width="114.9" height="163.6" rx="9.9" transform="rotate(11.5 363 216.8)" fill="#1280ff"/><path d="M293.2 133.8l21.6 4.4a12.5 12.5 0 019.8 14.8l-.8 4.2-46.3-9.4.8-4.2a12.5 12.5 0 0114.9-9.8z" fill="#1280ff"/><path d="M294 151.2h22.1a12.5 12.5 0 0112.6 12.5v4.3h-47.3v-4.3a12.5 12.5 0 0112.6-12.5z" transform="rotate(11.5 380 138.3)" fill="url(#e)"/><path fill="url(#f)" d="M316.6 303.6L225.4 285 255 143.2l91.2 18.5-29.6 141.9z"/><path d="M291.4 133.4l21.7 4.4a12.5 12.5 0 019.8 14.8l-.9 4.3-46.3-9.4 1-4.3a12.5 12.5 0 0114.7-9.8z" fill="#fff"/><path d="M340.8 173.6l-83.3-17 1.3-6.2 83.3 17zm-81.4-18.2l80.2 16.3.7-3-80.2-16.4zM331.7 218.4l-83.3-16.9L256 164l83.3 17zm-81.4-18.2l80.1 16.3 7-34.2-80.1-16.4z" fill="#1280ff"/><path d="M337 192.4l-83.3-17 2.3-11.3 83.3 16.9zm-81.4-18.2l80.2 16.3 1.6-8.2-80.1-16.4z" fill="#1280ff"/><path d="M285 208.2l-19.6-4 7.5-36.8 19.5 4zm-17.7-4.2l16.4 3.3 6.8-34.6-16.3-3.3zM317.7 214.8l-19.5-4 7.5-36.7 19.5 4zm-17.6-5.2l16.3 3.3 6.9-33.5-16.4-3.4zM325.7 239.5l-82.3-16.8 1.7-8.6 82.3 16.7zm-80.4-18l79.1 16.1 1.2-5.5-79.2-16zM326.5 251.2l-88-17.9 1.3-7 88 18zm-86.2-19.1l84.9 17.2.7-3.8-84.9-17.2zM254.8 245.6l-17.5-3.6 1.1-5.5L256 240zm-15.7-4.8l14.4 3 .5-2.4-14.4-3zM257.7 244l59.8 12.1-.2 1-59.8-12.3zM253 254.1l-17.5-3.5 1.1-5.6 17.6 3.6zm-15.6-4.8l14.4 3 .5-2.4-14.4-3zM256 252.6l59.8 12.1-.2 1-59.8-12.3zM251.3 262.7l-17.5-3.6 1-5.5 17.6 3.6zm-15.6-4.8l14.4 2.9.4-2.4-14.4-2.9zM254.3 261l59.8 12.2-.2 1-59.8-12.3z" fill="#1280ff"/><path d="M317.4 243.3c-.7 3.6-4.4 5.6-6 8.9a15.9 15.9 0 00-1 6l-2 45.8c-.2 5.2-.4 10.6 1.3 15.6s6 9.3 11.1 9.8a7.7 7.7 0 004.7-1c3-1.9 3.8-6 4.1-9.5 2.2-23.1 2-46.4 1.2-69.6a21.7 21.7 0 00-.8-6.3c-1.1-3.3-5.1-8.3-8.6-9.4-6-2-3.4 6.6-4 9.7z" transform="translate(-2.7 -15.4)" opacity=".3" fill="url(#g)"/><rect x="133.1" y="172.4" width="72" height="92" rx="7.3" transform="rotate(-11 88 225)" fill="#1280ff"/><rect x="124" y="167.6" width="76.1" height="36.1" rx="5.9" transform="rotate(-11 81 192.2)" fill="#1280ff"/><rect x="128.1" y="173.8" width="67.6" height="20" rx="3.9" transform="rotate(-11 80.7 190.4)" fill="#fff"/><rect x="137.8" y="212.1" width="14.3" height="10.7" rx="2" transform="rotate(-11 63.8 224)" fill="#fff"/><rect x="153.5" y="209.1" width="14.3" height="10.7" rx="2" transform="rotate(-11 79.5 221)" fill="#fff"/><rect x="169.2" y="206" width="14.3" height="10.7" rx="2" transform="rotate(-11 95.2 218)" fill="#fff"/><rect x="140.2" y="224.5" width="14.3" height="10.7" rx="2" transform="rotate(-11 66.2 236.3)" fill="#fff"/><rect x="155.9" y="221.4" width="14.3" height="10.7" rx="2" transform="rotate(-11 81.9 233.3)" fill="#fff"/><rect x="171.6" y="218.4" width="14.3" height="10.7" rx="2" transform="rotate(-11 97.6 230.3)" fill="#fff"/><rect x="142.6" y="236.8" width="14.3" height="10.7" rx="2" transform="rotate(-11 68.6 248.7)" fill="#fff"/><rect x="158.3" y="233.8" width="14.3" height="10.7" rx="2" transform="rotate(-11 84.3 245.6)" fill="#fff"/><rect x="174" y="230.7" width="14.3" height="10.7" rx="2" transform="rotate(-11 100 242.6)" fill="#fff"/><rect x="145" y="249.2" width="14.3" height="10.7" rx="2" transform="rotate(-11 71 261)" fill="#fff"/><rect x="160.7" y="246.1" width="14.3" height="10.7" rx="2" transform="rotate(-11 86.7 258)" fill="#fff"/><rect x="176.4" y="243.1" width="14.3" height="10.7" rx="2" transform="rotate(-11 102.4 255)" fill="#fff"/><rect x="185.2" y="202.9" width="14.3" height="8.2" rx="2" transform="rotate(-11 111.1 213.5)" fill="#fff"/><rect x="186.9" y="211.6" width="14.3" height="8.3" rx="2" transform="rotate(-11 112.9 222.2)" fill="#fff"/><rect x="188.7" y="220.5" width="14.3" height="8.3" rx="2" transform="rotate(-11 114.6 231.2)" fill="#fff"/><rect x="190.4" y="229.5" width="14.3" height="8.3" rx="2" transform="rotate(-11 116.3 240.2)" fill="#fff"/><rect x="192.6" y="238.9" width="14.3" height="11.8" rx="2" transform="rotate(-11 118.5 251.3)" fill="#fff"/><path d="M322.7 240.8c.4 2.6 2.7 4.3 4.9 5.5 5.5 3 11.9 4.7 16 9.6A17.2 17.2 0 01346 274c-.5 1-1.2 2-2.2 2a3.5 3.5 0 01-2.3-1 35.1 35.1 0 01-12.1-19.5c-.5-2.2-.9-4.5-2.2-6.2-2.3-2.8-6.5-2.8-9-.5s8.4 53.2 7 70c0 1.6-.2 3.3.6 4.8a5.8 5.8 0 001.5 1.6c4.5 3.7 10.8 3.5 15.7 1.2s9-6.5 12.6-10.7a57.6 57.6 0 007-9.1c5.7-9.9 6-22.6 3.4-34.2a60 60 0 00-11.8-25.2 39.3 39.3 0 00-17.5-12.4c-4.3-1.5-15.3-1.9-14 6z" transform="translate(-2.7 -15.4)" fill="url(#b)"/><path fill="#fff" d="M321.2 304.4h39.1v7.7h-39.1z"/><path d="M364.1 312l5.6 74c-10.3 5.7-26.7 13.2-38.7 14a77.4 77.4 0 01-15.3-.5V312z" fill="#1280ff"/><circle cx="384.6" cy="184.6" r="14.1" fill="#1280ff"/><circle cx="380.1" cy="152.9" r="14.1" fill="#1280ff"/><path d="M156 80.5a113.4 113.4 0 0115.2 28.3c-16.3 8.3-45.3 22.1-61.7 30a5.3 5.3 0 01-3.3.7c-1.3-.2-2.2-1.4-3-2.5q-6.6-9.4-12.6-19.3c-2.5-4-4.2-5 0-7.8 3.2-2 6.7-3.8 10-5.6A431 431 0 01156 80.5z" fill="#1280ff"/><path d="M97.3 130.6s3-3 3.4-5.9l50.2-23.1s6.2 2.9 8.8 1.9l8 15s-1.7 3.5-1.7 5.6l-49.7 24.4s-5.6-.6-8.5-.2z" transform="translate(-2.7 -15.4)" opacity=".3" fill="url(#h)"/><path d="M149.6 122.7a1.8 1.8 0 01-1 1 38.7 38.7 0 01-7.4 3.1 5.5 5.5 0 01-2.2.3 1 1 0 01-.3 0c-1.5-.5-2.4-2-3-3.5l-10.5-22.1-1.5-2.7-.1-.3a22.7 22.7 0 01-2-4.3.6.6 0 01-.1-.3.6.6 0 01-.1-.2 2.4 2.4 0 010-1.7c.7-1.6 8-3.3 9.7-3.9a3.3 3.3 0 011.6-.2 2.9 2.9 0 011.6 1c2.9 3 4.5 7 6 10.7l9 22a1.8 1.8 0 01.3 1z" fill="#fff"/><path d="M68.1 198.9c-4 1.9-8.7 4.4-9.5 8.8 4.5-1.4 9 2.5 12.1 6l9.6 10.5a3.4 3.4 0 001.4 1.1 3.5 3.5 0 002.3-.3q15-6.2 29.8-13c1.2-.5 2.7-1.3 3-2.6a4.8 4.8 0 00-.5-3c-2.8-7.4-7.6-33.2-18.2-29.1-4.4 1.6-8 8-11.5 10.8A82 82 0 0168.1 199zM439 290a144.8 144.8 0 00-42.6-19.1c-1-.3-2.2-.5-3 .1a3.5 3.5 0 00-1 2.3l-4 29a4.4 4.4 0 000 2.6c.7 1.2 2.3 1.6 3.7 1.8a58.4 58.4 0 0129.8 15.8c3 3 7 6.6 10.8 4.8 3-1.4 3.8-5.3 4.1-8.6l2.5-27" fill="#1280ff"/><path d="M216.5 281.4c3.1-4.5 8-9 13.3-7.9a3.2 3.2 0 012.2 1.3c.7 1.1.1 2.6-.5 3.8L221 300.8a59 59 0 01-3.9 7.1c-6 9.2-17 14.7-21.6 24.7-2.8 6.3-3.2 14.3-8.8 18.4-3 2.2-7 2.7-10.7 2.7a66.9 66.9 0 01-9.4-.5 12.8 12.8 0 01-5.1-1.5 10 10 0 01-4.1-6.5 52.8 52.8 0 01-.7-7.8c-.9-13.8-8.3-26.6-9.1-40.5-.4-5.1 1-11.3 5.6-13.3 1.7-.7 3.6-.8 5.1-1.6 2-1 3.3-3.2 5.4-3.7s4.6.5 6.6-.5c1.7-1 2.4-3.2 4.1-4.2 1.9-1 4.2-.2 6.4-.2 5.3 0 9.4-4.8 11-9.7s1.8-10.4 3.3-15.5c.8-2.7 2.7-5.7 5.6-5.6 2 0 3.7 2 4.2 4a15.3 15.3 0 010 6 259.6 259.6 0 00-2.4 31.3c0 3.9.1 10.6 5.4 7.5 3.8-2.2 6.2-6.5 8.7-10z" transform="translate(-2.7 -15.4)" fill="url(#i)"/><path fill="#fff" d="M148.7 327.3h47v8.7h-47z"/><path d="M200 335v47.2c-1.4 0-2.7-.2-4-.3-16.6-1.3-34.4-.5-51.4-2.3V335zM320.7 215.8a2 2 0 00-1-.4 1.8 1.8 0 00-1.4 1.1c-1.5 2.8-.3 6.2 1 9.2l10.3 24.3c3.3 7.7 6.6 15.5 11.4 22.3a4.6 4.6 0 002.8 2.2 3.2 3.2 0 002.2-.6c2-1.3 2.8-4 2.7-6.4a22.8 22.8 0 00-2-6.9c-3.2-8-6.4-15-10.3-22.5-4.1-8-7.5-17.4-15.7-22.3z" fill="#1280ff"/><path d="M323.5 231.2a2 2 0 00-1.2-.4 1.8 1.8 0 00-1.3 1c-1.5 2.9-.2 6.3 1 9.2l10.3 24.4c3.3 7.7 6.6 15.4 11.5 22.3a4.6 4.6 0 002.7 2.2 3.2 3.2 0 002.2-.6c2-1.4 2.9-4 2.7-6.4a22.8 22.8 0 00-2-6.9c-3.2-8-6.3-15-10.2-22.5-4.2-8-7.6-17.4-15.7-22.3z" transform="translate(-2.7 -15.4)" fill="url(#j)"/><path d="M326.6 248.2a31.7 31.7 0 005.1 5.1c3.8 3.3 7.7 6.8 10 11.5a60.1 60.1 0 012.4 5.8c.3.8.8 1.8 1.6 1.8.8-1 .5-2.5.1-3.8a78 78 0 00-4.4-12.3 114 114 0 00-9.3-15.4 28.4 28.4 0 00-3.5-4.4 3.5 3.5 0 00-2.2-1.3c-2 0-3.6 3-3.4 5 .3 2.7 2 6 3.6 8z" transform="translate(-2.7 -15.4)" fill="url(#k)"/><ellipse cx="347.5" cy="285.6" rx="4.5" ry="2.8" transform="rotate(-40.4 325.2 281.6)" fill="url(#l)"/><path d="M334 234.4s-7.6-1.1-9.7 1.4 0 9.8 6.5 12.2a52.3 52.3 0 0111.6 6.1s-4.5-18.1-8.5-19.7z" transform="translate(-2.7 -15.4)" fill="url(#m)"/><path d="M342.8 270.6s1.2-2.4 3.3-2l3.4 6.4s.2 6-3.7 2z" fill="#1280ff"/><path d="M345.5 286s1.2-2.4 3.4-2l3.3 6.4s.3 5.9-3.7 2z" transform="translate(-2.7 -15.4)" fill="url(#n)"/><path d="M88.6 208.6c2.3-1.2 4.6-2.4 6.2-4.4 1.4-1.9 2.1-4.1 3.4-6s3.4-3.7 5.7-3.1a6.8 6.8 0 013.6 2.8 43 43 0 018.2 19.6c-10.2-1.1-20 3.6-29.3 8-3.3 1.5-7 3-10.5 2-2.4-.8-4.4-2.8-6.2-4.6-2.8-2.8-1.6-3.4 1.6-5z" transform="translate(-2.7 -15.4)" opacity=".3" fill="url(#o)"/><path d="M140.2 140.2l11.2-5a13.7 13.7 0 01.9 3.1c-.1.5-7.3 4.1-9.7 3.9s-3-1.6-3-1.6z" transform="translate(-2.7 -15.4)" opacity=".3" fill="url(#p)"/><path d="M141.4 142.4c-1.5-.4-2.4-2-3-3.5l-10.5-22-1.4-2.7-.2-.3-2-4.3a1.7 1.7 0 000-.3.6.6 0 01-.2-.2c-.3-.6-.4-1.5 0-1.7.8-.3 2.6 1.7 2.6 1.7l14 30.7z" transform="translate(-2.7 -15.4)" opacity=".3" fill="url(#q)"/><path d="M226.7 26.6s-2.6 6.3-2.8 8.6.1 26.2 1.6 27.3 70.8 7 70.8 7l3.5-3.2z" fill="#1280ff"/><path d="M229.4 42s-2.5 6.3-2.7 8.6 0 26.2 1.5 27.3 70.9 7 70.9 7l3.4-3.2z" transform="translate(-2.7 -15.4)" opacity=".3" fill="url(#r)"/><path d="M301.5 34.3a113.7 113.7 0 01-1.7 32c-18.2-1.4-50.2-4.7-68.3-6.5a5.3 5.3 0 01-3.2-1c-1-1-1.2-2.4-1.2-3.7q-.8-11.5-.8-23c0-4.9-.9-6.6 4.1-6.7 3.9-.1 7.7.1 11.5.4 15.5.8 44.6 4.8 59.6 8.5z" fill="#1280ff"/><path d="M233.8 47.3s4.2-1 6-3.2l54.9 6.3s3.8 5.7 6.4 6.2l-1 17s-3.2 2.1-4.3 4l-55.1-5.1s-4.5-3.5-7.2-4.6z" transform="translate(-2.7 -15.4)" opacity=".3" fill="url(#s)"/><path d="M274.1 67a1.8 1.8 0 01-1.3.3 38.7 38.7 0 01-8-1.2 5.7 5.7 0 01-2-.9 1 1 0 01-.2-.3c-1-1-1-2.9-.8-4.5l2.6-24.3.1-3v-.3a22.4 22.4 0 01.6-4.7.5.5 0 010-.3.5.5 0 01.1-.3 2.5 2.5 0 01.9-1.4c1.5-1 8.6 1.4 10.3 1.8a3.1 3.1 0 011.5.6 3 3 0 01.9 1.7c.8 4 .2 8.2-.5 12.3L274.6 66a1.8 1.8 0 01-.5 1z" fill="#fff"/><path d="M265.5 77.8l12 1.7a13.7 13.7 0 01-.8 3c-.3.4-8.4-.3-10.2-1.7s-1.8-2.9-1.8-2.9z" transform="translate(-2.7 -15.4)" opacity=".3" fill="url(#t)"/><path d="M265.3 80.3c-1-1-1-2.9-.8-4.5l2.6-24.3c0-.7 0-1.8.2-3v-.3l.5-4.7v-.3a.5.5 0 01.1-.3c.1-.6.4-1.4 1-1.3.7.1 1.2 2.8 1.2 2.8l-4 33.4z" transform="translate(-2.7 -15.4)" opacity=".3" fill="url(#u)"/><path d="M417.7 209.5s6.5 1.9 8.8 1.8 26-3 27-4.5-.8-71.2-.8-71.2l-3.6-3.1z" fill="#1280ff"/><path d="M420.5 224.9s6.4 1.8 8.8 1.8 26-3 27-4.6-.9-71.2-.9-71.2l-3.6-3z" transform="translate(-2.7 -15.4)" opacity=".3" fill="url(#v)"/><path d="M417 134.3a113.7 113.7 0 0132-1.8c.7 18.2 1 50.3 1.2 68.6a5.3 5.3 0 01-.7 3.3c-.8 1-2.2 1.3-3.5 1.6q-11.4 2-23 3.3c-4.6.5-6.3 1.6-7-3.4-.5-3.8-.6-7.7-.8-11.5a435 435 0 011.9-60.1z" fill="#1280ff"/><path d="M425.3 220s-1.4-4-3.9-5.6l.3-55.3s5.2-4.4 5.4-7l17-1s2.4 3 4.4 3.9l1 55.3s-3 4.9-3.7 7.7z" transform="translate(-2.7 -15.4)" opacity=".3" fill="url(#w)"/><path d="M452.6 158a1.8 1.8 0 01.4 1.2 37.7 37.7 0 01-.2 8 5.4 5.4 0 01-.7 2.2.9.9 0 01-.2.2c-1 1.2-2.8 1.3-4.4 1.3l-24.5.1-3 .2h-.3a23.6 23.6 0 01-4.7 0 .5.5 0 01-.3 0 .6.6 0 01-.3 0 2.5 2.5 0 01-1.5-.7c-1.1-1.4.4-8.7.6-10.5a3.3 3.3 0 01.4-1.5 2.9 2.9 0 011.7-1c3.9-1.4 8.1-1.2 12.3-1l23.7 1.2a1.8 1.8 0 011 .2z" fill="#fff"/><path d="M452.1 185.1l.3-12.2a13.6 13.6 0 013.1.5c.4.3.6 8.4-.6 10.4s-2.6 2-2.6 2z" transform="translate(-2.7 -15.4)" opacity=".3" fill="url(#x)"/><path d="M454.6 185c-1 1.2-2.8 1.3-4.4 1.3l-24.4.1-3 .2h-5.1-.3a.6.6 0 01-.2 0c-.7 0-1.5-.2-1.5-.7 0-.9 2.6-1.7 2.6-1.7l33.7.3z" transform="translate(-2.7 -15.4)" opacity=".3" fill="url(#y)"/><path d="M151 177l-.3-1 1-1.6c2.6-3.6 3.8-5.5 3.4-7.4a2.3 2.3 0 00-3-2 4.3 4.3 0 00-2.4 1.7l-.7-1.1a5.6 5.6 0 013.2-2 3.6 3.6 0 014.6 2.8c.4 2.3-.9 4.5-3 7.6l-.8 1 5.5-1 .3 1.4zM161.5 173.7a7 7 0 001.3-.3 4.8 4.8 0 002.4-1.8 5.5 5.5 0 001-3.6h-.1a3.7 3.7 0 01-2.7 2 3.7 3.7 0 01-4.4-3.2 4.3 4.3 0 013.4-5.2c2.5-.5 4.5 1.2 5.1 4.4a8 8 0 01-1 6.3 6.3 6.3 0 01-3.2 2.3 7.7 7.7 0 01-1.6.4zm-.8-7.3a2.4 2.4 0 002.9 2.2 2.9 2.9 0 002.2-1.8 1.2 1.2 0 000-.6c-.5-2.1-1.6-3.6-3.3-3.3-1.4.3-2.2 1.7-1.8 3.5zM176.1 159.1l.3 1.1-3.2 12.4-1.8.4 3.3-12-6.1 1.2-.3-1.6zM180.3 169.2a5.8 5.8 0 003 .2c2.1-.4 2.5-2 2.3-3-.4-1.7-2-2.1-3.7-1.8l-1 .2-.2-1.3 1-.2c1.2-.2 2.6-1.2 2.3-2.6-.2-1-1-1.8-2.5-1.5a4.8 4.8 0 00-2.4 1.3l-.6-1.1a6 6 0 013-1.6c2.4-.5 3.8.8 4 2.3a3.1 3.1 0 01-1.6 3.3 3.3 3.3 0 013.4 2.7c.4 2-.8 4-3.8 4.6a6.4 6.4 0 01-3.4-.2z" fill="#1280ff"/><path d="M341 120.5V111c-13-1-20.5-8.4-21.6-18.5h9.5c1.4 6.5 6 10.3 12.1 11.2V78.4c-14.4-4.1-20-9.4-20-19 0-10.6 8.5-17.6 20-18.3V34h6.2v7.2c14.4 1.3 19 10.3 19.7 16.8h-9.3c-1.2-4.3-3.8-8.5-10.4-9.6V71c16.6 4.6 21.3 11.3 21.3 20.6 0 11.6-8 18.4-21.3 19.3v9.5zm0-51.1V48c-7.8.7-10.6 5.2-10.6 10.2s2.5 8.3 10.6 11zm6.2 10.8v23.6c7.5-.7 11.5-4.4 11.5-11.2 0-5.5-2.5-9.4-11.5-12.4z" fill="#1280ff" opacity=".2"/><path d="M344 119.8v-9.5c-13-1-20.5-8.5-21.6-18.5h9.5c1.4 6.5 6 10.3 12.1 11.2V77.7c-14.4-4.2-20-9.4-20-19 0-10.6 8.4-17.6 20-18.4v-7h6.2v7.1c14.4 1.4 19 10.4 19.7 16.9h-9.3c-1.2-4.3-3.8-8.5-10.4-9.7v22.8c16.5 4.6 21.3 11.3 21.3 20.6 0 11.6-8 18.4-21.3 19.3v9.5zm0-51.2V47.4c-7.8.7-10.6 5.2-10.6 10.2s2.5 8.3 10.6 11zm6.2 10.9V103c7.5-.7 11.4-4.4 11.4-11.2 0-5.5-2.4-9.4-11.4-12.4z" fill="#fff"/><path d="M236.6 124.3v-6.1c-8.4-.7-13.3-5.5-14-12h6.1a9 9 0 007.8 7.3V97c-9.3-2.7-12.9-6-12.9-12.3 0-6.8 5.5-11.3 13-11.8v-4.6h4v4.7c9.2.8 12.2 6.6 12.6 10.8h-6a7.9 7.9 0 00-6.7-6.2v14.7c10.7 3 13.8 7.3 13.8 13.3 0 7.5-5.2 11.9-13.8 12.5v6.1zm0-33V77.6c-5 .4-6.9 3.3-6.9 6.6s1.6 5.3 6.9 7zm4 7v15.2c4.8-.4 7.4-2.8 7.4-7.2 0-3.6-1.7-6-7.5-8z" fill="#1280ff" opacity=".2"/><path d="M238.5 123.8v-6c-8.4-.8-13.3-5.6-14-12h6.1a9 9 0 007.9 7.2V96.7c-9.3-2.7-13-6.1-13-12.4 0-6.8 5.5-11.3 13-11.8V68h4v4.7c9.3.9 12.3 6.7 12.7 10.9h-6a7.9 7.9 0 00-6.7-6.2V92c10.7 3 13.7 7.3 13.7 13.3 0 7.4-5.1 11.8-13.7 12.4v6.2zm0-33V77.1c-5 .4-6.9 3.3-6.9 6.6s1.7 5.4 6.9 7.1zm4 7v15.3c4.8-.5 7.4-2.8 7.4-7.2 0-3.6-1.6-6.1-7.4-8z" fill="#fff"/><path d="M171 80.1v-5.2c-7-.6-11.2-4.6-11.8-10h5.2a7.6 7.6 0 006.7 6V57.1c-7.9-2.3-11-5.1-11-10.4 0-5.8 4.6-9.6 11-10v-3.9h3.3v4c7.9.7 10.4 5.6 10.8 9.1H180a6.7 6.7 0 00-5.7-5.2V53c9 2.5 11.7 6.2 11.7 11.2 0 6.4-4.4 10-11.7 10.6v5.2zm0-28V40.6c-4.2.3-5.7 2.8-5.7 5.5s1.3 4.5 5.8 6zm3.4 6v12.8c4.1-.4 6.3-2.4 6.3-6 0-3-1.4-5.2-6.3-6.8z" fill="#1280ff" opacity=".2"/><path d="M172.7 79.7v-5.2c-7.1-.6-11.2-4.6-11.8-10h5.2a7.6 7.6 0 006.6 6V56.7c-7.9-2.3-11-5.1-11-10.4 0-5.8 4.7-9.6 11-10v-3.9h3.4v4c7.8.7 10.4 5.6 10.7 9.1h-5a6.7 6.7 0 00-5.7-5.2v12.4c9 2.5 11.6 6.2 11.6 11.3 0 6.3-4.4 10-11.6 10.5v5.2zm0-28V40.3c-4.3.3-5.8 2.8-5.8 5.5s1.4 4.6 5.8 6zm3.4 6v13c4-.5 6.2-2.5 6.2-6.2 0-3-1.3-5.2-6.2-6.8z" fill="#fff"/></svg>