<svg data-name="Layer 1" xmlns="http://www.w3.org/2000/svg" viewBox="0 0 400 300"><ellipse cx="192.3" cy="255.2" rx="133.4" ry="16.7" fill="#e6e6e6" opacity=".5"/><path d="M202.8 118.7a60.9 60.9 0 0119.9 37.5c3.2 24.3 34 6 42.9-20.6l8.5 5.7s-13 45.3-51.4 47.2-52.1-59.7-19.9-69.8z" fill="#1280ff"/><path d="M202.8 118.7a60.9 60.9 0 0119.9 37.5c3.2 24.3 34 6 42.9-20.6l8.5 5.7s-13 45.3-51.4 47.2-52.1-59.7-19.9-69.8z" fill="#fff" opacity=".5"/><path d="M126.1 76.9c-20 9.6-34.2 32.6-36.1 59.8-1.7 23 6.6 56.1 42 62 69.2 11.3 141.6 17 156.5-21.4s-1.8-115.2-36.8-118C223.9 57 165.1 58 126.1 76.8z" fill="#e6e6e6" opacity=".3"/><path d="M189.9 84.9a34 34 0 013.1 8.4 2.7 2.7 0 01-2.3 3.2 6 6 0 01-6.1-2.3l-3.4-3.8a4.9 4.9 0 010-5.6c1.9-3.3 7.2-3 8.7 0z" fill="#f4a28c"/><path fill="#f4a28c" d="M183.7 91.1l-4.3 17.4 9.8 1.6-.8-13-4.7-6zM191.3 88l2.2 1.3a.9.9 0 010 1.5l-1.7 1.2z"/><path d="M188.4 96.5s-3.5-.8-4.7-1.9c0 0 .3 8.1 5 9.2z" fill="#ce8172" opacity=".3"/><path d="M182.1 89.5s-2.9-1-3.4 1.3 2.8 3.2 4.4 1.6a4.4 4.4 0 01-1-3z" fill="#f4a28c"/><path fill="#e6e6e6" d="M205.5 250.9h-63.1v-45.1h63.1z"/><path opacity=".1" d="M188.8 251l3-39.8 12.7 2 .9 12v25.7h-16.6z"/><path d="M190.4 245.7s1.3 3.8 4.7 4 4.3 3.7 1.3 4.5-11-3-11-3l.3-5zM233.3 246s3.7 1.5 6.2-1 5.5-.8 4.2 2-9.5 6.4-9.5 6.4l-4.4-4.1zM190 110l-9.7-1.7s-32.4 0-38 11-4.5 52.4 14.2 86.2l38.3 1s-2.1-24.7 5-38.3S229.1 126 190 110z" fill="#1280ff"/><path d="M156.5 205.5l18.8-2.8a18 18 0 0120.4 19.5l-2.4 23.8h-9.2l.8-22.3a8.4 8.4 0 00-9.8-8.6c-8 1.3-17.8.7-18.6-9.6z" fill="#24285b"/><path d="M159.8 123.3s10.6 9.3 8.5 19.6c-.4 1.7-.7 3.7-1 5.9a58.6 58.6 0 0013.7 48l6.7 7.6-31.2 1-2.6-5.1-14.6-24.2z" opacity=".1"/><path d="M141.8 120.4c-7.1 10-13.5 32-8 63a20.8 20.8 0 0019.2 17.2l29.3 1.9v-9.6l-22.3-3.2a8.5 8.5 0 01-7-11c4-12.8 10-36.2 8.5-52.8-1-10.1-13.9-13.8-19.8-5.5z" fill="#1280ff"/><path d="M141.8 120.4c-7.1 10-13.5 32-8 63a20.8 20.8 0 0019.2 17.2l29.3 1.9v-9.6l-22.3-3.2a8.5 8.5 0 01-7-11c4-12.8 10-36.2 8.5-52.8-1-10.1-13.9-13.8-19.8-5.5z" fill="#fff" opacity=".5"/><path d="M182.3 195.2s11.9-.3 10.2 6-10.2 1.3-10.2 1.3z" fill="#f4a28c"/><path fill="#ffd200" d="M221.8 204.7l4.8-27.1h-34l-3 23-15.5.3v3.8h47.7z"/><circle cx="208.3" cy="190.6" r="3.4" fill="#fff"/><path d="M112.5 240.3s-9.3-2.6-11.3-11.3c0 0 14.4-2.9 14.8 12z" fill="#1280ff" opacity=".6"/><path d="M113.6 239.3s-6.5-10.3-.8-19.9c0 0 11 7 6.1 20z" fill="#1280ff" opacity=".7"/><path d="M115.3 239.3s3.4-10.8 13.8-12.9c0 0 2 7-6.7 13z" fill="#1280ff"/><path fill="#24285b" d="M108.5 239l2 13h11.8l1.8-12.8-15.5-.1zM182.8 96.6s-9.2-2.5-6.3-8.6c0 0-3.3-5.2 2.2-7.9 3.2-1.6 7.9-2.4 11.3-2.8a2.5 2.5 0 012.4 3.7 12 12 0 01-8.7 5.7 11.3 11.3 0 01-.9 9.9z"/><path d="M185.1 90.6s-.8-1.9-2.2-1.1-.2 3.5 1.9 3zM267 136.5s3.6-12.4 6.3-12.6 0 7 0 7 9.7 2.6.9 10.4z" fill="#f4a28c"/><circle cx="278.4" cy="57.2" r="27.9" fill="#ffd200"/><circle cx="284.6" cy="53" r="14.3" fill="#fff" opacity=".5"/><circle cx="289.4" cy="50.9" r="7.8" fill="#fff" opacity=".5"/><path fill="#24285b" d="M262.1 79.7h32.5v25.4h-32.5zM270.4 105.1H286v10.2h-15.6z"/><path fill="#fff" opacity=".8" d="M270.4 105.1H286v10.2h-15.6z"/><path d="M238.6 38.8s-91.2-29.6-114.5 11C108.4 77.3 140 92.6 157 90" fill="none" stroke="#e6e6e6" stroke-linecap="round" stroke-linejoin="round" stroke-width="2" stroke-dasharray="2 10"/><path d="M205 204.3l29.8 40.3-5.8 5.4s-26-30.3-39.9-38.8l-4.8-6.5z" fill="#24285b"/></svg>