<svg width="251" height="180" fill="none" xmlns="http://www.w3.org/2000/svg"><path opacity=".4" d="M23.5 103.3c3-5.4 7.6-10.4 7.8-16.6.1-4.5-2.2-8.7-4-12.9a49.9 49.9 0 0120.3-60.1A80.8 80.8 0 0184 4.8c14.2-.8 28.6-.4 42.8 1.3a44 44 0 0123.4 8c10.1 8.3 11.5 23 15.4 35.5 6.7 22.1 23.3 41 44.4 50.4 3.8 1.7 7.8 3.1 11 6 6.7 6 6.8 17.2 2.6 25.3a63.3 63.3 0 01-18.8 19.7l-22.4 17.5a52.2 52.2 0 01-14.7 9c-18 6.2-42.6-1-61.4-2-12.2-.5-25 .7-37-2.4-26.2-7-61.2-40.5-45.8-69.8z" fill="#BAE5FF"/><path opacity=".2" d="M138 109.2h56.6c2.9 0 5.2-2.4 5.2-5.3V73.2c0-3-2.3-5.2-5.2-5.2h-56.7a5.2 5.2 0 00-5.2 5.2v30.7c0 3 2.4 5.3 5.2 5.3zM38.2 119.9h43.7a4 4 0 004-4.1V91.7a4 4 0 00-4-4H38.2a4 4 0 00-4 4v24a4 4 0 004 4.2z" fill="#1280FF"/><path opacity=".6" d="M238 81.7H159a13 13 0 01-13-13V13.1a13 13 0 0113-13H238a13 13 0 0113 13v55.6a13 13 0 01-13 13zM159 2a11 11 0 00-11 11.1v55.6a11.1 11.1 0 0011 11H238a11 11 0 0011-11V13.1A11.1 11.1 0 00238 2H159zM98.6 36.2h-32a5.9 5.9 0 01-5.8-5.8V7.8A5.9 5.9 0 0166.6 2h32a5.9 5.9 0 015.9 5.8v22.6a5.9 5.9 0 01-5.9 5.8zM66.6 4a4 4 0 00-3.9 4v22.5a4 4 0 004 4h31.9a4 4 0 004-4V7.8a4 4 0 00-4-3.9h-32z" fill="#1280FF"/><path d="M110 119.7c0 .5.2 1 .5 1.5.3.4.7.6 1 .7 2 .7 4 0 5.9-.8a5 5 0 002.1-1.4c.5-.8.8-1.7.8-2.6.1-3 0-6-.5-9 0-.7-.3-1.5-.8-2.1-.9-1.2-2.6-1.4-4-1.4-4-.2-5-.7-5.2 3.3-.3 4-.2 7.9.2 11.8z" fill="url(#paint0_linear)"/><path d="M99 91.1c1 2.1 2.3 4 3.8 5.8a16 16 0 0024.5-1.8c2.3-3.3 3.4-7.3 4-11.3.7-3.6 1.1-7.2.2-10.6a16.8 16.8 0 00-8.8-10.3 25.9 25.9 0 00-21.9-.2c-5 2.8-5.2 6.8-5 11.9.3 5.6 1 11.3 3.3 16.5z" fill="url(#paint1_linear)"/><path d="M109.9 48c-1.4-1.6-3-3-5-3.3-2-.2-4.4 1.4-4 3.4-3.1-1.5-6.8-2.7-10-1.4a8.5 8.5 0 00-4.8 6.9c-.4 2.8.5 5.8 1.9 8.4a14 14 0 003 4c2.9 2.5 6.9 3.2 10.7 3.7 6.5.7 13.2 1 19.5-1 1.9-.6 4.2-1.3 5.6 0 1 1.2 1.3 3.3 2.8 3.3 1.2 0 1.7-1.5 1.8-2.7.3-2.9 0-5.7-.8-8.5-1.5-4.7-4.9-8.4-10-8.3-4.9 0-7.4-1-10.7-4.6z" fill="#FA3D38"/><path d="M107.5 74h-5.6c-2 0-3.5 1.6-3.5 3.6v1.6c0 2 1.6 3.6 3.5 3.6h5.6c2 0 3.6-1.6 3.6-3.6v-1.6c0-2-1.6-3.6-3.6-3.6zM124.8 74h-5.6c-2 0-3.6 1.6-3.6 3.6v1.6c0 2 1.6 3.6 3.6 3.6h5.6c2 0 3.5-1.6 3.5-3.6v-1.6c0-2-1.6-3.6-3.5-3.6z" stroke="#fff" stroke-width="4" stroke-miterlimit="10"/><path d="M117 77.5h-7v1h7v-1zM99.2 76.4h-5.8v1.7h5.8v-1.7zM134 77h-6.4v1.1h6.4v-1z" fill="#fff"/><path d="M97.1 91.7a12.5 12.5 0 007 12.7l2.7 1.4c.9.6 1.6 1.5 2.5 2a7 7 0 007.4.3c.7-.4 1.4-1 2.2-1 .6 0 1.1.5 1.7.7 1.3.4 2.7 0 4-.6 1.3-.6 2.4-1.3 3-2.5.3-.8.3-1.7.5-2.5.4-2.2 1.8-4 2.7-6 1.7-4.2 1.1-9 .5-13.5l-2 3.4c-.7 1.1-1.5 2.4-2.8 2.8-1.6.6-3.4-.4-5-1.1a20.8 20.8 0 00-16-.4c-1.1.4-2.3 1-3.4.7-1.3-.4-3.3-3.9-4.3-3.6-1.3.4-.7 6.1-.7 7.2z" fill="#FA3D38"/><path d="M110 115.1c13.4-1.9 27.6 5 34.5 16.5 2.3 3.9 3.9 8.2 6.4 11.9 2.7 4 6.4 7 9.5 10.7a43 43 0 016.3 9.7c1.4 3.1 2.5 7.1.5 10-1.8 2.7-5.4 3.3-8.6 3.5-6.5.5-13 .4-19.4.2L76 176.1c-2.8-.1-5.7-.2-8.3-1.3-2.6-1-5-3.3-5.3-6-.5-4.2 3.2-7.4 6-10.5 7.9-9 9.7-22.2 17.3-31.6a31.3 31.3 0 0123.4-11.2" fill="#1280FF"/><path d="M110 115.1c13.4-1.9 27.6 5 34.5 16.5 2.3 3.9 3.9 8.2 6.4 11.9 2.7 4 6.4 7 9.5 10.7a43 43 0 016.3 9.7c1.4 3.1 2.5 7.1.5 10-1.8 2.7-5.4 3.3-8.6 3.5-6.5.5-13 .4-19.4.2L76 176.1c-2.8-.1-5.7-.2-8.3-1.3-2.6-1-5-3.3-5.3-6-.5-4.2 3.2-7.4 6-10.5 7.9-9 9.7-22.2 17.3-31.6a31.3 31.3 0 0123.4-11.2" fill="url(#paint2_linear)"/><path d="M145.3 172.9H88.1v3.8h57.2V173z" fill="#1280FF"/><path d="M145.3 172.9H88.1v3.8h57.2V173z" fill="url(#paint3_linear)"/><path d="M152.1 109.4H82.4c-5.6 0-10.1 4.6-10.1 10.2v34.1c0 5.7 4.5 10.2 10.1 10.2h69.7c5.6 0 10.2-4.5 10.2-10.2v-34.1c0-5.6-4.6-10.2-10.2-10.2z" fill="#1280FF"/><path d="M152.1 111H82.4c-5.6 0-10.1 4.6-10.1 10.2v34.2c0 5.6 4.5 10.2 10.1 10.2h69.7c5.6 0 10.2-4.6 10.2-10.2v-34.2c0-5.6-4.6-10.1-10.2-10.1z" fill="url(#paint4_linear)"/><path opacity=".3" d="M104 163.3l9.5-19.5h8.8l1.2 19.7-19.6-.2z" fill="url(#paint5_linear)"/><path d="M126.7 176.7h-17.2l4-32.9h8.8l4.4 33z" fill="#1280FF"/><path d="M127.5 176.7h-17.2l4-32.9h8.8l4.4 33z" fill="url(#paint6_linear)"/><path d="M238 0H159a12 12 0 00-12 12v55.7a12 12 0 0012 12H238a12 12 0 0012-12V12A12 12 0 00238 0z" fill="#fff"/><path opacity=".6" d="M61.5 98.9H9a9 9 0 01-9-9v-37a9 9 0 019-9h52.5a9 9 0 019 9v37a9 9 0 01-9 9zM9 45.9a7 7 0 00-7 7v37a7 7 0 007 7h52.5a7 7 0 007-7v-37a7 7 0 00-7-7H9z" fill="#1280FF"/><path d="M61.5 43.5H9a8 8 0 00-8 8v37a8 8 0 008 8h52.5a8 8 0 008-8v-37a8 8 0 00-8-8zM98.5 2h-32a4.9 4.9 0 00-5 5v22.5c0 2.7 2.3 4.9 5 4.9h32c2.7 0 4.9-2.2 4.9-5V7c0-2.7-2.2-4.9-5-4.9z" fill="#fff"/><path d="M67 18.6L77.4 13v1.6l-9 4.4 9 4.5v1.6l-10.6-5.4v-1.2zM79 26.1l6.3-16.5h1.5l-6.4 16.5H79zM98.8 19.8l-10.6 5.5v-1.6l9-4.5-9-4.5v-1.6l10.6 5.4v1.3z" fill="#1280FF"/><path d="M103.5 165.7c-2.2-.4-4.5 0-6.9 0H90c-2.2.3-4.5 1-5.9 2.7a5.9 5.9 0 00-1.3 4c0 .5.1 1 .4 1.5.6 1 1.8 1.2 3 1.4h.6c.8-.2 1.1-1.2 1.8-1.7.5-.2 1-.3 1.6-.2a355.3 355.3 0 0018.5-.4c1.5-1-.3-3.2-.8-4.2a6.3 6.3 0 00-4.4-3z" fill="url(#paint7_linear)"/><path d="M127.6 168.7c-.8 1-1.2 2.8-.2 3.6 1 .8 2.4.2 3.3-.6.9-.9 1.7-2 2.9-2.2.2 1 .4 2.2 1.3 2.8 1.2 1 3 .2 4.6.2 1.4 0 3 .7 4.2-.3.5-.4 1.2-1.3 1.8-.9l.3.6a17 17 0 002.4 4.7c.7.3 1.3-.7 1.4-1.5.4-2.1.5-4.3.2-6.5 0-1.2-.3-2.4-1.2-3.3-1.1-1.1-2.9-1.2-4.5-1.1h-6.3c-3.8.1-7.9 1.3-10.2 4.5z" fill="url(#paint8_linear)"/><path opacity=".6" d="M124.2 129.1a6.3 6.3 0 01-10.7 4.5 6.3 6.3 0 015.4-10.7 6.2 6.2 0 005.3 6v.2z" fill="#1280FF"/><g opacity=".5" fill="#1280FF"><path opacity=".5" d="M186.5 10.6h-26.3v1.9h26.3v-2zM176.2 14.3h-16v1.8h16v-1.8zM233.3 14.3h-50.6v1.8h50.6v-1.8zM190.6 18h-22v2h22v-2zM202 21.8h-26.4v2H202v-2zM225.7 21.8h-22v2.1h22v-2.1zM195.9 25.5h-20.3v1.9h20.3v-1.9zM239.8 25.5h-42v2h42v-2zM186.5 30.6h-26.3v2h26.3v-2zM176.2 34.3h-16v1.9h16v-1.9zM233.3 34.3h-50.6v1.9h50.6v-1.9zM190.6 38h-22v2h22v-2zM202 41.8h-26.4v2H202v-2zM225.7 41.8h-22V44h22v-2.2zM195.9 45.6h-20.3v1.8h20.3v-1.8zM239.8 45.6h-42v2h42v-2zM186.5 50.6h-26.3v2h26.3v-2zM176.2 54.4h-16v1.8h16v-1.8zM233.3 54.4h-50.6v1.8h50.6v-1.8zM190.6 58.1h-22v2h22v-2zM202 61.9h-26.4v1.9H202v-2zM225.7 61.9h-22V64h22V62zM195.9 65.6h-20.3v1.8h20.3v-1.8zM239.8 65.6h-42v2h42v-2z"/></g><g opacity=".5" fill="#1280FF"><path opacity=".5" d="M26.2 51.8h-17v1.3h17v-1.3zM19.6 54.2H9v1.2h10.5v-1.2zM56.6 54.2H23.8v1.2h32.8v-1.2zM28.9 56.7H14.6v1.2h14.3v-1.2zM36.3 59.1H19.2v1.3h17V59zM51.7 59.1H37.4v1.4h14.3v-1.4zM32.3 61.5H19.1v1.2h13.2v-1.2zM60.8 61.5H33.6v1.3h27.2v-1.3zM26.2 64.8h-17v1.3h17v-1.3zM19.6 67.3H9v1.1h10.5v-1.2zM56.6 67.3H23.8v1.1h32.8v-1.2zM28.9 69.7H14.6v1.2h14.3v-1.2zM36.3 72.1H19.2v1.3h17V72zM51.7 72.1H37.4v1.4h14.3v-1.4zM32.3 74.5H19.1v1.2h13.2v-1.2zM60.8 74.5H33.6V76h27.2v-1.4zM26.2 77.8h-17v1.3h17v-1.3zM19.6 80.3H9v1.1h10.5v-1.1zM56.6 80.3H23.8v1.2h32.8v-1.2zM28.9 82.7H14.6v1.2h14.3v-1.2zM36.3 85.1H19.2v1.3h17V85zM51.7 85.1H37.4v1.4h14.3v-1.4zM32.3 87.6H19.1v1.1h13.2v-1.1zM60.8 87.6H33.6v1.3h27.2v-1.3z"/></g><g opacity=".6" fill="#1280FF"><path opacity=".6" d="M166.6 123.8l.5-2.6.3-1.5 2.3.4h.2a.4.4 0 00.3-.2 28.5 28.5 0 011.3-2.3v-.1l-.2-.1-1.5-1.9 3.3-2.7 1.5 1.8a.4.4 0 00.3.2h.1l.2-.1 2-.7c.4-.1.4-.3.4-.6v-2.3h4.3v2.3c0 .3.1.5.4.5a17.4 17.4 0 012.4.8h.2v-.2l1.6-1.8 3.3 2.8-1.7 2 1.3 2.5.4.1 2.4-.4.7 4.2-2.3.5-.4.2-.4 2.8 2.3 1.3-2.2 3.7-2.3-1.3-2.1 1.8a.4.4 0 000 .3l.7 2.3-4 1.5-.7-2-.1-.3a.6.6 0 00-.7-.2 16 16 0 01-2.4 0 .4.4 0 00-.1.3l-.8 2.2-4-1.5.8-2.5-2.3-2-2.3 1.4-2.1-3.7 2-1.2h.2v-.2-.1-.2a22 22 0 01-.3-2.1c0-.3-.1-.5-.5-.6-.8 0-1.5-.2-2.2-.3v-.2zm13.2-5.2a5.5 5.5 0 00-4 9.4 5.5 5.5 0 104-9.4zM203.8 136.2l1 3-1.6.5a.5.5 0 00-.3.4v1.5a.4.4 0 000 .3h.1l.1.1 1.5.7-1.1 2.8-1.6-.6h-.2-.2l-1.2 1.5.9 1.7-2.7 1.4-.8-1.4a.4.4 0 00-.4-.2l-1.9.2-.4 1.9-3-.6.4-2-1.6-1a.4.4 0 00-.4 0l-1.3 1.1-1.9-2.4 1.3-1 .1-.1v-.1-.2a13.6 13.6 0 01-.6-1.8.3.3 0 00-.2 0h-1.6v-3.2h2l.7-1.7-.1-.4-1.3-1 2.1-2.4 1.4 1.3 1.8-1v-.3c0-.5 0-1-.2-1.6l3.1-.4.2 1.5c0 .3.2.4.5.5a9.7 9.7 0 011.4.3h.2a.4.4 0 00.2-.2l.9-1.4 2.6 1.6-1 1.6 1.2 1.6a.5.5 0 00.3 0l1.6-.5zm-8.3 8.3a4 4 0 003.8-4.8 4 4 0 10-6.6 3.7 4 4 0 002.8 1.1zM204.5 119.5l1.2-1 1.5 2-.8.7c-.3.1-.4.4-.2.7l.1.4c.3.7.3.7 1.1.8h.6v2.4h-1.2c-.3 0-.4 0-.4.3l-.2.5c-.3.8-.3.8.3 1.3l.5.5-1.6 1.8-1.2-1-1.3.7a.4.4 0 00-.1.3l.2 1.3-2.4.3-.2-1.2a.5.5 0 00-.3-.3l-1.4-.3-.8 1.3-2-1.3.6-1v-.2-.1-.1-.1l-.5-.6c-.4-.5-.4-.5-1-.3l-.9.2-.7-2.3c.4 0 .7-.2 1.1-.3h.2a.4.4 0 00.1-.5 6.8 6.8 0 010-1.2.3.3 0 00-.2-.2l-1.1-.5.9-2.3 1.2.5a.4.4 0 00.3 0l1-1.2-.7-1.3 2.1-1.1.7 1.3 1.7-.3.3-1.4 2.4.4-.3 1.2a.4.4 0 000 .3.4.4 0 00.3.2l1.1.7zm-6.9 4.6a3.1 3.1 0 003.7 3 3.1 3.1 0 10-3.4-4.2 3 3 0 00-.3 1.2z"/></g><defs><linearGradient id="paint0_linear" x1="109.6" y1="113.3" x2="120.3" y2="113.3" gradientUnits="userSpaceOnUse"><stop stop-color="#E5C6D6"/><stop offset=".4" stop-color="#EAD4D0"/><stop offset="1" stop-color="#F0E9CB"/></linearGradient><linearGradient id="paint1_linear" x1="7230.9" y1="8930.3" x2="9894.3" y2="8930.3" gradientUnits="userSpaceOnUse"><stop stop-color="#E5C6D6"/><stop offset=".4" stop-color="#EAD4D0"/><stop offset="1" stop-color="#F0E9CB"/></linearGradient><linearGradient id="paint2_linear" x1="114.8" y1="174.5" x2="119.7" y2="124.6" gradientUnits="userSpaceOnUse"><stop stop-color="#010101" stop-opacity="0"/><stop offset=".9" stop-color="#010101"/></linearGradient><linearGradient id="paint3_linear" x1="13637.5" y1="1483" x2="13637.5" y2="1710.6" gradientUnits="userSpaceOnUse"><stop stop-color="#010101" stop-opacity="0"/><stop offset=".9" stop-color="#010101"/></linearGradient><linearGradient id="paint4_linear" x1="110.9" y1="171.2" x2="124.4" y2="102.1" gradientUnits="userSpaceOnUse"><stop stop-color="#fff" stop-opacity="0"/><stop offset=".9" stop-color="#fff"/></linearGradient><linearGradient id="paint5_linear" x1="4233.6" y1="6289.1" x2="5011.6" y2="6289.1" gradientUnits="userSpaceOnUse"><stop stop-color="#010101" stop-opacity="0"/><stop offset=".9" stop-color="#010101"/></linearGradient><linearGradient id="paint6_linear" x1="3952.1" y1="10830.1" x2="4549.7" y2="10830.1" gradientUnits="userSpaceOnUse"><stop stop-color="#fff" stop-opacity="0"/><stop offset=".9" stop-color="#fff"/></linearGradient><linearGradient id="paint7_linear" x1="4602.3" y1="4035.9" x2="6027.9" y2="4035.9" gradientUnits="userSpaceOnUse"><stop stop-color="#E5C6D6"/><stop offset=".4" stop-color="#EAD4D0"/><stop offset="1" stop-color="#F0E9CB"/></linearGradient><linearGradient id="paint8_linear" x1="6147.6" y1="5106.1" x2="7237.5" y2="5106.1" gradientUnits="userSpaceOnUse"><stop stop-color="#E5C6D6"/><stop offset=".4" stop-color="#EAD4D0"/><stop offset="1" stop-color="#F0E9CB"/></linearGradient></defs></svg>