<svg width="192" height="180" fill="none" xmlns="http://www.w3.org/2000/svg"><path opacity=".3" d="M142 180c14.4 0 26-1 26-2.2 0-1.2-11.6-2.2-26-2.2s-26 1-26 2.2c0 1.2 11.6 2.2 26 2.2z" fill="#1280FF"/><path opacity=".4" d="M181.3 0h-171C4.8 0 0 4.7 0 10.4v97.8c0 5.7 4.7 10.4 10.4 10.4h170.9c5.7 0 10.4-4.7 10.4-10.4V10.4C191.7 4.7 187 0 181.3 0z" fill="#BAE5FF"/><path opacity=".4" d="M45 112.5c15 .7 30.4-1 44.8 3.4 5.2 1.5 10.4 4.2 13.3 8.8 2.8 4.5 3.3 10.8 7.8 13.7 2.4 1.5 5.4 1.7 7.8 3.3 3.4 2.3 4.5 7 4.2 11.1-.3 4.2-1.6 8.2-1.5 12.4 0 4 1.5 8 4.6 10.6 3 2.4 8 2.8 11 .2 2.6-2.3 3.3-6.1 3.1-9.7 0-3.5-.8-7-.2-10.5 1-4.7 4.2-8.8 4.3-13.5 0-2.5-1-4.9-1.5-7.3-2-9.4 2.4-19.8 10.5-25 4.9-3 10.8-4.3 15.4-7.8a40 40 0 008.3-9.4c1.7-2.4 3.5-5 3.8-8 .2-3.7-2-7.1-4-10.1a183 183 0 00-14.3-17.3 2.4 2.4 0 00-2.9-1c-7 1.5-14.6 3.4-18.9 9.1-6 7.8-3.2 18.9-5.1 28.5-.9 4.3-2.7 8.4-5.4 11.9-1.2 1.6-2.8 3.2-4.8 3.5-3.3.4-6-2.8-7-6s-1.3-6.8-3.2-9.5c-2.7-4-8-5.1-13-5.2-8.3-.1-17 1.9-23.9 6.6-.5.4-1 .8-1.2 1.4-.2.6 0 1.2 0 1.7-.3 1.2-1.7 1.7-2.9 2-4 1.1-9 2-12-1-1.5-1.4-2.2-3.5-3.7-5-2.3-2.2-5.8-2.4-9-2.5-6.7 0-27.6-3.3-28.8 6.3-1.5 11.5 16.7 14 24.4 14.3z" fill="#BAE5FF"/><path d="M59.8 24.2h-41V99h41V24.2z" fill="url(#paint0_linear)"/><path d="M120.5 24.2H79.7V99h40.8V24.2z" fill="url(#paint1_linear)"/><path d="M181.3 24.2h-40.9V99h41V24.2z" fill="url(#paint2_linear)"/><path d="M136.3 138a.8.8 0 00-.7.7v6.7A1215.4 1215.4 0 00138 174l.6.2h1.8l.6-.2.2-.5 2.7-24.5a.7.7 0 01.6-.7.8.8 0 011 .8l-1 24.3a.8.8 0 00.4.7h2.4a.8.8 0 00.8-.6l4.2-27a110.1 110.1 0 000-10 .8.8 0 00-.7-.2l-15.2 1.6z" fill="#1280FF"/><path d="M152.3 146.5a13858.7 13858.7 0 00-4.5 27.5l-.5.2h-2.1a.8.8 0 01-.8-.8l1-24.3a.8.8 0 00-.2-.5.7.7 0 00-.6-.3.8.8 0 00-.6.3l-.2.4-2.7 24.5a.7.7 0 01-.5.6h-2.2a.8.8 0 01-.7-.6c-.3-4.2-2-25.8-2-28.1v-6.7a.8.8 0 01.7-.7l15.2-1.6a.8.8 0 01.7.4l.1.3-.1 9.4z" fill="url(#paint3_linear)"/><path d="M57.4 20.6H14.2v76h43.2v-76zM118.4 20.6H75.2v76h43.2v-76zM179.4 20.6h-43.2v76h43.2v-76z" fill="#1280FF"/><path d="M50.6 69.5c-.3 2.6-.3 5.8-1.3 8.2-1 2.2-4 1.6-6 1.6a190.1 190.1 0 01-14.6-.3c-1.3 0-2.7 0-4-.6a1.3 1.3 0 01-.9-.5c-.9-1.2-.8-3-.8-4.4-.1-1.6 0-3.2.4-4.8a.5.5 0 011 0l.8 4.8.6 2.3c1-.1 2.2.1 3.3.2a170.4 170.4 0 0013.1.4h4.4c-.2 0 .2-.7.3-1.1a54.6 54.6 0 001-6.5c0-.7.3-2.2.2-3-.8-.1-1.8.2-2.6.2l-3.2.3a570.3 570.3 0 00-13.5 1.4c-2.1.2-4.4 0-6.5.3-.7 0-.8-1.1-.2-1.2 3.4-.6 6.6-1.5 10-2l9-1 4.4-.6c1.2 0 2.9-.6 4 0 2.2.9 1.2 4.5 1 6.3z" fill="url(#paint4_linear)"/><path d="M29.3 39c.9 1.2 2 2.4 3.1 3.4a23 23 0 00-6.3 8.5c-.5 1.5 1.6 2.2 2.4 1 1.1-1.6 2-3.4 3.3-5l2.6-2.7c2.9 2.4 6 4.6 8.4 7.5 1.2 1.5 3.5-.7 2.2-2.2-2.5-3-5.6-5-8.6-7.3 2.7-2.7 5.5-5.3 7.9-8.2.7-1-.5-2.2-1.3-1.3-2.7 2.8-5.7 5.3-8.6 7.9a31.4 31.4 0 01-3.8-4c-1.3-1.7-2.6-3.2-4.2-4.3-.8-.4-1.7.7-1 1.3 1.7 1.5 2.6 3.5 3.9 5.3z" fill="url(#paint5_linear)"/><path d="M88 43.2c2.9-1.3 5-4.2 7.4-6.1l1.1-.9 3 2.4c1.5 1.1 3.1 2.2 4.8 3.1 1.7 1 3.8 2.4 5.8 2 1-.2 1-1.3.5-2-.7-.8-1.4-1-2.4-1.3a29 29 0 01-3.4-1.7c-1.7-1-3.3-2-4.9-3.2l-1.3-1c.4-.2.8-.6 1.2-1l2.3-1.7c.5-.4 1.9-2.1 2.5-2a.5.5 0 00.7-.4.5.5 0 00-.4-.6c-1.4-.4-2.4.6-3.6 1.3l-4.6 3.2a35 35 0 00-6.8-3.6c-1-.4-1.7 1.3-.7 1.7 2 1 3.8 2 5.5 3.4a53 53 0 00-3.4 2.5c-1.5 1.3-2.9 2.7-4.7 3.5-1.7.7-.3 3 1.3 2.4z" fill="url(#paint6_linear)"/><path d="M113.3 51.7c-8.7-.2-17.5.3-26.1 1.2a1.5 1.5 0 00-2.8.8l-.1 7c0 1.3-.5 3.3 1 4 1.4.9 4 .2 5.6.1l7.2-.6c4.4-.4 9-.7 13.3-1.6 1.5-.4 2-1.2 2.2-2.7.4-2.3.6-4.7.9-7 0-.7-.6-1.2-1.2-1.2zm-2 6.5c0 1 .2 1.8-1 2-.9.2-1.8.2-2.8.3l-10 1a428.8 428.8 0 01-8 .5H87.2v-2.7l.1-4.9c8.2-.4 16.4-.5 24.6-.3l-.5 4z" fill="url(#paint7_linear)"/><path d="M109.4 71.8c-4.3 0-8.7 0-13 .2-3.5.2-7.3.1-10.5 1.4-.7-.7-2-.1-2.2 1-.4 3 .2 6.4.4 9.5 0 .8.6 1.6 1.4 1.5 6.4-.5 12.9-1.4 19.2-1.2 1.2 0 2.8.5 3.8 0 1-.3 1.2-1.2 1.4-2.1.6-3 .9-6 .7-9a1.3 1.3 0 00-1.2-1.3zm-2 9.6v.4h-.1c-.4-.3-1.3-.2-1.8-.2h-4c-4.9 0-9.7.4-14.6.8 0-2.6 0-5.2-.5-7.7 3.4-.9 7.5-.4 11-.5h10.8V77c-.2 1.5-.7 3-.7 4.4z" fill="url(#paint8_linear)"/><path d="M151.6 46.7c1.2.1 2.5.5 3.7 0 2.1-1 1.7-3.6 1.7-5.5v-9.6c0-2.4-1-3.2-3.3-2.9a25 25 0 01-9.4-.3 1.4 1.4 0 00-1.5.5.7.7 0 00-.7.2c-1.5 2.1-1.5 4.6-1.7 7l-.2 4.8c0 1-.3 2.7.3 3.6.4.8 1.3.9 2 1l4.8.7 4.3.5zm-8.8-3.8c-.4-2.1 0-4.6-.1-6.7 0-1.8-.3-3.7.1-5.5l.7.4c1.9.4 3.8.7 5.8.8 1.6 0 3.2-.3 4.8-.4v8.6c0 1 .3 2.5 0 3.3-.2.4 0 .4-.5.6-.3.1-1 0-1.2-.1l-3.3-.4-3.3-.4c-.7-.1-2 0-3-.2z" fill="url(#paint9_linear)"/><path d="M147.7 53.5h-.7a.8.8 0 000 1.7h.2v3.2c0 1 0 2 1 2.5s2.5.3 3.6.3l4.8.2 9.8.4 4.8.2c1 0 2 .1 2.9-.6 1.1-1.2 1.5-5 .7-6.4-.6-.8-1.6-.8-2.5-1a159 159 0 00-23-.6 1.2 1.2 0 00-1.6.1zm12.3 2.3a235.8 235.8 0 019.3.7c.7 0 2.2 0 3 .2.2.9.1 2.2-.3 2.5-.4.3-2.4 0-3 0l-7-.4-6.5-.3-3.3-.1-1.4-.1h-.8v-3l10 .5z" fill="url(#paint10_linear)"/><path d="M171.9 67.4l-8.6-.3c-5.6 0-11.2 0-16.7.9-.5 0-.6.5-.4.9-.4 1.2-.4 2.4-.6 3.6a1.5 1.5 0 00.8 1.7l.6.2c5.7 0 11.3 0 17 .2 2.3 0 5 .6 7.4.2 2.2-.4 2.5-2.6 2.7-4.5.3-1.9-.4-2.8-2.2-3zm-1.1 4.5c-.6.4-2.5 0-3.2 0a253.8 253.8 0 00-18.7-.6v-1.9c3.6.3 7.3.3 11 .4l6.4.1h3l1.9.1h.2c0 .8-.3 1.7-.7 2z" fill="url(#paint11_linear)"/><path d="M70.4 55.9c-1.3-.7-2.6-1.3-4-1.8a1.2 1.2 0 00-1.4.7v.1a1.2 1.2 0 00.3 1.2l1.3 1h-.3c-1.4 0-2.9 0-4.2.4-1.2.4-1.3 2.2 0 2.5 1.3.4 2.8.4 4.2.4h.3L65.3 62c-.9 1.6 1.2 3 2.4 1.9 1-.9 1.9-2 2.8-3 .6-.9 1.7-1.7 1.7-2.9 0-1.1-.9-1.6-1.8-2.1z" fill="url(#paint12_linear)"/><path d="M131 55.8c-1.1-.7-2.4-1.3-3.8-1.8-.6-.1-2 0-2 1 .1.8.7 1.4 1.4 1.9l-2 .1c-1 0-2 0-3 .3a1 1 0 00-.6 1.5l.4.4c1.4 1 3.3 1 5 .7-.5.8-1.1 1.5-1 2.4 0 .8.8 1.6 1.6 1.3 1.1-.4 1.6-1.3 2.2-2.2a314 314 0 002.4-3.5 1.6 1.6 0 00-.6-2z" fill="url(#paint13_linear)"/><path d="M119.7 103c-.3 0-.6-.3-.8-.6-.6-.9-1.3-1.6-2.1-2.3 0 .7.2 1.4.7 2l-.6-1.4c-.1-.1-.2-.3-.4-.2l-.1.3c0 .7.2 1.3.6 1.9l-.4-1c0-.2-.2-.3-.3-.4-.2 0-.3.3-.3.5a2.2 2.2 0 00.8 1.7 1.3 1.3 0 00-1-.7c0 .5.3 1 .7 1.3 1 1 4.8 3.7 5.5 1 .1-.8-.4-1.2-.8-1.7-.6-.8-.7-2-1.4-2.6 0 .1-.2 2.2 0 2.2z" fill="url(#paint14_linear)"/><path d="M167.4 101.7h.3l.3 1.4c0 .3.1.6.4.6a.5.5 0 00.4-.3c.5-.8.6-1.8.6-2.7 0-.1.1-.3.3-.3l.1.3v2c0-.6 0-1.1.3-1.6.2 0 .2.2.3.3a5 5 0 01-.2 1.7l.2-1c0-.2.2-.3.3-.2v.2a4 4 0 01-.2 1.8l.2-.9.2.2c0 .4-.2 1-.4 1.3-.6 1.1-2.3 4.1-3 1.6-.3-.5-.3-4.4-.1-4.4z" fill="url(#paint15_linear)"/><path d="M144.6 89s-3 3.3-3.5 6.8 2.5 4.3 2.8 4.6c.3.3 0 3.3 0 3.3s6.2 1.7 5.5.7c-1.5-2 .8-4.5.8-4.5s5.2-12.5-5.6-11z" fill="url(#paint16_linear)"/><path d="M144 85a4.8 4.8 0 013.4-3.4c-.4.7-.7 1.5-.8 2.2a3.5 3.5 0 012.2-2c1-.3 2-.4 3-.2-.6.2-1 .6-1.5 1l2.2-.4c-.5 0-.8.6-.7 1 0 .6.4 1 .8 1.3.9.8 2 1.5 2.9 2.4.9 1 1.6 2.1 1.6 3.4 0 1.2-.7 2.3-1.6 3.1l-.4.5-.1.6c0 1.2-1.1 2.2-2.2 2.8-1 .7-2.2 1.4-2.6 2.6a2.5 2.5 0 01-1-1.8 1.6 1.6 0 00-1 .8c-.3-.4-.5-.9-.5-1.4-.4.2-.7.4-1 .8l.1-3.4c.4.6 1.3.2 1.8-.2.6-.6 1-1.4.7-2-.3-.7-1.2-.8-1.8-.5-.6.4-1.1 1-1.4 1.6-.4-.6-.1-1.3.2-1.9.4-.5.7-1.1.6-1.7-2.5.4-3.4-3.4-3-5.2z" fill="#25233A"/><path d="M168.6 107.1l-.1.2c-1 1.8-6.6 13-9 13.4-2.7.4-6-3-6-3v.3l-.3 15.9a4.2 4.2 0 01-4 4.1l-10 .7H138a3.2 3.2 0 01-3.3-3.3l1.6-18.7s-3.7 4.6-6.7 3.7c-3-.8-9.3-14.2-9.3-14.2l1.8-1.2 8.2 7.6s.5-.4 3.4-4.8c2.9-4.5 6.9-5 8.3-5.3h2a73 73 0 019.5 2c1.8.6 3.4 7 5.1 8.1 1.7 1.2 7.6-6.7 7.7-7l1 .7 1.4.8z" fill="#FA3D38"/><path d="M138.2 174.2v1.6l2.3-.2.1-1.4h-2.4z" fill="url(#paint17_linear)"/><path d="M144.8 174.2v1.6l2.3-.2.1-1.4h-2.4z" fill="url(#paint18_linear)"/><path d="M140.7 175c-.6.4-1.2.6-2 .6l-.3-.1-.3-.3a.7.7 0 00-.6 0l-1.6.7c-.6.2-1.1.6-1.6 1.1a1 1 0 00-.2.7 1.2 1.2 0 00.6.8c.6.4 1.4.7 2.2.6.8 0 1.6-.1 2.3-.3a2 2 0 001.1-.5l.4-.8c0-.5 0-1 .2-1.4 0 0 0-1.2-.2-1.1zM146.5 175.8c.2 0 .5-.8.7-.8.4 0 .9.4 1.3.7.6.3 1.1.8 1.6 1.3.4.5.6 1.2.2 1.6-.3.3-1.6.3-1.2.3H147l-1.2-.1c-1.8-.3-1.2-2-1.2-2.8-.1-1.8 1 0 2-.2z" fill="#25233A"/><path d="M138.5 135.4c-.1 1.2.2 2.3.8 3.3h-1.4a3.2 3.2 0 01-3.3-3.4l1.6-18.6c.3-1.5 3.5-3.9 3.4-2.7-.6 9.4-1 20-1.1 21.4z" fill="url(#paint19_linear)"/><path d="M168.5 107.3c-1 1.8-6.6 13-9 13.4-2.7.4-6-3-6-3v.3c0-1 0-1.8.3-2.7 0-.2.2-.5.4-.5s.3.1.5.3c.8.9 1.8 1.7 3 2.3.4.2 1 .4 1.4.4.7 0 1.3-.4 1.8-.9.5-.3 1-.6 1.3-1 .8-1 1.1-2.1 1.5-3.2.8-1.9 2-3.6 3-5.2l.7-.6h.6l.5.4z" fill="url(#paint20_linear)"/><path d="M143.9 102.5c-1.5.7-3 1.4-4.3 2.3-2.4 1.4-7.9 9.6-9.4 9.8-1.5.3-8.2-9.6-8.2-9.6l8.2 7.6s.5-.4 3.4-4.8c2.9-4.5 6.9-5 8.3-5.3h2z" fill="url(#paint21_linear)"/><path d="M167.3 106.3s-2.5 4.7-5 6.9a2.6 2.6 0 01-3.8-.5c1.7 1 7.6-6.8 7.8-7l1 .6z" fill="url(#paint22_linear)"/><path d="M140.6 174.2h-2.1a.8.8 0 01-.8-.7c-.4-4.2-2-25.8-2-28.1V139l.6-1 3 .7s-.7 9.2 0 13.2a376.5 376.5 0 011.3 22.3z" fill="url(#paint23_linear)"/><path d="M146 174.2h-.8a.8.8 0 01-.6-.3.8.8 0 01-.2-.5l1-24.3a.8.8 0 00-.2-.5.7.7 0 00-.6-.3c.8-.7 2.2 0 2.6 2.8.6 5.9-1.2 23-1.2 23z" fill="url(#paint24_linear)"/><defs><linearGradient id="paint0_linear" x1="98.1" y1="87.8" x2="-99.8" y2="-.4" gradientUnits="userSpaceOnUse"><stop stop-opacity="0"/><stop offset="1"/></linearGradient><linearGradient id="paint1_linear" x1="17353.4" y1="17470.4" x2="-6981.1" y2="11544.6" gradientUnits="userSpaceOnUse"><stop stop-opacity="0"/><stop offset="1"/></linearGradient><linearGradient id="paint2_linear" x1="24020.8" y1="17470.4" x2="-313.3" y2="11544.6" gradientUnits="userSpaceOnUse"><stop stop-opacity="0"/><stop offset="1"/></linearGradient><linearGradient id="paint3_linear" x1="6901.3" y1="21284.1" x2="7906.9" y2="14861" gradientUnits="userSpaceOnUse"><stop stop-opacity="0"/><stop offset="1"/></linearGradient><linearGradient id="paint4_linear" x1="3669.4" y1="3742.9" x2="3653.6" y2="6881.7" gradientUnits="userSpaceOnUse"><stop stop-opacity="0"/><stop offset="1"/></linearGradient><linearGradient id="paint5_linear" x1="2551.8" y1="8278.8" x2="2311.1" y2="-6854.8" gradientUnits="userSpaceOnUse"><stop stop-opacity="0"/><stop offset="1"/></linearGradient><linearGradient id="paint6_linear" x1="7424.1" y1="6116.3" x2="7317.1" y2="-5130.6" gradientUnits="userSpaceOnUse"><stop stop-opacity="0"/><stop offset="1"/></linearGradient><linearGradient id="paint7_linear" x1="9008.1" y1="5506.2" x2="8937" y2="-4572.3" gradientUnits="userSpaceOnUse"><stop stop-opacity="0"/><stop offset="1"/></linearGradient><linearGradient id="paint8_linear" x1="7890.8" y1="5577.3" x2="7809.9" y2="-4592.5" gradientUnits="userSpaceOnUse"><stop stop-opacity="0"/><stop offset="1"/></linearGradient><linearGradient id="paint9_linear" x1="7350.8" y1="7517.6" x2="7108.2" y2="-6388.6" gradientUnits="userSpaceOnUse"><stop stop-opacity="0"/><stop offset="1"/></linearGradient><linearGradient id="paint10_linear" x1="13446.5" y1="3613.4" x2="13414.5" y2="-3007.3" gradientUnits="userSpaceOnUse"><stop stop-opacity="0"/><stop offset="1"/></linearGradient><linearGradient id="paint11_linear" x1="13175.5" y1="3216.6" x2="13150.1" y2="-2639.7" gradientUnits="userSpaceOnUse"><stop stop-opacity="0"/><stop offset="1"/></linearGradient><linearGradient id="paint12_linear" x1="2337.2" y1="2011.5" x2="2326.5" y2="3441.5" gradientUnits="userSpaceOnUse"><stop stop-opacity="0"/><stop offset="1"/></linearGradient><linearGradient id="paint13_linear" x1="4073.9" y1="1918.7" x2="4064.2" y2="3271.9" gradientUnits="userSpaceOnUse"><stop stop-opacity="0"/><stop offset="1"/></linearGradient><linearGradient id="paint14_linear" x1="115.9" y1="103.2" x2="122" y2="103.2" gradientUnits="userSpaceOnUse"><stop stop-color="#ECC4D7"/><stop offset=".4" stop-color="#EFD4D1"/><stop offset="1" stop-color="#F2EAC9"/></linearGradient><linearGradient id="paint15_linear" x1="1865.6" y1="2469.3" x2="1900.1" y2="2469.3" gradientUnits="userSpaceOnUse"><stop stop-color="#ECC4D7"/><stop offset=".4" stop-color="#EFD4D1"/><stop offset="1" stop-color="#F2EAC9"/></linearGradient><linearGradient id="paint16_linear" x1="4336.9" y1="5427.2" x2="4625.4" y2="5427.2" gradientUnits="userSpaceOnUse"><stop stop-color="#ECC4D7"/><stop offset=".4" stop-color="#EFD4D1"/><stop offset="1" stop-color="#F2EAC9"/></linearGradient><linearGradient id="paint17_linear" x1="1020.2" y1="928.4" x2="1035.5" y2="928.4" gradientUnits="userSpaceOnUse"><stop stop-color="#ECC4D7"/><stop offset=".4" stop-color="#EFD4D1"/><stop offset="1" stop-color="#F2EAC9"/></linearGradient><linearGradient id="paint18_linear" x1="1068.7" y1="928.4" x2="1084" y2="928.4" gradientUnits="userSpaceOnUse"><stop stop-color="#ECC4D7"/><stop offset=".4" stop-color="#EFD4D1"/><stop offset="1" stop-color="#F2EAC9"/></linearGradient><linearGradient id="paint19_linear" x1="2061.8" y1="11464.3" x2="3857.6" y2="10463.7" gradientUnits="userSpaceOnUse"><stop stop-opacity="0"/><stop offset="1"/></linearGradient><linearGradient id="paint20_linear" x1="6992.7" y1="5277.7" x2="6719.2" y2="6243.8" gradientUnits="userSpaceOnUse"><stop stop-opacity="0"/><stop offset="1"/></linearGradient><linearGradient id="paint21_linear" x1="131.6" y1="101.7" x2="141" y2="116.8" gradientUnits="userSpaceOnUse"><stop stop-color="#fff" stop-opacity="0"/><stop offset=".1" stop-color="#fff" stop-opacity="0"/><stop offset=".2" stop-color="#fff" stop-opacity=".1"/><stop offset=".4" stop-color="#fff" stop-opacity=".3"/><stop offset=".6" stop-color="#fff" stop-opacity=".4"/><stop offset=".8" stop-color="#fff" stop-opacity=".7"/><stop offset="1" stop-color="#fff"/><stop offset="1" stop-color="#fff"/></linearGradient><linearGradient id="paint22_linear" x1="4303.9" y1="3092.6" x2="4081.3" y2="3120.3" gradientUnits="userSpaceOnUse"><stop stop-color="#fff" stop-opacity="0"/><stop offset=".1" stop-color="#fff" stop-opacity="0"/><stop offset=".2" stop-color="#fff" stop-opacity=".1"/><stop offset=".4" stop-color="#fff" stop-opacity=".3"/><stop offset=".6" stop-color="#fff" stop-opacity=".4"/><stop offset=".8" stop-color="#fff" stop-opacity=".7"/><stop offset="1" stop-color="#fff"/><stop offset="1" stop-color="#fff"/></linearGradient><linearGradient id="paint23_linear" x1="2207.4" y1="17965.7" x2="1969.2" y2="17966.5" gradientUnits="userSpaceOnUse"><stop stop-opacity="0"/><stop offset="1"/></linearGradient><linearGradient id="paint24_linear" x1="1384.5" y1="13340.7" x2="1278.1" y2="13341" gradientUnits="userSpaceOnUse"><stop stop-opacity="0"/><stop offset="1"/></linearGradient></defs></svg>