<svg width="178" height="180" fill="none" xmlns="http://www.w3.org/2000/svg"><path opacity=".4" d="M58.5 165c19.1 9.8 40.2 15 61.7 15 8 0 16.1-.7 23.6-3.5a46.6 46.6 0 0029-49.3c-1.1-7.2-4-14.2-3.8-21.6.2-7.7 3.7-14.8 6-22.2 2.5-8.2 3.5-17 2.7-25.5a46.4 46.4 0 00-16.9-33.7c-4.2-3-9-5.2-13.8-7.3l-21.9-9.6c-13-5.6-28.4-11.1-40.4-3.7-11 6.6-14.2 21.3-24.2 29.3C48 43 27.2 41 19 54.6c-6.7 11.4 0 26.5-4.3 39-1.4 4.2-4 7.8-6.4 11.5-7.6 12-15.7 38.4 3.4 44.9 5.7 2 12.5.5 18.4 1.8 10.2 2.3 19.1 8.4 28.3 13.2z" fill="#BAE5FF"/><path d="M15.6 136.8s13.3-3.9 11.9-16.5C26 107.7 29.2 84.5 36.7 85c7.6.5 45.1 0 45.1 0v28.7H57.2s1.7 9.6-2.8 16.4c-4.4 6.7-6.7 5.7-6.7 5.7l-32.1 1z" fill="#1280FF"/><path d="M15.6 136.8s13.3-3.9 11.9-16.5C26 107.7 29.2 84.5 36.7 85c7.6.5 45.1 0 45.1 0v28.7H57.2s1.7 9.6-2.8 16.4c-4.4 6.7-6.7 5.7-6.7 5.7l-32.1 1z" fill="url(#paint0_linear)"/><path d="M72 74.7h59.7s6.6 1.6 7.3 10.3v78.2l-44.3.7h-1.3a13.6 13.6 0 01-13-13.6V82.7s-.9-7-8.3-8z" fill="#1280FF"/><path d="M72 74.7h59.7s6.6 1.6 7.3 10.3v78.2l-44.3.7h-1.5a13.6 13.6 0 01-12.8-13.6V82.7s-.9-7-8.3-8z" fill="url(#paint1_linear)"/><path d="M97.5 144.7s-6.9-.6-7 8.6c0 9.3 6.2 7.5 6.2 7.5H98s8.3-5.8 3.8-12c0 0-1.8-3.7-4.3-4z" fill="url(#paint2_linear)"/><path d="M98.2 146s-6.2-.6-6.2 7.8c0 8.3 5.5 6.7 5.5 6.7h1.2s7.4-5.2 3.4-10.9c0 0-1.6-3.3-4-3.5z" fill="url(#paint3_linear)"/><path d="M97.5 144.7h58.1s4.3 1.6 3.8 8.6c-.4 7-7.9 10.6-7.9 10.6H94.7s5.8-3.4 5.8-10c.1-6.5-3-9.2-3-9.2z" fill="#1280FF"/><path d="M97.5 144.7h58.1s4.3 1.6 3.8 8.6c-.4 7-7.9 10.6-7.9 10.6H94.7s5.8-3.4 5.8-10c.1-6.5-3-9.2-3-9.2z" fill="url(#paint4_linear)"/><path d="M36.7 85s4.2.4 3.8 6.8c-.4 6.4-1 22.3 6.7 22.3 7.6 0 12.8-1.3 13-5.7.3-4.4.6-23.7.6-23.7l-24 .3z" fill="#1280FF"/><path d="M72 74.7s-10.4-.3-11.3 10c-.8 10.3-.5 23.7-.5 23.7s-1.5 5.5-9.5 5.7h29.8V82.7s-1.2-7.2-8.4-8z" fill="#1280FF"/><path d="M72 74.7s-10.4-.3-11.3 10c-.8 10.3-.5 23.7-.5 23.7s-1.5 5.5-9.5 5.7h29.8V82.7s-1.2-7.2-8.4-8z" fill="url(#paint5_linear)"/><path d="M99 20.8c-2 .5-3.3 2.6-3.7 4.7-.4 2 0 4.1.1 6.2.2 2.3.2 4.5.2 6.8 0 1 0 2 .6 3s1.9 1.6 3.1 1.9c2 .5 4.2.4 6.3.3.8 0 1.7 0 2.3-.6.4-.5.7-1 .9-1.6.3-1.6.5-3.2.5-4.8l.4-8c.1-2.7 0-6.4-3-7.8-.9-.4-1.8-.3-2.7-.3-1.6.1-3.4-.2-5 .2z" fill="#FA3D38"/><path d="M98.8 39.5c-.6.5 0 2.2 1 2.5.6.2-3 .3-3.4-.3-.4-.6-.7-1.3-.7-2V33c0-1 0-2 .2-3 .5-1.4 1.6-2.5 2.3-4 .6.9.6 2 .5 3.1a25 25 0 00.5 6.2c.6 1.3 2.5 1.6 2.9 3 .5 1.8-2.3 1.5-3.3 1.2z" fill="url(#paint6_linear)"/><path d="M102 21.6l.5.9c.1.4.3.8.8 1 .2 0 .4 0 .6-.2a2 2 0 001.1-.9c.2-.3.2-.6.2-1 0-1.2-.2-5.6-2-5.4-1.4.2-1.5 4.5-1.1 5.6z" fill="url(#paint7_linear)"/><path d="M103.6 21.6c.3.3.8.6 1.2.4.3-.2.4-.6.5-1v-1.1a.8.8 0 00-.5-1c-.4-.2-2.2-1.3-2.3-.1 0 1 .4 2 1.1 2.8z" fill="url(#paint8_linear)"/><path d="M108.8 13.2a30.3 30.3 0 01-1.7 5.7c-.4.6-.9 1-1.4 1.2a2.7 2.7 0 01-2.3-.5 4 4 0 01-1.3-1.7l-.4-1.6c-.2-1.5.1-3 .8-4.3l.8-1.2a3.3 3.3 0 012.6-.5 8 8 0 012.6 1c.7.4.4 1.2.3 1.9z" fill="url(#paint9_linear)"/><path d="M108.6 9.5l.7.7 1 1.3.4.6c0 .2 0 .4-.2.6a2.1 2.1 0 01-1.6 1c-.8 0-1.5-.3-2.1-.7a.8.8 0 01-1 .3l-1-.2a1.6 1.6 0 00-1.5.7c0 .1-.2.3-.3.2a.2.2 0 01-.1-.2c0-.3-.2-.6-.5-.6a.4.4 0 00-.4.4l.1.5.3.8v.1h-.3c-.2 0-.3.3-.4.5 0 .2 0 .4-.2.6h-.2a1.5 1.5 0 01-.4-1.2 44.4 44.4 0 010-3.2l.7-1c.2-.4.4-.7.8-1 .4-.3 1-.5 1.6-.5.8-.2 1.6-.2 2.5-.2.8 0 1.5.1 2.1.5z" fill="#0D3DBF"/><path d="M112.2 26.3c.6 2 .6 4.1.5 6.2l-.1 2.3c-.1.7-.4 1.3-.8 1.8a2.3 2.3 0 01-1.6 1c-.3 0-.5 0-.8-.2-.6-.3-.7-1.2-.7-1.8l-.3-8.2c0-1.3-2.3-4.8-2-6 .1-1.3 3.1 1 3.9 1.7.8.9 1.5 2 1.9 3.2z" fill="#FA3D38"/><path d="M111.9 28.9c0-.2 0-.4-.2-.5a.3.3 0 00-.3 0 1 1 0 00-.3.8l-.2 1.8c0 .3-.2 1 .3.8.8 0 .6-2.3.7-2.9z" fill="#3E3E54"/><path d="M110.5 31a1.7 1.7 0 00-1.3.7v.2a.9.9 0 00.7.4l1.7.1h.4l.1-.4c.1-.3.4-1-.1-1.1h-1.5z" fill="url(#paint10_linear)"/><path d="M92.1 28.1c-.8 1.1-1.7 2.4-1.5 3.8a4 4 0 001.2 2 18.3 18.3 0 007.4 4l.3-.2c.8-1 .2-2.5-.7-3.4-1-1-2.1-1.6-2.7-2.7v-.4c0-.1 0-.2.2-.3a9 9 0 003-4.7c.3-1.3-.4-5.3-2.4-4.2-1 .6-1.7 2-2.3 2.9L92 28.1z" fill="#FA3D38"/><path d="M96 43.6l2.6 29-3.4 2 6.5-.4.8-24.4h2.6l2 24.6 6.8.5-3.5-2.5.2-30.4H96.8c-.8 0-.9.8-.8 1.6z" fill="#000"/><path d="M104.5 32.3a1.2 1.2 0 011.5-.8 93 93 0 018.4.6 1.3 1.3 0 010 1.2 68.2 68.2 0 01-4 9 71.4 71.4 0 01-10-.2c-.2-.4.6-1.5.8-1.9l1-2.6c.6-1.8 1.5-3.5 2.3-5.3z" fill="#fff"/><path d="M101.2 35.2c.4 0 1 0 1.1.3.1.2 0 .5.3.7h1.2a1 1 0 01.8.4 1 1 0 01-.1 1l-.6.8a2 2 0 01-.6.4 2 2 0 01-.7.2c-1 0-2-.2-2.8-.6-.6-.3-1-.7-1.2-1.2-.5-1.6 1.7-1.8 2.6-2z" fill="url(#paint11_linear)"/><path d="M131.3 84H94a1.4 1.4 0 100 2.9h37.3a1.4 1.4 0 100-2.9z" fill="url(#paint12_linear)"/><path d="M131.3 90.3H94a1.4 1.4 0 100 3h37.3a1.4 1.4 0 100-3z" fill="url(#paint13_linear)"/><path d="M131.3 96.7H94a1.4 1.4 0 000 2.8h37.3a1.4 1.4 0 100-2.8z" fill="url(#paint14_linear)"/><path d="M131.3 103H94a1.4 1.4 0 000 2.8h37.3a1.4 1.4 0 100-2.8z" fill="url(#paint15_linear)"/><path d="M131.3 109.3H94a1.4 1.4 0 000 2.8h37.3a1.4 1.4 0 100-2.8z" fill="url(#paint16_linear)"/><path d="M131.3 115.6H94a1.4 1.4 0 100 2.8h37.3a1.4 1.4 0 100-2.8z" fill="url(#paint17_linear)"/><path d="M131.3 121.9H94a1.4 1.4 0 000 2.9h37.3a1.4 1.4 0 100-3z" fill="url(#paint18_linear)"/><path d="M100.9 128.3h-4.4v13h4.4v-13z" fill="url(#paint19_linear)"/><path d="M107 132.3h-4.4v9h4.4v-9z" fill="url(#paint20_linear)"/><path d="M119 128.9h-4.4v12.4h4.4v-12.4z" fill="url(#paint21_linear)"/><path d="M113 135.6h-4.4v5.7h4.4v-5.7z" fill="url(#paint22_linear)"/><path d="M128.7 131.4h-5.1v10h5.1v-10z" fill="url(#paint23_linear)"/><path d="M133.9 131.4h-5.2v10h5.2v-10z" fill="url(#paint24_linear)"/><path d="M133.9 128.7h-10.3v2.7h10.3v-2.7z" fill="url(#paint25_linear)"/><path d="M80.8 153.4c.3 1.8 2.7 8.1 8.7 9.7 2.8.7 6 1.4 8.6.3a6 6 0 002.1-1.3 4.3 4.3 0 000-5.7c-.5-.6-1.2-1-1.9-1.4-2.1-1.3-4.7-3.3-7.3-3.4-2.5 0-7.8 1-10.2 1.8z" fill="url(#paint26_linear)"/><defs><linearGradient id="paint0_linear" x1="15.6" y1="110.9" x2="81.8" y2="110.9" gradientUnits="userSpaceOnUse"><stop stop-opacity="0"/><stop offset="1"/></linearGradient><linearGradient id="paint1_linear" x1="72.1" y1="118.8" x2="175.9" y2="120.1" gradientUnits="userSpaceOnUse"><stop offset="0" stop-color="#fff" stop-opacity="0"/><stop offset=".3" stop-color="#fff" stop-opacity=".4"/><stop offset=".7" stop-color="#fff" stop-opacity=".7"/><stop offset="1" stop-color="#fff"/></linearGradient><linearGradient id="paint2_linear" x1="3986.1" y1="6053" x2="2027.3" y2="4853.1" gradientUnits="userSpaceOnUse"><stop stop-opacity="0"/><stop offset="1"/></linearGradient><linearGradient id="paint3_linear" x1="3538.2" y1="5394" x2="1952.6" y2="4422.4" gradientUnits="userSpaceOnUse"><stop stop-opacity="0"/><stop offset="1"/></linearGradient><linearGradient id="paint4_linear" x1="20578.3" y1="5312.3" x2="20364.1" y2="7496.1" gradientUnits="userSpaceOnUse"><stop stop-opacity="0"/><stop offset="1"/></linearGradient><linearGradient id="paint5_linear" x1="4492.9" y1="7656.3" x2="6271.7" y2="7656.3" gradientUnits="userSpaceOnUse"><stop stop-opacity="0"/><stop offset="1"/></linearGradient><linearGradient id="paint6_linear" x1="1717" y1="1151" x2="1554.6" y2="1169.3" gradientUnits="userSpaceOnUse"><stop stop-opacity="0"/><stop offset="1"/></linearGradient><linearGradient id="paint7_linear" x1="101.9" y1="19.7" x2="105.2" y2="19.7" gradientUnits="userSpaceOnUse"><stop stop-color="#E5C5D5"/><stop offset=".4" stop-color="#EAD4D1"/><stop offset="1" stop-color="#F0E9CB"/></linearGradient><linearGradient id="paint8_linear" x1="821.5" y1="204.6" x2="817.5" y2="143.3" gradientUnits="userSpaceOnUse"><stop stop-opacity="0"/><stop offset="1"/></linearGradient><linearGradient id="paint9_linear" x1="1929" y1="337.4" x2="2034.8" y2="337.4" gradientUnits="userSpaceOnUse"><stop stop-color="#E5C5D5"/><stop offset=".4" stop-color="#EAD4D1"/><stop offset="1" stop-color="#F0E9CB"/></linearGradient><linearGradient id="paint10_linear" x1="933.7" y1="132.6" x2="952.9" y2="132.6" gradientUnits="userSpaceOnUse"><stop stop-color="#E5C5D5"/><stop offset=".4" stop-color="#EAD4D1"/><stop offset="1" stop-color="#F0E9CB"/></linearGradient><linearGradient id="paint11_linear" x1="1599" y1="330.3" x2="1674.2" y2="330.3" gradientUnits="userSpaceOnUse"><stop stop-color="#E5C5D5"/><stop offset=".4" stop-color="#EAD4D1"/><stop offset="1" stop-color="#F0E9CB"/></linearGradient><linearGradient id="paint12_linear" x1="9255.9" y1="521.8" x2="9253.3" y2="894.9" gradientUnits="userSpaceOnUse"><stop offset="0" stop-color="#fff" stop-opacity="0"/><stop offset=".3" stop-color="#fff" stop-opacity=".4"/><stop offset=".7" stop-color="#fff" stop-opacity=".7"/><stop offset="1" stop-color="#fff"/></linearGradient><linearGradient id="paint13_linear" x1="9304" y1="528.5" x2="9301.5" y2="901.5" gradientUnits="userSpaceOnUse"><stop offset="0" stop-color="#fff" stop-opacity="0"/><stop offset=".3" stop-color="#fff" stop-opacity=".4"/><stop offset=".7" stop-color="#fff" stop-opacity=".7"/><stop offset="1" stop-color="#fff"/></linearGradient><linearGradient id="paint14_linear" x1="9352.2" y1="535.1" x2="9349.7" y2="908.2" gradientUnits="userSpaceOnUse"><stop offset="0" stop-color="#fff" stop-opacity="0"/><stop offset=".3" stop-color="#fff" stop-opacity=".4"/><stop offset=".7" stop-color="#fff" stop-opacity=".7"/><stop offset="1" stop-color="#fff"/></linearGradient><linearGradient id="paint15_linear" x1="9400.4" y1="541.8" x2="9397.9" y2="914.8" gradientUnits="userSpaceOnUse"><stop offset="0" stop-color="#fff" stop-opacity="0"/><stop offset=".3" stop-color="#fff" stop-opacity=".4"/><stop offset=".7" stop-color="#fff" stop-opacity=".7"/><stop offset="1" stop-color="#fff"/></linearGradient><linearGradient id="paint16_linear" x1="9448.6" y1="548.4" x2="9446" y2="921.4" gradientUnits="userSpaceOnUse"><stop offset="0" stop-color="#fff" stop-opacity="0"/><stop offset=".3" stop-color="#fff" stop-opacity=".4"/><stop offset=".7" stop-color="#fff" stop-opacity=".7"/><stop offset="1" stop-color="#fff"/></linearGradient><linearGradient id="paint17_linear" x1="9496.8" y1="555" x2="9494.2" y2="928.1" gradientUnits="userSpaceOnUse"><stop offset="0" stop-color="#fff" stop-opacity="0"/><stop offset=".3" stop-color="#fff" stop-opacity=".4"/><stop offset=".7" stop-color="#fff" stop-opacity=".7"/><stop offset="1" stop-color="#fff"/></linearGradient><linearGradient id="paint18_linear" x1="9545" y1="561.7" x2="9542.4" y2="934.7" gradientUnits="userSpaceOnUse"><stop offset="0" stop-color="#fff" stop-opacity="0"/><stop offset=".3" stop-color="#fff" stop-opacity=".4"/><stop offset=".7" stop-color="#fff" stop-opacity=".7"/><stop offset="1" stop-color="#fff"/></linearGradient><linearGradient id="paint19_linear" x1="974.8" y1="3370" x2="920.3" y2="3672.3" gradientUnits="userSpaceOnUse"><stop offset="0" stop-color="#fff" stop-opacity="0"/><stop offset=".3" stop-color="#fff" stop-opacity=".4"/><stop offset=".7" stop-color="#fff" stop-opacity=".7"/><stop offset="1" stop-color="#fff"/></linearGradient><linearGradient id="paint20_linear" x1="1035.9" y1="2390.9" x2="1009" y2="2604.4" gradientUnits="userSpaceOnUse"><stop offset="0" stop-color="#fff" stop-opacity="0"/><stop offset=".3" stop-color="#fff" stop-opacity=".4"/><stop offset=".7" stop-color="#fff" stop-opacity=".7"/><stop offset="1" stop-color="#fff"/></linearGradient><linearGradient id="paint21_linear" x1="1152.2" y1="3256.9" x2="1102.1" y2="3546.7" gradientUnits="userSpaceOnUse"><stop offset="0" stop-color="#fff" stop-opacity="0"/><stop offset=".3" stop-color="#fff" stop-opacity=".4"/><stop offset=".7" stop-color="#fff" stop-opacity=".7"/><stop offset="1" stop-color="#fff"/></linearGradient><linearGradient id="paint22_linear" x1="1095.9" y1="1574.7" x2="1084.9" y2="1711.6" gradientUnits="userSpaceOnUse"><stop offset="0" stop-color="#fff" stop-opacity="0"/><stop offset=".3" stop-color="#fff" stop-opacity=".4"/><stop offset=".7" stop-color="#fff" stop-opacity=".7"/><stop offset="1" stop-color="#fff"/></linearGradient><linearGradient id="paint23_linear" x1="1430.9" y1="2703.9" x2="1436.5" y2="3031.6" gradientUnits="userSpaceOnUse"><stop offset="0" stop-color="#fff" stop-opacity="0"/><stop offset=".3" stop-color="#fff" stop-opacity=".4"/><stop offset=".7" stop-color="#fff" stop-opacity=".7"/><stop offset="1" stop-color="#fff"/></linearGradient><linearGradient id="paint24_linear" x1="1490.1" y1="2736.5" x2="1493" y2="3298.6" gradientUnits="userSpaceOnUse"><stop offset="0" stop-color="#fff" stop-opacity="0"/><stop offset=".3" stop-color="#fff" stop-opacity=".4"/><stop offset=".7" stop-color="#fff" stop-opacity=".7"/><stop offset="1" stop-color="#fff"/></linearGradient><linearGradient id="paint25_linear" x1="2788.8" y1="808.4" x2="2789.7" y2="856.2" gradientUnits="userSpaceOnUse"><stop offset="0" stop-color="#fff" stop-opacity="0"/><stop offset=".3" stop-color="#fff" stop-opacity=".4"/><stop offset=".7" stop-color="#fff" stop-opacity=".7"/><stop offset="1" stop-color="#fff"/></linearGradient><linearGradient id="paint26_linear" x1="5002.5" y1="3811.5" x2="4643.5" y2="5104" gradientUnits="userSpaceOnUse"><stop stop-opacity="0"/><stop offset="1"/></linearGradient></defs></svg>