<svg width="544" height="450" fill="none" xmlns="http://www.w3.org/2000/svg"><path opacity=".4" d="M44 357s-58.2-59.8-40.7-123c17.4-63.3 64.4-63.4 141-122.7C220.8 52 240.9-7.3 360.4.7c119.5 8.1 198.7 211.6 180 266.9-18.8 55.2-35 97-35 97L44 357z" fill="#BAE5FF"/><path d="M215.7 69.3H15.3c-4.8 0-8.7 3.9-8.7 8.7v137.4c0 4.8 3.9 8.7 8.7 8.7h200.4c4.8 0 8.7-3.9 8.7-8.7V78c0-4.8-3.9-8.7-8.7-8.7z" fill="#fff"/><path opacity=".5" d="M215.7 69.3H15.3c-4.8 0-8.7 3.9-8.7 8.7v137.4c0 4.8 3.9 8.7 8.7 8.7h200.4c4.8 0 8.7-3.9 8.7-8.7V78c0-4.8-3.9-8.7-8.7-8.7z" fill="#1280FF"/><path d="M537 346.2H33.7V357H537v-10.8zM523.3 357H44v93h479.3v-93z" fill="#1280FF"/><path opacity=".2" d="M523.3 357H44v22.3h479.3V357z" fill="url(#paint0_linear)"/><path d="M199.3 346.2H84.5l5.4-27h106l3.4 27z" fill="#1280FF"/><path opacity=".5" d="M199 346.2H91l5-27h100l3 27z" fill="url(#paint1_linear)"/><path d="M126.1 330c0 1-.4 1.6-1 2.1s-1.3.8-2.3.8a3 3 0 01-2.4-1.1c-.6-.8-1-1.8-1-3v-.8c0-.8.2-1.5.5-2.1a3.2 3.2 0 013-2c1 0 1.7.3 2.3.8.5.5.8 1.3 1 2.2H125c-.1-.7-.3-1.2-.7-1.5a2 2 0 00-1.4-.5 2 2 0 00-1.7.8c-.4.5-.6 1.3-.6 2.3v.9c0 .9.2 1.6.6 2.2.4.6 1 .8 1.6.8.7 0 1.2-.1 1.5-.4.3-.3.6-.8.7-1.5h1.1zm7.4-5h-2.8v7.8h-1.1V325h-2.8v-1h6.7v1zm7.8 3.7c0 .8-.1 1.6-.4 2.2-.3.7-.7 1.1-1.2 1.5-.5.3-1.2.5-1.9.5-.6 0-1.3-.2-1.8-.5-.5-.4-1-.8-1.2-1.5-.3-.6-.5-1.3-.5-2.1v-.7c0-.8.2-1.5.5-2.2.3-.6.7-1.1 1.2-1.4.5-.4 1.1-.5 1.8-.5s1.3.1 1.9.5c.5.3 1 .8 1.2 1.4.3.7.4 1.4.4 2.2v.6zm-1.1-.6c0-1-.2-1.8-.6-2.3a2 2 0 00-1.8-.9 2 2 0 00-1.7.9c-.4.5-.6 1.3-.6 2.3v.6c0 1 .2 1.8.6 2.3.4.6 1 .9 1.7.9a2 2 0 001.8-.8c.4-.5.6-1.3.6-2.3v-.7z" fill="#000"/><path d="M197.6 312.4s2.4-67.4 15.8-74.1c13.5-6.8 68.9-4 81-.7 12 3.4 21.7 51.4 24.8 59 5.7 13.7 27.2 21.5 27.2 21.5l-2 28.3-127.6-.7s-15.1-3-19.2-33.3z" fill="#1280FF"/><path d="M236.5 235.7a6 6 0 00-.9 4.3c.5 4.2 2.2 8.2 5 11.4 2.8 3.2 6.1 5.8 9.9 7.8 1.2-3 2.1-8.1 4.6-9 2.6-.6 5.3-1 8-1.4.1-.2-7.3-1.3-7.6-1.4-4.6-1.2-8-4.1-11.1-7.7-.8-.9-1.5-1.8-2-2.8-.7-1.4-.2-3.2-2-3a5.5 5.5 0 00-3.9 1.8z" fill="url(#paint2_linear)"/><path d="M274.2 253.3c.4.5 1 1 1.5.7l.4-.4c1.2-2 1.6-4.4 1.1-6.7s-1.3-4.5-2.5-6.5a26 26 0 00-3.7-5.4c-.6-.7-1.8-1.4-2.6-.8-.3.3-.5.7-.6 1.2-.6 2.3-6.1 11.3-4.8 13.4.6.8 6.4.3 7.4 1 1.4 1 2.7 2.2 3.8 3.5z" fill="url(#paint3_linear)"/><path d="M281.5 187.2c-.3-3.7-7.6-5.2-8.8-8l11.2-.4s1.3 14.8-4 22l-1.1-2.8c1.4-6.9 3.3-2.4 2.7-10.8z" fill="#984E45"/><path d="M245.9 211.8l-4.2 25.2s9.3 13.6 21 11.5c11.6-2 7.3-7.7 7.3-7.7l-1.4-21.4s-9.2 2.2-22.7-7.6z" fill="#F7AD7E"/><path opacity=".5" d="M244.4 220.6l1.5-8.8c13.5 9.8 20.5 5.6 20.5 5.6l3.2 11.5c-2 2 .5 9-7.4 8.1-6.4-.6-12.5-9.4-17.8-16.4z" fill="url(#paint4_linear)"/><path d="M235.3 193.5c1 14 15.3 38.7 29.2 37.7 14-1 18-30 17-44s-8.8-22-22.8-21a25.2 25.2 0 00-23.4 27.3z" fill="#F7AD7E"/><path d="M246.8 166.6c.9-.2 1.1-.9 2.2-1.8 4.2-3.6 10-4.3 15.3-3.7 13 1.5 16.1 10.7 19.6 9.3 3.4-1.5 9.7 4 5.4 10.3-4.3 6.2-11.2 8-19.8 3.8-5.4-2.7-13-4.8-19-3.3a3.5 3.5 0 00-2.5 1.5c-.8 1.6-.4 4.9-.4 6.7.3 4.5.8 9 1.7 13.3-.7 0-1.2-.6-1.6-1.2l-2-4.7c-.8-1.7-2.4-4.4-4.6-3a5.1 5.1 0 00-2 3.4c-.6 3 0 7.3 2.4 9.4 2 1.7 2.6 4.9 3 7.3.2.8 1 2.8.7 3.5-.5 1.2-2.4 1.1-3.3.3-1-1-1.7-2.4-2-4a97 97 0 00-7.7-20.4c-.8-1.5-1.5-3-2-4.6-.9-3.6-.6-7.4.7-10.8 1-3.6 3-6.8 5.7-9.3 3.1-2.5 5.7-2.1 9.3-2h1z" fill="#984E45"/><path opacity=".2" d="M252.3 344.4l2-26.3-21.4-3-6.7-36.8s24.8 23 45.7 22.3c20.9-.6 23.5-8.7 23.5-8.7l4 51.9-47 .6z" fill="url(#paint5_linear)"/><path d="M256.4 249.7l2.8 4.8 4.2 3.7 7.3 80.8 14.4-.4-17.8-81.3 2-8s-8.9-1.1-12.9.4z" fill="url(#paint6_linear)"/><path d="M249.9 327.8s17.9-14.4 24.1-12.6c6.3 1.8 13 8.5 13.5 10.8.4 2.2-2.7 5.8-6.3 6.2-3.6.5-7.6 3.6-9.8 2.7-2.3-1-7.6 0-9.9 2.6-2.2 2.7-12.5 6.3-12.5 6.3s-6.7-9.3.9-16z" fill="#F7AD7E"/><path d="M259.6 346.5h130.6a6.6 6.6 0 000-13.3H259.6a6.6 6.6 0 000 13.3z" fill="#1280FF"/><path d="M259.6 346.5h130.6a6.6 6.6 0 000-13.3H259.6a6.6 6.6 0 000 13.3z" fill="url(#paint7_linear)"/><path d="M310.1 333.7l2.2 7.1 92.8 5.7 26.4-67.3a6 6 0 00-5.5-8h-78.6a19 19 0 00-17.7 12l-19.6 50.5z" fill="#1280FF"/><path d="M310.1 333.7l2.2 7.1 92.8 5.7 26.4-67.3a6 6 0 00-5.5-8h-78.6a19 19 0 00-17.7 12l-19.6 50.5z" fill="url(#paint8_linear)"/><path d="M310 346.6H405l25-64a5.6 5.6 0 00-5.1-7.6h-74.7a18 18 0 00-16.7 11.4l-23.7 60.2z" fill="#1280FF"/><path d="M310 346.6H405l25-64a5.6 5.6 0 00-5.1-7.6h-74.7a18 18 0 00-16.7 11.4l-23.7 60.2z" fill="url(#paint9_linear)"/><path d="M498.2 221.5c2-3.2 3.4-6.7 4.4-10.3l7.7-1.5v-8.5l.1-8.5-7.6-1.7c-1-3.6-2.3-7-4.2-10.3l4.4-6.5-6-6-6-6.2-6.5 4.3c-3.2-2-6.6-3.4-10.2-4.4l-1.5-7.7h-8.5l-8.5-.1-1.6 7.6c-3.6.9-7 2.3-10.3 4.2l-6.5-4.4-6 6-6.1 6 4.3 6.5c-2 3.2-3.4 6.7-4.4 10.3l-7.7 1.5v8.5l-.1 8.6 7.6 1.6c1 3.6 2.3 7 4.2 10.3l-4.4 6.5 6 6.1 6 6.1 6.5-4.3c3.2 2 6.7 3.4 10.3 4.4l1.4 7.7h8.5l8.6.2 1.5-7.7a40 40 0 0010.3-4.2l6.5 4.4 6-6 6.1-6-4.3-6.5zm-49.2-6a21 21 0 0126.6-32 21 21 0 11-26.6 32z" fill="#1280FF"/><path d="M421.5 176c1.3-2 2.2-4.4 2.9-6.8l5-1V157l-5-1.1c-.6-2.4-1.5-4.8-2.8-7l3-4.2-4-4.1-4-4-4.3 2.8a26.5 26.5 0 00-6.8-2.9l-1-5.1H393l-1 5a26 26 0 00-6.9 2.9l-4.3-3-4 4-4 4 2.8 4.4a27.1 27.1 0 00-3 6.8l-5 1v11.3l5 1.1c.7 2.4 1.6 4.8 2.8 7l-3 4.2 4 4.1 4 4 4.4-2.8c2 1.3 4.4 2.3 6.8 2.9l1 5.1H404l1-5c2.5-.7 4.8-1.6 7-2.9l4.2 3 4-4 4.1-4-2.8-4.4zm-32.8-4a14 14 0 0117.7-21.2 14 14 0 01-8 25.4c-3.6 0-7.1-1.5-9.7-4.2z" fill="#1280FF"/><path d="M13.8 202.2l-1.5-1.9 46-36.4 42.2 13.1 45.2-43.4 35.7 5.2 31.2-36.1 1.8 1.6-32.1 37.1-35.8-5.2-45.4 43.5-42.3-13.2-45 35.7z" fill="#fff"/><path d="M107.2 177.6a6.5 6.5 0 01-6.8 7.2 6.4 6.4 0 01-5.7-4.4 6.5 6.5 0 015.3-8.4 6.4 6.4 0 017.2 5.6zM64.8 165a6.5 6.5 0 01-6.8 7.2 6.4 6.4 0 01-5.7-8.1 6.4 6.4 0 015.3-4.7 6.4 6.4 0 017.2 5.6z" fill="#1280FF"/><path d="M101.8 186a7.6 7.6 0 01-8.6-8.2 7.7 7.7 0 019.6-6.8 7.6 7.6 0 015.6 6.4 7.7 7.7 0 01-6.6 8.6zm-1.6-12.8a5.3 5.3 0 00-4.4 7 5.3 5.3 0 007.6 2.8 5.3 5.3 0 00-3.2-9.8z" fill="#fff"/><path d="M152.4 134.5a6.5 6.5 0 01-6.8 7.2 6.4 6.4 0 01-5.7-8 6.4 6.4 0 0110-3.5 6.4 6.4 0 012.5 4.3z" fill="#1280FF"/><path d="M147 142.9a7.6 7.6 0 01-8.6-8.1 7.7 7.7 0 019.6-6.9 7.6 7.6 0 015.6 6.5 7.7 7.7 0 01-6.6 8.5zm-1.6-12.8a5.3 5.3 0 00-4.4 7 5.3 5.3 0 007.6 2.9 5.3 5.3 0 002.6-5.3 5.2 5.2 0 00-5.8-4.6z" fill="#fff"/><path d="M187.8 139a6.5 6.5 0 01-6.8 7.3 6.4 6.4 0 01-5.6-4.4 6.5 6.5 0 015.3-8.4 6.4 6.4 0 017.1 5.6z" fill="#1280FF"/><path d="M182.4 147.5a7.6 7.6 0 01-8.5-8.1 7.7 7.7 0 019.6-6.9 7.6 7.6 0 014 12 7.6 7.6 0 01-5 3zm-1.5-12.8a5.2 5.2 0 00-4.3 6.8 5.2 5.2 0 007.5 3 5.2 5.2 0 002-7.2 5.2 5.2 0 00-5.2-2.6zM59.4 173.4a7.6 7.6 0 01-8.6-8.1 7.7 7.7 0 019.7-6.9 7.6 7.6 0 014 12 7.6 7.6 0 01-5 3zm-1.6-12.8a5.3 5.3 0 00-4.5 3.8 5.3 5.3 0 004.7 6.7 5.3 5.3 0 005.6-6 5.2 5.2 0 00-5.8-4.5z" fill="#fff"/><defs><linearGradient id="paint0_linear" x1="281.8" y1="320.5" x2="287" y2="454.4" gradientUnits="userSpaceOnUse"><stop offset="0"/><stop offset=".8" stop-opacity=".1"/><stop offset="1" stop-opacity="0"/></linearGradient><linearGradient id="paint1_linear" x1="12751.2" y1="6137.9" x2="12661.9" y2="8432.9" gradientUnits="userSpaceOnUse"><stop offset="0"/><stop offset=".8" stop-opacity=".1"/><stop offset="1" stop-opacity="0"/></linearGradient><linearGradient id="paint2_linear" x1="236.8" y1="270.7" x2="254.8" y2="231.4" gradientUnits="userSpaceOnUse"><stop offset="0"/><stop offset=".1" stop-opacity=".8"/><stop offset="1" stop-opacity="0"/></linearGradient><linearGradient id="paint3_linear" x1="3447" y1="4182.5" x2="3181.7" y2="4132.6" gradientUnits="userSpaceOnUse"><stop offset="0"/><stop offset=".1" stop-opacity=".8"/><stop offset="1" stop-opacity="0"/></linearGradient><linearGradient id="paint4_linear" x1="5009.2" y1="4116.4" x2="5378.3" y2="5438" gradientUnits="userSpaceOnUse"><stop offset="0"/><stop offset=".8" stop-opacity=".1"/><stop offset="1" stop-opacity="0"/></linearGradient><linearGradient id="paint5_linear" x1="14931.7" y1="21130.6" x2="14841.2" y2="12892.3" gradientUnits="userSpaceOnUse"><stop offset="0"/><stop offset=".8" stop-opacity=".1"/><stop offset="1" stop-opacity="0"/></linearGradient><linearGradient id="paint6_linear" x1="5725.1" y1="21147.4" x2="7035.5" y2="21119.4" gradientUnits="userSpaceOnUse"><stop offset="0"/><stop offset=".1" stop-opacity=".8"/><stop offset="1" stop-opacity="0"/></linearGradient><linearGradient id="paint7_linear" x1="35786" y1="3999.3" x2="35786.5" y2="3719.8" gradientUnits="userSpaceOnUse"><stop offset="0"/><stop offset=".1" stop-opacity=".8"/><stop offset="1" stop-opacity="0"/></linearGradient><linearGradient id="paint8_linear" x1="33338.2" y1="15523.3" x2="34463.9" y2="21644.4" gradientUnits="userSpaceOnUse"><stop offset="0"/><stop offset=".1" stop-opacity=".8"/><stop offset="1" stop-opacity="0"/></linearGradient><linearGradient id="paint9_linear" x1="34088.2" y1="20918.5" x2="34220.5" y2="15264.7" gradientUnits="userSpaceOnUse"><stop offset="0"/><stop offset=".1" stop-opacity=".8"/><stop offset="1" stop-opacity="0"/></linearGradient></defs></svg>