<svg data-name="Layer 1" xmlns="http://www.w3.org/2000/svg" xmlns:xlink="http://www.w3.org/1999/xlink" viewBox="0 0 548.4 492.6"><defs><linearGradient id="a" x1="392.5" y1="334.2" x2="394.3" y2="169.4" gradientUnits="userSpaceOnUse"><stop offset="0" stop-color="#010101" stop-opacity="0"/><stop offset=".9" stop-color="#010101"/></linearGradient><linearGradient id="c" x1="-211.5" y1="-8.8" x2="472.4" y2="343.9" gradientUnits="userSpaceOnUse"><stop offset="0" stop-color="#fff" stop-opacity="0"/><stop offset=".1" stop-color="#fff" stop-opacity=".2"/><stop offset=".2" stop-color="#fff" stop-opacity=".5"/><stop offset=".3" stop-color="#fff" stop-opacity=".7"/><stop offset=".3" stop-color="#fff" stop-opacity=".8"/><stop offset=".4" stop-color="#fff" stop-opacity=".9"/><stop offset=".5" stop-color="#fff"/><stop offset=".5" stop-color="#fff"/></linearGradient><linearGradient id="d" x1="179.8" y1="425.1" x2="265.9" y2="212.9" xlink:href="#a"/><linearGradient id="e" x1="163.2" y1="415.4" x2="394" y2="113.3" xlink:href="#a"/><linearGradient id="f" x1="231.9" y1="221.1" x2="142.7" y2="268.1" xlink:href="#a"/><linearGradient id="g" x1="199.6" y1="233.6" x2="40.4" y2="210.1" xlink:href="#a"/><linearGradient id="b" x1="244.1" y1="131.1" x2="263.7" y2="131.1" gradientTransform="rotate(-28 300.6 260.2)" gradientUnits="userSpaceOnUse"><stop offset="0" stop-color="#e4c5d5"/><stop offset=".4" stop-color="#e9d3cf"/><stop offset="1" stop-color="#efe8ca"/></linearGradient><linearGradient id="h" x1="187.7" y1="186" x2="281.8" y2="53.5" xlink:href="#a"/><linearGradient id="i" x1="200.3" y1="257.7" x2="247.7" y2="257.7" xlink:href="#b"/><linearGradient id="j" x1="260.5" y1="257" x2="312.9" y2="257" xlink:href="#b"/><linearGradient id="k" x1="263" y1="244.9" x2="274.4" y2="290.8" xlink:href="#a"/><linearGradient id="l" x1="312.3" y1="165.4" x2="360.1" y2="445.4" xlink:href="#a"/><linearGradient id="m" x1="314.8" y1="165.7" x2="362.1" y2="443.4" xlink:href="#a"/><linearGradient id="n" x1="292.9" y1="220.4" x2="390.2" y2="265.9" xlink:href="#a"/><linearGradient id="o" x1="265.1" y1="306.9" x2="170" y2="435.1" xlink:href="#a"/><linearGradient id="p" x1="292.5" y1="373.7" x2="167" y2="319.8" xlink:href="#a"/><linearGradient id="q" x1="293.3" y1="255.4" x2="294.5" y2="286.1" xlink:href="#a"/><linearGradient id="r" x1="266.4" y1="257.3" x2="268" y2="291.5" xlink:href="#a"/><linearGradient id="s" x1="186" y1="145.3" x2="243.3" y2="145.3" xlink:href="#b"/><linearGradient id="t" x1="168.3" y1="150.2" x2="226.7" y2="170.1" xlink:href="#a"/><linearGradient id="u" x1="235.3" y1="153.1" x2="312.3" y2="94.9" gradientTransform="rotate(38.8 342.5 234.8)" xlink:href="#a"/><linearGradient id="v" x1="250.4" y1="140.6" x2="360.8" y2="59.9" gradientTransform="rotate(38.8 342.6 234.7)" xlink:href="#a"/><linearGradient id="w" x1="268.4" y1="129.1" x2="430.9" y2="-30.2" gradientTransform="rotate(38.8 342.8 234.7)" xlink:href="#a"/><linearGradient id="x" x1="289.6" y1="110.9" x2="532.5" y2="-112.2" gradientTransform="rotate(38.8 342.9 234.6)" gradientUnits="userSpaceOnUse"><stop offset="0" stop-color="#010101" stop-opacity="0"/><stop offset=".4" stop-color="#010101" stop-opacity=".4"/><stop offset=".9" stop-color="#010101"/></linearGradient><linearGradient id="y" x1="313.4" y1="91.4" x2="431.6" y2="-5.3" gradientTransform="rotate(38.6 342.4 224.8)" xlink:href="#c"/><linearGradient id="z" x1="316.8" y1="90.3" x2="393" y2="24.5" gradientTransform="rotate(38.8 343.2 234.5)" xlink:href="#c"/><linearGradient id="A" x1="155.3" y1="401.5" x2="434.2" y2="217.7" xlink:href="#a"/><linearGradient id="B" x1="212.2" y1="237.5" x2="221.6" y2="237.5" xlink:href="#a"/></defs><path d="M548.3 193c-.7 22.9-9.6 44.6-19.8 65-17.3 34.3-39.2 67.3-49.3 104.8-4.5 16.3-2.2 33.6-3.8 49.6a49.2 49.2 0 01-18 36.5c-13.7 11-32.5 12.3-50 12.3-38 .3-77.5-2.5-112.6 12-10.4 4.4-20.2 10.2-30.8 13.9-20.8 7.1-43.4 5.8-65.3 4.4-21.3-1.3-43-2.8-63.2-9.6s-39.2-20-48.5-39.3c-4.5-9.5-6.6-19.9-9.6-30a87.3 87.3 0 00-5-13.3c-13.5-28-46.6-42-61.8-69.1C0 311.4-.6 288.8.3 267.2c.9-22.6 3.4-45.7 13.2-66.1 10.2-21.2 27.7-38 46.2-52.4 33.8-26.3 71.8-46.5 107.5-70.1 27-18 52.8-37.9 81.3-53.4s60.3-26.7 92.7-25C388.3 2.6 430 31.1 466.4 61c20.8 17 41.2 35 56.8 57s26 48.2 25.1 75z" fill="#1280ff" opacity=".2" style="isolation:isolate"/><path d="M475.4 412.4a49.2 49.2 0 01-18 36.5c-13.7 11-32.5 12.3-50 12.3-38 .3-77.5-2.5-112.6 12-10.4 4.4-20.2 10.2-30.8 13.9-20.8 7.1-43.4 5.8-65.3 4.4-21.3-1.3-43-2.8-63.2-9.6s-39.2-20-48.5-39.3c-4.5-9.5-6.6-19.9-9.6-30 56.8-14.3 119 8.7 175.6-7.4 13.2-3.8 25.9-9.6 39.3-12.9 35-8.5 64 4.7 97.8 8.5 28.3 3.2 53.4-.8 81.4 9.8 1.3.6 2.7 1.1 4 1.8z" fill="#1280ff" opacity=".2" style="isolation:isolate"/><path fill="#1280ff" d="M382.5 270.2h19v158.3h-19z"/><path fill="url(#a)" d="M382.9 270.2h19v158.3h-19z"/><path fill="#1280ff" d="M10.8 24.7h191.5v261H10.8z"/><path fill="url(#c)" d="M10.8 24.7h191.5v261H10.8z"/><circle cx="133.2" cy="145" r="50.3" fill="#1280ff" opacity=".3" style="isolation:isolate"/><path d="M168.1 302.5h32.2A46.6 46.6 0 01247 349v101.6H121.5V349a46.6 46.6 0 0146.6-46.5z" fill="#1280ff"/><path d="M253.8 351v101.6H128.3V351.1a43.7 43.7 0 011.1-10.3 46.5 46.5 0 0145.5-36.3h32.2a46.6 46.6 0 0146.6 46.6z" transform="translate(-6.8 -2)" fill="url(#d)"/><path d="M253.8 351v33.2l-.8 1-13.2-35.6c-6.7 12.4-8.1 27-7.2 41s4.2 27.6 6.4 41.4c.6 3.2 1 6.6-.2 9.6-2.6 6.1-11.6 7.4-17.2 3.7s-8.2-10.4-9.6-16.9c-4-18.7.2-38.1-1-57.2a35 35 0 00-5.8-19c-5.8-7.6-15.9-10.2-25.3-12.3-13.3-3-27.9-5.8-39.8.7-2 1-3.8 2.3-6 2.3a5.8 5.8 0 01-4.5-2.1 46.5 46.5 0 0145.4-36.3h32.2a46.6 46.6 0 0146.6 46.6z" transform="translate(-6.8 -2)" fill="url(#e)"/><path d="M171 170c-1.8 5.4-1.2 11.1-.6 16.7.1 1 .5 2.3 1.5 2.4a2.1 2.1 0 001.2-.4 16 16 0 004-3.4 6.7 6.7 0 012-2c2.2-.9 4.3 1 6.4 2a9.2 9.2 0 005.5.7c.5-.1 1-.3 1.2-.8a1.2 1.2 0 00-.1-.7c-1-2.8-3.8-4.6-5.5-7a16.4 16.4 0 01-2.7-8.2c-.3-2.2.7-6.2-1.2-7.8-4.5-3.8-10.6 5.2-11.7 8.5z" fill="none" stroke="#1280ff" stroke-miterlimit="10" stroke-width=".9"/><path d="M199.5 168.5c1.5 1.5 13.2 11.8 14.1 13.7a61.5 61.5 0 014.4 10.3 67.5 67.5 0 012.1 12.2l2 17.2a11.3 11.3 0 001.3 5 11 11 0 004.3 3.3 223.5 223.5 0 0029.2 13 41.8 41.8 0 01-.6 10.3 1.3 1.3 0 01-.4 1 1.3 1.3 0 01-1 0c-15.7-2.8-30.6-9.7-46.4-12.3a5.5 5.5 0 01-2.6-.8 5.3 5.3 0 01-1.4-2.3c-1.3-3.1-2.6-6.2-3.6-9.3-1.5-4.6-2.4-9.3-3.7-14-.9-2.7-1.9-5.4-2.4-8.2a54 54 0 01-.4-13.2 37.2 37.2 0 011-8.3c1.7-5.6-2.2-23.6 4-17.6z" fill="#1280ff"/><path d="M216 185.5c1.4 1.5 3.5-3.2 4.4-1.3a61.5 61.5 0 014.5 10.3 67.5 67.5 0 012 12.2l2 17.2a11.3 11.3 0 001.3 5 11 11 0 004.3 3.3 223.5 223.5 0 0029.3 13 41.8 41.8 0 01-.6 10.3 1.3 1.3 0 01-.5 1 1.3 1.3 0 01-.9 0c-15.8-2.8-30.7-9.7-46.5-12.3a5.5 5.5 0 01-2.6-.8 5.3 5.3 0 01-1.4-2.3c-1.3-3-2.5-6.2-3.6-9.3-1.4-4.6-2.3-9.3-3.7-14-.8-2.7-1.8-5.4-2.4-8.2a54 54 0 01-.4-13.2 37.2 37.2 0 011.1-8.3c1.6-5.6 7.4-8.6 13.6-2.6z" transform="translate(-6.8 -2)" fill="url(#f)"/><path d="M214.8 195.9l.9 24.9c.2 6.6 0 14.2-5.2 18.4-3.4 2.7-8.4 3.4-11 6.8a12 12 0 00-2.2 8 48 48 0 004.3 16.2 8.8 8.8 0 011 4.3c-.4 2.8-3.1 4.6-5.7 5.8a63 63 0 01-39 4.5 65 65 0 01-18.6-6.8 3.4 3.4 0 01-1.6-1.4 3.3 3.3 0 01.1-2.3c2.7-8.7 7.5-16.7 9.4-25.6 1.9-8.7.9-17.6 1.3-26.4a83.2 83.2 0 015.3-26c2-5 4.4-9.8 8.2-13.5 6.6-6.4 16.2-8.6 25.4-9.5a23.1 23.1 0 017.3.1c3.2.7 5.8 2.6 8.6 4 2.3 1.2 5.5 1.5 7.6 2.8 4.6 2.7 3.8 11 4 15.7z" fill="#1280ff"/><path d="M221.7 197.9l.8 24.9c.3 6.6 0 14.2-5.1 18.4-3.4 2.7-8.4 3.4-11.1 6.8a12 12 0 00-2.2 8 48 48 0 004.3 16.2 8.8 8.8 0 011 4.3c-.3 2.8-3.1 4.6-5.7 5.8a63 63 0 01-38.9 4.5 65 65 0 01-18.7-6.8 3.4 3.4 0 01-1.5-1.4 3.3 3.3 0 010-2.3c2.7-8.7 7.6-16.7 9.5-25.6 1.8-8.7.8-17.6 1.2-26.4a83.2 83.2 0 015.4-26c1.9-5 4.3-9.8 8.1-13.5 6.6-6.4 16.3-8.6 25.5-9.5a23.1 23.1 0 017.2.1c3.2.7 5.8 2.6 8.7 4 2.2 1.2 5.5 1.5 7.6 2.8 4.5 2.7 3.7 11 3.9 15.7z" transform="translate(-6.8 -2)" fill="url(#g)"/><path d="M192 152.9a78 78 0 00-1.8 12c-.2 3.8-.2 7.8 1.7 11.1a16 16 0 004.2 4.6 13 13 0 006.5 3 6.3 6.3 0 006.2-2.8c1-2 .8-4.3.4-6.4l-1-6.5a19.8 19.8 0 00-2.2-7.1c-2.4-4-7-5.7-11.5-7" transform="translate(-6.8 -2)" fill="url(#b)"/><path d="M204 179.4a6.3 6.3 0 002.4 1.5 2.4 2.4 0 002.6-.7 3.7 3.7 0 00.5-2l.3-6.9a19.6 19.6 0 00-.5-5.5c-.7-2.9-2.6-5.3-4.6-7.5s-5.5-6.3-8.9-6.2c-3.7.2-2.5 5.6-2.1 8a33.1 33.1 0 0010.4 19.3z" transform="translate(-6.8 -2)" fill="url(#h)"/><path d="M155.1 181.6c-1.8 3.7-2.7 7.7-3.8 11.7-1.3 4.2-2.8 8.4-3.7 12.8a107 107 0 00-2 16.3c-.3 5.6-.6 11.3-.6 17 0 4.2.3 8.8 3.4 11.8 2.3 2.3 5.7 3 9 3.7a265.6 265.6 0 0035.2 4 3.3 3.3 0 002.4-.4 3.1 3.1 0 00.8-1.9 35.6 35.6 0 00.5-8.6l-29.2-9.1c-.5-15.4 6.6-30 8.7-45.2a85.3 85.3 0 011.4-9.5c.8-3 2.1-6 2.9-9.1.6-2.5 1.3-7.8-1.8-9-2.5-.8-6.6 1-8.8 2a28.3 28.3 0 00-14.4 13.5z" fill="#1280ff"/><path d="M220.4 251.2c4.4-.4 8.9-1.2 13.3-.9s9 1.7 12 5a6.8 6.8 0 012 3.6 3.6 3.6 0 01-1.6 3.5c-1.4.9-3.1.4-4.7.4-3.8 0-7.5 2.6-11.1 1.6-2.3-.6-4-2.6-6.4-2.7-2.8 0-5 2.6-7.7 3.2-2.2.6-4.5-.2-6.5-1.4-1.4-.8-2.8-2-4.2-2.8-1.3-.8-3-1.3-4.2-2.3-1.7-1.5-1-3.1.7-4.5 4.7-3.7 12.9-2 18.4-2.7z" transform="translate(-6.8 -2)" fill="url(#i)"/><path d="M287.5 248.5a104.8 104.8 0 0111.1.5 23.5 23.5 0 018.6 2.3 11.3 11.3 0 015.7 6.6c-4.3 2.3-10.3-.2-14.3 2.6a31.5 31.5 0 00-2.4 2.1c-3.3 2.9-8 3.4-12.3 3.4a26.4 26.4 0 01-10.4-1.7c-3-1.3-16.8-11.9-12-15.2 2.6-1.9 8.4-.7 11.3-.7z" transform="translate(-6.8 -2)" fill="url(#j)"/><path fill="#1280ff" d="M244 259.2l1.2-4 42.5-1.6.7 5.2-44.3.4z"/><path fill="url(#k)" d="M244 259.2l1.2-4 42.5-1.6.7 5.2-44.3.4z"/><path fill="#1280ff" d="M368.9 237H249.8l16-85h119l-16 85z"/><path fill="url(#l)" d="M384.8 152l-16 85h-119l15.9-85h119z"/><path fill="url(#m)" d="M384.8 152l-16 85H254.6l16-85h114.2z"/><path fill="#1280ff" d="M306.4 198.1l14.6 56h-32.6l-4.3 4.7h59.3l-18.1-65.7-16.3-.5-2.6 5.5z"/><path fill="url(#n)" d="M306.4 198.1l14.6 56h-32.6l-4.3 4.7h59.3l-18.1-65.7-16.3-.5-2.6 5.5z"/><path fill="#1280ff" d="M309 192.6l16.3 61.4h-36.9v4.8h59.3l-18.2-65.7-20.5-.5z"/><path d="M305.7 433.3a2.5 2.5 0 01-1 1.8c-8.6 9.1-23.6 8.8-35.4 4a12 12 0 01-5.4-3.6c-1.5-2-1.6-4.6-1.8-7.2-.9-21.9-1-44-4.9-65.6-1.2-7.3-3-14.5-3.9-21.9-1.2-10.5-.6-21.2-1-31.8a3.1 3.1 0 00-.8-2.2 2.9 2.9 0 00-2-.6l-9.4-.2c-.1 22.4-1.6 43.6-1.2 66 .3 12.7-2.5 25.5-3.2 38.3a26.4 26.4 0 00.3 6.7c1.5 7 7.8 11.8 11.7 18a9.1 9.1 0 011.6 5.1c-.1 3-2.8 5.2-5.6 6s-5.9 0-8.7-.8a20.3 20.3 0 01-6-2.4 21.1 21.1 0 01-4-3.7l-6.5-8a11.6 11.6 0 01-2-3.5c-1-3.4 1-6.9 2.5-10.1a35 35 0 002-22.8 67 67 0 01-2.6-17q-.2-28.7-1-57.4a212 212 0 01-43.2 1.2c-9.8-.7-20.2-2.4-27.2-9.1-7.6-7.2-9.6-18.6-9.8-29-.1-3.7 0-7.6 1.8-10.8 14-.1 33.2 1.4 47.3 1.3a44 44 0 019.6.6 35.1 35.1 0 004.3.3c7.1.2 21.8.7 36.4 3.5a.3.3 0 00.2 0 78.8 78.8 0 0125.9 9.3l2 1.3a46 46 0 013.6 2.8l.2.1a25.3 25.3 0 018.4 16.3 78.4 78.4 0 01.4 9v2c.2 19-1.3 51 .5 76 .7 11 3.2 23.4 12.5 29.4 4.5 3 10.1 4 14.3 7.3a2.2 2.2 0 011 1.4z" fill="#606161"/><path d="M312.5 435.3a2.5 2.5 0 01-.9 1.8c-8.7 9.1-23.7 8.8-35.4 4a12 12 0 01-5.5-3.6c-1.4-2-1.6-4.6-1.7-7.1-1-22-1-44-5-65.7-1.2-7.3-3-14.5-3.8-21.9-1.3-10.5-.7-21.2-1.1-31.8a3.1 3.1 0 00-.7-2.2 2.9 2.9 0 00-2.1-.6l-9.4-.2c0 22.4-1.6 43.6-1.1 66 .2 12.8-2.5 25.5-3.2 38.3a26.4 26.4 0 00.2 6.7c1.5 7 7.9 11.8 11.7 18a9.1 9.1 0 011.7 5.1c-.2 3-2.9 5.2-5.7 6s-5.8 0-8.7-.7a20.3 20.3 0 01-6-2.5 21.1 21.1 0 01-3.9-3.7c-2.3-2.6-4.5-5.3-6.6-8a11.6 11.6 0 01-2-3.4c-1-3.5 1-7 2.5-10.2a35 35 0 002-22.8 67 67 0 01-2.6-17q-.2-28.7-.9-57.4a212 212 0 01-43.3 1.2c-9.7-.7-20.1-2.4-27.2-9.1-7.6-7.2-9.6-18.6-9.8-29 0-3.7 0-7.6 1.9-10.8 14-.1 33.1 1.4 47.2 1.3a44 44 0 019.7.7 35.1 35.1 0 004.2.2c7.2.2 21.8.7 36.4 3.5a.3.3 0 00.2 0 78.8 78.8 0 0126 9.3l2 1.3a46 46 0 013.6 2.8v.2a25.3 25.3 0 018.6 16.2 78.4 78.4 0 01.4 9v2c.2 19-1.4 51 .4 76 .8 11 3.2 23.4 12.6 29.4 4.5 3 10 4 14.3 7.3a2.2 2.2 0 011 1.4z" transform="translate(-6.8 -2)" fill="url(#o)"/><path d="M312.5 435.3a2.5 2.5 0 01-.9 1.8c-8.7 9.1-23.7 8.8-35.4 4a12 12 0 01-5.5-3.6c-1.4-2-1.6-4.6-1.7-7.1-1-22-1-44-5-65.7-1.2-7.3-3-14.5-3.8-21.9-1.3-10.5-.7-21.2-1.1-31.8a3.1 3.1 0 00-.7-2.2 2.9 2.9 0 00-2.1-.6l-9.4-.2s.3-6.6-2.1-9.5-45.2-16.3-45.2-16.3-2.7-3.6 7.4-5.3l2.4-.4c6.3-.7 20.3.7 34 4a.3.3 0 00.2 0 103 103 0 0125.9 9.2l2 1.3a24 24 0 013.6 2.8l.2.1a15.6 15.6 0 011.7 2.2 40 40 0 017 18 29.6 29.6 0 01.1 5 10.2 10.2 0 01-.1 1.5l.2.6c.2 19-1.3 51 .4 75.9.8 11 3.2 23.5 12.6 29.5 4.5 2.9 10.1 3.9 14.3 7.3a2.2 2.2 0 011 1.4z" transform="translate(-6.8 -2)" fill="url(#p)"/><path fill="#1280ff" d="M165.7 259h255.6v13.5H165.7z"/><path fill="#1280ff" d="M208 270.2h19v188.9h-19z"/><path fill="url(#q)" d="M165.7 259h255.7v4.5H165.7z"/><path fill="#1280ff" d="M229.6 271.8h75.2v13.9h-75.2z"/><path fill="url(#r)" d="M229.6 271.8h75.2v7h-75.2z"/><path d="M223.3 174.2a11.7 11.7 0 01-5.5 3.3c-3.3.7-6.6-1.4-9.2-3.6a53.3 53.3 0 01-14.8-19.8 64 64 0 00-3-6.8c-1.5-2.5-3.4-4.7-4.4-7.4s-.4-9.2 2.1-10.5a18 18 0 012.5-.8c3.1-1 5.4-.7 7.5-3.2 4.6-5.7 10-11.5 17.3-12.3 4.8-.5 9.6 1.2 14 3.3s10.4 5.2 12.6 9.8.3 11.1-.7 15.7a63.2 63.2 0 01-18.4 32.3z" transform="translate(-6.8 -2)" fill="url(#s)"/><path d="M214.3 120.5c.1 3 3.4 4.7 6.3 5.3s6.3.6 8.5 2.6c1.8 1.5 3 4 5.2 4.3a4.5 4.5 0 003-.9c3.5-2.3 4.9-6.9 4.3-11s-2.8-7.8-5.5-11c-9.2-11.2-24-17.8-38.3-16.3S170 105.3 165.6 119c-2.3 7.3-2.1 15.2-3.7 22.8a50.7 50.7 0 01-11.3 23c-6 6.8-14.2 12.7-15.8 21.7-1 5.7.9 11.6 4.2 16.5s7.6 8.7 12 12.5c4.4-7.3 13.9-9.3 21-14.1a29.2 29.2 0 0012.2-26.9c-.8-6.4-.6-6.6 0-13 .3-3.8 3.2-5.7 2.7-9.5-.2-2.5-5.6-12.4-6.3-14.8-1-3.9 0-9.5 5.2-9.5 4.3 0 6.9 5.5 8 8.8 4.2-1.5 20.7-10.8 20.5-16.1z" fill="#606161"/><path d="M221.1 122.5c.1 3 3.4 4.8 6.4 5.3s6.2.6 8.5 2.6c1.7 1.5 2.9 4 5.2 4.3a4.5 4.5 0 003-.9c3.4-2.3 4.8-6.8 4.2-11s-2.8-7.7-5.4-11c-9.2-11.1-24-17.8-38.4-16.3s-27.8 11.8-32.1 25.6c-2.3 7.3-2.2 15.2-3.7 22.8a50.7 50.7 0 01-11.4 23c-6 6.8-14.2 12.7-15.8 21.7-1 5.7 1 11.6 4.2 16.5s7.7 8.7 12 12.5c4.4-7.3 14-9.3 21-14.1a29.2 29.2 0 0012.2-26.9c-.7-6.4-.6-6.6 0-13 .4-3.8 3.2-5.7 2.8-9.5-.3-2.4-5.7-12.4-6.3-14.8-1.1-3.9 0-9.5 5.1-9.5 4.3 0 7 5.5 8.1 8.8 4.2-1.5 20.6-10.8 20.4-16.1z" transform="translate(-6.8 -2)" fill="url(#t)"/><path fill="#fff" d="M294 71l176.2-.4.1 51.5-176.2.4z"/><path fill="#1280ff" d="M306.3 85h21.5l.1 34.5-21.5.1z"/><path transform="rotate(-.2 -180.5 1808.2)" fill="url(#u)" d="M313.2 87h21.5v34.6h-21.5z"/><path fill="#1280ff" d="M327.7 85h21.5l.1 34.5-21.5.1z"/><path transform="rotate(-.2 -158 1808.2)" fill="url(#v)" d="M334.6 87h21.5v34.6h-21.5z"/><path fill="#1280ff" d="M349 85h21.6l.1 34.5-21.5.1z"/><path transform="rotate(-.2 -138.2 1808.3)" fill="url(#w)" d="M356 87h21.5v34.6H356z"/><path fill="#1280ff" d="M370.5 85l21.5-.2.1 34.6-21.5.1z"/><path transform="rotate(-.2 -115.7 1808.3)" fill="url(#x)" d="M377.4 86.9h21.5v34.6h-21.5z"/><path fill="#1280ff" d="M391.8 85l21.5-.1.1 34.6H392zM413.5 84.8H435l.1 34.5-21.5.1z"/><path fill="#1280ff" d="M434.6 85l21.5-.1.1 34.6h-21.5z"/><path fill="url(#y)" d="M432.1 119.7l-18.2-.2-.2-34.6 18.3.1.1 34.7z"/><path transform="rotate(-.2 -53.5 1808.5)" fill="url(#z)" d="M438.9 87h21.5v34.6h-21.5z"/><path fill="#1280ff" d="M201.6 270.2h19v188.9h-19z"/><path fill="url(#A)" d="M201.6 270.2h19v188.9h-19z"/><path fill="#1280ff" d="M218.6 248.5l-6.4-21 2.3-1.3 7.1 22.5-3-.2z"/><path fill="url(#B)" d="M218.6 248.5l-6.4-21 2.3-1.3 7.1 22.5-3-.2z"/><circle cx="108.9" cy="85.7" r="50.3" fill="#1280ff" opacity=".5" style="isolation:isolate"/><circle cx="74.9" cy="148.3" r="50.3" fill="#1280ff" opacity=".5" style="isolation:isolate"/><path fill="#fff" d="M93.5 146.9l1 17.9 4.5-6.7 5.5 8.6 3.5-2.4-6.3-8 7.2-1.1-15.4-8.3z"/><path fill="#1280ff" opacity=".5" style="isolation:isolate" d="M36.1 224.8h89.8v8.6H36.1z"/><path fill="#1280ff" opacity=".5" style="isolation:isolate" d="M36.1 233h89.8v8.6H36.1z"/><path fill="#1280ff" opacity=".5" style="isolation:isolate" d="M36.1 233h89.8v8.6H36.1z"/></svg>