<svg width="612" height="681" fill="none" xmlns="http://www.w3.org/2000/svg"><path opacity=".4" d="M567.8 11.1C625.5 34 659 92.8 702.7 137c25 25.4 54 46.4 79.8 71 25.7 24.7 48.5 54.2 56.3 89 14.9 65.9-26.6 130.3-37.5 197-3.4 21.2-3.8 43.2-10.7 63.6a139.7 139.7 0 01-25.7 43.9 222.7 222.7 0 01-183.3 79.1c-45.5-3-89.3-20.1-134.9-22-68.7-2.9-138.1 29-204.8 12.1-30.7-7.8-58-25.4-84.1-43.4-52-35.6-106-79.3-118-141.1-9-45.4 6.8-93.3-4.2-138.2-6.4-26.1-21.4-49.3-29.3-75-16.8-54.3 1.2-116.2 39.5-158.3C84 72.6 140.4 49.3 197 44.4c37.2-3.3 74.6.8 112 0 91-1.6 164.4-70.8 258.8-33.3z" fill="#BAE5FF"/></svg>