<svg width="162" height="180" fill="none" xmlns="http://www.w3.org/2000/svg"><path opacity=".2" d="M158 171.7l-15.7 1.6.2.4c.5.8 1.6 1 2.6 1.3.9.4 1.7 1.5 1.1 2.3-.3.4-.8.5-1.3.6l-5.4.9a38 38 0 01-19.7-.2c-2.6-1-2.8-2.5-2-3.7-33.3 1.4-66.9.3-100.4-.8-2.7 0-5.7-.7-6.5-3.5 17.3-7.7 34-7.7 52.7-8.2l65.6-1.8c1.2 0 2.4 0 3.3.6 1 .5 1.5 1.7 2.4 2.5 2.4 2.5 6.4 2 9.9 1.7 5-.3 10.1.3 15 2 .6.1 1.4.4 1.7 1 .9 1.7-1.7 3.1-3.6 3.3z" fill="#1D2741"/><path opacity=".4" d="M70.1.6C61.3 2.5 53.6 7.7 47 13.7c-6.7 6-12.7 12.8-19.6 18.7C16.7 41.4 3.2 49.6.5 63.3c-2.2 11 3.6 22 3.9 33 .1 8.6-2.8 16.8-3.5 25.2A32 32 0 007.7 145c7.7 9 21 11.1 32.9 9.4 11.8-1.7 22.9-6.5 34.5-9 14-3.1 28.6-2.9 42.9-1.3 8.7.9 17.9 2.3 26-.9a28 28 0 0016-16.3 35 35 0 00.2-22.9C157 93.6 149.7 85.1 145 75.4c-4-8.3-6-17.4-8-26.3-1.5-5.9-3.2-12-7.2-16.6-4.5-5.3-11.5-7.7-17.6-11-14.8-8.1-22.7-25-42-20.9z" fill="#BAE5FF"/><path d="M36.1 11h52.4v161.2H36a9.5 9.5 0 01-9.5-9.5V20.5A9.5 9.5 0 0136 11z" fill="#1280FF"/><path d="M36.1 11h52.4v161.2H36a9.5 9.5 0 01-9.5-9.5V20.5A9.5 9.5 0 0136 11z" fill="url(#paint0_linear)"/><path d="M42 11h68.9a11.3 11.3 0 0111.3 11.3V161a11.2 11.2 0 01-11.3 11.2h-69A11.3 11.3 0 0130.7 161V22.3A11.2 11.2 0 0141.9 11z" fill="#1280FF"/><path d="M118.1 20.7v134a5.7 5.7 0 01-5.7 5.8h-72a5.7 5.7 0 01-5.7-5.7V20.7a5.7 5.7 0 015.7-5.7h14.2v1.8a5.7 5.7 0 005.8 5.7h32a5.7 5.7 0 005.7-5.7V15h14.3a5.7 5.7 0 015.7 5.7z" fill="#fff"/><path d="M68.2 15.5h16.5a.7.7 0 01.7.7v.2a.7.7 0 01-.7.7H68.2a.7.7 0 01-.8-.7v-.2a.8.8 0 01.8-.7z" fill="url(#paint1_linear)"/><path d="M111.9 15v121.2a10.3 10.3 0 01-10.3 10.3H34.7V20.7a5.7 5.7 0 015.7-5.7h14.2v1.8a5.7 5.7 0 005.8 5.7h32a5.7 5.7 0 005.7-5.7V15h13.8z" fill="#EBEBF0"/><path d="M51.2 68.4h84.7a5.5 5.5 0 015.5 5.6v20.8a5.5 5.5 0 01-5.5 5.5H51.2a5.5 5.5 0 01-5.6-5.5V74a5.5 5.5 0 015.6-5.6z" fill="#1280FF"/><path d="M51.2 68.4h84.7a5.5 5.5 0 015.5 5.6v20.8a5.5 5.5 0 01-5.5 5.5H51.2a5.5 5.5 0 01-5.6-5.5V74a5.5 5.5 0 015.6-5.6z" fill="url(#paint2_linear)"/><path d="M52.8 66.5h84.7A5.5 5.5 0 01143 72v20.8a5.5 5.5 0 01-5.5 5.5H52.8a5.5 5.5 0 01-5.5-5.5V72a5.5 5.5 0 015.5-5.5zM57.5 31H43.2v14.3h14.3V31z" fill="#fff"/><path d="M56 72.3h14.4a2.9 2.9 0 013 2.9v14.4a2.9 2.9 0 01-3 3H56a2.9 2.9 0 01-3-3V75.2a2.8 2.8 0 013-2.9z" fill="#FA3D38"/><path d="M57.5 48.7H43.2V63h14.3V48.7zM57.5 105.1H43.2v14.3h14.3v-14.3zM57.5 122.8H43.2v14.3h14.3v-14.3z" fill="#fff"/><path opacity=".4" d="M73.3 87v2.6a2.9 2.9 0 01-2.9 3H56a2.9 2.9 0 01-2.8-3V87c2.4-1.6 5.1-2.7 8-3.1a4.3 4.3 0 114 0c4.4.7 8.2 3 8.2 3z" fill="#fff"/><path d="M135.9 75.8H81.3a1 1 0 110-1.8h54.6a1 1 0 110 1.8z" fill="#FA3D38"/><path d="M62.9 34.7H114a.8.8 0 110 1.7H62.9a.8.8 0 01-.6-1.4.8.8 0 01.6-.3zM114 42.2H63a.8.8 0 01-.6-1.5.8.8 0 01.6-.2H114a.8.8 0 01.8.8.9.9 0 01-.8.9zM114 53.7H63a.8.8 0 01-.6-1.5.8.8 0 01.6-.2H114a.8.8 0 01.8.8.9.9 0 01-.8.9zM114 58.5H63a.8.8 0 01-.6-1.4.8.8 0 01.6-.3H114a.8.8 0 01.8.9.9.9 0 01-.8.8zM114 110.7H63a.9.9 0 01-.8-.5.8.8 0 01.8-1.2H114a.8.8 0 01.8.8.9.9 0 01-.8.9zM114 115.5H63a.9.9 0 01-.8-.5.8.8 0 01.8-1.2H114a.8.8 0 01.8.9.9.9 0 01-.8.8zM114 128.4H63a.8.8 0 01-.8-.5.8.8 0 01.8-1.2H114a.8.8 0 01.8.9.9.9 0 01-.8.8zM114 133.3H63a.9.9 0 01-.8-.6.8.8 0 01.8-1.1H114a.8.8 0 01.8.8.9.9 0 01-.8.9z" fill="#fff"/><path d="M135.9 81.7H81.3a1 1 0 110-1.9h54.6a1 1 0 110 1.9zM135.9 87.5H81.3a1 1 0 110-1.8h54.6a1 1 0 110 1.8z" fill="#FA3D38"/><path d="M125.5 126.9l-3.4 25c-.2 1 0 2.2.3 3.2l6.2 18 3.5-1-2.7-18v-1.2l4.8-16 2 36.2h3.3l2.9-35.8c1-6-.8-10.4-.8-10.4h-16.1z" fill="#3F3D56"/><path d="M143.1 104.8V122c0 2.1-.3 3.8-2.4 3.8H126c-2.2 0-2.2-1.7-2.3-3.8v-11.7s-3.2 5.7-5.8 5.1c-2.5-.5-10-10.9-10-10.9l3.7-3.1 6.3 6.3s1-2.3 2.5-7.4c1.4-5.2 6.3-5.2 6.3-5.2h12.8c4.6 0 3.6 9.7 3.6 9.7z" fill="#1280FF"/><path d="M143 87.5s4.7 9.6 5 12.8c.2 3.3-4.8 7.8-4.8 7.8l-3.8-13h3.6v-7.6z" fill="#1280FF"/><path d="M143 87.5s4.7 9.6 5 12.8c.2 3.3-4.8 7.8-4.8 7.8l-3.8-13h3.6v-7.6z" fill="url(#paint3_linear)"/><path d="M143.2 108s3-8.3 2.7-10.2c-.3-2-2.9-8-2.9-8V95l-4.5.1 4.7 12.9zM141.6 125.7h-16.1v1.2h16v-1.2z" fill="#1280FF"/><path d="M141.6 125.7h-16.1v1.2h16v-1.2z" fill="url(#paint4_linear)"/><path d="M135.6 83.4H131v11.8h4.6V83.4z" fill="url(#paint5_linear)"/><path d="M135.6 82.1v13H133v-.7a1.7 1.7 0 00-1.7-1.7h-.2a4.4 4.4 0 01-4.4-4.4v-6.1h8.8z" fill="url(#paint6_linear)"/><path d="M128 78.2a7 7 0 013.3-.7h4a4 4 0 013 5.4l-.2.6.3.9c.4.9-.2 1.9-.8 2.6-.6.7-1.3 1.5-1.4 2.4 0 .3 0 .7-.2 1a.8.8 0 01-1 0l-.7-.8c0 .5-.6.7-1 .5a1.5 1.5 0 01-.6-1.1c0-.5-.2-.9-.4-1.3-.2-.3-.6-.5-.6-.9-.2-.6.4-1.2.1-1.8-.1-.5-.8-.7-1.3-.5a3 3 0 00-1.1 1.1c.4-.6 0-1.6-.4-2-.8-.9-1.9-.2-2.5-.8-1.2-1.1.5-4 1.5-4.6z" fill="#3F3D56"/><path opacity=".3" d="M134.6 95.2s-1.9 2.3-4.3 2.3c-2.5 0-9.8 7.1-10.3 9.3-.4 2.1-2 1-2 1s1-2.4 2.4-7.5c1.4-5.2 6.3-5.2 6.3-5.2h7.9z" fill="#fff"/><path d="M132.1 171.7l1.3 3.1-5.1 2.4-4.8.4s-.8-3.1 1.4-3.4c1.3-.1 2.5-.6 3.6-1.4l3.6-1zM136.2 173.1a3.9 3.9 0 00-2.4 3.2l-.1 1.3h5.8V173h-3.3z" fill="#222A72"/><path d="M111.6 101.4l-2.5-3s-.8-3.2-1.3-1.2c-.2 1-1 3.1-1 3.1h-3.7s2.6 2.8 3.7 3.3l1.6.5 3.2-2.7z" fill="url(#paint7_linear)"/><defs><linearGradient id="paint0_linear" x1="-17.6" y1="198.6" x2="111.6" y2="19.8" gradientUnits="userSpaceOnUse"><stop stop-opacity="0"/><stop offset=".8" stop-opacity=".5"/><stop offset="1"/></linearGradient><linearGradient id="paint1_linear" x1="4633.8" y1="316.9" x2="4633.7" y2="352.7" gradientUnits="userSpaceOnUse"><stop stop-opacity="0"/><stop offset=".8" stop-opacity=".5"/><stop offset="1"/></linearGradient><linearGradient id="paint2_linear" x1="29734" y1="12457.4" x2="29725.1" y2="18244.5" gradientUnits="userSpaceOnUse"><stop stop-opacity="0"/><stop offset=".8" stop-opacity=".5"/><stop offset="1"/></linearGradient><linearGradient id="paint3_linear" x1="5007.7" y1="-590.3" x2="6578.3" y2="-1586.5" gradientUnits="userSpaceOnUse"><stop stop-opacity="0"/><stop offset=".8" stop-opacity=".5"/><stop offset="1"/></linearGradient><linearGradient id="paint4_linear" x1="7201.7" y1="609" x2="7202.1" y2="637.8" gradientUnits="userSpaceOnUse"><stop stop-opacity="0"/><stop offset=".8" stop-opacity=".5"/><stop offset="1"/></linearGradient><linearGradient id="paint5_linear" x1="131.8" y1="89.3" x2="139.4" y2="89.2" gradientUnits="userSpaceOnUse"><stop stop-color="#ECC4D7"/><stop offset=".4" stop-color="#EFD4D1"/><stop offset="1" stop-color="#F2EAC9"/></linearGradient><linearGradient id="paint6_linear" x1="5220.5" y1="-1725.5" x2="5168.9" y2="-1707.1" gradientUnits="userSpaceOnUse"><stop stop-color="#ECC4D7"/><stop offset=".4" stop-color="#EFD4D1"/><stop offset="1" stop-color="#F2EAC9"/></linearGradient><linearGradient id="paint7_linear" x1="4217.4" y1="-684.9" x2="4456.1" y2="-684.9" gradientUnits="userSpaceOnUse"><stop stop-color="#ECC4D7"/><stop offset=".4" stop-color="#EFD4D1"/><stop offset="1" stop-color="#F2EAC9"/></linearGradient></defs></svg>