<svg width="211" height="180" fill="none" xmlns="http://www.w3.org/2000/svg"><path opacity=".4" d="M191.6 174.5c-3.4 9.9-27.5 3.5-34.6 3a581.3 581.3 0 00-88.1.6c-8.7.7-17.5 1.6-26 .3-.7 0-1.4-.2-2-.3a33.6 33.6 0 01-20.3-11.5c-1-1.1-1.7-2.3-2.3-3.6-4.6-8.8-3-19.4-5.2-29.1-2-8.7-6.7-16.4-9.7-24.7a60 60 0 0139.8-77.6c14.6-4.3 30.6-2.9 45.2-7.4 15.4-4.7 28.2-15.8 43.5-21a62.3 62.3 0 0141.4.7C189 9.6 203 25.8 198 41.6c-2 6.5-7.1 12.1-7.8 19-1.3 13.3 14 22.7 16.2 36 2.3 14.9-12.3 26.2-21.4 38.3-2.5 3.3-4.7 7-5.4 11.1-1.7 10.9 14.6 21.2 12 28.5z" fill="#BAE5FF"/><path d="M137 176.5a598.3 598.3 0 00-68.1 1.6c-8.7.7-17.5 1.6-26 .3-.7 0-1.4-.2-2-.3a33.6 33.6 0 01-20.3-11.5c2.3-26.3 17.3-43.3 23.8-51.8 10.8-14.3 54.6-48 59-49.2 4.5-1.3 3.4.5 3.4.5l.9 5.5c-.9.6-69.6 48.1-37.6 77.7 16.8 15.6 43.2 23.4 66.8 27.2z" fill="#1280FF"/><path d="M108.8 68.9s5.6 1.5 5 3c-.6 1.6-3.2 3.2-6.8 5v1.9s9.6-3 10.8-6.8a7.7 7.7 0 00-1.3-6.7l-7.7 3.6z" fill="#FA3D38"/><path d="M48.3 135.6c-8.5 20.8 8.7 33 33.6 41.6l-13 1c-8.7.6-17.5 1.5-26 .2a64 64 0 01-6.4-27c1.4-37.5 66-85 67-85.8l4.2 6c-.8.3-39 13.7-59.4 64z" fill="url(#paint0_linear)"/><path d="M108.8 68.9s5.6 1.5 5 3c-.6 1.6-3.2 3.2-6.8 5v1.9s9.6-3 10.8-6.8a7.7 7.7 0 00-1.3-6.7l-7.7 3.6z" fill="url(#paint1_linear)"/><path d="M107.3 62.9s-3.9 2.3-4.5 2.8c-.6.5-.6 2.2.9 4 2.2 2.6 4 2 4 2l3.7-4-4.1-4.8z" fill="#FA3D38"/><path d="M107.3 62.9s-3.9 2.3-4.5 2.8c-.6.5-.6 2.2.9 4 2.2 2.6 4 2 4 2l3.7-4-4.1-4.8z" fill="url(#paint2_linear)"/><path d="M104.2 65.3c3.5-5.9 8.2-11 13.7-15 9.4-7 23.2-12 27.8-10.5 4.6 1.4-1.2 12.3-20.4 22.8l-3.6 2-13.3 5.5s-2.5 0-4.2-4.8z" fill="#FA3D38"/><path d="M104.2 65.3c3.5-5.9 8.2-11 13.7-15 9.4-7 23.2-12 27.8-10.5 4.6 1.4-1.2 12.3-20.4 22.8l-3.6 2-13.3 5.5s-2.5 0-4.2-4.8z" fill="url(#paint3_linear)"/><path d="M112 55.4s-4.2-4.1-8.8-2a44 44 0 00-11.3 11.9l2.3.1s7.7-7.3 9-6.7c1.4.6 1.6 5.6 1.6 5.6s3.2-.4 5.5-4.1c2.3-3.8 1.7-4.8 1.7-4.8z" fill="#FA3D38"/><path d="M112 55.4s-4.2-4.1-8.8-2a44 44 0 00-11.3 11.9l2.3.1s7.7-7.3 9-6.7c1.4.6 1.6 5.6 1.6 5.6s3.2-.4 5.5-4.1c2.3-3.8 1.7-4.8 1.7-4.8z" fill="url(#paint4_linear)"/><path d="M136.2 52a3 3 0 100-6.1 3 3 0 000 6.1z" fill="url(#paint5_linear)"/><path d="M136.2 51.5a2.6 2.6 0 100-5.1 2.6 2.6 0 000 5.1z" fill="url(#paint6_linear)"/><path d="M159.3 91.6c-5.6-2.6-12-3.4-18-1.6-5.8 1.7-11 6.3-12.9 12.2-.5 1.6-.8 3.3-1.8 4.7-1.3 1.8-3.5 2.6-5.2 4-5.3 4.3-4.4 13.5.7 18.1 5.1 4.6 12.8 5.2 19.5 3.4a28 28 0 0028.6 8c2 2.9 6.2 3.5 9.5 2.3a24 24 0 008.4-6.2l7.6-7.7c4.3-4.2 8.6-8.6 11.6-13.8 3-5.2 4.6-11.5 3.1-17.3a17.3 17.3 0 00-26.9-9.7c-1-6.2-6.1-7.1-12-5.9-1.5.3-14.5 8.4-12.2 9.5z" fill="url(#paint7_linear)"/><path d="M36.7 60.2a14 14 0 019.3-2c3.3.6 6.1 3.5 5.8 6.8a6.2 6.2 0 013.8 11.5c3.4 2.6 3.3 8.2.5 11.4-2.8 3.2-7.4 4.3-11.7 4-4.3-.3-8.3-1.8-12.4-3a7 7 0 00-3.4-.3c-1.3.2-2.3 1.2-3.3 2a20.3 20.3 0 01-16.5 3.7c-1.8-.3-3.6-1-5-2.3a11 11 0 01-3.1-7c-.8-7 2.7-14.7 9.3-17.3l1.2-4.1a11 11 0 013-3.6c2.2-1.8 5.1-2.7 7.8-3.5 5.1-1.7 13.2-4.1 14.7 3.7z" fill="url(#paint8_linear)"/><defs><linearGradient id="paint0_linear" x1="13563.1" y1="30395.5" x2="2541.3" y2="18584.5" gradientUnits="userSpaceOnUse"><stop offset="0" stop-color="#fff" stop-opacity="0"/><stop offset=".3" stop-color="#fff" stop-opacity=".4"/><stop offset=".7" stop-color="#fff" stop-opacity=".7"/><stop offset="1" stop-color="#fff"/></linearGradient><linearGradient id="paint1_linear" x1="114.8" y1="74.9" x2="106.3" y2="64.3" gradientUnits="userSpaceOnUse"><stop stop-opacity="0"/><stop offset=".9"/></linearGradient><linearGradient id="paint2_linear" x1="2628.4" y1="1924" x2="2768.7" y2="1924" gradientUnits="userSpaceOnUse"><stop stop-opacity="0"/><stop offset=".9"/></linearGradient><linearGradient id="paint3_linear" x1="129.2" y1="57" x2="118.1" y2="43.5" gradientUnits="userSpaceOnUse"><stop offset="0" stop-color="#fff" stop-opacity="0"/><stop offset=".3" stop-color="#fff" stop-opacity=".4"/><stop offset=".7" stop-color="#fff" stop-opacity=".7"/><stop offset="1" stop-color="#fff"/></linearGradient><linearGradient id="paint4_linear" x1="6011.8" y1="2312.6" x2="5809.7" y2="2888.3" gradientUnits="userSpaceOnUse"><stop offset="0" stop-color="#fff" stop-opacity="0"/><stop offset=".3" stop-color="#fff" stop-opacity=".4"/><stop offset=".7" stop-color="#fff" stop-opacity=".7"/><stop offset="1" stop-color="#fff"/></linearGradient><linearGradient id="paint5_linear" x1="2393.1" y1="880.3" x2="2348.9" y2="713.1" gradientUnits="userSpaceOnUse"><stop offset="0" stop-color="#fff" stop-opacity="0"/><stop offset=".3" stop-color="#fff" stop-opacity=".4"/><stop offset=".7" stop-color="#fff" stop-opacity=".7"/><stop offset="1" stop-color="#fff"/></linearGradient><linearGradient id="paint6_linear" x1="2008.2" y1="725.4" x2="1977.4" y2="608.7" gradientUnits="userSpaceOnUse"><stop offset="0" stop-color="#fff" stop-opacity="0"/><stop offset=".3" stop-color="#fff" stop-opacity=".4"/><stop offset=".7" stop-color="#fff" stop-opacity=".7"/><stop offset="1" stop-color="#fff"/></linearGradient><linearGradient id="paint7_linear" x1="31672.6" y1="13871.5" x2="29460.7" y2="7952.8" gradientUnits="userSpaceOnUse"><stop offset="0" stop-color="#fff" stop-opacity="0"/><stop offset=".3" stop-color="#fff" stop-opacity=".4"/><stop offset=".7" stop-color="#fff" stop-opacity=".7"/><stop offset="1" stop-color="#fff"/></linearGradient><linearGradient id="paint8_linear" x1="24.2" y1="85.2" x2="52.6" y2="55.6" gradientUnits="userSpaceOnUse"><stop offset="0" stop-color="#fff" stop-opacity="0"/><stop offset=".3" stop-color="#fff" stop-opacity=".4"/><stop offset=".7" stop-color="#fff" stop-opacity=".7"/><stop offset="1" stop-color="#fff"/></linearGradient></defs></svg>