<svg width="178" height="180" fill="none" xmlns="http://www.w3.org/2000/svg"><path opacity=".4" d="M174.4 109.3c3.5-9.5 5.7-20.6.7-29.4-3.4-6-9.5-9.9-15.6-13.1-17.4-9.3-36.7-15.4-51.8-28.2-2.5-2-4.8-4.3-7.8-5.7a118.2 118.2 0 00-54 .2C31.8 37.4 18.6 48 15.3 62.5c-2.5 11.1 1 23.1-2.2 34.1-2.8 9.1-9.9 16.5-12.3 25.7-4 15.3 6.9 31.6 21.1 38.5 14.2 7 30.8 6.8 46.6 5.6 8-.7 15.9-1.6 23.6-3.6 6.9-1.9 13.6-4.6 20.7-5 11-.8 23.4 4 32.7-2.2 3.2-2.1 5.7-5.4 9-7.4 6.8-4.1 10.3-5.3 11.8-13.3 1.6-9 4.9-17 8-25.6z" fill="#BAE5FF"/><path d="M78.1 114.7s-47.8 5.8-52.8 17.9c-5 12.1-11.5 22.8-11.5 22.8s40 33 71.7 22.6c31.7-10.4 34.3-17.3 50.3-16 16 1.1 29.3-16.7 29.3-24.1 0-7.5-49.4-22.7-57.4-22.2s-29.6-1-29.6-1z" fill="#FA3D38"/><path d="M79.2 114.3c0 1.7-.4-1.1-1.1.4-1 2.1-2.4 8-3.4 10.1-1.7 3.5 0 7.9 2.8 10.4 3 2.6 6.9 3.6 10.6 4.5 5.6 1.3 12 2 16.6-1.4 4.4-3.2 5.6-9.3 5.3-14.8-.3-2.7-.7-5.4-1.2-8l-3.2-17.8a2 2 0 00-.4-.9c-.3-.4-1-.5-1.5-.5-6.1 0-16 .1-21.2 3.5-5 3.2-3.3 8.7-3.3 14.5z" fill="url(#paint0_linear)"/><path d="M79 118.2a14 14 0 009.7 7.5c4.2 1 8.7 0 12.3-2.2 3-1.8 5.6-4.5 6.7-7.8.6-2 .7-3.9.8-5.9l.2-5.6c-1.7 2.5-4.8 3.6-7.7 4-7.5 1-14-1.7-21-3.7-3.3-1-3.3 1-3 3.8.3 3.3.5 6.8 2 9.9z" fill="url(#paint1_linear)"/><path d="M67 94.7s12.2 20.2 20.7 21.1c8.5 1 21.3.6 30.3-20.6 9-21.3 10.7-49.5-3.7-54.6 0 0-70.8-19-47.3 54z" fill="url(#paint2_linear)"/><path d="M117 95.5c-.3 1.4-.6 2.8-1.7 3.7-1.4 1.2-3.6.8-5.3 0-3.4-1.9-5.7-5.2-8.3-8A18.5 18.5 0 0098 88l1.5 3 .7 1.8c.2.6.2 1.4 0 2 0 .2 0 .3-.2.5a1 1 0 01-.5.2c-.8.3-1.7.4-2.5.4-1.6 0-3.1 0-4.5-.5-.4-.1-.9-.4-1-.8 0-.7.8-1 1.4-1.1h2.5c1.2 0 1.2.2 1.2-1v-5.3a8 8 0 00-4.9-.6c-3.1.6-5.4 3.3-7.2 6-1.8 2.7-3.4 5.7-6.2 7.4-3 2-8.4 1.5-9-2.7-.5-4.5 2.1-10 4.6-13.6 3.4-4.7 8.3-8.2 13.8-9.8 2-.6 4.1-.9 6.1-.6 2.3.3 4.4 1.3 6.4 2.3l10.8 5.1c1.8 1 3.7 1.9 5 3.5 2.4 3 1.8 7.4 1 11.3z" fill="url(#paint3_linear)"/><path d="M138.6 38.5c0 .5.5.8.9 1.2 1.6 1.5 1 4.4-.6 6-1.5 1.6-3.6 2.5-5.3 4-1 .8-1.7 2-2 3.3-.2 1.8.3 3.7.4 5.7l-.1 1.7c-.6 4.8-2.4 9.3-5.2 13.3-.8 1.1-2 2.3-3.3 2.3-2.3.1-3.6-2.5-4.2-4.7a92.7 92.7 0 01-3.2-18.8c-.5 2.1-3.5 2.6-5.3 1.5l-.3-.2c-1.6-1.3-2.4-3.3-3.3-5-1-2-2.2-4-4.3-4.6-2.3-.6-4.7 0-7.1 0-3.7-.2-7.4-.6-11-1-2 0-4.2-.2-6 .5-.7.3-1.3.6-1.8 1.1a4 4 0 00-1.4 3.5c-3.8-.2-3.9 2.9-6.7 5.4-2.7 2.5-7.7 4.8-5.5 8 2.2 3.1.5 5.2.3 9A74.7 74.7 0 0159.5 89a43.7 43.7 0 01-7.2-13.3l-1.5-7.2c-.7-3.8-1.5-7.5-3.4-11.2-.7-1.5-1.6-2.8-2.1-4.4-.8-2.3-.7-4.9-.5-7.3.3-5.2.7-10.8 4-15a12 12 0 014.4-3.3c2.3-1.1 4.9-1.8 7-3.5 1.2-.9 2-2.2 2.7-3.6 1.2-2.7 1.8-5.9 3.2-8.1 2.6-4 6.3-7.2 10.6-9.1A42 42 0 0199.9.6 42 42 0 01118.2 7c2.2 1.6 4.4 3.4 6.3 5.4 4.8 4.8 9.4 9.8 15.7 11.6 2.2.6 4.7 1 5.9 2.8 1.2 2 .4 4.6-1.2 6.3-1.6 1.7-3.7 2.8-5.6 4.2-.3.3-.8.7-.7 1.2z" fill="#0D3DBF"/><path d="M56 52.6c-1.1 2-2 4.4-1.2 6.6l3.3-1.8-7.3 11c-.7-3.7-1.5-7.4-3.4-11.1-.7-1.5-1.6-2.9-2.1-4.4-.8-2.4-.7-4.9-.5-7.3.3-5.2.7-10.8 4-15a12 12 0 014.4-3.3c.4.2.9.6 1.2 1 1.7 1.8 2.2 4.8 2.8 7 1 3.6 2.8 7.3 2 11-.6 2.3-2 4.2-3.2 6.3z" fill="url(#paint4_linear)"/><path d="M132.7 45.8c-1.5 2-1.4 4.6-1 7.2l.4 3.1c.1.9.2 1.8-.1 2.6l-.3.4c-1 1.5-3.3 1-5 .4-4.3-1.5-7.4-1.1-10.2-1.8-2-.4-3.8-1.3-5.8-3.7l-.3-.2c-1.6-1.3-2.4-3.3-3.3-5-1-2-2.2-4-4.3-4.6-2.3-.6-4.7 0-7.1 0-3.7-.2-7.4-.7-11.1-1-2 0-4-.2-6 .5-.6.3-1.2.6-1.7 1.1-.8-.2-1.4-.8-1.7-2-.7-3.2.5-7.7 2.8-10s5.8-3 9-3.2c6.9-.7 14.3-.4 20.1 3.4 2.7 1.7 4.9 4.1 7.7 5.6 5.2 2.7 11.3 1.7 17 2.4 1 .2 2.2.4 2.5 1.4.5 1.2-.8 2.3-1.6 3.4z" fill="url(#paint5_linear)"/><path d="M84.9 62.1a11 11 0 00-3.1-3.8c-5.2-4.2-12.3-6-18.6-4.2-1.3.4-2.4.9-3.5 1.6-1.8 1.1-3 2.8-4.3 4.6a73.6 73.6 0 00-10.2 35.5c-.3 2.8 0 5.8-1.1 8.4-9.6 21.6-30.5 48.7-30.3 51.2 7.6 6.3 20.6 15 26.5 15.1 3.3-6 16-50 18.8-56.4 1-2.5 3-8 4.5-10.3 4.1-6 10.6-6 15.6-11.5a11 11 0 002.7-4.7c.4-1.6.2-3.2.1-4.7a42 42 0 011-11.4c.7-3.1 3.3-6.1 1.9-9.4z" fill="url(#paint6_linear)"/><path d="M52.8 72.9H52a2.7 2.7 0 00-2.7 2.7v1c0 1.5 1.2 2.7 2.7 2.7h.8c1.5 0 2.7-1.2 2.7-2.7v-1c0-1.5-1.2-2.7-2.7-2.7z" fill="#1280FF"/><path d="M53.3 72.9h-.7a2.7 2.7 0 00-2.8 2.7v1c0 1.5 1.3 2.7 2.8 2.7h.7c1.6 0 2.8-1.2 2.8-2.7v-1c0-1.5-1.2-2.7-2.8-2.7z" fill="url(#paint7_linear)"/><path d="M102.8 62.1c.7-1.5 1.9-2.7 3.2-3.8 5-4.2 12.2-6 18.5-4.2 1.3.4 2.4.9 3.5 1.6 1.8 1.1 3.1 2.8 4.3 4.6 7 10.3 9.2 23 10.2 35.5.3 2.8 0 5.8 1.1 8.4 9.6 21.6 24.1 32.4 23.9 34.8 4.3 14-14.9 22.4-22.7 21.7-3.3-6.1-13.5-40.2-16.2-46.6-1-2.5-3-8-4.5-10.3-4.1-6-10.6-6-15.6-11.5a11 11 0 01-2.7-4.8c-.4-1.5-.2-3-.1-4.7a42 42 0 00-1-11.3c-.7-3.1-3.3-6.1-1.9-9.4z" fill="url(#paint8_linear)"/><path d="M133 72.9h-.8a2.7 2.7 0 00-2.8 2.7v1c0 1.5 1.2 2.7 2.8 2.7h.7c1.6 0 2.8-1.2 2.8-2.7v-1c0-1.5-1.2-2.7-2.8-2.7z" fill="#1280FF"/><path d="M132.3 72.9h-.8a2.7 2.7 0 00-2.7 2.7v1c0 1.5 1.2 2.7 2.7 2.7h.8c1.5 0 2.7-1.2 2.7-2.7v-1c0-1.5-1.2-2.7-2.7-2.7z" fill="url(#paint9_linear)"/><path d="M84.3 66s7 4.5 16.4-.5v15.8s-8.3-6-15.6 0L84.3 66z" fill="#1280FF"/><path d="M84.3 66s7 4.5 16.4-.5v15.8s-8.3-6-15.6 0L84.3 66z" fill="url(#paint10_linear)"/><path d="M100.3 71.2h-15V76h15v-4.8z" fill="#1280FF"/><path opacity=".7" d="M100.3 71.2h-15V76h15v-4.8z" fill="url(#paint11_linear)"/><path d="M70 92.7a17.3 17.3 0 10-.1-34.5 17.3 17.3 0 000 34.5z" fill="#1280FF"/><path opacity=".7" d="M70 92.7a17.3 17.3 0 10-.1-34.5 17.3 17.3 0 000 34.5z" fill="url(#paint12_linear)"/><path d="M69.8 90.6a15 15 0 100-30 15 15 0 000 30z" fill="#fff"/><path d="M115.2 92.7a17.3 17.3 0 100-34.5 17.3 17.3 0 000 34.5z" fill="#1280FF"/><path opacity=".7" d="M115.2 92.7a17.3 17.3 0 100-34.5 17.3 17.3 0 000 34.5z" fill="url(#paint13_linear)"/><path d="M115 90.6a15 15 0 100-30 15 15 0 000 30z" fill="#fff"/><path d="M92.2 65.7h-.6c-1.1 0-2 .9-2 2v1c0 1 .9 2 2 2h.6c1 0 2-1 2-2v-1c0-1.1-1-2-2-2zM77 82.2H61.1V81h14.7V65.7H77v16.5z" fill="#1280FF"/><path d="M64.8 73h-3v7h3v-7zM69 68h-3v12h3V68zM73.5 70.5h-3V80h3v-9.4z" fill="#1280FF"/><path opacity=".2" d="M115.7 67a8.6 8.6 0 018.2 10.4 8.6 8.6 0 01-11.7 6.2 8.6 8.6 0 01-5.2-8.8l8.5.9.2-8.7z" fill="#1280FF"/><path opacity=".5" d="M114.9 66.3h.1l-.1 8.6-8.6-.9a8.6 8.6 0 018.6-7.7z" fill="#1280FF"/><path opacity=".7" d="M124.5 12.4c-.5.7-1 1.2-1.7 1.7-4.4 3.2-10.6 1.3-15.7-.8-5.6-2.2-11.3-4.5-17.4-5-6-.3-12.5 1.6-16.2 6.5-2 2.7-3.7 6.6-7.1 6.8a4.7 4.7 0 01-3.6-1.4c1.2-2.7 1.9-5.9 3.3-8.1 2.6-4 6.3-7.2 10.6-9.1A42 42 0 0199.8.6 42 42 0 01118.1 7c2.3 1.6 4.5 3.4 6.4 5.4z" fill="url(#paint14_linear)"/><path opacity=".7" d="M133.3 26.2c1.9 1.3 4.3 1.6 6.6 1.7.8 0 1.7.1 2.5.3.8.3 1.6.9 1.8 1.7.1.5 0 1 .4 1.4l.2.2a.4.4 0 00.3-.2 3.6 3.6 0 00.4-4.2c-1-1.6-3-2-4.9-2.6-2.2-.8-4.4-1.9-6.3-3.3-1.1-.8-3.7-2.6-3.8 0-.2 2 1.2 3.9 2.8 5z" fill="url(#paint15_linear)"/><path opacity=".7" d="M72.8 29.9c.8-1.9 1.8-3.8 3.3-5.2 2-1.6 4.4-2.1 6.9-2.5a28.5 28.5 0 0123.8 4.7c3.6 2.6 7.4 6.1 11.8 5.5 3.8 1.9-1.5 7.3-3 6.7-2.8-1.2-8.7-6.7-11.5-8a38.2 38.2 0 00-22.2-1 9.3 9.3 0 00-3.1 3.1A17.3 17.3 0 0076 39c-.4 1.6.3 3.7-1.8 3-4.8-1.6-2.7-9-1.4-12.1z" fill="url(#paint16_linear)"/><defs><linearGradient id="paint0_linear" x1="73.2" y1="121.2" x2="109.3" y2="117.2" gradientUnits="userSpaceOnUse"><stop stop-color="#ECC4D7"/><stop offset=".4" stop-color="#EFD4D1"/><stop offset="1" stop-color="#F2EAC9"/></linearGradient><linearGradient id="paint1_linear" x1="9298.5" y1="7483.6" x2="11820.3" y2="12856.2" gradientUnits="userSpaceOnUse"><stop stop-color="#ECC4D7"/><stop offset=".4" stop-color="#EFD4D1"/><stop offset="1" stop-color="#F2EAC9"/></linearGradient><linearGradient id="paint2_linear" x1="18565.8" y1="12331.4" x2="21208.3" y2="26669.8" gradientUnits="userSpaceOnUse"><stop stop-color="#ECC4D7"/><stop offset=".4" stop-color="#EFD4D1"/><stop offset="1" stop-color="#F2EAC9"/></linearGradient><linearGradient id="paint3_linear" x1="93.1" y1="104.8" x2="96.4" y2="-25.6" gradientUnits="userSpaceOnUse"><stop stop-opacity="0"/><stop offset="1"/></linearGradient><linearGradient id="paint4_linear" x1="3594.1" y1="4510.5" x2="215.3" y2="5334.1" gradientUnits="userSpaceOnUse"><stop stop-opacity="0"/><stop offset="1"/></linearGradient><linearGradient id="paint5_linear" x1="14582.8" y1="4541.8" x2="25845.6" y2="4541.8" gradientUnits="userSpaceOnUse"><stop stop-opacity="0"/><stop offset="1"/></linearGradient><linearGradient id="paint6_linear" x1="3527.4" y1="42255.9" x2="19811.8" y2="42255.9" gradientUnits="userSpaceOnUse"><stop stop-color="#ECC4D7"/><stop offset=".4" stop-color="#EFD4D1"/><stop offset="1" stop-color="#F2EAC9"/></linearGradient><linearGradient id="paint7_linear" x1="1044.8" y1="1637" x2="1169.9" y2="1637" gradientUnits="userSpaceOnUse"><stop stop-opacity="0"/><stop offset="1"/></linearGradient><linearGradient id="paint8_linear" x1="74043.2" y1="37047" x2="60271.3" y2="37047" gradientUnits="userSpaceOnUse"><stop stop-color="#ECC4D7"/><stop offset=".4" stop-color="#EFD4D1"/><stop offset="1" stop-color="#F2EAC9"/></linearGradient><linearGradient id="paint9_linear" x1="2857.9" y1="1634.1" x2="2684.2" y2="1639.1" gradientUnits="userSpaceOnUse"><stop stop-opacity="0"/><stop offset="1"/></linearGradient><linearGradient id="paint10_linear" x1="5017.5" y1="3269.4" x2="5052.7" y2="5128.2" gradientUnits="userSpaceOnUse"><stop stop-opacity="0"/><stop offset="1"/></linearGradient><linearGradient id="paint11_linear" x1="92.7" y1="71.3" x2="92.9" y2="75.3" gradientUnits="userSpaceOnUse"><stop offset="0" stop-color="#fff" stop-opacity="0"/><stop offset=".6" stop-color="#fff" stop-opacity=".4"/><stop offset=".7" stop-color="#fff" stop-opacity=".7"/><stop offset="1" stop-color="#fff"/></linearGradient><linearGradient id="paint12_linear" x1="7565.5" y1="8148.9" x2="6790.2" y2="7256.6" gradientUnits="userSpaceOnUse"><stop offset="0" stop-color="#fff" stop-opacity="0"/><stop offset=".6" stop-color="#fff" stop-opacity=".4"/><stop offset=".7" stop-color="#fff" stop-opacity=".7"/><stop offset="1" stop-color="#fff"/></linearGradient><linearGradient id="paint13_linear" x1="12709.6" y1="8319.3" x2="11469" y2="7575" gradientUnits="userSpaceOnUse"><stop offset="0" stop-color="#fff" stop-opacity="0"/><stop offset=".6" stop-color="#fff" stop-opacity=".4"/><stop offset=".7" stop-color="#fff" stop-opacity=".7"/><stop offset="1" stop-color="#fff"/></linearGradient><linearGradient id="paint14_linear" x1="18810.9" y1="1763.4" x2="18791.2" y2="-5048.9" gradientUnits="userSpaceOnUse"><stop offset="0" stop-color="#fff" stop-opacity="0"/><stop offset=".6" stop-color="#fff" stop-opacity=".4"/><stop offset=".7" stop-color="#fff" stop-opacity=".7"/><stop offset="1" stop-color="#fff"/></linearGradient><linearGradient id="paint15_linear" x1="6677.6" y1="1105.8" x2="8476.1" y2="437" gradientUnits="userSpaceOnUse"><stop offset="0" stop-color="#fff" stop-opacity="0"/><stop offset=".6" stop-color="#fff" stop-opacity=".4"/><stop offset=".7" stop-color="#fff" stop-opacity=".7"/><stop offset="1" stop-color="#fff"/></linearGradient><linearGradient id="paint16_linear" x1="10286.9" y1="2100.6" x2="46331.6" y2="9598.5" gradientUnits="userSpaceOnUse"><stop offset="0" stop-color="#fff" stop-opacity="0"/><stop offset=".6" stop-color="#fff" stop-opacity=".4"/><stop offset=".7" stop-color="#fff" stop-opacity=".7"/><stop offset="1" stop-color="#fff"/></linearGradient></defs></svg>