<svg width="239" height="180" fill="none" xmlns="http://www.w3.org/2000/svg"><path opacity=".4" d="M11 148a46.7 46.7 0 01-9.5-16.3c-4-13.5.8-28.1 6.9-41 5.8-12.3 16-28.3 16.2-42.2 0-2.5-.6-5-1-7.5A35.9 35.9 0 0133 11C39 4.8 47 1 55.7.4c26.8-2.5 55.8 8.5 72.8 10.8 19.5 2.6 39.5-3.6 59-.5 17.2 2.8 34-5.3 43 9.8 9 15 10 52.9 3.2 69-2.5 6-6 11.6-7.7 17.9a49.3 49.3 0 000 21.2c.9 5.6 2.3 11.2 1.6 16.9a31.2 31.2 0 01-9.6 17.4c-13.3 13.2-33.2 18-51.8 17a185.1 185.1 0 01-54-14.3c-4.3-1.6-8.5-3.3-13-4-5-.9-10.2-.5-15.3 0-14.4 1.1-29.4 5.5-43.6 5.8C29 167.6 17.8 156 11 148z" fill="#BAE5FF"/><path d="M199.4 97.7c.6-1.6.4-3.3.6-5 .1-.8.4-1.5.9-2.2a3.3 3.3 0 013.3-1c1.6.4 2.7 2 2.8 3.7.2 1.6-.3 3.2-.8 4.8-1.1 3.2-2.5 6.4-3.6 9.7-1 2.6-1.6 6.1.6 7.9.6.4 1.3.8 1.8 1.3.4.5.6 1.1.7 1.7.9 4.6-2.4 9-6.2 11.6a8.4 8.4 0 01-4.3 1.6c-2.4 0-4.6-1.7-5.7-3.8a14.6 14.6 0 01-1.3-7.1 78.5 78.5 0 012.4-16.3c.7-1.8 2.1-4.5 4-5 2-.3 3.7 1 4.8-1.9z" fill="#1280FF"/><path d="M198.6 97.6c.6-1.6.3-3.3.6-5 .1-.8.4-1.5.9-2.2a3.2 3.2 0 013.3-1c1.6.4 2.6 2 2.8 3.7.2 1.6-.3 3.2-.8 4.8l-3.7 9.7c-.9 2.6-1.5 6.1.7 7.9.6.4 1.3.8 1.7 1.3.4.5.7 1.1.8 1.7.8 4.6-2.4 9-6.3 11.6a8.4 8.4 0 01-4.2 1.6c-2.4 0-4.7-1.7-5.8-3.8a14.6 14.6 0 01-1.3-7.1 78.5 78.5 0 012.4-16.3c.7-1.8 2.2-4.5 4.2-5 2-.3 3.6 1 4.7-1.9z" fill="url(#paint0_linear)"/><path d="M203.9 77.3c-4.7 7.7-3.4 18.1-8.7 25.4-1.6 2.2-3.8 4-5.3 6.3-1.4 2.3-2 5.5-.3 7.7 4.5-2.7 6-8.3 8.3-13 .2-.4.4-.7.8-1 1.2-.9 2.7.8 2.8 2.3.4 4-3 7.2-4.4 11-1.7 4.6-.5 10.5-3.8 14.2-.6.7-1.5 1.4-2.6 1.4-.7 0-1.4-.3-2-.7a18 18 0 01-8.8-13.6c-.5-4.7 0-10.3 3-14.1 2.3-3.1 2.3-6.4 3.7-10.1a27.3 27.3 0 0111.8-13.6c1-.5 5-1.4 5.5-2.2z" fill="#1280FF"/><path d="M203.2 77.3c-4.6 7.7-3.3 18.1-8.7 25.4-1.6 2.2-3.7 4-5.2 6.3-1.4 2.3-2 5.5-.4 7.7 4.6-2.7 6.1-8.3 8.4-13 .1-.4.4-.7.7-1 1.2-.9 2.8.8 2.9 2.3.4 4-3 7.2-4.4 11-1.7 4.6-.5 10.5-3.8 14.2-.7.7-1.6 1.4-2.6 1.4-.7 0-1.4-.3-2-.7a18 18 0 01-8.9-13.6c-.4-4.7.1-10.3 3-14.1 2.4-3.1 2.3-6.4 3.8-10.1a27.3 27.3 0 0111.8-13.6c1-.5 5-1.4 5.4-2.2z" fill="url(#paint1_linear)"/><path d="M37.4 106.4c-1-2.7-1.3-5.5-2.1-8.1-.9-2.7-2.4-5.4-4.8-6.7-2.5-1.4-6-.9-7.4 1.6-.6 1-.8 2.3-.6 3.4.5 4.2 4 7.4 4.9 11.5.5 2.4.1 5 .5 7.5a12.4 12.4 0 005.4 8.5c1.7 1 3.6 1.7 5.2 2.7 2.3 1.4 4 3.3 5.3 5.7a13 13 0 004.2-10.1c-.4-8.3-8.3-9.1-10.6-16z" fill="#1280FF"/><path d="M37.4 106.4c-1-2.7-1.3-5.5-2.1-8.1-.9-2.7-2.4-5.4-4.8-6.7-2.5-1.4-6-.9-7.4 1.6-.6 1-.8 2.3-.6 3.4.5 4.2 4 7.4 4.9 11.5.5 2.4.1 5 .5 7.5a12.4 12.4 0 005.4 8.5c1.7 1 3.6 1.7 5.2 2.7 2.3 1.4 4 3.3 5.3 5.7a13 13 0 004.2-10.1c-.4-8.3-8.3-9.1-10.6-16z" fill="url(#paint2_linear)"/><path d="M46.9 91.7c-.4-1.8-.4-3.6-1-5.3-.5-1.7-1.7-3.3-3.5-3.5-2-.2-3.8 1.7-4.3 3.7-.4 2 .2 4 .8 6l2.2 7.8c.8 2.4 1.2 5.5-1 6.8l-1.5.7a5 5 0 00-3 4.7c.2 2.5 2 4.4 3.6 6.2 1.7 1.9 3.2 4.2 2.6 6.6-.5 1.7-2 3.2-1.7 5 .2 1.5 1.8 2.4 3.3 2.4 1.5 0 3-.6 4.3-1.3l6.5-3.1c2-1 4.2-2.1 5.5-4a10 10 0 001.3-4.5c.5-5.9-1-11.8-4.5-16.6-3.2-4.4-8.4-5.6-9.6-11.6z" fill="#1280FF"/><path d="M46.9 91.7c-.4-1.8-.4-3.6-1-5.3-.5-1.7-1.7-3.3-3.5-3.5-2-.2-3.8 1.7-4.3 3.7-.4 2 .2 4 .8 6l2.2 7.8c.8 2.4 1.2 5.5-1 6.8l-1.5.7a5 5 0 00-3 4.7c.2 2.5 2 4.4 3.6 6.2 1.7 1.9 3.2 4.2 2.6 6.6-.5 1.7-2 3.2-1.7 5 .2 1.5 1.8 2.4 3.3 2.4 1.5 0 3-.6 4.3-1.3l6.5-3.1c2-1 4.2-2.1 5.5-4a10 10 0 001.3-4.5c.5-5.9-1-11.8-4.5-16.6-3.2-4.4-8.4-5.6-9.6-11.6z" fill="url(#paint3_linear)"/><path d="M179.4 36.3H60c-4 0-7.1 3.2-7.1 7.1v72.2c0 3.9 3.2 7 7 7h119.5c4 0 7.1-3.1 7.1-7V43.4c0-3.9-3.2-7-7-7z" fill="#1280FF"/><path d="M175.5 39.7H62.8c-3.7 0-6.7 3-6.7 6.7v68c0 3.8 3 6.7 6.7 6.7h112.7c3.7 0 6.7-3 6.7-6.6V46.4c0-3.7-3-6.7-6.7-6.7z" fill="#fff"/><g opacity=".5" fill="#1280FF"><path opacity=".5" d="M99.5 57.4H74.1v1.8h25.4v-1.8zM89.6 61H74.1v1.7h15.5V61zM144.6 61H95.9v1.7h48.7V61zM103.5 64.6H82.2v1.8h21.3v-1.8zM114.4 68.2H89V70h25.4v-1.8zM137.3 68.2H116v2h21.3v-2zM108.6 71.8H89v1.7h19.6v-1.7zM150.8 71.8h-40.4v2h40.4v-2zM99.5 76.6H74.1v1.9h25.4v-1.9zM89.6 80.2H74.1V82h15.5v-1.8zM144.6 80.2H95.9V82h48.7v-1.8zM103.5 83.8H82.2v1.9h21.3v-1.9zM114.4 87.4H89v2h25.4v-2zM137.3 87.4H116v2.1h21.3v-2zM108.6 91H89v1.8h19.6V91zM150.8 91h-40.4v2h40.4v-2zM99.5 96H74.1v1.8h25.4v-1.9zM89.6 99.5H74.1v1.8h15.5v-1.8zM144.6 99.5H95.9v1.8h48.7v-1.8zM103.5 103.1H82.2v1.9h21.3V103zM114.4 106.7H89v1.9h25.4v-1.9zM137.3 106.7H116v2h21.3v-2zM108.6 110.3H89v1.8h19.6v-1.8zM150.8 110.3h-40.4v2h40.4v-2z"/></g><path opacity=".2" d="M29.9 83h45.8c3.5 0 6.3-2.9 6.3-6.4v-8.7c0-3.6-2.8-6.4-6.3-6.4H29.9a6.4 6.4 0 00-6.4 6.4v8.7c0 3.5 2.9 6.4 6.4 6.4z" fill="#1280FF"/><path d="M57.2 122l-24.9 18.7h174l-24.4-19-124.7.3z" fill="#1280FF"/><path d="M57.2 122l-24.9 18.7h174l-24.4-19-124.7.3z" fill="url(#paint4_linear)"/><path d="M170.3 129.6c1 .3 1.6 1.5 1.1 2.3-.4.6-1.4 1-1.2 1.7l2.4 1.2c.3.1.5.3.6.6.4.7-.7 1.2-1.5 1.3l-18.7 1.5c-2.5.2-5 .4-7.5-.2-1.6-.4-3.2-1-4.8-1.8l-6.8-3.3c-1-.5-2-1-2.7-1.9-.7-.9-.8-2.3 0-3 .5-.6 1.4-.7 2.2-.7a126.7 126.7 0 0128.4 1.6c1.5.2 3.1.8 4.7.9 1.2 0 2.6-.6 3.8-.2z" fill="url(#paint5_linear)"/><path d="M39.4 147.6l-7-6.9h173.8l-6.4 7.3-160.4-.4z" fill="#1280FF"/><path d="M39.4 147.6l-7-6.9h173.8l-6.4 7.3-160.4-.4z" fill="url(#paint6_linear)"/><path opacity=".6" d="M99.7 137.8l7.4-5.9 27.1-.1 7.8 5.9-42.3.1zM48.2 130.9l140.7-.2-7.5-6.2H56.9l-8.7 6.4z" fill="#1280FF"/><path d="M134.8 130c1 1 2 1.8 3.3 2.5.6.3 1.5.7 2 .2.7-.4.5-1.3.2-2-.7-1.6-2.5-3.4-4.4-3.7-2.1-.3-2.3 1.6-1 3z" fill="#606161"/><path d="M134.8 130c1 1 2 1.8 3.3 2.5.6.3 1.5.7 2 .2.7-.4.5-1.3.2-2-.7-1.6-2.5-3.4-4.4-3.7-2.1-.3-2.3 1.6-1 3z" fill="url(#paint7_linear)"/><path d="M144.8 104.6l-5.3 12.4-8 2.1-1 5 13.3-2.6 6.3-7.5s.9-8.8-.6-12.2c-.7-1.6-4 1.2-4.7 2.8z" fill="#1280FF"/><g opacity=".2" fill="#1280FF"><path opacity=".2" d="M221 16.4h-69.2a5.7 5.7 0 00-5.7 5.7V48c0 3.1 2.6 5.7 5.7 5.7H221c3.2 0 5.7-2.6 5.7-5.7V22c0-3.1-2.5-5.7-5.7-5.7z"/><path opacity=".2" d="M146.1 61.2V47.7h11.5L146 61.2z"/></g><path d="M221 13h-69.2a5.7 5.7 0 00-5.7 5.7v25.8c0 3.1 2.6 5.7 5.7 5.7H221c3.2 0 5.7-2.6 5.7-5.7V18.7c0-3.1-2.5-5.7-5.7-5.7z" fill="#fff"/><path d="M146.1 57.8V44.3h11.5L146 57.8zM28.8 81h45.8c3.5 0 6.4-2.8 6.4-6.3V66c0-3.5-2.9-6.4-6.4-6.4H28.8a6.4 6.4 0 00-6.3 6.4v8.7c0 3.5 2.8 6.4 6.3 6.4z" fill="#fff"/><g opacity=".5" fill="#1280FF"><path opacity=".5" d="M45.1 64.3H31.5v1h13.6v-1zM39.8 66.3h-8.3v1h8.3v-1zM69.3 66.3H43.2v1h26.1v-1zM47.2 68.2H35.8v1h11.4v-1zM53.1 70.1H39.5v1H53v-1zM65.4 70.1H54v1.2h11.4V70zM50 72H39.5v1H50v-1zM72.7 72H51v1.1h21.7v-1zM45.1 74.7H31.5v1h13.6v-1zM39.8 76.6h-8.3v1h8.3v-1zM69.3 76.6H43.2v1h26.1v-1z"/></g><path opacity=".2" d="M110.8 50.8l.2-1.3.2-.7 1.1.2a.2.2 0 00.3-.1 11.6 11.6 0 01.6-1.1.2.2 0 000-.2l-.8-.9 1.6-1.3.7.9a.2.2 0 00.3 0l1-.3c.2 0 .2-.1.2-.3v-1.1h2.2v1.1c0 .2 0 .2.2.3a8.7 8.7 0 011.1.4.2.2 0 00.2-.1l.7-1 1.6 1.4-.8 1 .6 1.2h.1l.1.1 1.2-.2.4 2-1.2.3-.1.1-.3 1.4 1.2.6-1 1.9-1.2-.7-1 .9a.2.2 0 00-.1.1l.4 1.2-2 .7-.4-1c0-.2-.1-.3-.3-.2h-1l-.3.1-.4 1.1-2-.7.4-1.2-1.1-1-1.1.7-1.1-1.9 1-.6a.2.2 0 00.1-.1v-.1l-.2-1c0-.2 0-.3-.2-.3l-1.1-.2v-.1zm6.5-2.6a2.7 2.7 0 100 5.5 2.7 2.7 0 000-5.5z" fill="#1280FF"/><path d="M162.2 31.6l8.2-4.3v1.3l-7 3.4 7 3.6v1.2l-8.2-4.3v-1zM172.9 24.2h1.6v5.3a3.3 3.3 0 012.7-1.6c1.2 0 3 .8 3 3.7v5.2h-1.5v-5c0-1.3-.5-2.5-2-2.5a2.2 2.2 0 00-2.2 2.3v5.2h-1.6V24.2zM184.6 25.7v2.5h2.2v1.2h-2.2V34c0 1 .3 1.7 1.2 1.7l.9-.1v1.2a4 4 0 01-2.3 0c-.3 0-.5-.3-.7-.5-.5-.4-.7-1.2-.7-2.2v-4.7h-1.3v-1.2h1.3v-2l1.6-.5zM188.6 30.5v-2.3h1.3v1.4h.1a3 3 0 012.7-1.6 2.5 2.5 0 012.5 1.7c.2-.4.6-.8 1-1.1a3 3 0 011.9-.6c1 0 2.8.7 2.8 3.7v5h-1.6V32c0-1.6-.6-2.6-1.8-2.6a2 2 0 00-1.9 1.4v6.1H194v-5.2c0-1.3-.6-2.3-1.8-2.3a2.3 2.3 0 00-2 2.3v5.2h-1.6v-6.3zM203.4 24.2h1.6v12.6h-1.6V24.2zM215.8 32.6l-8.3 4.2v-1.2l7-3.5-7-3.6v-1.2l8.3 4.3v1z" fill="#1280FF"/><path d="M135 119.8c-1.5.3-2.8 1.5-2.8 3.1 0 1.3.9 2.3 1.7 3.2 5 5.5 11.1 10.3 18.1 10.3 2.3 0 4.5-.5 6.8-.6 1.5-.1 3 0 4.5-.7 2-1 3.3-3.4 4.3-5.7l3.4-7c.8-1.7 1.6-3.8.7-5.4-.8-1.5-2.6-1.7-4.1-1.5-3 .5-5.8 2.4-8.5 3.8-3.5 2-8.2 4.3-12.1 3.9-4-.4-8-4.1-12-3.4z" fill="#606161"/><path d="M145.6 120.2c.5 2.5 1.4 5 3.3 6.8a11 11 0 006.9 2.1c2.1.1 4.3-.1 6.2-1.1 2.7-1.6 1.7-9.2 2-12.3.2-3.2 3.4-2.9 2.5-5.9-1-3.2-3.8-5.5-6.2-8a8.2 8.2 0 00-2.2-1.6c-2-1-4-.9-6.2-.7-.8 0-3.6 1.5-4 2.1-4.4 6-4 11.6-2.3 18.6z" fill="#1280FF"/><path d="M147.4 91.1a3 3 0 00-.7.8 1.8 1.8 0 00.2 1.5l.7 1.4c.3 1 .2 2.1 1 2.7.5.4 1.4.2 1.8.7.6.6.2 1.7.9 2.2l.7.2a7 7 0 002.3 0 2.4 2.4 0 001.7-1.3c.2-.4.3-.9.2-1.3l.2-6.3c0-1 0-2-.2-3-.1-1-.6-2-1.4-2.6-.7-.5-1.6-.8-2.5-.9-.8-.1-1.6 0-2.3.5-1.7 1.3-1.1 4-2.6 5.4z" fill="url(#paint8_linear)"/><path d="M150 88c.5.4 1.1.6 1.7.9a3.8 3.8 0 011.6 2.7l1-1.1.8 1a1.2 1.2 0 01-.2 1.4l-.6.5c-.3.5.3.9.5 1.3.3.5.2 1.1.3 1.7 0 .6.1 1.3.7 1.5.7.2 1.4-.5 1.8-1.2.7-1.1 1.3-2.3 1.6-3.6.4-1.3.2-2.6-.4-3.8-.4-.6-.9-1.1-1.2-1.8-.5-1-.4-2.2-1-3.2-.8-1.6-4.6-2.9-6.3-2.3-2.6.8-2.3 4.7-.3 6z" fill="#606161"/><path d="M127.3 120.2c-1 .2-2 .6-2.8 1.2a12 12 0 00-2.1 2.2v.4a.6.6 0 00.2.3c.7.4 1.5.1 2.2 0 .7-.3 1.5-.5 2.2-.6.4-.1 1-.1 1.1.2l.2.5a.7.7 0 00.8.2l.7-.4 1.7-1.6.6-.7c.3-.5.4-1 .2-1.6-.3-.9-.2-.7-1-.7-1.4 0-2.7.2-4 .6z" fill="url(#paint9_linear)"/><path d="M145.4 119.5l3.8-6.7-.3 14.1s-2.5-1-3.5-7.4z" fill="url(#paint10_linear)"/><defs><linearGradient id="paint0_linear" x1="201.4" y1="108.6" x2="172.6" y2="130.9" gradientUnits="userSpaceOnUse"><stop stop-color="#010101" stop-opacity="0"/><stop offset=".9" stop-color="#010101"/></linearGradient><linearGradient id="paint1_linear" x1="11523.4" y1="12732.3" x2="7615.8" y2="13794.4" gradientUnits="userSpaceOnUse"><stop stop-color="#010101" stop-opacity="0"/><stop offset=".9" stop-color="#010101"/></linearGradient><linearGradient id="paint2_linear" x1="2377.6" y1="10433.4" x2="4430.1" y2="10875.2" gradientUnits="userSpaceOnUse"><stop stop-color="#010101" stop-opacity="0"/><stop offset=".9" stop-color="#010101"/></linearGradient><linearGradient id="paint3_linear" x1="2816.6" y1="12123.6" x2="7355.7" y2="12963.5" gradientUnits="userSpaceOnUse"><stop stop-color="#010101" stop-opacity="0"/><stop offset=".9" stop-color="#010101"/></linearGradient><linearGradient id="paint4_linear" x1="119" y1="113.1" x2="119.3" y2="143.7" gradientUnits="userSpaceOnUse"><stop stop-color="#fff" stop-opacity="0"/><stop offset=".9" stop-color="#fff"/></linearGradient><linearGradient id="paint5_linear" x1="15644" y1="3763.7" x2="15657.4" y2="2532.4" gradientUnits="userSpaceOnUse"><stop stop-color="#010101" stop-opacity="0"/><stop offset=".9" stop-color="#010101"/></linearGradient><linearGradient id="paint6_linear" x1="45923.7" y1="2634.3" x2="45927.3" y2="1842.2" gradientUnits="userSpaceOnUse"><stop stop-color="#010101" stop-opacity="0"/><stop offset=".9" stop-color="#010101"/></linearGradient><linearGradient id="paint7_linear" x1="2248.3" y1="1883.3" x2="2343.3" y2="1883.3" gradientUnits="userSpaceOnUse"><stop stop-color="#010101" stop-opacity="0"/><stop offset=".9" stop-color="#010101"/></linearGradient><linearGradient id="paint8_linear" x1="146.6" y1="93" x2="156.4" y2="93" gradientUnits="userSpaceOnUse"><stop stop-color="#E5C6D6"/><stop offset=".4" stop-color="#EAD4D0"/><stop offset="1" stop-color="#F0E9CB"/></linearGradient><linearGradient id="paint9_linear" x1="3119.3" y1="1524" x2="3346.4" y2="1524" gradientUnits="userSpaceOnUse"><stop stop-color="#E5C6D6"/><stop offset=".4" stop-color="#EAD4D0"/><stop offset="1" stop-color="#F0E9CB"/></linearGradient><linearGradient id="paint10_linear" x1="1471.5" y1="4062.4" x2="1626.1" y2="4032.4" gradientUnits="userSpaceOnUse"><stop stop-color="#010101" stop-opacity="0"/><stop offset=".9" stop-color="#010101"/></linearGradient></defs></svg>