<svg width="218" height="180" fill="none" xmlns="http://www.w3.org/2000/svg"><path opacity=".4" d="M17.6 142.8s-23.3-24-16.3-49.2c7-25.3 25.8-25.4 56.4-49C88.3 20.7 96.4-3 144.2.2c47.8 3.2 79.5 84.6 72 106.7-7.6 22.1-14 38.8-14 38.8l-184.6-3z" fill="#BAE5FF"/><path d="M86.3 27.7H6c-2 0-3.5 1.6-3.5 3.5v55c0 1.9 1.6 3.5 3.5 3.5h80.2c2 0 3.5-1.6 3.5-3.5v-55c0-2-1.6-3.5-3.5-3.5z" fill="#fff"/><path opacity=".5" d="M86.3 27.7H6c-2 0-3.5 1.6-3.5 3.5v55c0 1.9 1.6 3.5 3.5 3.5h80.2c2 0 3.5-1.6 3.5-3.5v-55c0-2-1.6-3.5-3.5-3.5z" fill="#1280FF"/><path d="M214.8 138.5H13.5v4.3h201.3v-4.3zM209.3 142.8H17.6V180h191.7v-37.2z" fill="#1280FF"/><path opacity=".2" d="M209.3 142.8H17.6v8.9h191.7v-8.9z" fill="url(#paint0_linear)"/><path d="M79.7 138.5H33.8l2.2-10.8h42.4l1.3 10.8z" fill="#1280FF"/><path opacity=".5" d="M79.6 138.5H36.4l2-10.8h40l1.2 10.8z" fill="url(#paint1_linear)"/><path d="M54.9 137c-.1.9-.5 1.6-1 2-.6.6-1.4.8-2.3.8a3 3 0 01-2.5-1c-.6-.8-.9-1.8-.9-3v-.9c0-.8.2-1.5.4-2.1a3.2 3.2 0 013.1-1.9c1 0 1.7.3 2.2.8.6.5.9 1.2 1 2.1h-1.2c0-.7-.3-1.2-.6-1.5a2 2 0 00-1.4-.5 2 2 0 00-1.7.9c-.4.5-.6 1.3-.6 2.3v.8c0 1 .2 1.7.5 2.3.4.5 1 .8 1.7.8.6 0 1.1-.2 1.5-.4.3-.3.5-.8.6-1.6H55zm-.4 9h-2.8v7.7h-1.1V146h-2.8v-1h6.7v1zm.7 17.6c0 .9-.2 1.6-.4 2.3-.3.6-.7 1-1.3 1.4-.5.4-1.1.5-1.8.5s-1.3-.1-1.8-.5c-.5-.3-1-.8-1.3-1.4-.2-.6-.4-1.4-.4-2.2v-.6c0-.8.1-1.6.4-2.2.3-.7.7-1.1 1.3-1.5.5-.3 1.1-.5 1.8-.5s1.3.2 1.8.5c.6.3 1 .8 1.3 1.5.2.6.4 1.3.4 2.2v.5zm-1.2-.5c0-1-.2-1.8-.6-2.4a2 2 0 00-1.7-.8 2 2 0 00-1.7.8c-.4.6-.6 1.3-.7 2.3v.6c0 1 .2 1.8.7 2.4.4.6 1 .8 1.7.8a2 2 0 001.7-.8c.4-.5.6-1.3.6-2.3v-.6z" fill="#000"/><path d="M79 125s1-27 6.4-29.7c5.4-2.7 27.5-1.6 32.3-.3 4.9 1.4 8.7 20.6 10 23.6 2.3 5.5 10.8 8.6 10.8 8.6l-.8 11.4-51-.3s-6-1.2-7.7-13.4z" fill="#1280FF"/><path d="M94.6 94.3c-.3.5-.4 1.1-.4 1.7.2 1.7 1 3.3 2 4.6 1.1 1.2 2.5 2.3 4 3 .5-1.1.8-3.2 1.8-3.5 1-.3 2.2-.5 3.2-.6l-3-.6a8.7 8.7 0 01-4.5-3l-.8-1.2c-.2-.5 0-1.2-.7-1.1a2.2 2.2 0 00-1.6.7z" fill="url(#paint2_linear)"/><path d="M109.7 101.3c.1.2.4.4.6.3l.1-.2c.5-.8.7-1.7.5-2.7-.2-.9-.6-1.7-1-2.5s-1-1.5-1.5-2.2c-.3-.3-.7-.6-1-.3-.2.1-.2.3-.3.4-.2 1-2.4 4.6-1.9 5.4.2.3 2.6.1 3 .4l1.5 1.4z" fill="url(#paint3_linear)"/><path d="M112.6 74.9c-.1-1.5-3-2.1-3.5-3.2l4.5-.2s.5 6-1.6 8.8l-.5-1.1c.6-2.8 1.3-1 1.1-4.3z" fill="#984E45"/><path d="M98.3 84.7l-1.6 10.1s3.7 5.4 8.4 4.6c4.6-.8 3-3 3-3l-.7-8.6s-3.7.8-9-3z" fill="#F7AD7E"/><path opacity=".5" d="M97.8 88.2l.5-3.5c5.4 4 8.2 2.3 8.2 2.3l1.3 4.5c-.7.8.2 3.6-3 3.3-2.5-.2-5-3.8-7-6.6z" fill="url(#paint4_linear)"/><path d="M94.1 77.4c.4 5.6 6.1 15.5 11.7 15 5.6-.3 7.2-12 6.8-17.5-.4-5.6-3.5-8.8-9.1-8.4A10 10 0 0094 77.4z" fill="#F7AD7E"/><path d="M98.7 66.6c.4 0 .5-.3 1-.7 1.6-1.4 4-1.7 6-1.5 5.3.6 6.5 4.3 7.8 3.7 1.4-.5 4 1.7 2.2 4.2-1.7 2.5-4.5 3.1-7.9 1.5-2.2-1-5.2-2-7.6-1.3a1.4 1.4 0 00-1 .6 37.6 37.6 0 00.5 8c-.3 0-.5-.3-.6-.5l-.8-1.9c-.4-.7-1-1.8-1.8-1.2a2 2 0 00-.8 1.4c-.3 1.2 0 3 .9 3.7.8.7 1 2 1.2 3 0 .3.4 1 .3 1.4-.2.5-1 .4-1.3.1-.5-.4-.7-1-.8-1.6a38.8 38.8 0 00-4-10c-.3-1.5-.2-3 .4-4.4a7.8 7.8 0 012.3-3.7c1.2-1 2.2-.8 3.6-.7h.4z" fill="#984E45"/><path opacity=".2" d="M101 137.8l.7-10.6-8.5-1.2-2.7-14.7s9.9 9.2 18.3 9c8.3-.3 9.4-3.5 9.4-3.5l1.5 20.7-18.8.3z" fill="url(#paint5_linear)"/><path d="M102.6 99.9l1 1.9 1.7 1.5 3 32.3 5.7-.2-7-32.5.8-3.2s-3.6-.4-5.2.2z" fill="url(#paint6_linear)"/><path d="M100 131.1s7.1-5.7 9.6-5c2.5.7 5.2 3.4 5.4 4.3.2.9-1 2.3-2.5 2.5-1.5.2-3 1.4-4 1-.8-.3-3 0-3.9 1.1-.9 1-5 2.5-5 2.5s-2.7-3.7.4-6.4z" fill="#F7AD7E"/><path d="M103.8 138.6h52.3a2.7 2.7 0 000-5.3h-52.3a2.7 2.7 0 000 5.3z" fill="#1280FF"/><path d="M103.8 138.6h52.3a2.7 2.7 0 000-5.3h-52.3a2.7 2.7 0 000 5.3z" fill="url(#paint7_linear)"/><path d="M124 133.5l1 2.8 37 2.3 10.6-27a2.4 2.4 0 00-2.2-3.2H139a7.6 7.6 0 00-7 4.9l-7.9 20.2z" fill="#1280FF"/><path d="M124 133.5l1 2.8 37 2.3 10.6-27a2.4 2.4 0 00-2.2-3.2H139a7.6 7.6 0 00-7 4.9l-7.9 20.2z" fill="url(#paint8_linear)"/><path d="M124 138.6h38l10-25.5a2.3 2.3 0 00-2-3.1h-29.9a7.2 7.2 0 00-6.7 4.6l-9.4 24z" fill="#1280FF"/><path d="M124 138.6h38l10-25.5a2.3 2.3 0 00-2-3.1h-29.9a7.2 7.2 0 00-6.7 4.6l-9.4 24z" fill="url(#paint9_linear)"/><path d="M199.3 88.6c.8-1.3 1.3-2.7 1.7-4.1l3.1-.6V77l-3-.7a16 16 0 00-1.7-4.1l1.8-2.6-2.4-2.5-2.4-2.4-2.6 1.7c-1.3-.8-2.7-1.3-4-1.7l-.7-3.1h-6.8l-.6 3c-1.5.3-2.9.9-4.1 1.6l-2.6-1.7-2.5 2.4-2.4 2.4 1.7 2.6c-.7 1.3-1.3 2.7-1.7 4.1l-3 .6-.1 3.4v3.4l3 .7a16 16 0 001.7 4.1l-1.8 2.6 2.4 2.5 2.4 2.4 2.6-1.7a16 16 0 004.1 1.7l.6 3.1h6.8l.6-3a16 16 0 004.2-1.7l2.6 1.8 2.4-2.4 2.4-2.4-1.7-2.6zm-19.7-2.4a8.4 8.4 0 0110.7-12.8 8.4 8.4 0 11-10.7 12.8z" fill="#1280FF"/><path d="M168.6 70.4c.5-.8.9-1.8 1.1-2.7l2-.4v-4.6l-2-.4c-.2-1-.6-1.9-1-2.7l1.1-1.8-1.6-1.6-1.5-1.6-1.8 1.1c-.8-.5-1.8-.9-2.7-1.1l-.4-2h-4.5l-.5 2c-1 .2-1.9.6-2.7 1l-1.7-1.1-1.7 1.6-1.6 1.6 1.2 1.7c-.5.9-1 1.8-1.2 2.8l-2 .3v4.6l2 .4c.2 1 .6 2 1.1 2.8L149 72l1.6 1.6 1.6 1.7 1.7-1.2c.9.5 1.8 1 2.8 1.2l.4 2h4.5l.4-2c1-.3 2-.6 2.8-1.1l1.7 1.1 1.6-1.5 1.6-1.6-1.1-1.8zm-13.1-1.6a5.6 5.6 0 017-8.5 5.6 5.6 0 01-3.1 10.2c-1.5 0-2.9-.6-4-1.7z" fill="#1280FF"/><path d="M5.5 80.9l-.6-.8 18.4-14.6 16.9 5.3 18-17.3 14.3 2 12.6-14.4.7.6-12.9 14.9-14.3-2.1-18.1 17.4-17-5.3L5.5 81z" fill="#fff"/><path d="M42.9 71a2.6 2.6 0 01-2.8 3 2.6 2.6 0 01-2.2-3.3 2.6 2.6 0 012.1-1.9 2.6 2.6 0 012.9 2.2zM26 66a2.6 2.6 0 01-2.8 2.9 2.6 2.6 0 01-2.3-3.3 2.6 2.6 0 012.2-1.8 2.6 2.6 0 012.8 2.2z" fill="#1280FF"/><path d="M40.7 74.4a3 3 0 01-3.4-3.3 3 3 0 013.8-2.7 3 3 0 011.6 4.8 3 3 0 01-2 1.2zm-.6-5.1a2.1 2.1 0 00-1.8 2.7 2.1 2.1 0 003 1.2 2.1 2.1 0 00-1.2-4z" fill="#fff"/><path d="M61 53.8a2.6 2.6 0 01-2.8 2.9 2.6 2.6 0 01-2.3-3.3 2.6 2.6 0 014-1.3 2.6 2.6 0 011 1.7z" fill="#1280FF"/><path d="M58.8 57.2a3 3 0 01-3.4-3.3 3 3 0 013.8-2.7 3 3 0 011.6 4.8 3 3 0 01-2 1.2zm-.6-5.1a2.1 2.1 0 00-1.8 2.7 2.1 2.1 0 003 1.2 2.1 2.1 0 001-2.1 2.1 2.1 0 00-2.2-1.8z" fill="#fff"/><path d="M75.1 55.6a2.6 2.6 0 01-2.7 3 2.6 2.6 0 01-2.3-3.3 2.6 2.6 0 012.2-1.9 2.6 2.6 0 012.8 2.2z" fill="#1280FF"/><path d="M73 59a3 3 0 01-3.4-3.3 3 3 0 013.8-2.7 3 3 0 011.6 4.8 3 3 0 01-2 1.2zm-.6-5.1a2 2 0 00-1.8 2.7 2 2 0 003 1.2 2 2 0 00-1.2-4zM23.8 69.4a3 3 0 01-3.5-3.3 3 3 0 013.9-2.7 3 3 0 011.6 4.8 3 3 0 01-2 1.2zm-.7-5.2a2.1 2.1 0 00-1.7 2.8 2.1 2.1 0 003 1.2 2.1 2.1 0 001-2.1 2.1 2.1 0 00-2.3-1.9z" fill="#fff"/><defs><linearGradient id="paint0_linear" x1="112.7" y1="128.2" x2="114.8" y2="181.7" gradientUnits="userSpaceOnUse"><stop offset="0"/><stop offset=".8" stop-opacity=".1"/><stop offset="1" stop-opacity="0"/></linearGradient><linearGradient id="paint1_linear" x1="5100.5" y1="2455.2" x2="5064.8" y2="3373.2" gradientUnits="userSpaceOnUse"><stop offset="0"/><stop offset=".8" stop-opacity=".1"/><stop offset="1" stop-opacity="0"/></linearGradient><linearGradient id="paint2_linear" x1="94.7" y1="108.3" x2="101.9" y2="92.6" gradientUnits="userSpaceOnUse"><stop offset="0"/><stop offset=".1" stop-opacity=".8"/><stop offset="1" stop-opacity="0"/></linearGradient><linearGradient id="paint3_linear" x1="1378.8" y1="1673" x2="1272.7" y2="1653" gradientUnits="userSpaceOnUse"><stop offset="0"/><stop offset=".1" stop-opacity=".8"/><stop offset="1" stop-opacity="0"/></linearGradient><linearGradient id="paint4_linear" x1="2003.7" y1="1646.6" x2="2151.3" y2="2175.2" gradientUnits="userSpaceOnUse"><stop offset="0"/><stop offset=".8" stop-opacity=".1"/><stop offset="1" stop-opacity="0"/></linearGradient><linearGradient id="paint5_linear" x1="5972.7" y1="8452.2" x2="5936.5" y2="5156.9" gradientUnits="userSpaceOnUse"><stop offset="0"/><stop offset=".8" stop-opacity=".1"/><stop offset="1" stop-opacity="0"/></linearGradient><linearGradient id="paint6_linear" x1="2290" y1="8459" x2="2814.2" y2="8447.8" gradientUnits="userSpaceOnUse"><stop offset="0"/><stop offset=".1" stop-opacity=".8"/><stop offset="1" stop-opacity="0"/></linearGradient><linearGradient id="paint7_linear" x1="14314.4" y1="1599.7" x2="14314.6" y2="1487.9" gradientUnits="userSpaceOnUse"><stop offset="0"/><stop offset=".1" stop-opacity=".8"/><stop offset="1" stop-opacity="0"/></linearGradient><linearGradient id="paint8_linear" x1="13335.3" y1="6209.3" x2="13785.5" y2="8657.8" gradientUnits="userSpaceOnUse"><stop offset="0"/><stop offset=".1" stop-opacity=".8"/><stop offset="1" stop-opacity="0"/></linearGradient><linearGradient id="paint9_linear" x1="13635.3" y1="8367.4" x2="13688.2" y2="6105.9" gradientUnits="userSpaceOnUse"><stop offset="0"/><stop offset=".1" stop-opacity=".8"/><stop offset="1" stop-opacity="0"/></linearGradient></defs></svg>