<svg width="197" height="180" fill="none" xmlns="http://www.w3.org/2000/svg"><path opacity=".2" d="M8.1 104.7v46.9c-12.6-13.8-8.9-31.3 0-47z" fill="#1280FF"/><path opacity=".4" d="M195.6 99.5c-3 7.4-10.2 11.9-16 17.4-11.3 11.1-16.8 27.2-26.4 39.7-2.3 3-4.9 5.7-7.7 8.2-11.2 9.4-26.3 12.5-40.8 14.2a136 136 0 01-45.2-2.1 127.2 127.2 0 01-39.9-16.3l63-35.6 14.7-8.3.8-.4V4L62.6 19.6c2.3-3.1 4.8-6 7.6-8.7C80.7.9 97.8-4.1 109.9 4c7.2 4.8 11.2 13.1 17.3 19.4 11.9 12.3 30.4 15.3 44.7 24.8 12.3 8.3 21 21 24.2 35.5a27.5 27.5 0 01-.5 15.8z" fill="#BAE5FF"/><path opacity=".2" d="M153.2 156.6c-2.3 3-4.9 5.7-7.7 8.2-11.2 9.4-26.3 12.5-40.8 14.2a136 136 0 01-45.2-2.1c-1-1.8-1.5-3.7-1.5-5.7 0-13.2 23.7-24 53-24 17.2 0 32.5 3.7 42.2 9.4z" fill="#1280FF"/><path d="M111.9 43.8a8.5 8.5 0 00-8.2 5c-1.7 3.5-.6 8-2.5 11.4-.9 1.7-2.3 3-3.7 4.2l-.3.3c0 .3.2.5.4.7 1 .9 2.2 1.6 3.4 2a9 9 0 003.6 1.2c.8 0 1.5-.1 2.3-.3 1.2-.3 2 1.2 3.2.9 1.4-.3 2.7-.5 4.1-.5 1-.1 2-2 3-2 2.1-.3 4-1.6 5.8-2.8-1.5-.9-2.3-2.5-2.8-4.2-.8-2.3-1.2-4.8-1.2-7.2 0-1.6.2-3.3-.4-4.7a4.9 4.9 0 00-2.9-2.7c-1.3-.4-2.5-1.2-3.8-1.3z" fill="#0D3DBF"/><path d="M117.2 54.7l-.2-3.3a4 4 0 00-1.7-2.8c-1.3-.8-3-.5-4.3 0-.8.2-1.4.5-2 1-1.7 1-2.6 2.9-3 4.8-.4 1.8-.5 3.8-1 5.7-.5 1.8-1.6 3.7-3.3 4.5a18.1 18.1 0 00-2.2 1l-.1.2.1.4c1 1.3 3 1.7 4.7 1.8 1.8.2 3.6.2 5.4.2 1.4 0 3 .1 4.3-.4 1.3-.6 2.4-1.6 3.7-2 .7-.3 2-.3 2.2-1.2.2-.8-.7-2.2-1-2.9-.9-2.2-1.4-4.6-1.6-7z" fill="url(#paint0_linear)"/><path d="M119.3 166.7a6 6 0 002.2 1.8c1.7.8 3.5 1.1 5.4 1.1.7 0 1.5 0 2-.6a2 2 0 00.6-1.8c-.2-.7-.5-1.3-1-1.7-1.8-2.1-4.7-2.8-7.3-3.2-1.1-.2-2.2-.4-2.7.8-.4 1.1.2 2.7.8 3.6zM94.5 164.7c-.5.4-.8 1-1 1.6-.2 1.2.8 2.2 2 2.5 1 .3 2.2-.1 3.3-.6 1.6-.6 3-1.5 4.4-2.5.4-.2.7-.5 1-.9.6-.8.5-2 .3-3a.7.7 0 00-.3-.7.7.7 0 00-.7 0l-3.2.1h-1.8c-1.5.4-3 2.4-4 3.5z" fill="#000"/><path opacity=".5" d="M98 4v112.3l-.7.4-14.8 8.3-62.9 35.6-11.5 6.5V43.5l54.5-24L98.1 4z" fill="#1280FF"/><path opacity=".6" d="M64.7 62.7l-9.4 4.5V52l9.4-4.5v15.2zM80.3 80.8l-9.4 4.5V70.1l9.4-4.5v15.2z" fill="#fff"/><path opacity=".5" d="M97.8 90.6c-.1 7-.5 14 0 21 .1 1.7.2 3.6-.5 5L82.5 125a1 1 0 01-1 0 1 1 0 01-.2-.7c-.2-4.7.5-9.4 1-14.1.9-7.2 1.1-14.5-.3-21.5-.3-1.8-.9-3.6-1.7-5.2-1.1-2-2.8-3.4-4.3-5a52.4 52.4 0 01-5.5-8c-1.2-2-7.4-9.7-5-11.5 4-2.8 5.5 5.4 6.1 7.3.7 2 2.2 3.9 3.7 5.5 3.6 3.9 7.9 7.1 12.2 10.2.7-.7 1.2-1.6 1.5-2.6.8-2 1.5-4.3 1.1-6.5-.2-1.2-.7-2.3-1.2-3.4a16 16 0 01-1-10.4 10 10 0 017.2-7.2h.8c.2.1 1.1 0 2.1-.3V85l-.2 5.6z" fill="#1280FF"/><path d="M105.4 58.2c0 .5-.7 1.3-.5 1.7.6.9 1.2 1.4 1.7 2.3.4.7 1-.1 1.3.6.3 1.4.6 2.7.7 4.1 0 .7-.1 1.5.3 2.1a2 2 0 001.3.7l1.5-.1a2 2 0 001.4-1c.2-.4.2-.8.2-1.2v-1.6a2 2 0 011-1.2 4 4 0 011-.3c1.2-.2 2.2-.7 2.9-1.6 1-1.1 1.1-2.6 1.2-4.1 0-2-.2-4-.6-6-.5-2.4-1.4-4.4-3.4-5.6-2.2-1.4-5.3-1-7.4.8-2 1.7-3.1 4.4-3.3 7-.1 1.3-.2 2.5.7 3.4z" fill="#FFDAD2"/><path d="M107.8 59.5l-.6-.8a1 1 0 00-.6-.5.8.8 0 00-.7.6 2 2 0 000 1c0 .4 0 .9.3 1.3a1.6 1.6 0 001.2.8h.3a.5.5 0 01.2.4c0 .4 0 1-.3 1a.7.7 0 01-.5-.3c-.7-.5-1.2-1.2-1.7-1.9-.6-1-1-2.2-1.3-3.5-.2-.5-.3-1.2 0-1.7l.7-.5c.8-.3 3-1.3 3.2.1.1 1.3-.8 2.8-.2 4z" fill="#0D3DBF"/><path d="M114 51.7a10.6 10.6 0 01-7 4.1c-.4 0-1 0-1.4.2-.5.2-1 .6-1.4 1-.4-1.1-1-2.4-.9-3.6.1-.9.3-1.7.6-2.5a9.4 9.4 0 013-4.5 7 7 0 013.9-1.2c1 0 2 0 3 .3 1 .2 1.2.3 1.4 1.4.2 1.7-.2 3.4-1.1 4.8z" fill="#0D3DBF"/><path d="M122.2 81.9a8 8 0 00-1.2 2.6l-.1.8-1.4 6.5c-.2 1.2-.5 2.5-1.5 3.3-.6.3-1.2.6-2 .7l-1.8.3a27 27 0 01-9.3-.3c-.7-.2-1.5-.4-2-1-.4-.7-.3-1.5-.4-2.3-.3-3.3-3.3-6.4-2.2-9.5.4-.8 1-1.9 1-2.7a1.2 1.2 0 00-.5-.8c-.3-.3-.6-.4-1-.5-2.8-.7-5.6-1.3-8.2-2.6a39.9 39.9 0 01-6.4-4.1l-7.7-5.7a2.1 2.1 0 01-1-1.3V65c0-.4.2-.8.4-1V64l.5-.9c.7-1 1.5-2 2.7-2.2 1.7-.4 3.2.9 4.6 2 3.6 2.9 7.4 6.2 12 7a42.9 42.9 0 008.7.2c.5-.4.3-1.2.6-1.8.3-.5 1.2-.6 2-.6 2 .1 3.9 0 5.9-.4-.2-.5.5-.3 1 0a1.6 1.6 0 01.5 1.3c0 .5 0 1 .3 1.4.3.5.8.7 1.4.8 1.6.4 3.2 1.1 4.4 2.2.8.7 1.4 1.4 1.8 2.3.3.6.5 1.3.6 2 .2 1.8-.8 3.2-1.7 4.6z" fill="#FA3D38"/><path d="M101.3 80.2v.1a1.2 1.2 0 00-.5-.8c-.3-.3-.6-.4-1-.5-2.8-.7-5.6-1.3-8.2-2.6a39.9 39.9 0 01-6.4-4.1l-7.7-5.7a2.1 2.1 0 01-1-1.3V65c0-.4.2-.7.4-1V64a1 1 0 01.5-.9c.8-.4 2.7 1.2 7.2 5.3 7.7 7.1 15.3 6 16.8 8.2 1.4 2.2 0 3.6 0 3.6z" fill="url(#paint1_linear)"/><path d="M139.5 96a24 24 0 01-.9 3.3v.2c-.1.4-.3.8-.6 1a2.3 2.3 0 01-1.8.4c-2.8-.3-5.3-1.6-7.2-3.6a52.3 52.3 0 01-8-12c-1-1.8-1.6-3.8-1.8-5.8v-.6c-.2-1.3 0-3 1-3.8 1-.5 2.1-.3 3.1.3.5.2.9.5 1.2.9 1.2 1.2 1.8 2.8 2.4 4.4 1 3 2.3 6 4.2 8.5 1.8 2.5 4.5 4.6 7.5 5.4.3 0 .5 0 .7.2a1.4 1.4 0 01.2 1.3z" fill="#FA3D38"/><path d="M136.6 99.4c0 .5.7 1.3 1.3 1 .3-.1.7-1 .7-1-.1.5-.3.9-.6 1.2a2.3 2.3 0 01-1.8.3c-2.8-.3-5.3-1.6-7.2-3.6a52.4 52.4 0 01-8-12l-1.5 6.5c-.2 1.2-.6 2.5-1.6 3.3-.5.3-1.2.6-1.8.7l-1.9.3a2 2 0 01-.4-.7c-.3-1.4 1-2.6 1.8-3.8 1.1-1.7 1.5-3.7 1.7-5.8.1-2 .1-4 .6-6 0-.3.1-.5.3-.7a.9.9 0 011-.2l.8.5c.8.7 1.6 1.5 2.2 2.5 1 1.3 1.7 2.7 2.6 4 2.4 3.5 3.7 6.5 6.9 9.4 1.2 1.2 3.4 2.2 4.9 3 .2 0 0 .7 0 1z" fill="url(#paint2_linear)"/><path d="M79.5 60.9c-.9 0-1.6-.8-2.2-1.6L75 56.4a4 4 0 00-1.3-1.1h-.2a.3.3 0 00-.2.2c-.1.4-.2.8-.1 1.2v.4a.5.5 0 01-.6.1l-3.2-.3c-.5 0-1 0-1.6-.3a2.1 2.1 0 00-1.8 0c-.6.5-.6 1.5-.4 2.2a6.1 6.1 0 005.3 4.6c1.3 0 2.6-.3 4-.1.8 0 1.7.4 2.5.2 1-.3 1.7-1.7 2.2-2.6z" fill="#FFDAD2"/><path d="M105.2 154.2c-.3 1.3-.8 2.9-2.2 3.1a2.2 2.2 0 01-1.8-.6c-1-.9-1.2-2.2-1.5-3.5-3.1-19.3-3-39.6 3.5-58l14-.1a1.4 1.4 0 011.8 1.2c5.8 19.3 8.6 40 4.3 59.7-.4 1.7-1.2 3.7-3 3.8a2.5 2.5 0 01-1.8-.9c-1-1-1.1-2.4-1.3-3.7-1.2-10-2.6-29.7-5.8-39.3-.7.4-4.4 28.9-6.2 38.3z" fill="#000"/><path d="M144.8 93.7h.1a.2.2 0 010 .2c-.2.8-1.3 1-1.6 1.8v.1l.2.1c1 .2 2.2-.2 3.2-.4a16.2 16.2 0 014.2-.3l.4.1a.5.5 0 01.1.5 21.5 21.5 0 01-3.9 3.2 6.6 6.6 0 01-5.8 1c-1.3-.3-2.4-.7-3.7-.8l-.3-.1a.6.6 0 01-.2-.3 2 2 0 010-1.6c.4-1 1-1.4 2-1.7 1.2-.3 2.2-1 3.3-1.4.7-.3 1.3-.4 2-.4zM118.7 163c0 .4.1.7.3 1 .3.6.8 1 1.4 1.3 1.1.5 2.3.8 3.6.8a1.4 1.4 0 001.2-.4l.2-.5a2.5 2.5 0 00-.8-2l-1.5-1.4c-.6-.6-1-1.3-1.1-2l-.2-.6c-.1-.2-.3-.3-.5-.3-.7-.4-2.4-.8-2.9 0-.2.5.1 1.5.2 2l.1 2.1zM98.4 161.5c-.5.5-1 1.2-.8 1.8a1.4 1.4 0 001.4 1c.6 0 1.2-.2 1.7-.5l1.9-.7c.5-.2 1-.6 1.3-1 .2-.4.3-.7.2-1l.3-3.8c0-.5 0-1.2-.4-1.5-1.1-.8-2.8.2-3.1 1.3-.5 1.7-1.4 3.2-2.5 4.4z" fill="#FFDAD2"/><path d="M35.2 89.2c2.8-1 4.6-3.8 5.3-6.7.7-2.9.5-5.9.7-8.8 0-1.4.3-3 1.3-4M33.9 93.6l11.5-5a26 26 0 0110.9-3M33.7 97.6c3.5-1.4 7.6-2.2 10.8-.3 2 1.3 3.3 3.5 5 5.3 1.6 1.7 4.1 3.2 6.4 2.3M51.5 65c.8-2.1 2-4 3.6-5.6M65 79.5c2.4-1.2 4.6-2.6 6.6-4.4" stroke="#fff" stroke-width=".9" stroke-miterlimit="10"/><path opacity=".6" d="M66 108.6l-9.4 4.5V97.9l9.4-4.5v15.2zM65.2 88.8l-9.4 4.6V78.2l9.4-4.6v15.2zM37 103.8l-15.5 7.4v-25L37 78.7v25zM51.6 73.6l-9.3 4.6V63l9.3-4.6v15.2z" fill="#fff"/><defs><linearGradient id="paint0_linear" x1="110" y1="51.6" x2="109.2" y2="78.2" gradientUnits="userSpaceOnUse"><stop offset="0"/><stop offset=".1" stop-opacity=".7"/><stop offset="1" stop-opacity="0"/></linearGradient><linearGradient id="paint1_linear" x1="105.7" y1="38.9" x2="84.5" y2="81.2" gradientUnits="userSpaceOnUse"><stop offset="0"/><stop offset="1" stop-opacity="0"/></linearGradient><linearGradient id="paint2_linear" x1="6404.3" y1="5437.7" x2="6288.1" y2="3305.3" gradientUnits="userSpaceOnUse"><stop offset="0"/><stop offset="1" stop-opacity="0"/></linearGradient></defs></svg>