<svg width="254" height="180" fill="none" xmlns="http://www.w3.org/2000/svg"><path opacity=".4" d="M208.7 174.6c-6.4 4-9.6 4-17 4-17 0-34 0-51-.2l3.5-1.3c.2-2-2.5-2.7-4.4-2.7L51 175.7c-15.9.3-34-.5-44.1-12.6a33.2 33.2 0 01-6.7-25c1-8.7 1.8-27.8 27.7-50.7 8.5-7.6 18 2.5 20.2-8.8 3.3-16.8-9.5-33.5-6.6-50.3 1.6-9 7.7-17 15.6-21.7A49.2 49.2 0 0183.4 0c5.5 0 11.1.9 16.1 3.2 5 2.4 9 6 13.3 9.4a61 61 0 0020.7 11.2c15.3 4.3 31.4-.3 47.2-2 13.6-1.6 28-1 40.3 4.9a40.9 40.9 0 0124.2 31.2c1.5 14.9-7 31.1.2 44.3 2 3.6 6 6.3 7.2 10.3 2.1 7-4.2 17.9-.6 31.8 2 8.1-5.9 19-14 23.4-3.5 2-14-2.5-29.3 7z" fill="#BAE5FF"/><path d="M150.8 158.1H96v21.4h54.8v-21.4z" fill="#0D3DBF"/><path d="M150.8 158.1H96v21.4h54.8v-21.4z" fill="url(#paint0_linear)"/><path d="M225.2 27.1v119.3a13.1 13.1 0 01-13.2 13.2H38.6a13.2 13.2 0 01-13.2-13.2V27.1A13.1 13.1 0 0138.6 14H212A13.1 13.1 0 01225.2 27z" fill="#1280FF"/><path d="M225.2 27.1v119.3a13.1 13.1 0 01-13.2 13.2H38.6a13.2 13.2 0 01-13.2-13.2V27.1A13.1 13.1 0 0138.6 14H212A13.1 13.1 0 01225.2 27z" fill="url(#paint1_linear)"/><path d="M225.2 128.4v18a13.1 13.1 0 01-13.2 13.2H38.6a13.1 13.1 0 01-13.2-13.2v-18h199.8z" fill="#0D3DBF"/><path opacity=".2" d="M225.2 145.4v1a13.1 13.1 0 01-6.2 11.1c-1.3.6-2.7 1.1-4.2 1.5l-10.7-23.2a64.3 64.3 0 00-3.8-7.4c-1.2-2-2.8-3.8-4.5-5.3l-.3 5.3-.3 4.7c0 1 0 2-.6 2.7-1 1.4-3.3 1.3-4.7.2-1.3-1-2-2.7-2.6-4.3a161 161 0 01-5.3-15.4c-5.2-.8-9.1-6.2-8.3-11.3l.8-3.5c.3-1.6.3-3.2.2-4.7L174 72c-2.4 0-4.8-.3-7.2-.8a4.2 4.2 0 01-7.5 1.8 8 8 0 01-1.2-3.5c-.2-1.8-1.7-8.3-.3-9.6 1.3-1.2 6 .2 7.9-.2 2.5-.6 4.9-1.8 7.3-2.7 4-1.5 8.2-2.2 12.4-2.1 3 0 6.2.6 8.7 2.3 2.6 1.8 4.3 5 3.5 7.9-1.4.5-2.5-1.5-4-1.8-.8-.2-1.5.1-2.3.4l-8.4 3.2c-.6.2-1.1.4-1.4 1-.3.4-.3 1-.2 1.6.6 3.9 2.2 7.6 4.5 10.8 2 2.9 4.6 5.3 6.5 8.3 1.8 3 2.7 7 1 10l-.4.7c0 .5.4 1 .8 1.2a90.6 90.6 0 0122.6 27.9c3.2 5.5 6 11.3 8.9 17z" fill="url(#paint2_linear)"/><path d="M245.8 163.7a22.8 22.8 0 01-7.7 4s-26.2-39.3-29.4-42.2c-2.5-2.2-6.8-3.6-9.1-4.5-.5-.1-1-.3-1.4-.6-.9-.9-4.7-14.5-7.3-18.5-2.8-4.4-2.8-6.6-1.8-7.6.6-.5 1.3-.8 2-.8a13 13 0 014.2.6c.5-1 .3-2-.1-3.2-.8-1.9-2.4-4-3.7-6.8-2-4.6 1.4-6.7 1.4-6.7s9.7 10.4 15.2 14.7c5.5 4.3 5.6 17.6 14 25.4a3308 3308 0 0029.9 26.8c2.4 10-1.8 16-6.2 19.4z" fill="url(#paint3_linear)"/><path opacity=".2" d="M202.7 115.6c.8 1.4 1.1 6.6-3.1 5.4-1.3-.4-2.8-.3-4.1-.6-.4 0-.9-.3-1.2-.5-.8-.6-1-1.8-1.1-2.8-.8-4.2-3.2-8-4-12.3-.4-1.8-.5-3.8-1.5-5.4-.6-1-1.6-2-1.1-3.1.2-.5.6-.9 1-1.1l1.5-1h.3l1.3-.5.5-.2a13 13 0 014 .6c.6-1 .5-2 0-3.2 1.5 1.2 6.4 7.8 5 14.1-.3 1-2.4 1.8 2.5 10.6z" fill="url(#paint4_linear)"/><path d="M167 176.5H80.7v3.5H167v-3.5z" fill="#0D3DBF"/><path d="M167 176.5H80.7v3.5H167v-3.5z" fill="url(#paint5_linear)"/><path d="M157.2 58.2l4.7-1.7.7 1.4s25-10.6 34.6-10.8c9.5-.2 13 8.4 14.2 14 0 0-8.3-8.7-19.9-5.2-11.5 3.6-26.5 8.7-26.5 8.7l.5 2.2-4.6 1.7-3.7-10.3z" fill="#1280FF"/><path d="M171 54.2l3.7 9.5a2.2 2.2 0 002.6 1.4l7.1-1.9A2.2 2.2 0 00186 61l-1-10.7a2.2 2.2 0 00-2.8-2l-9.7 3.2a2.2 2.2 0 00-1.4 2.8z" fill="#1280FF"/><path d="M174 61.6l-9 3 .5 2.2-4.6 1.7-3.7-10.3 4.7-1.7.7 1.4 8.6-3.4 2.7 7.1z" fill="url(#paint6_linear)"/><path d="M211.4 61s-8.3-8.6-19.9-5l-5.7 1.7-.7-7.5-.1-.5c4.7-1.5 9.2-2.5 12.2-2.6 9.5-.2 13 8.4 14.2 14z" fill="url(#paint7_linear)"/><path d="M184.4 63.2l-7 1.9a2.2 2.2 0 01-2.7-1.4l-.8-2-2.7-7.2-.1-.3a2.2 2.2 0 01.6-2.4c.2-.2.5-.4.8-.4l9.7-3.1a2.2 2.2 0 012.9 1.9l.7 7.5.2 3.2a2.2 2.2 0 01-1.6 2.3z" fill="url(#paint8_linear)"/><path d="M177.3 65l15 70s3.3 5.7 8.3 4.2c5-1.6-.5-20.2-6.2-37.4s-10-34.5-10-38.6l-7 1.9z" fill="#3F3D56"/><path d="M183.5 93.8s-6.3 1.8-5.1 4.9c1 3 11.7 5.7 17.4 4.6 5.6-1 4.2-3.5 2.4-4.6-1.9-1.2-14.3-2.7-14.3-2.7l-.4-2.2z" fill="url(#paint9_linear)"/><path d="M180.6 100.8s-4.1 3.1-2.6 6c1.5 3 16.7 4 19.5 3.2 2.8-.8 1.7-3.7.8-4.3-.9-.7-1.7-1.5-2.5-2.4 0 0-7.9 1.2-15.2-2.5z" fill="url(#paint10_linear)"/><path d="M181.2 114.5s-3-4.2 1.6-5.4c0 0 11.8 1.9 14.7 1 0 0 3.5 1.3 3.1 3.7-.4 3.2-17.6 3.7-19.4.7z" fill="url(#paint11_linear)"/><path d="M187.9 121.6s10.4.9 12.1-1.6c1.7-2.5-1.7-4.4-1.7-4.4s-9.9 1.3-12.9.6c-3-.8-3.8 4 2.5 5.4z" fill="url(#paint12_linear)"/><path opacity=".8" d="M121.5 65.6v-.1c-.4-1.2-.9-2.3-1.5-3.4-1-1.7-2.5-3.5-4.6-3.9a1 1 0 01.3-1.9c5.3 1 7.3 8 7.5 8.7 2.1-.6 4.3-.6 6.4 0 .3-1 2.3-7.8 7.5-8.7a1 1 0 01.4 1.9c-2.2.4-3.7 2.1-4.7 3.9-.6 1-1 2.2-1.4 3.4 3.2 1.5 5.8 4.2 7.5 7.7h-24.8c1.6-3.5 4.2-6.2 7.4-7.6zM140.7 82.4c0 1.2-.2 2.5-.5 3.7h4.2a1.4 1.4 0 110 2.9H140l-.7-.2c-.3.9-.8 1.8-1.3 2.6h2.8a1.4 1.4 0 110 2.9h-4.4l-.5-.1a13 13 0 01-9.4 4.2 13 13 0 01-9.4-4.2h-5a1.4 1.4 0 01-1.3-.8 1.4 1.4 0 011.3-2h2.9l-1.4-2.6-.7.2h-4.4a1.4 1.4 0 110-2.9h4.3c-.3-1.2-.4-2.5-.5-3.7h-4.4a1.4 1.4 0 110-2.9h4.5c0-1 .3-2 .5-3.1h27.2l.5 3.2h4.8a1.4 1.4 0 011 2.4 1.4 1.4 0 01-1 .4h-4.5-.2zM106.5 65a6.5 6.5 0 100 13 6.5 6.5 0 000-13zm0 2a4.5 4.5 0 014.4 5.7l-7.6-4.4a4.5 4.5 0 013.2-1.3zm0 9a4.5 4.5 0 01-4.4-5.7l7.6 4.4a4.5 4.5 0 01-3.2 1.3z" fill="#FA3D38"/><path opacity=".2" d="M245.8 163.7l-2.8 1.9c-1.7 1-3.9 2.2-4.9 2.1 0 0-26.2-39.3-29.4-42.2 0 0 3.7 0 7.7 2.9 4 2.8 29.4 35.3 29.4 35.3z" fill="url(#paint13_linear)"/><defs><linearGradient id="paint0_linear" x1="122.8" y1="153.3" x2="123.8" y2="179.1" gradientUnits="userSpaceOnUse"><stop/><stop offset="1" stop-opacity="0"/></linearGradient><linearGradient id="paint1_linear" x1="111" y1="174.6" x2="153.9" y2="-7.1" gradientUnits="userSpaceOnUse"><stop stop-color="#fff" stop-opacity="0"/><stop offset=".9" stop-color="#fff"/></linearGradient><linearGradient id="paint2_linear" x1="157.2" y1="107" x2="225.2" y2="107" gradientUnits="userSpaceOnUse"><stop stop-color="#183866"/><stop offset="1" stop-color="#1A7FC1"/></linearGradient><linearGradient id="paint3_linear" x1="188.5" y1="122.5" x2="252.7" y2="122.5" gradientUnits="userSpaceOnUse"><stop stop-color="#ECC4D7"/><stop offset=".4" stop-color="#EFD4D1"/><stop offset="1" stop-color="#F2EAC9"/></linearGradient><linearGradient id="paint4_linear" x1="11501.7" y1="10421.1" x2="8372.8" y2="10656.2" gradientUnits="userSpaceOnUse"><stop stop-color="#183866"/><stop offset="1" stop-color="#1A7FC1"/></linearGradient><linearGradient id="paint5_linear" x1="34771.9" y1="2109.8" x2="34771.9" y2="2275.3" gradientUnits="userSpaceOnUse"><stop/><stop offset="1" stop-opacity="0"/></linearGradient><linearGradient id="paint6_linear" x1="8959.4" y1="2868.1" x2="9872.4" y2="2868.1" gradientUnits="userSpaceOnUse"><stop/><stop offset="1" stop-opacity="0"/></linearGradient><linearGradient id="paint7_linear" x1="15774" y1="2492.1" x2="18047.6" y2="2492.1" gradientUnits="userSpaceOnUse"><stop/><stop offset="1" stop-opacity="0"/></linearGradient><linearGradient id="paint8_linear" x1="8595.9" y1="2743.4" x2="9790.4" y2="3688.6" gradientUnits="userSpaceOnUse"><stop/><stop offset="1" stop-opacity="0"/></linearGradient><linearGradient id="paint9_linear" x1="12708.7" y1="3212.2" x2="14223.4" y2="3212.2" gradientUnits="userSpaceOnUse"><stop stop-color="#ECC4D7"/><stop offset=".4" stop-color="#EFD4D1"/><stop offset="1" stop-color="#F2EAC9"/></linearGradient><linearGradient id="paint10_linear" x1="13476" y1="3267.2" x2="13472.4" y2="3527.9" gradientUnits="userSpaceOnUse"><stop stop-color="#ECC4D7"/><stop offset=".4" stop-color="#EFD4D1"/><stop offset="1" stop-color="#F2EAC9"/></linearGradient><linearGradient id="paint11_linear" x1="12844.1" y1="2766.4" x2="12844.1" y2="2883.5" gradientUnits="userSpaceOnUse"><stop stop-color="#ECC4D7"/><stop offset=".4" stop-color="#EFD4D1"/><stop offset="1" stop-color="#F2EAC9"/></linearGradient><linearGradient id="paint12_linear" x1="11014.2" y1="2389.5" x2="11016.1" y2="2533" gradientUnits="userSpaceOnUse"><stop stop-color="#ECC4D7"/><stop offset=".4" stop-color="#EFD4D1"/><stop offset="1" stop-color="#F2EAC9"/></linearGradient><linearGradient id="paint13_linear" x1="25431.9" y1="20252.2" x2="29916.5" y2="20252.2" gradientUnits="userSpaceOnUse"><stop stop-color="#183866"/><stop offset="1" stop-color="#1A7FC1"/></linearGradient></defs></svg>