<svg width="236" height="180" fill="none" xmlns="http://www.w3.org/2000/svg"><path opacity=".4" d="M232.8 85.1c-3.8 12.7-10.7 24.1-17.4 35.5a43 43 0 00-6.9 16.6c-.5 4.5.4 9 0 13.5-.8 12.8-11.7 23.2-24 27a75.6 75.6 0 01-38-.4c-12.5-2.6-25-6.3-37.7-6.7-9.2-.3-18.4 1-27.5 2.5-11 1.7-22.3 3.4-33.3 1.5-11-2-21.9-8.3-26.1-18.6-5.3-12.9.7-27.8-2.6-41.3a43 43 0 00-4.7-11.3l-5-8C6.6 91 3.7 86.3 2 81.2A37.5 37.5 0 0111.8 42c19-17.5 48.2-11.6 70.1-23C106 6.4 126.1-7.4 154.7 4.6c8 3.3 15.1 8.3 23 11.6 6.7 2.7 13.9 4.2 20.7 6.5l.6.2c3.4 1.1 6.7 2.5 9.9 4 9 4.5 17 11 21.6 19.7a51 51 0 012.3 38.5z" fill="#BAE5FF"/><path d="M204 24.8l-.4 28.4-7 3.9-1.7-21.2-70.6 47-36.8-30.6-73 51.1c-1.5-2.7-3.2-5.3-4.9-8l78.4-55 37 30.9L189 29.5l-18.4-6.4c.5-.4 3.9-4.2 4.5-4.6L199 23c3.4 1.1 1.8.4 5 2z" fill="#1280FF"/><path opacity=".2" d="M218 50.5h-28a3.4 3.4 0 00-3.4 3.4v5.3c0 2 1.5 3.4 3.4 3.4h28c1.8 0 3.4-1.5 3.4-3.4V54c0-2-1.6-3.4-3.5-3.4zM196.5 145.6h-40a4.9 4.9 0 00-5 4.9v7.7c0 2.7 2.3 4.9 5 4.9h40c2.7 0 5-2.2 5-5v-7.6c0-2.7-2.3-5-5-5zM62.2 105H25.8c-2.5 0-4.5 2-4.5 4.5v7.1c0 2.5 2 4.5 4.5 4.5h36.4c2.5 0 4.5-2 4.5-4.5v-7c0-2.5-2-4.6-4.5-4.6zM67.4 143.6h-28c-2 0-3.7 1.6-3.7 3.6v6.4c0 2 1.6 3.7 3.6 3.7h28.1c2 0 3.7-1.6 3.7-3.7v-6.4c0-2-1.6-3.6-3.7-3.6z" fill="#1280FF"/><path opacity=".4" d="M141.1 83.9c0-8.5 2.2-15 6.6-19.8 4.3-4.7 10.3-7 18.1-7 8 0 14 2.3 18.4 6.9a27.6 27.6 0 016.4 19.5c0 6-1 11-2.8 14.9a21 21 0 01-8.1 9c-3.6 2.2-8 3.3-13.3 3.3-5.4 0-9.9-1-13.4-2.8a20.9 20.9 0 01-8.6-8.9c-2.2-4-3.3-9-3.3-15.1zm14.8 0c0 5.3.9 9 2.7 11.4a8.8 8.8 0 007.3 3.4c3.2 0 5.6-1.1 7.4-3.4 1.7-2.2 2.6-6.2 2.6-12 0-5-1-8.5-2.8-10.7a8.9 8.9 0 00-7.3-3.4 8.7 8.7 0 00-7.2 3.4c-1.8 2.3-2.7 6-2.7 11.4z" fill="#1280FF"/><g opacity=".4" fill="#1280FF"><path opacity=".4" d="M45.2 93.1l14.2-.9c.3 2.3.9 4 1.8 5.3 1.6 1.9 3.7 2.9 6.6 2.9 2.1 0 3.7-.5 4.9-1.5 1.1-1 1.7-2.2 1.7-3.5 0-1.2-.5-2.3-1.6-3.3s-3.6-2-7.6-2.8a32.3 32.3 0 01-14-5.8 11.7 11.7 0 01-4.1-9.3c0-2.5.7-5 2.1-7 1.4-2.2 3.6-4 6.5-5.2a30 30 0 0111.8-1.9c6.1 0 10.8 1.2 14 3.5 3.2 2.2 5.1 5.9 5.8 10.9l-14 .8c-.4-2.2-1.2-3.8-2.4-4.7a7.5 7.5 0 00-5-1.5c-1.6 0-3 .4-3.8 1a3.4 3.4 0 00-1.3 2.8 2.7 2.7 0 001 2c.8.7 2.4 1.2 5 1.8a62.2 62.2 0 0114 4.2c2.8 1.5 4.8 3.2 6.1 5.4 1.3 2.1 2 4.6 2 7a16 16 0 01-9.7 14.4c-3.1 1.4-7 2.1-11.6 2.1-8.2 0-13.9-1.6-17-4.7-3.2-3.2-5-7.2-5.4-12zM96.3 61H136v10.2h-24.9v7.6h23.1v9.8h-23v9.5h25.5V109H96.3V61z"/></g><path d="M45.6 85.5l14.2-1c.3 2.4.9 4.1 1.8 5.3 1.6 2 3.7 3 6.6 3 2.1 0 3.7-.6 4.9-1.6 1.1-1 1.7-2.1 1.7-3.4 0-1.3-.5-2.4-1.6-3.4s-3.7-1.9-7.6-2.7a32.3 32.3 0 01-14-5.9 11.7 11.7 0 01-4.1-9.2c0-2.5.7-5 2.1-7 1.4-2.2 3.6-4 6.5-5.2 2.8-1.3 6.8-2 11.8-1.9 6.1 0 10.8 1.1 14 3.4 3.2 2.3 5.1 6 5.7 11l-14 .7c-.3-2.1-1-3.7-2.3-4.7a7.6 7.6 0 00-5-1.5c-1.6 0-3 .4-3.8 1.1a3.4 3.4 0 00-1.3 2.7 2.7 2.7 0 001 2 12 12 0 005 1.9 62.3 62.3 0 0114 4.2c2.8 1.4 4.8 3.2 6.1 5.3 1.3 2.2 2 4.6 2 7.1a16 16 0 01-9.7 14.4c-3.1 1.4-7 2-11.6 2-8.2 0-13.9-1.5-17-4.6-3.1-3.2-5-7.2-5.4-12zM96.6 53.3h39.8v10.3h-24.9v7.6h23.1V81h-23v9.5H137v10.8H96.6v-48zM180.1 124H52.7a5 5 0 00-5 4.9v6.2a5 5 0 005 5h127.4a5 5 0 005-5V129a5 5 0 00-5-5z" fill="#fff"/><path opacity=".2" d="M182.2 123.6c-.6-.3-1.4-.4-2-.4H52.6A5.7 5.7 0 0047 129v6.2a5.7 5.7 0 005.7 5.7h127.4a5.7 5.7 0 005.7-5.7v-6.2a5.7 5.7 0 00-3.6-5.3zm2.2 11.5a4.3 4.3 0 01-4.3 4.3H52.8a4.3 4.3 0 01-4.3-4.3V129a4.3 4.3 0 014.3-4.3h127.4a4.3 4.3 0 014.3 4.3v6.2z" fill="#1280FF"/><g opacity=".6" fill="#1280FF"><path opacity=".6" d="M52.7 133.6l.9.2c.5 0 .7-.2.7-.5 0-.4-.2-.6-.7-.7-.7-.3-1-.7-1-1.1 0-.7.5-1.2 1.3-1.2.4 0 .7.1 1 .3l-.2.5c-.2-.2-.5-.3-.8-.3-.4 0-.6.3-.6.6s.2.4.7.6c.7.3 1 .6 1 1.2 0 .7-.5 1.2-1.4 1.2-.4 0-.8-.1-1.1-.3l.2-.5zM56.3 132.5a1.2 1.2 0 001.3 1.3c.4 0 .8 0 1.1-.2l.1.5-1.2.3c-1.2 0-2-.8-2-2s.7-2 1.9-2 1.6 1 1.6 1.8v.3h-2.8zm2.1-.5c0-.5-.2-1.2-1-1.2-.7 0-1 .7-1 1.2h2zM62 134.3v-.5a1.4 1.4 0 01-1.2.6 1 1 0 01-.8-.3 1.1 1.1 0 01-.4-.8c0-1 .9-1.5 2.4-1.5a.8.8 0 00-1-1 2 2 0 00-1 .3v-.4c.3-.3.7-.4 1.2-.4 1.2 0 1.5.8 1.5 1.6v2.4h-.6zm0-2c-.8 0-1.7.1-1.7.9a.6.6 0 00.7.6 1 1 0 001-.6V132.3zM63.8 131.6v-1.2h.6v.8a1.2 1.2 0 011.1-.9h.2v.7h-.2a1 1 0 00-1 .9v2.3h-.7v-2.6zM69 134.1c-.3.2-.6.3-1 .3-1.2 0-2-.8-2-2a2 2 0 012.1-2l1 .1-.2.6c-.2-.2-.5-.2-.8-.2-.9 0-1.4.6-1.4 1.4a1.3 1.3 0 001.4 1.5c.3 0 .6 0 .8-.2l.2.5zM70 128.6h.6v2.4l.5-.5.7-.2c.5 0 1.4.3 1.4 1.7v2.3h-.7V132c0-.7-.2-1.2-1-1.2a1 1 0 00-.9 1v2.4h-.7v-5.7z"/></g><path d="M185.8 128.9v6.2a5.6 5.6 0 01-2.2 4.5H167v-16h15.2a5.7 5.7 0 013.6 5.3z" fill="#1280FF"/><path d="M174.3 134.8a4.9 4.9 0 110-9.8 4.9 4.9 0 010 9.8zm0-8.4a3.5 3.5 0 100 7 3.5 3.5 0 000-7z" fill="#fff"/><path d="M177.2 132.4l-1.2 1 3.3 4 1.1-.9-3.2-4zM184.5 58.9c-4.2-4.4-10.2-6.6-18-6.6-7.5 0-13.5 2.3-17.7 6.7a26 26 0 00-6.4 18.6c0 5.7 1.1 10.5 3.3 14.3a20 20 0 008.3 8.3c3.5 1.7 7.8 2.6 13.1 2.6 5.2 0 9.5-1 13-3 3.4-2 6.1-5 7.9-8.6 1.8-3.6 2.7-8.3 2.7-14 0-7.8-2-14-6.2-18.3zm-27.6 18.8c0-5 .8-8.6 2.6-10.7a8.5 8.5 0 017-3.2c3 0 5.4 1 7.2 3.1 1 1.4 1.8 3 2.1 4.7a43.5 43.5 0 01.4 8.8c-.3 3.7-1 6.3-2.4 8a8.7 8.7 0 01-7.2 3.1c-3 0-5.4-1-7.1-3.2-1.8-2.1-2.6-5.6-2.6-10.5v-.1z" fill="#fff"/><path d="M176.2 80.4c-.3 3.7-1 6.3-2.4 8a8.7 8.7 0 01-7.2 3.1c-3 0-5.4-1-7.1-3.2-1.7-2.1-2.6-5.6-2.6-10.5l.7-2.7a9.6 9.6 0 003.2-2.9c1.2-1.8 1.8-4 3.3-5.5.6-.5 1.2-1 1.5-1.6.3-.4.4-.8.5-1.3v-2.9c0-1.7.4-3.4 1.3-4.9 2.9 0 5.7 1.4 8.5 1.9 1.3 2-.9 4.7-.3 7 .2 1 .8 1.6 1 2.5.4 1.4-.2 2.8-.8 4.2l-.7 2c-.5 2.2.2 4.6 1.1 6.8z" fill="#FA3D38"/><path d="M176.2 80.4c-.3 3.7-1 6.3-2.4 8a8.7 8.7 0 01-7.2 3.1c-3 0-5.4-1-7.1-3.2-1.7-2.1-2.6-5.6-2.6-10.5l.7-2.7a9.6 9.6 0 003.2-2.9c1.2-1.8 1.8-4 3.3-5.5.6-.5 1.2-1 1.5-1.6.3-.4.4-.8.5-1.3v-2.9c0-1.7.4-3.4 1.3-4.9 2.9 0 5.7 1.4 8.5 1.9 1.3 2-.9 4.7-.3 7 .2 1 .8 1.6 1 2.5.4 1.4-.2 2.8-.8 4.2l-.7 2c-.5 2.2.2 4.6 1.1 6.8z" fill="url(#paint0_linear)"/><path d="M174.5 81.3c-.3 3.7-.9 6.3-1.8 8a6 6 0 01-5.4 3.1c-2.3 0-4-1-5.4-3.2-1.3-2.2-2-5.6-2-10.5l.6-2.7c1-.7 1.8-1.8 2.4-2.9.9-1.8 1.4-4 2.5-5.5l1.1-1.6c.2-.4.3-.9.3-1.3v-2.9c0-1.7.4-3.3 1-4.9 2.2 0 4.3 1.4 6.5 1.9.9 2-.7 4.7-.3 7 .2 1 .6 1.6.8 2.5.3 1.4-.2 2.8-.6 4.2l-.5 2c-.5 2.2 0 4.6.8 6.8z" fill="url(#paint1_linear)"/><path d="M167.5 67.8l.4-.5a11 11 0 01-2.4 7.1c-.7 1-1.7 1.8-2 3a13.7 13.7 0 006-8.9c.2-1.3.3-2.7 1.1-3.7l.2 1.8c.7-1.4 1.3-2.8 1.8-4.3.1-.2.2-.6 0-.8a.8.8 0 00-.4-.1c-1.4-.2-3-.6-3.7.8-.8 1.6-1 3.8-1 5.6z" fill="url(#paint2_linear)"/><path d="M166.8 57s-.2 2.8.4 3.6c.5.8 4.2 2.4 5.6 1.7.9-.5 1.7-1 2.4-1.8l.7-2.6-9-1z" fill="#FA3D38"/><path d="M166.8 57s-.2 2.8.4 3.6c.5.8 4.2 2.4 5.6 1.7.9-.5 1.7-1 2.4-1.8l.7-2.6-9-1z" fill="url(#paint3_linear)"/><path d="M166 52.3s1.6-21.4 10-23.7c8.3-2.4 1 28.4 1 28.4s-11 8.4-11-4.7z" fill="#FA3D38"/><path d="M166 52.3s1.6-21.4 10-23.7c8.3-2.4 1 28.4 1 28.4s-11 8.4-11-4.7z" fill="url(#paint4_linear)"/><path d="M165 48.6c-1.8 1.8-3.8 3.7-4.6 6.2-.6 1.9-.5 4-.4 5.9 0 .5.2 1.2.7 1.4.5.2 1-.4 1.4-.9 1.2-1.6 2.2-3.5 3.8-4.7l.7-.7c.2-.4.3-.8.3-1.3l.2-7.4c-.8.2-1.4.8-2 1.5z" fill="#FA3D38"/><path d="M165 48.6c-1.8 1.8-3.8 3.7-4.6 6.2-.6 1.9-.5 4-.4 5.9 0 .5.2 1.2.7 1.4.5.2 1-.4 1.4-.9 1.2-1.6 2.2-3.5 3.8-4.7l.7-.7c.2-.4.3-.8.3-1.3l.2-7.4c-.8.2-1.4.8-2 1.5z" fill="url(#paint5_linear)"/><path d="M180.1 50.8c1.4 2.2 3 4.6 3 7.2.2 2-.4 3.9-1 5.8-.1.5-.4 1-1 1.1-.5.1-1-.5-1.1-1.1-.8-1.9-1.3-4-2.5-5.5a3 3 0 01-.6-.9v-1.3l1.5-7.2c.8.4 1.2 1.1 1.7 1.9z" fill="#FA3D38"/><path d="M180 50.8c1.5 2.3 3 4.6 3.2 7.3.1 2-.5 3.8-1 5.7-.2.5-.5 1.1-1 1.2-.6 0-1-.6-1.2-1.1-.8-2-1.3-4-2.6-5.6a3 3 0 01-.5-.8v-1.3l1.5-7.3c.8.5 1.2 1.2 1.7 2z" fill="url(#paint6_linear)"/><path d="M170.6 69.3c-.4.9-.7 1.8-.8 2.7-.2 1 0 1.9-.1 2.8-.2 1.9-1 3.6-1.6 5.4-.7 2.6-.6 5.3-.5 8l3.1-9.9c.3-.9.6-1.8.7-2.7v-3.3c0-1.8 0-3.7.4-5.5-.6.7-.8 1.7-1.2 2.5z" fill="url(#paint7_linear)"/><path d="M174.3 45a2.5 2.5 0 100-5 2.5 2.5 0 000 5z" fill="#fff"/><path d="M174.3 44.6a2 2 0 100-4 2 2 0 000 4z" fill="url(#paint8_linear)"/><path d="M196.7 148.2h-38.5a4.7 4.7 0 00-4.8 4.7v7.4c0 2.6 2.1 4.7 4.8 4.7h38.5c2.6 0 4.7-2.1 4.7-4.7v-7.4c0-2.6-2.1-4.7-4.7-4.7z" fill="#fff"/><path opacity=".2" d="M196.5 152.8H159a.7.7 0 100 1.5h37.4a.7.7 0 000-1.5zM185.1 156.8H159c-.3 0-.6.3-.6.6v.2c0 .3.3.6.6.6H185c.4 0 .6-.3.6-.6v-.2c0-.3-.2-.6-.6-.6z" fill="#1280FF"/><path d="M60.2 101.4H21.7a4.7 4.7 0 00-4.7 4.7v7.4c0 2.6 2 4.7 4.7 4.7h38.5c2.6 0 4.7-2.1 4.7-4.7V106c0-2.6-2.1-4.7-4.7-4.7z" fill="#fff"/><path opacity=".2" d="M60 106H22.7a.7.7 0 000 1.5H60a.7.7 0 000-1.5zM48.7 110H22.5c-.3 0-.6.3-.6.6v.2c0 .3.3.6.6.6h26.2c.3 0 .6-.3.6-.6v-.2c0-.3-.3-.6-.6-.6z" fill="#1280FF"/><path d="M66.2 145.3h-28a3.4 3.4 0 00-3.4 3.4v5.4c0 1.9 1.6 3.4 3.5 3.4h28c1.8 0 3.3-1.5 3.3-3.4v-5.4c0-1.9-1.5-3.4-3.4-3.4z" fill="#fff"/><path opacity=".2" d="M66 148.7H39a.5.5 0 100 1h27c.4 0 .6-.2.6-.5s-.2-.5-.5-.5zM57.8 151.6h-19c-.2 0-.4.1-.4.4v.1c0 .3.2.4.5.4h19c.2 0 .4-.1.4-.4v-.1c0-.3-.2-.4-.5-.4z" fill="#1280FF"/><path d="M219 46.7h-27.9a3.4 3.4 0 00-3.4 3.4v5.3c0 2 1.6 3.5 3.4 3.5h28c1.9 0 3.4-1.6 3.4-3.5v-5.3c0-1.9-1.5-3.4-3.4-3.4z" fill="#fff"/><path opacity=".2" d="M219 50h-27.1a.5.5 0 100 1h27a.5.5 0 100-1zM210.7 53h-19c-.2 0-.4.1-.4.3v.2c0 .2.2.4.5.4h19c.2 0 .4-.2.4-.4v-.2c0-.2-.2-.4-.5-.4zM75.2 126.3h-.6v10.1h.6v-10.1z" fill="#1280FF"/><defs><linearGradient id="paint0_linear" x1="167.9" y1="76.5" x2="155.4" y2="108.9" gradientUnits="userSpaceOnUse"><stop stop-color="#010101" stop-opacity="0"/><stop offset=".9" stop-color="#010101"/></linearGradient><linearGradient id="paint1_linear" x1="163.6" y1="85.8" x2="195" y2="25.6" gradientUnits="userSpaceOnUse"><stop stop-color="#fff" stop-opacity="0"/><stop offset=".9" stop-color="#fff"/></linearGradient><linearGradient id="paint2_linear" x1="4641.9" y1="4366.3" x2="5088.3" y2="2893.9" gradientUnits="userSpaceOnUse"><stop stop-color="#fff" stop-opacity="0"/><stop offset=".9" stop-color="#fff"/></linearGradient><linearGradient id="paint3_linear" x1="4667.4" y1="1316" x2="4715.9" y2="1155.4" gradientUnits="userSpaceOnUse"><stop stop-color="#010101" stop-opacity="0"/><stop offset=".9" stop-color="#010101"/></linearGradient><linearGradient id="paint4_linear" x1="6887.2" y1="5501.9" x2="7448.8" y2="5501.9" gradientUnits="userSpaceOnUse"><stop stop-color="#fff" stop-opacity="0"/><stop offset=".9" stop-color="#fff"/></linearGradient><linearGradient id="paint5_linear" x1="3520.2" y1="3130.8" x2="3671.6" y2="3130.8" gradientUnits="userSpaceOnUse"><stop stop-color="#010101" stop-opacity="0"/><stop offset=".9" stop-color="#010101"/></linearGradient><linearGradient id="paint6_linear" x1="-3400.6" y1="2556" x2="-3530.3" y2="2523.9" gradientUnits="userSpaceOnUse"><stop stop-color="#010101" stop-opacity="0"/><stop offset=".9" stop-color="#010101"/></linearGradient><linearGradient id="paint7_linear" x1="2366.8" y1="5746.9" x2="1298.5" y2="5796.8" gradientUnits="userSpaceOnUse"><stop stop-color="#fff" stop-opacity="0"/><stop offset=".9" stop-color="#fff"/></linearGradient><linearGradient id="paint8_linear" x1="2180.9" y1="536.5" x2="2227.9" y2="536.5" gradientUnits="userSpaceOnUse"><stop stop-color="#010101" stop-opacity="0"/><stop offset=".9" stop-color="#010101"/></linearGradient></defs></svg>