<svg width="201" height="180" fill="none" xmlns="http://www.w3.org/2000/svg"><g clip-path="url(#clip0)"><path opacity=".2" d="M200.4 70.5a57.8 57.8 0 01-7.3 23.7c-6.3 12.6-14.3 24.6-18 38.3-1.6 6-.8 12.3-1.4 18.2-.5 4.9-1.9 9.5-6.6 13.3-5 4-11.9 4.5-18.3 4.5-13.9.1-28.3-1-41 4.4-3.9 1.6-7.5 3.7-11.4 5a61.1 61.1 0 01-23.8 1.7 89 89 0 01-23-3.5 29.9 29.9 0 01-17.8-14.4c-1.7-3.4-2.4-7.3-3.5-11a32 32 0 00-1.8-4.8c-5-10.3-17-15.4-22.6-25.3a43 43 0 01-3.8-23C.4 89.5 1.3 81 4.9 73.6a56.5 56.5 0 0117-19.2C34.1 44.7 48 37.3 61 28.7 71 22.2 80.4 15 90.8 9.2A65 65 0 01124.7.1c17.2.8 32.4 11.3 45.7 22.2 7.6 6.2 15 12.8 20.7 20.8 5.7 8 9.6 17.6 9.3 27.4z" fill="#1280FF"/><path opacity=".2" d="M173.7 150.7c-.5 4.9-1.9 9.5-6.6 13.3-5 4-11.9 4.5-18.3 4.5-13.9.1-28.3-1-41 4.4-3.9 1.6-7.5 3.7-11.4 5a61.1 61.1 0 01-23.8 1.7 89 89 0 01-23-3.5 29.9 29.9 0 01-17.8-14.4c-1.7-3.4-2.4-7.3-3.5-11 20.7-5.2 43.5 3.2 64.1-2.6 4.9-1.4 9.5-3.6 14.4-4.8 12.8-3 23.4 1.7 35.8 3.2 10.3 1.1 19.4-.4 29.7 3.5l1.4.7z" fill="#1280FF"/><path d="M146.7 98.7h-7v57.9h7V98.7z" fill="#1280FF"/><path d="M146.8 98.7H140v57.9h7V98.7z" fill="url(#paint0_linear)"/><path d="M74 9H4v95.4h70V9z" fill="#1280FF"/><path d="M74 9H4v95.4h70V9z" fill="url(#paint1_linear)"/><path opacity=".3" d="M48.6 71.4a18.4 18.4 0 100-36.8 18.4 18.4 0 000 36.8z" fill="#1280FF"/><path d="M61.4 110.5h11.8a17 17 0 0117 17v37.1H44.4v-37a17 17 0 0117-17z" fill="#1280FF"/><path d="M90.2 127.5v37.1H44.4v-37a17 17 0 0117-17h11.8a17 17 0 0117 17z" fill="url(#paint2_linear)"/><path d="M90.2 127.5v12.2l-.3.3-4.8-13c-2.4 4.5-3 9.8-2.6 15 .3 5 1.5 10 2.3 15.1.2 1.2.4 2.4 0 3.5-1 2.3-4.3 2.7-6.3 1.4-2-1.4-3-3.8-3.6-6.2-1.4-6.8.1-14-.3-21-.2-2.3-.6-4.9-2.1-6.8-2.1-2.8-5.8-3.8-9.3-4.6-4.8-1-10.2-2-14.5.3-.7.4-1.4.9-2.2.9a2.1 2.1 0 01-1.7-.8 17 17 0 0116.6-13.3h11.8a17 17 0 0117 17z" fill="url(#paint3_linear)"/><path d="M62.5 62.1c-.7 2-.5 4-.2 6.1 0 .4.1.9.5.9l.4-.1 1.5-1.3.8-.7c.7-.4 1.5.3 2.3.7.6.3 1.3.4 2 .2.2 0 .4 0 .4-.2v-.3c-.4-1-1.4-1.7-2-2.6a6 6 0 01-1-3c-.1-.7.3-2.2-.4-2.8-1.7-1.4-4 1.9-4.3 3.1z" stroke="#1280FF" stroke-width=".9" stroke-miterlimit="10"/><path d="M72.9 61.6c.5.5 4.8 4.3 5.1 5 .7 1.2 1.2 2.4 1.7 3.7.4 1.5.6 3 .7 4.5l.7 6.3c0 .6.2 1.2.5 1.8.4.5 1 1 1.6 1.2 3.4 1.8 7 3.4 10.7 4.8a15.3 15.3 0 01-.3 4h-.4c-5.8-1-11.2-3.4-17-4.4a2 2 0 01-1-.3 2 2 0 01-.5-.8c-.5-1.2-1-2.3-1.3-3.5L72 79l-.8-3c-.3-1.6-.3-3.3-.2-4.9 0-1 .2-2 .4-3 .6-2-.8-8.6 1.5-6.4z" fill="#1280FF"/><path d="M76.4 67c.5.6 1.3-1.1 1.6-.4.7 1.2 1.2 2.4 1.7 3.7.4 1.5.6 3 .7 4.5l.7 6.3c0 .6.2 1.2.5 1.8.4.5 1 1 1.6 1.2 3.4 1.8 7 3.4 10.7 4.8a15.3 15.3 0 01-.3 4h-.4c-5.8-1-11.2-3.4-17-4.4a2 2 0 01-1-.3 2 2 0 01-.5-.8c-.5-1.2-1-2.3-1.3-3.5L72 79l-.8-3c-.3-1.6-.3-3.3-.2-4.9 0-1 .2-2 .4-3 .6-2 2.7-3.2 5-1z" fill="url(#paint4_linear)"/><path d="M78.5 71.6l.3 9c0 2.5 0 5.3-1.9 6.8-1.2 1-3 1.3-4 2.5-.7.8-.8 1.9-.8 2.9 0 2 .8 4 1.6 6 .2.4.3 1 .3 1.5-.1 1-1.1 1.7-2 2.1a23 23 0 01-21.7-1.3v-.9c1-3.2 2.8-6 3.5-9.3.7-3.2.3-6.5.4-9.7.2-3.2.8-6.4 2-9.5.7-1.8 1.6-3.6 3-5 2.4-2.3 6-3 9.3-3.4H71c1.2.3 2.2 1 3.2 1.5.8.4 2 .6 2.8 1 1.6 1 1.3 4 1.4 5.8z" fill="#1280FF"/><path d="M78.5 71.6l.3 9c0 2.5 0 5.3-1.9 6.8-1.2 1-3 1.3-4 2.5-.7.8-.8 1.9-.8 2.9 0 2 .8 4 1.6 6 .2.4.3 1 .3 1.5-.1 1-1.1 1.7-2 2.1a23 23 0 01-21.7-1.3v-.9c1-3.2 2.8-6 3.5-9.3.7-3.2.3-6.5.4-9.7.2-3.2.8-6.4 2-9.5.7-1.8 1.6-3.6 3-5 2.4-2.3 6-3 9.3-3.4H71c1.2.3 2.2 1 3.2 1.5.8.4 2 .6 2.8 1 1.6 1 1.3 4 1.4 5.8z" fill="url(#paint5_linear)"/><path d="M67.7 55.1c-.4 1.5-.6 3-.7 4.4 0 1.4 0 2.9.6 4 .4.7 1 1.3 1.6 1.7.6.6 1.4 1 2.3 1.2a2.3 2.3 0 002.3-1c.4-.8.3-1.6.1-2.4l-.3-2.4c-.1-.9-.4-1.8-.8-2.6-.9-1.4-2.6-2-4.2-2.6" fill="url(#paint6_linear)"/><path d="M72 64.8c.3.3.6.5 1 .6a.9.9 0 00.9-.3l.2-.7a97.5 97.5 0 00-.1-4.6c-.3-1-1-1.9-1.7-2.7-.7-.8-2-2.3-3.3-2.2-1.3 0-.9 2-.7 2.9.4 2.7 1.7 5.2 3.8 7z" fill="url(#paint7_linear)"/><path d="M56.7 66.3c-.7 1.4-1 2.9-1.4 4.3l-1.4 4.7a97.5 97.5 0 00-1 12.2c0 1.5.2 3.2 1.3 4.3.9.8 2.1 1.1 3.3 1.3a97 97 0 0013.7 1.3c.2-.1.3-.4.3-.6.2-1 .3-2.1.2-3.2L61 87.3c-.1-5.6 2.5-11 3.2-16.5l.5-3.5 1.1-3.3c.2-1 .5-2.9-.7-3.3-.9-.3-2.4.4-3.2.7-2.3 1-4.1 2.7-5.2 5z" fill="#1280FF"/><path d="M78 91c1.7-.1 3.3-.4 4.9-.3 1.6.1 3.3.7 4.4 1.8.3.4.6.9.7 1.3a1.3 1.3 0 01-.6 1.4c-.5.3-1.1 0-1.7 0-1.4 0-2.7 1-4 .7-.9-.3-1.5-1-2.4-1-1 0-1.8 1-2.8 1.2-.8.2-1.6-.1-2.4-.5-.5-.4-1-.8-1.5-1-.5-.4-1.1-.5-1.5-1-.7-.5-.4-1 .2-1.6 1.7-1.3 4.7-.7 6.7-1z" fill="url(#paint8_linear)"/><path d="M102.6 90l4 .2c1 .1 2.2.4 3.1.9a4.1 4.1 0 012.1 2.4c-1.6.8-3.7 0-5.2 1l-.9.7c-1.2 1-2.9 1.3-4.5 1.3-1.2 0-2.5-.2-3.8-.7-1-.4-6.1-4.3-4.3-5.5 1-.7 3-.3 4-.3h5.5z" fill="url(#paint9_linear)"/><path d="M89.2 94.7l.4-1.4 15.5-.6.3 1.9-16.2.1z" fill="#1280FF"/><path d="M89.2 94.7l.4-1.4 15.5-.6.3 1.9-16.2.1z" fill="url(#paint10_linear)"/><path d="M134.8 86.6H91.3l5.8-31h43.5l-5.8 31z" fill="#1280FF"/><path d="M140.6 55.5l-5.8 31H91.3l5.8-31h43.5z" fill="url(#paint11_linear)"/><path d="M140.6 55.5l-5.8 31H93l5.8-31h41.8z" fill="url(#paint12_linear)"/><path d="M112 72.4l5.3 20.4h-12l-1.5 1.8h21.7l-6.7-24-6-.2-.9 2z" fill="#1280FF"/><path d="M112 72.4l5.3 20.4h-12l-1.5 1.8h21.7l-6.7-24-6-.2-.9 2z" fill="url(#paint13_linear)"/><path d="M112.9 70.4l6 22.4h-13.5v1.8H127l-6.6-24-7.5-.2z" fill="#1280FF"/><path d="M111.7 158.3a.9.9 0 01-.3.7c-3.2 3.3-8.7 3.2-13 1.5-.7-.3-1.5-.7-2-1.4s-.6-1.7-.6-2.6c-.4-8-.4-16-1.8-24-.5-2.6-1.1-5.3-1.4-8-.5-3.8-.3-7.7-.4-11.6 0-.3-.1-.6-.3-.8a328.5 328.5 0 00-4.2-.3c0 8.2-.6 16-.4 24 0 4.8-1 9.4-1.2 14.1l.1 2.5c.6 2.5 2.9 4.3 4.3 6.5.4.6.6 1.2.6 2 0 1-1 1.8-2 2-1.1.3-2.2 0-3.2-.2-.8-.2-1.6-.5-2.2-.9l-1.5-1.3a54.2 54.2 0 01-3.1-4.2c-.4-1.3.4-2.5.9-3.7 1.2-2.6 1.4-5.6.7-8.3-.5-2-.9-4.2-1-6.3 0-7 0-14-.2-21-5.3.8-10.6.9-15.9.5-3.5-.2-7.3-.9-9.9-3.3-2.8-2.7-3.5-6.8-3.6-10.6 0-1.4 0-2.8.7-4 5.1 0 12.1.6 17.3.5 1.1 0 2.3 0 3.5.2l1.5.1c2.7.1 8 .3 13.3 1.3h.1c3.4.7 6.8 1.8 9.5 3.4l.7.5 1.3 1a9.2 9.2 0 013.2 6 28.3 28.3 0 01.1 3.3v.7c.1 7-.5 18.7.2 27.8.3 4 1.2 8.6 4.6 10.7 1.6 1.1 3.7 1.5 5.2 2.7a.8.8 0 01.4.5z" fill="#606161"/><path d="M111.7 158.3a.9.9 0 01-.3.7c-3.2 3.3-8.7 3.2-13 1.5-.7-.3-1.5-.7-2-1.4s-.6-1.7-.6-2.6c-.4-8-.4-16-1.8-24-.5-2.6-1.1-5.3-1.4-8-.5-3.8-.3-7.7-.4-11.6 0-.3-.1-.6-.3-.8a328.5 328.5 0 00-4.2-.3c0 8.2-.6 16-.4 24 0 4.8-1 9.4-1.2 14.1l.1 2.5c.6 2.5 2.9 4.3 4.3 6.5.4.6.6 1.2.6 2 0 1-1 1.8-2 2-1.1.3-2.2 0-3.2-.2-.8-.2-1.6-.5-2.2-.9l-1.5-1.3a54.2 54.2 0 01-3.1-4.2c-.4-1.3.4-2.5.9-3.7 1.2-2.6 1.4-5.6.7-8.3-.5-2-.9-4.2-1-6.3 0-7 0-14-.2-21-5.3.8-10.6.9-15.9.5-3.5-.2-7.3-.9-9.9-3.3-2.8-2.7-3.5-6.8-3.6-10.6 0-1.4 0-2.8.7-4 5.1 0 12.1.6 17.3.5 1.1 0 2.3 0 3.5.2l1.5.1c2.7.1 8 .3 13.3 1.3h.1c3.4.7 6.8 1.8 9.5 3.4l.7.5 1.3 1a9.2 9.2 0 013.2 6 28.3 28.3 0 01.1 3.3v.7c.1 7-.5 18.7.2 27.8.3 4 1.2 8.6 4.6 10.7 1.6 1.1 3.7 1.5 5.2 2.7a.8.8 0 01.4.5z" fill="url(#paint14_linear)"/><path d="M111.7 158.3a1 1 0 01-.3.7c-3.2 3.3-8.7 3.2-13 1.5-.7-.3-1.5-.7-2-1.4s-.6-1.7-.6-2.6c-.4-8-.4-16-1.8-24-.5-2.6-1.1-5.3-1.4-8-.5-3.8-.3-7.7-.4-11.6 0-.3-.1-.6-.3-.8a1 1 0 00-.8-.2h-3.4s.1-2.5-.8-3.6c-.8-1-16.5-6-16.5-6s-1-1.2 2.7-1.9h1a45.4 45.4 0 0112.4 1.3c3.5.9 7 2 9.5 3.4l.7.5c.5.3 1 .6 1.3 1l.7.8c1.4 2 2.3 4.3 2.6 6.6a10.8 10.8 0 010 2.4v.2c.1 7-.4 18.7.2 27.8.3 4 1.2 8.5 4.6 10.7 1.6 1.1 3.7 1.5 5.2 2.7l.2.2.2.3z" fill="url(#paint15_linear)"/><path d="M154 94.6H60.4v5H154v-5z" fill="#1280FF"/><path d="M83 98.7h-7v69h7v-69z" fill="#1280FF"/><path d="M154 94.6H60.5v1.7H154v-1.7z" fill="url(#paint16_linear)"/><path d="M111.4 99.3H83.9v5.1h27.5v-5z" fill="#1280FF"/><path d="M111.4 99.3H83.9v2.6h27.5v-2.6z" fill="url(#paint17_linear)"/><path d="M79.1 62.9c-.5.6-1.2 1-2 1.2-1.2.3-2.4-.5-3.4-1.3-2.3-2-4.2-4.4-5.4-7.2l-1-2.5c-.6-1-1.3-1.7-1.7-2.7-.3-1-.2-3.4.8-3.9l.9-.2c1.1-.4 2-.3 2.7-1.2 1.7-2 3.7-4.2 6.4-4.5 1.7-.2 3.4.4 5 1.2 1.7.7 3.9 1.9 4.7 3.6.7 1.6 0 4-.3 5.7-1 4.5-3.3 8.6-6.7 11.8z" fill="url(#paint18_linear)"/><path d="M78.3 44c0 1.1 1.2 1.8 2.3 2 1 .2 2.3.2 3.1.9.7.5 1 1.5 2 1.6.3 0 .7-.1 1-.3 1.3-.9 1.8-2.5 1.6-4-.2-1.6-1-2.9-2-4-3.4-4.2-8.8-6.6-14-6a14 14 0 00-11.8 9.3c-.8 2.7-.8 5.6-1.3 8.3-.7 3.1-2.1 6-4.2 8.4-2.2 2.5-5.2 4.7-5.8 8-.3 2 .4 4.2 1.6 6 1.2 1.8 2.8 3.2 4.4 4.6 1.6-2.7 5-3.4 7.6-5.2a10.7 10.7 0 004.5-9.8c-.3-2.3-.2-2.4 0-4.7.1-1.4 1.2-2.1 1-3.5-.1-1-2-4.6-2.3-5.4-.4-1.5 0-3.5 1.9-3.5 1.5 0 2.5 2 3 3.2 1.5-.5 7.5-4 7.4-5.9z" fill="#606161"/><path d="M78.3 44c0 1.1 1.2 1.8 2.3 2 1 .2 2.3.2 3.1.9.7.5 1 1.5 2 1.6.3 0 .7-.1 1-.3 1.3-.9 1.8-2.5 1.6-4-.2-1.6-1-2.9-2-4-3.4-4.2-8.8-6.6-14-6a14 14 0 00-11.8 9.3c-.8 2.7-.8 5.6-1.3 8.3-.7 3.1-2.1 6-4.2 8.4-2.2 2.5-5.2 4.7-5.8 8-.3 2 .4 4.2 1.6 6 1.2 1.8 2.8 3.2 4.4 4.6 1.6-2.7 5-3.4 7.6-5.2a10.7 10.7 0 004.5-9.8c-.3-2.3-.2-2.4 0-4.7.1-1.4 1.2-2.1 1-3.5-.1-1-2-4.6-2.3-5.4-.4-1.5 0-3.5 1.9-3.5 1.5 0 2.5 2 3 3.2 1.5-.5 7.5-4 7.4-5.9z" fill="url(#paint19_linear)"/><path d="M171.8 25.8l-64.4.2v18.8l64.4-.2V25.8z" fill="#fff"/><path d="M119.8 31h-7.9v12.7h8l-.1-12.7z" fill="#1280FF"/><path d="M119.8 31h-7.9v12.7h8l-.1-12.7z" fill="url(#paint20_linear)"/><path d="M127.6 31h-7.9v12.7h8l-.1-12.7z" fill="#1280FF"/><path d="M127.6 31h-7.9v12.7h8l-.1-12.7z" fill="url(#paint21_linear)"/><path d="M135.4 31h-7.9v12.7h8l-.1-12.7z" fill="#1280FF"/><path d="M135.4 31h-7.9v12.7h8l-.1-12.7z" fill="url(#paint22_linear)"/><path d="M143.2 31h-7.8v12.7h7.9V31z" fill="#1280FF"/><path d="M143.2 31h-7.8v12.7h7.9V31z" fill="url(#paint23_linear)"/><path d="M151 31h-7.8v12.7h7.9V31z" fill="#1280FF"/><path d="M159 31h-8l.1 12.6h7.9V31z" fill="#1280FF"/><path d="M166.7 31h-8l.1 12.7h8l-.1-12.7z" fill="#1280FF"/><path d="M157.9 43.7h-6.7V31h6.6v12.7z" fill="url(#paint24_linear)"/><path d="M165.7 31h-7.9v12.7h8l-.1-12.7z" fill="url(#paint25_linear)"/><path d="M80.6 98.7h-7v69h7v-69z" fill="#1280FF"/><path d="M80.6 98.7h-7v69h7v-69z" fill="url(#paint26_linear)"/><path d="M79.9 90.8l-2.4-7.7.9-.4 2.6 8.2-1.1-.1z" fill="#1280FF"/><path d="M79.9 90.8l-2.4-7.7.9-.4 2.6 8.2-1.1-.1z" fill="url(#paint27_linear)"/><path opacity=".5" d="M39.8 49.7a18.4 18.4 0 100-36.8 18.4 18.4 0 000 36.8z" fill="#1280FF"/><path opacity=".5" d="M27.4 72.6a18.4 18.4 0 100-36.8 18.4 18.4 0 000 36.8z" fill="#1280FF"/><path d="M34.2 53.7l.3 6.5 1.7-2.4 2 3.1 1.3-.9-2.3-2.9 2.6-.4-5.6-3z" fill="#fff"/><path opacity=".5" d="M46 82.1H13.2v3.2H46V82z" fill="#1280FF"/><path opacity=".5" d="M46 85.1H13.2v3.2H46V85z" fill="#1280FF"/><path opacity=".5" d="M46 85.1H13.2v3.2H46V85z" fill="#1280FF"/></g><defs><linearGradient id="paint0_linear" x1="143.4" y1="122.1" x2="144.1" y2="61.9" gradientUnits="userSpaceOnUse"><stop stop-color="#010101" stop-opacity="0"/><stop offset=".9" stop-color="#010101"/></linearGradient><linearGradient id="paint1_linear" x1="-77.3" y1="-3.2" x2="172.6" y2="125.6" gradientUnits="userSpaceOnUse"><stop stop-color="#fff" stop-opacity="0"/><stop offset=".1" stop-color="#fff" stop-opacity=".2"/><stop offset=".2" stop-color="#fff" stop-opacity=".5"/><stop offset=".3" stop-color="#fff" stop-opacity=".7"/><stop offset=".3" stop-color="#fff" stop-opacity=".8"/><stop offset=".4" stop-color="#fff" stop-opacity=".9"/><stop offset=".5" stop-color="#fff"/><stop offset=".5" stop-color="#fff"/></linearGradient><linearGradient id="paint2_linear" x1="8279.4" y1="23125.8" x2="13500.1" y2="12245.6" gradientUnits="userSpaceOnUse"><stop stop-color="#010101" stop-opacity="0"/><stop offset=".9" stop-color="#010101"/></linearGradient><linearGradient id="paint3_linear" x1="7447.9" y1="21796.3" x2="19833.4" y2="7710.9" gradientUnits="userSpaceOnUse"><stop stop-color="#010101" stop-opacity="0"/><stop offset=".9" stop-color="#010101"/></linearGradient><linearGradient id="paint4_linear" x1="5395.1" y1="6072.9" x2="3210.8" y2="7045.4" gradientUnits="userSpaceOnUse"><stop stop-color="#010101" stop-opacity="0"/><stop offset=".9" stop-color="#010101"/></linearGradient><linearGradient id="paint5_linear" x1="5752.5" y1="9709" x2="1152.3" y2="9239" gradientUnits="userSpaceOnUse"><stop stop-color="#010101" stop-opacity="0"/><stop offset=".9" stop-color="#010101"/></linearGradient><linearGradient id="paint6_linear" x1="67" y1="62.4" x2="73.3" y2="59" gradientUnits="userSpaceOnUse"><stop stop-color="#E4C5D5"/><stop offset=".4" stop-color="#E9D3CF"/><stop offset="1" stop-color="#EFE8CA"/></linearGradient><linearGradient id="paint7_linear" x1="1207.5" y1="2020.8" x2="2237.1" y2="1187.6" gradientUnits="userSpaceOnUse"><stop stop-color="#010101" stop-opacity="0"/><stop offset=".9" stop-color="#010101"/></linearGradient><linearGradient id="paint8_linear" x1="3535.5" y1="1492.3" x2="4353.9" y2="1492.3" gradientUnits="userSpaceOnUse"><stop stop-color="#E4C5D5"/><stop offset=".4" stop-color="#E9D3CF"/><stop offset="1" stop-color="#EFE8CA"/></linearGradient><linearGradient id="paint9_linear" x1="5077.9" y1="1780.3" x2="6080.1" y2="1780.3" gradientUnits="userSpaceOnUse"><stop stop-color="#E4C5D5"/><stop offset=".4" stop-color="#E9D3CF"/><stop offset="1" stop-color="#EFE8CA"/></linearGradient><linearGradient id="paint10_linear" x1="4350.6" y1="590.2" x2="4353.7" y2="689.1" gradientUnits="userSpaceOnUse"><stop stop-color="#010101" stop-opacity="0"/><stop offset=".9" stop-color="#010101"/></linearGradient><linearGradient id="paint11_linear" x1="15499.1" y1="5188.8" x2="16446.9" y2="14027.6" gradientUnits="userSpaceOnUse"><stop stop-color="#010101" stop-opacity="0"/><stop offset=".9" stop-color="#010101"/></linearGradient><linearGradient id="paint12_linear" x1="15067.3" y1="5196.2" x2="16041.4" y2="13956.4" gradientUnits="userSpaceOnUse"><stop stop-color="#010101" stop-opacity="0"/><stop offset=".9" stop-color="#010101"/></linearGradient><linearGradient id="paint13_linear" x1="6450.1" y1="5406.6" x2="8636" y2="6321.1" gradientUnits="userSpaceOnUse"><stop stop-color="#010101" stop-opacity="0"/><stop offset=".9" stop-color="#010101"/></linearGradient><linearGradient id="paint14_linear" x1="16373.9" y1="19570.8" x2="10290.2" y2="27531.5" gradientUnits="userSpaceOnUse"><stop stop-color="#010101" stop-opacity="0"/><stop offset=".9" stop-color="#010101"/></linearGradient><linearGradient id="paint15_linear" x1="12173.5" y1="23050.8" x2="6496.1" y2="21406.7" gradientUnits="userSpaceOnUse"><stop stop-color="#010101" stop-opacity="0"/><stop offset=".9" stop-color="#010101"/></linearGradient><linearGradient id="paint16_linear" x1="27459.4" y1="519.3" x2="27459.4" y2="570.3" gradientUnits="userSpaceOnUse"><stop stop-color="#010101" stop-opacity="0"/><stop offset=".9" stop-color="#010101"/></linearGradient><linearGradient id="paint17_linear" x1="7397.9" y1="752.7" x2="7398.3" y2="839.7" gradientUnits="userSpaceOnUse"><stop stop-color="#010101" stop-opacity="0"/><stop offset=".9" stop-color="#010101"/></linearGradient><linearGradient id="paint18_linear" x1="3963.6" y1="3472.4" x2="5165.7" y2="3472.4" gradientUnits="userSpaceOnUse"><stop stop-color="#E4C5D5"/><stop offset=".4" stop-color="#E9D3CF"/><stop offset="1" stop-color="#EFE8CA"/></linearGradient><linearGradient id="paint19_linear" x1="6642.5" y1="6746.4" x2="8987.5" y2="7447.9" gradientUnits="userSpaceOnUse"><stop stop-color="#010101" stop-opacity="0"/><stop offset=".9" stop-color="#010101"/></linearGradient><linearGradient id="paint20_linear" x1="385.7" y1="2704.1" x2="1222.4" y2="2904.3" gradientUnits="userSpaceOnUse"><stop stop-color="#010101" stop-opacity="0"/><stop offset=".9" stop-color="#010101"/></linearGradient><linearGradient id="paint21_linear" x1="583.1" y1="2659.8" x2="1758.1" y2="2956.7" gradientUnits="userSpaceOnUse"><stop stop-color="#010101" stop-opacity="0"/><stop offset=".9" stop-color="#010101"/></linearGradient><linearGradient id="paint22_linear" x1="790.2" y1="2639.3" x2="2913.1" y2="2909.9" gradientUnits="userSpaceOnUse"><stop stop-color="#010101" stop-opacity="0"/><stop offset=".9" stop-color="#010101"/></linearGradient><linearGradient id="paint23_linear" x1="136" y1="37.6" x2="256.2" y2="29.3" gradientUnits="userSpaceOnUse"><stop stop-color="#010101" stop-opacity="0"/><stop offset=".4" stop-color="#010101" stop-opacity=".4"/><stop offset=".9" stop-color="#010101"/></linearGradient><linearGradient id="paint24_linear" x1="1096.4" y1="2279.2" x2="2269.6" y2="2598.5" gradientUnits="userSpaceOnUse"><stop stop-color="#fff" stop-opacity="0"/><stop offset=".1" stop-color="#fff" stop-opacity=".2"/><stop offset=".2" stop-color="#fff" stop-opacity=".5"/><stop offset=".3" stop-color="#fff" stop-opacity=".7"/><stop offset=".3" stop-color="#fff" stop-opacity=".8"/><stop offset=".4" stop-color="#fff" stop-opacity=".9"/><stop offset=".5" stop-color="#fff"/><stop offset=".5" stop-color="#fff"/></linearGradient><linearGradient id="paint25_linear" x1="1417.6" y1="2511.8" x2="2324.1" y2="2678" gradientUnits="userSpaceOnUse"><stop stop-color="#fff" stop-opacity="0"/><stop offset=".1" stop-color="#fff" stop-opacity=".2"/><stop offset=".2" stop-color="#fff" stop-opacity=".5"/><stop offset=".3" stop-color="#fff" stop-opacity=".7"/><stop offset=".3" stop-color="#fff" stop-opacity=".8"/><stop offset=".4" stop-color="#fff" stop-opacity=".9"/><stop offset=".5" stop-color="#fff"/><stop offset=".5" stop-color="#fff"/></linearGradient><linearGradient id="paint26_linear" x1="1149.4" y1="27814.1" x2="3908.3" y2="27631.6" gradientUnits="userSpaceOnUse"><stop stop-color="#010101" stop-opacity="0"/><stop offset=".9" stop-color="#010101"/></linearGradient><linearGradient id="paint27_linear" x1="808.6" y1="2029.6" x2="841.1" y2="2029.6" gradientUnits="userSpaceOnUse"><stop stop-color="#010101" stop-opacity="0"/><stop offset=".9" stop-color="#010101"/></linearGradient><clipPath id="clip0"><path fill="#fff" d="M0 0h200.4v180H0z"/></clipPath></defs></svg>