<svg width="169" height="180" fill="none" xmlns="http://www.w3.org/2000/svg"><path opacity=".4" d="M35.6 138.7c-5.7 6.6-13.8 11.9-15.8 20.3a17 17 0 007 17.8 25.2 25.2 0 0017 2.9c5.7-.7 11.3-2.4 17.1-3.1 6.9-1 13.9-.4 20.8-.7 6.9-.4 14-1.9 19.5-6.2 1.6-1.3 3.2-3 3.8-5 .8-2.1.5-4.4.5-6.7a23.8 23.8 0 019.2-18.2c3.1-2.5 6.9-4.1 10-6.7a19.9 19.9 0 006.5-18c-.4-2.3-52.2 0-57.3.1l-14 .6c-3.2.2-9.7-.6-12.3 1.5-2.2 2-3.4 7.6-4.8 10.3-2 4-4.4 7.7-7.2 11z" fill="#BAE5FF"/><path d="M168.5 7.7v101.4a7.6 7.6 0 01-7.7 7.6H7.7a7.7 7.7 0 01-7.7-7.6V7.7A7.7 7.7 0 017.7 0h153.1a7.7 7.7 0 017.7 7.7z" fill="#1280FF"/><path d="M168.5 7.7v101.4a7.6 7.6 0 01-7.7 7.6H7.7a7.7 7.7 0 01-7.7-7.6V7.7A7.7 7.7 0 017.7 0h153.1a7.7 7.7 0 017.7 7.7z" fill="url(#paint0_linear)"/><path opacity=".2" d="M47.6 20.5l-2.5 1.2v50.5L51.7 96l.9 20.5 16.6.3V81.4l6.9-10.2 47.3-.2v-2.6L47.6 20.5zM70 72.3c-.7 1.5-2 3-3 4.3a338.3 338.3 0 01-4.2 5.2c-.6.3-1.2-.2-1.7-.7a31.3 31.3 0 01-5.5-10.4c.1-.3.5-.3.8-.3l11.2.3c1.3 0 3.2-.2 2.4 1.6z" fill="url(#paint1_linear)"/><path d="M125.2 19H47.6v50.4h77.6V19.1z" fill="#fff"/><path d="M122.5 21.7h-72v45h72v-45z" fill="#FA3D38"/><path d="M122.5 46.2v20.6h-72V53c4.1-4.5 10.2-7.6 15.6-11.3 1-.7 2-1.4 3.2-1.8 4.6-1.8 9.5 1.3 13.7 3.8a99.5 99.5 0 0016 8 15 15 0 00-7.7-5.7l7.4-6c.9-.8 1.8-1.6 3-2 2.2-.8 4.6 0 6.8 1 3 1.2 6.1 2.5 9.1 4 1.7.8 3.5 1.7 4.9 3z" fill="url(#paint2_linear)"/><path opacity=".2" d="M53.3 56.8c.5.6 1 1.3 1.8 1.4l.7.2c.3.2.3.6.3 1l.1 4.6c0 1 0 1.9-.5 2.5l-1 .8a.9.9 0 00-.1 1.1c1.5 0 3 .3 4.5.9l-8.3.1a1 1 0 01-.6 0c-.2-.3-.3-.6-.3-1a51 51 0 01.1-6.7c0-1.1-.5-2.2-.3-3.3.4-1.8 2.2-3.2 3.6-1.6z" fill="url(#paint3_linear)"/><path d="M112 35.3a4.8 4.8 0 100-9.7 4.8 4.8 0 000 9.7z" fill="#fff"/><path d="M52.6 175.4a1 1 0 001-1V82.8a.9.9 0 00-1-.9 1 1 0 00-1 1v91.7a.9.9 0 001 .9zM65.6 175.4a1 1 0 00.9-1V82.8a.9.9 0 00-1-.9 1 1 0 00-.8 1v91.7a.9.9 0 00.9.9z" fill="#1280FF"/><path d="M65.6 89.6h-13v2.1h13v-2zM65.6 103h-13v2h13v-2zM65.6 116.4h-13v2h13v-2zM65.6 129.7h-13v2.1h13v-2zM65.6 143.1h-13v2.1h13v-2zM65.6 156.5h-13v2h13v-2z" fill="#1280FF"/><path d="M52.6 175.4a1 1 0 001-1V82.8a.9.9 0 00-1-.9 1 1 0 00-1 1v91.7a.9.9 0 001 .9z" fill="url(#paint4_linear)"/><path d="M65.6 175.4a1 1 0 00.9-1V82.8a.9.9 0 00-1-.9 1 1 0 00-.8 1v91.7a.9.9 0 00.9.9z" fill="url(#paint5_linear)"/><path d="M65.6 89.6h-13v2.1h13v-2z" fill="url(#paint6_linear)"/><path d="M65.6 103h-13v2h13v-2z" fill="url(#paint7_linear)"/><path d="M65.6 116.4h-13v2h13v-2z" fill="url(#paint8_linear)"/><path d="M65.6 129.7h-13v2.1h13v-2z" fill="url(#paint9_linear)"/><path d="M65.6 143.1h-13v2.1h13v-2z" fill="url(#paint10_linear)"/><path d="M65.6 156.5h-13v2h13v-2z" fill="url(#paint11_linear)"/><path d="M169 7.7v1.5H.5V7.7A7.7 7.7 0 018.2 0h153.1a7.7 7.7 0 017.7 7.7z" fill="#1280FF"/><path d="M169 7.7v1.5H.5V7.7A7.7 7.7 0 018.2 0h153.1a7.7 7.7 0 017.7 7.7z" fill="#1280FF"/><path d="M169 7.7v1.5H.5V7.7A7.7 7.7 0 018.2 0h153.1a7.7 7.7 0 017.7 7.7z" fill="url(#paint12_linear)"/><path d="M9.2 4.6a1.2 1.2 0 01-1.4 1.2A1.2 1.2 0 016.9 4a1.2 1.2 0 012-.4l.3.9z" fill="url(#paint13_linear)"/><path d="M14.9 4.6a1.2 1.2 0 01-1.5 1.2 1.2 1.2 0 01-.8-1.7 1.2 1.2 0 012.3.5z" fill="url(#paint14_linear)"/><path d="M19.3 5.8a1.2 1.2 0 100-2.4 1.2 1.2 0 000 2.4z" fill="url(#paint15_linear)"/><path d="M36.9 9.2v107.5H8.2A7.7 7.7 0 01.5 109V9.2h36.4z" fill="#1280FF"/><path d="M32 26.4H5.7a.8.8 0 01-.8-1 .8.8 0 01.8-.6H32a.8.8 0 01.8.8.8.8 0 01-.8.8z" fill="url(#paint16_linear)"/><path d="M32 41.3H5.7a.8.8 0 01-.8-.8.8.8 0 01.8-.8H32a.8.8 0 01.8.8.8.8 0 01-.8.8z" fill="url(#paint17_linear)"/><path d="M32 56.2H5.7a.8.8 0 010-1.6H32a.8.8 0 010 1.6z" fill="url(#paint18_linear)"/><path d="M32 71H5.7a.8.8 0 01-.6-1.3.8.8 0 01.6-.3H32a.8.8 0 01.9.8.8.8 0 01-.9.8z" fill="url(#paint19_linear)"/><path d="M41.3 81.3s-1.3.3-2-.4c-.8-.8-.4-3.2-.4-3.2l13.7-16.6.3 4.7-11.6 15.5z" fill="url(#paint20_linear)"/><path d="M126.2 81.8H99v10h27.3v-10zM169 9.2V109a7.6 7.6 0 01-7.7 7.7h-25.5V9.2H169z" fill="#1280FF"/><path d="M169 37.5h-33.2v44.7H169V37.5z" fill="url(#paint21_linear)"/><path d="M60 81.8s2 2.8 3.4 2.9c1.3 0 9.2-14 9.2-14l1.7-1.3s-3.8-.6-4.3.1l-6.3 10.3-.8-.5-2.9 2.5z" fill="url(#paint22_linear)"/><path d="M45 95.7s-.7 3.8 0 5.4c.5 1.6 5.9 11 5.9 11l-1.4 14.5h4.3l2.1-14.5-2.4-11 2.8-6.2-11.4.8z" fill="#25233A"/><path d="M49 100.2l9.3 16.2 1 12.2 4.3-1-.7-15-6-18-9 .9s.2 3.4 1 4.7z" fill="#3F3D56"/><path d="M60 128.5s.5 3.1.7 3.3c.2.3 2-.2 2-.2l2.9-1.9s0-.9-2.2-.3c0 0-1 0-1-1.5l-2.4.6z" fill="url(#paint23_linear)"/><path d="M53.8 126.6l-.3 1.4 2.5 1.7s-.1.5-1 .7c-.9.2-4.8-.1-4.8-.5s.6-1.6.7-1.8l.3-1.5h2.6z" fill="url(#paint24_linear)"/><path d="M48.2 69s-4 1-4.5 2.2c-.6 1.3-5 5.3-4.8 7 0 1.5 3 3.6 3 3.6l2.4-2.3.2 15a1.7 1.7 0 001.2 1.7c1.8.6 3.6.5 6-.3 3.4-1.1 5.3-1 5.3-1l-.5-16 2.7 3.6 3.7-3.2s-5.4-8.7-6.3-9.3c-1-.5-5-1.1-5-1.1s-1.9 1-3.4 0z" fill="#1280FF"/><path d="M48.2 69s-4 1-4.5 2.2c-.6 1.3-5 5.3-4.8 7 0 1.5 3 3.6 3 3.6l2.4-2.3.2 15a1.7 1.7 0 001.2 1.7c1.8.6 3.6.5 6-.3 3.4-1.1 5.3-1 5.3-1l-.5-16 2.7 3.6 3.7-3.2s-5.4-8.7-6.3-9.3c-1-.5-5-1.1-5-1.1s-1.9 1-3.4 0z" fill="url(#paint25_linear)"/><path d="M53.4 60a25 25 0 01.3 4.8 1.4 1.4 0 01-.8 1l-.8.2c-.1.1-.3.3-.3.5v1.2c0 .4 0 .9-.3 1.2-.2.2-.4.4-.7.4a4 4 0 01-2.1.1l-.3-.1-.2-.4c-.3-.7-.5-1.5-.6-2.3-.3-1.1-.5-2.3-.5-3.4 0-1.2.2-2.3.8-3.3.7-1 1.8-1.6 3-1.5.6 0 1.2.2 1.8.5.4.3.6.7.7 1.2z" fill="url(#paint26_linear)"/><path d="M53.4 58.5c0-.5-.5-1-1-1.4l-.2-.2-.1-.4c-.2-.5-.8-.7-1.4-.7l-1.6.1h-1.3l-.6.6-.5 1.1-.1.6c0 .2-.2.3-.3.5-.6.8-1.4 1.5-1.6 2.4-.2.6-.3 1.3 0 1.8 2.8 5.3 3.5 5.6 3.8 5.5.3 0 2-.1 2-2l.1-.5c0-.1 0-.2-.2-.3l-.5-.7a.9.9 0 010-.8.7.7 0 011.2 0c.2-.6-.4-1.2-.2-1.7.2-.3.6-.5.7-.8.2-.4-.2-1 .2-1.3l.3-.2.4-.5c0-.2 0-.1.3-.2a1 1 0 00.6-.9zM61 130.1c.6-.1 1-.8 1.5-1.1l.4-.2h2.5l.6.3a.6.6 0 01.1.6 311 311 0 01-4.4 2.9h-1a.7.7 0 01-.3-.2l-.2-.3c-.1-.4-.3-1-.2-1.5 0-.4.6-.4 1-.5zM50.3 128.6l-.4 1.3a.6.6 0 000 .5l.4.2 1.1.2H55c.3-.1.7-.3 1-.6l.6-.4v-.3c-.5-.4-1-.5-1.6-.7-.5-.2-1-.5-1.3-.9l-.3-.1c-.2 0-.4 0-.5.2l-1 .2c-.3 0-.3-.2-.5-.4-.5-.5-1 .4-1.1.8z" fill="#3F3D56"/><defs><linearGradient id="paint0_linear" x1="81.3" y1="133.7" x2="86" y2="12.8" gradientUnits="userSpaceOnUse"><stop stop-color="#fff" stop-opacity="0"/><stop offset="1" stop-color="#fff"/></linearGradient><linearGradient id="paint1_linear" x1="45.1" y1="68.6" x2="123.4" y2="68.6" gradientUnits="userSpaceOnUse"><stop stop-color="#183866"/><stop offset="1" stop-color="#1A7FC1"/></linearGradient><linearGradient id="paint2_linear" x1="86.5" y1="37.7" x2="86.5" y2="160.5" gradientUnits="userSpaceOnUse"><stop stop-opacity="0"/><stop offset="1"/></linearGradient><linearGradient id="paint3_linear" x1="2621.6" y1="5287.5" x2="2913.6" y2="5287.5" gradientUnits="userSpaceOnUse"><stop stop-color="#183866"/><stop offset="1" stop-color="#1A7FC1"/></linearGradient><linearGradient id="paint4_linear" x1="560.3" y1="16321.3" x2="571.3" y2="16321.3" gradientUnits="userSpaceOnUse"><stop stop-opacity="0"/><stop offset="1"/></linearGradient><linearGradient id="paint5_linear" x1="651.1" y1="16321.3" x2="662.1" y2="16321.3" gradientUnits="userSpaceOnUse"><stop stop-opacity="0"/><stop offset="1"/></linearGradient><linearGradient id="paint6_linear" x1="2309.8" y1="-531.9" x2="2866.4" y2="-531.9" gradientUnits="userSpaceOnUse"><stop stop-opacity="0"/><stop offset="1"/></linearGradient><linearGradient id="paint7_linear" x1="2309.8" y1="-452.9" x2="2866.4" y2="-452.9" gradientUnits="userSpaceOnUse"><stop stop-opacity="0"/><stop offset="1"/></linearGradient><linearGradient id="paint8_linear" x1="2309.8" y1="-373.9" x2="2866.4" y2="-373.9" gradientUnits="userSpaceOnUse"><stop stop-opacity="0"/><stop offset="1"/></linearGradient><linearGradient id="paint9_linear" x1="2309.8" y1="-294.8" x2="2866.4" y2="-294.8" gradientUnits="userSpaceOnUse"><stop stop-opacity="0"/><stop offset="1"/></linearGradient><linearGradient id="paint10_linear" x1="2309.8" y1="-215.8" x2="2866.4" y2="-215.8" gradientUnits="userSpaceOnUse"><stop stop-opacity="0"/><stop offset="1"/></linearGradient><linearGradient id="paint11_linear" x1="2309.8" y1="-136.8" x2="2866.4" y2="-136.8" gradientUnits="userSpaceOnUse"><stop stop-opacity="0"/><stop offset="1"/></linearGradient><linearGradient id="paint12_linear" x1="82.8" y1="2.9" x2="94" y2="29.8" gradientUnits="userSpaceOnUse"><stop stop-color="#fff" stop-opacity="0"/><stop offset="1" stop-color="#fff"/></linearGradient><linearGradient id="paint13_linear" x1="8.2" y1=".4" x2="8" y2="5.1" gradientUnits="userSpaceOnUse"><stop stop-color="#A8EEFD"/><stop offset="1" stop-color="#E7FAFF"/></linearGradient><linearGradient id="paint14_linear" x1="387.4" y1="1446.4" x2="386.3" y2="1408.8" gradientUnits="userSpaceOnUse"><stop stop-color="#A8EEFD"/><stop offset="1" stop-color="#E7FAFF"/></linearGradient><linearGradient id="paint15_linear" x1="173.8" y1="-1267.5" x2="172.7" y2="-1229.7" gradientUnits="userSpaceOnUse"><stop stop-color="#A8EEFD"/><stop offset="1" stop-color="#E7FAFF"/></linearGradient><linearGradient id="paint16_linear" x1="46.6" y1="21.2" x2="29.9" y2="23.9" gradientUnits="userSpaceOnUse"><stop stop-color="#68E1FD"/><stop offset=".1" stop-color="#84E6FD"/><stop offset=".2" stop-color="#A9EEFE"/><stop offset=".3" stop-color="#C8F4FE"/><stop offset=".5" stop-color="#E0F9FF"/><stop offset=".6" stop-color="#F2FCFF"/><stop offset=".8" stop-color="#FCFEFF"/><stop offset="1" stop-color="#fff"/></linearGradient><linearGradient id="paint17_linear" x1="7595" y1="816.6" x2="7415.3" y2="313.8" gradientUnits="userSpaceOnUse"><stop stop-color="#68E1FD"/><stop offset=".1" stop-color="#84E6FD"/><stop offset=".2" stop-color="#A9EEFE"/><stop offset=".3" stop-color="#C8F4FE"/><stop offset=".5" stop-color="#E0F9FF"/><stop offset=".6" stop-color="#F2FCFF"/><stop offset=".8" stop-color="#FCFEFF"/><stop offset="1" stop-color="#fff"/></linearGradient><linearGradient id="paint18_linear" x1="7812" y1="759.2" x2="7630" y2="253.6" gradientUnits="userSpaceOnUse"><stop stop-color="#68E1FD"/><stop offset=".1" stop-color="#84E6FD"/><stop offset=".2" stop-color="#A9EEFE"/><stop offset=".3" stop-color="#C8F4FE"/><stop offset=".5" stop-color="#E0F9FF"/><stop offset=".6" stop-color="#F2FCFF"/><stop offset=".8" stop-color="#FCFEFF"/><stop offset="1" stop-color="#fff"/></linearGradient><linearGradient id="paint19_linear" x1="8031.7" y1="687.9" x2="7853.8" y2="187.2" gradientUnits="userSpaceOnUse"><stop stop-color="#68E1FD"/><stop offset=".1" stop-color="#84E6FD"/><stop offset=".2" stop-color="#A9EEFE"/><stop offset=".3" stop-color="#C8F4FE"/><stop offset=".5" stop-color="#E0F9FF"/><stop offset=".6" stop-color="#F2FCFF"/><stop offset=".8" stop-color="#FCFEFF"/><stop offset="1" stop-color="#fff"/></linearGradient><linearGradient id="paint20_linear" x1="38.8" y1="71.2" x2="52.9" y2="71.2" gradientUnits="userSpaceOnUse"><stop stop-color="#ECC4D7"/><stop offset=".4" stop-color="#EFD4D1"/><stop offset="1" stop-color="#F2EAC9"/></linearGradient><linearGradient id="paint21_linear" x1="20303.4" y1="-17719.8" x2="12024.8" y2="-17811.8" gradientUnits="userSpaceOnUse"><stop stop-color="#fff" stop-opacity="0"/><stop offset="1" stop-color="#fff"/></linearGradient><linearGradient id="paint22_linear" x1="4449.1" y1="5407.4" x2="5121.4" y2="5407.4" gradientUnits="userSpaceOnUse"><stop stop-color="#ECC4D7"/><stop offset=".4" stop-color="#EFD4D1"/><stop offset="1" stop-color="#F2EAC9"/></linearGradient><linearGradient id="paint23_linear" x1="1780.7" y1="810.2" x2="1884.1" y2="810.2" gradientUnits="userSpaceOnUse"><stop stop-color="#ECC4D7"/><stop offset=".4" stop-color="#EFD4D1"/><stop offset="1" stop-color="#F2EAC9"/></linearGradient><linearGradient id="paint24_linear" x1="1651.8" y1="802.5" x2="1764" y2="802.5" gradientUnits="userSpaceOnUse"><stop stop-color="#ECC4D7"/><stop offset=".4" stop-color="#EFD4D1"/><stop offset="1" stop-color="#F2EAC9"/></linearGradient><linearGradient id="paint25_linear" x1="36.8" y1="87" x2="46.4" y2="83.9" gradientUnits="userSpaceOnUse"><stop stop-color="#fff" stop-opacity="0"/><stop offset="1" stop-color="#E7FAFF"/></linearGradient><linearGradient id="paint26_linear" x1="1865.9" y1="4375.8" x2="1982.2" y2="4384.2" gradientUnits="userSpaceOnUse"><stop stop-color="#ECC4D7"/><stop offset=".4" stop-color="#EFD4D1"/><stop offset="1" stop-color="#F2EAC9"/></linearGradient></defs></svg>