<svg width="566" height="431" fill="none" xmlns="http://www.w3.org/2000/svg"><path d="M563.8 322a101.4 101.4 0 01-39.8 64.2 98 98 0 01-44.2 19c-29.4 4.3-59.1-4.5-88.8-6-53.3-2.9-104.6 17.7-157.1 27.1-52.5 9.4-114.3 4.1-147.5-37.5l-.6-.8c-10.5-13.4-17.2-29.5-25.5-44.5a197 197 0 00-4.5-7.7c-14.7-24-36.4-43.5-47.7-69.2a99.1 99.1 0 011.1-81.1c10.7-22.5 29.4-40 47.6-57l3.5-3.2 47-43.6c8.6-8 17.3-16 26.2-23.6a261.9 261.9 0 0137.7-27.6c32.8-19.4 64-17.2 99.5-23.3C311.8.2 354-5.8 394 10c23.3 9.2 43.4 25 63 40.5l9.6 7.6c18 14.2 36 28.4 53.7 43 4 3 7.8 6.3 11.5 9.8a60.6 60.6 0 0113.8 18.4 85 85 0 015.8 27l11.6 114c1.7 17.2 3.5 34.6.8 51.7z" fill="#BAE5FF"/><path d="M133.5 58c-9 7.7-17.6 15.7-26.2 23.7l-47 43.6V72.8A14.7 14.7 0 0175 58h58.5z" fill="url(#paint0_linear)"/><path d="M531.7 111v262.3a14.7 14.7 0 01-7.7 13 14.8 14.8 0 01-7 1.7H85.8c-10.5-13.4-17.2-29.5-25.5-44.5V125.3l47-43.6c8.6-8 17.3-16 26.2-23.6h333.1c18 14.2 36 28.4 53.7 43 3.9 3.1 7.8 6.3 11.4 9.8z" fill="url(#paint1_linear)"/><path d="M504 46H62c-8 0-14.6 6.6-14.6 14.7v300.6c0 8.2 6.6 14.7 14.7 14.7h442c8.1 0 14.7-6.5 14.7-14.7V60.7c0-8-6.6-14.6-14.7-14.6z" fill="#1280FF"/><path d="M518.8 60.8v300.5A14.7 14.7 0 01504 376H62a14.7 14.7 0 01-14.7-14.7V60.8A14.7 14.7 0 0162 46h442a14.7 14.7 0 0114.7 14.7z" fill="url(#paint2_linear)"/><path opacity=".2" d="M518.8 60.8v19.8H47.4V60.8A14.7 14.7 0 0162 46h442a14.7 14.7 0 0114.7 14.7z" fill="#1280FF"/><path d="M518.8 60.8v19.8H47.4V60.8A14.7 14.7 0 0162 46h442a14.7 14.7 0 0114.7 14.7z" fill="#1280FF"/><path d="M518.8 60.8v19.8H47.4V60.8A14.7 14.7 0 0162 46h442a14.7 14.7 0 0114.7 14.7z" fill="url(#paint3_linear)"/><path opacity=".2" d="M197.6 141H88c-6.1 0-11 4.9-11 11s4.9 11 11 11h109.6c6.1 0 11.1-4.9 11.1-11s-5-11-11-11z" fill="#1280FF"/><path d="M142.8 291.8H88c-6.1 0-11 5-11 11 0 6.2 4.9 11.1 11 11.1h54.8c6.1 0 11-5 11-11 0-6.2-4.9-11.1-11-11.1z" fill="#FA3D38"/><path d="M142.8 291.8H88c-6.1 0-11 5-11 11 0 6.2 4.9 11.1 11 11.1h54.8c6.1 0 11-5 11-11 0-6.2-4.9-11.1-11-11.1z" fill="url(#paint4_linear)"/><path opacity=".2" d="M152.2 172.5H86.9a5.6 5.6 0 100 11.3h65.3c3 0 5.6-2.6 5.6-5.7s-2.5-5.6-5.6-5.6zM517.8 80.6v288.1h-.1l-.5-.2-7.3-3.4-1.3-.6-2.2-1-1.6-.7-16-7.5-6-2.8-71.3-33.3-4.3-2-6.7-3.1-6.3-3-16.6-7.7-5.1-2.4-8.6-4-3.1-1.4-3-1.4-5.5-2.6-24-11.1-5-2.3-14.4-6.8-6.5-3-3.8-1.7-2.2-1-2.3-1.1-3.5-1.7-9-4.1-2.3-1.2-6.6-3-1.8-.9-6-2.8-.9-.4a81.9 81.9 0 01-11.3-6.3L251 243l-2.9-2.2-1.8-1.6-.1-.1-1.9-1.7v-.1a35.2 35.2 0 01-3.8-4.3l-1.7-2.2a38.8 38.8 0 01-5.8-11.8 56.6 56.6 0 011.6-34.4c7.5-23.4 25.8-47.7 43-66.9 11.5-12.9 24-25 37.1-36.4l203.2-.6z" fill="#1280FF"/><path opacity=".2" d="M517.8 135.2v129.2a1 1 0 01-.3 0l-1 .2c-16.3 1.3-32.5-3.8-48.8-3.6-12.5 0-24.8 3.3-37.1 5.9a364 364 0 01-99.2 7c-7.5-.6-15-1.3-22.5-2.5-15.5-2.6-30.6-7-43.9-15.3-8-5-15-11.4-20.7-18.9a64.5 64.5 0 01-10.8-21.9l.8-30.2.3-.6c7.5-23.4 25.7-47.7 42.9-66.9h4.8v23.2h8.3v-18.6h9.9v17.3h13.1v20.2h14.9V140h25.9v19.7H377v-31h11.5v10h9.8v21h9.7v-14h11.8v14h6.5v-23h11.4v-9.3h21.5v32.3h9.6v-51h21.6v51h9v-42.4H516v18h1.8z" fill="#1280FF"/><path d="M517.8 368.7S282.1 259 264.1 250.5c-18-8.4-27.4-19.3-31.2-31.6l284.3-51.5.6 201.3z" fill="#1280FF"/><path d="M517.8 368.7S282.1 259 264.1 250.5c-18-8.4-27.4-19.3-31.2-31.6l284.3-51.5.6 201.3z" fill="url(#paint5_linear)"/><path d="M327.8 246.8l188.4-39.7v23.1l-155.1 34.2-33.3-17.6z" fill="url(#paint6_linear)"/><path d="M173.3 213.4H79.7v17.9h93.6v-17.9z" fill="url(#paint7_linear)"/><path d="M173.3 236.5H79.7v17.9h93.6v-17.9z" fill="url(#paint8_linear)"/><path d="M390.7 221c2 0 3.6-2 3.6-4.2s-1.6-4-3.6-4-3.5 1.8-3.5 4c0 2.3 1.6 4.1 3.5 4.1z" fill="#1280FF"/><path d="M390.7 221c2 0 3.6-2 3.6-4.2s-1.6-4-3.6-4-3.5 1.8-3.5 4c0 2.3 1.6 4.1 3.5 4.1z" fill="url(#paint9_linear)"/><path d="M391.8 219.9c1 0 2-1.4 2-3 0-1.8-1-3.2-2-3.2-1.1 0-2 1.4-2 3.1 0 1.7.9 3.1 2 3.1z" fill="url(#paint10_linear)"/><path d="M395 211.2s-1.7 3.7-.1 5c.7.7 1.4 1.3 2.3 1.8l-.7 1-5.5-2.1s-.4-.8.1-1.2c0 0 1 .1 1.3-.4.4-1.3.6-2.5.7-3.8l1.9-.3z" fill="#1280FF"/><path d="M395 211.2s-1.7 3.7-.1 5c.7.7 1.4 1.3 2.3 1.8l-.7 1-5.5-2.1s-.4-.8.1-1.2c0 0 1 .1 1.3-.4.4-1.3.6-2.5.7-3.8l1.9-.3z" fill="url(#paint11_linear)"/><path d="M420 179.6c7.9-1.2 18-3.2 25.5-4.3 2.3-.3 7.6-.6 10-.7 1.6-.2 6.5-12.7 7.2-14.2 4.1-9.3 8.4-18.5 12.6-27.7l.4-.9c1.2-3.3.6-4-3-3.8-8 .4-14 4.6-19 10.3-8 9.1-15.6 18.5-23.4 27.8l-10.4 13.5z" fill="#1280FF"/><path d="M420 179.6c7.9-1.2 18-3.2 25.5-4.3 2.3-.3 7.6-.6 10-.7 1.6-.2 6.5-12.7 7.2-14.2 4.1-9.3 8.4-18.5 12.6-27.7l.4-.9c1.2-3.3.6-4-3-3.8-8 .4-14 4.6-19 10.3-8 9.1-15.6 18.5-23.4 27.8l-10.4 13.5z" fill="url(#paint12_linear)"/><path d="M451 204c6.3-1 12.2-1.9 18-3 15.6-2.6 31-5.9 45.5-12.4 4.3-2 8.4-4.6 12.3-7.5 3.8-2.9 5.2-6.8 4.3-12-2-10.6-3.5-21.3-5.2-32-.6-4-2.7-5.4-6.5-4.3-3.2.9-5.7 2.7-6.8 6l-5.5 16.1c-.6 2-1.5 4-2.5 5.8a7.3 7.3 0 01-5.6 3.8l-122.5 19.9A47.6 47.6 0 00349 197c-3.7 3.8-6.7 8-7.7 13.3-.7 3.7 0 5 3.8 5.1 5.4.4 11 .4 16.5 0 14.5-1.4 29-3.2 43.6-5 2-.3 4 .2 5.7 1.3l62 38.9a26.3 26.3 0 0021.1 2.6c1.3-.3 1.7-1.2 1-2.3-.8-1.3-1.7-2.5-2.7-3.6L453 206.1 451 204z" fill="#1280FF"/><path d="M526.7 181a65 65 0 01-12.2 7.6 185.2 185.2 0 01-45.4 12.5l-18 2.9 1.8 2 39.5 41.5c1 1 2 2.2 2.7 3.5.7 1 .2 2-1 2.3a26.1 26.1 0 01-21.2-2.6l-62-39a8.2 8.2 0 00-5.7-1.2c-14.5 1.8-29 3.6-43.6 5-5.5.4-11 .4-16.5 0-3.8-.2-4.5-1.5-3.8-5.1 1.1-5.3 4-9.6 7.8-13.3 7.5-7.6 17-11.1 27.3-12.8L499 164.5a7.1 7.1 0 005.6-3.8c1-1.9 1.9-3.8 2.5-5.8 2-5.4 3.7-10.8 5.5-16.2 1.1-3.2 3.6-5 6.8-6 3.8-1 5.9.4 6.5 4.3 1.5 9.5 2.8 19 4.5 28.6l.7 3.6c.9 5-.5 9-4.4 11.9z" fill="url(#paint13_linear)"/><path d="M494 253.3a26.1 26.1 0 01-21.1-2.6l-62-39a8.2 8.2 0 00-5.7-1.2c-14.6 1.8-29 3.6-43.6 5-5.5.4-11 .4-16.5 0-3.8-.2-4.5-1.5-3.8-5.1l51-6c7.8-1 15.7.4 22.8 3.9l2.8 1.3s58.6 39.4 66.8 40.2a178 178 0 0110.4 1.1c.7 1.2.2 2-1 2.4z" fill="url(#paint14_linear)"/><path d="M526.7 181a65 65 0 01-12.2 7.6 185.2 185.2 0 01-45.4 12.5l-18 2.9-4.6-5.1s59.1-10.9 68.8-19.3c8.9-7.8 14.3-13.1 15.1-14l.7 3.6c.9 5-.5 9-4.4 11.9z" fill="url(#paint15_linear)"/><path d="M396.8 223.2c2 0 3.6-1.9 3.6-4.1 0-2.3-1.6-4.2-3.6-4.2s-3.6 1.9-3.6 4.2c0 2.2 1.6 4 3.6 4z" fill="#1280FF"/><path d="M396.8 223.2c2 0 3.6-1.9 3.6-4.1 0-2.3-1.6-4.2-3.6-4.2s-3.5 1.9-3.5 4.2c0 2.2 1.5 4 3.5 4z" fill="url(#paint16_linear)"/><path d="M397.8 222.1c1.1 0 2-1.3 2-3 0-1.8-.9-3.1-2-3.1-1 0-2 1.3-2 3 0 1.8 1 3.1 2 3.1z" fill="url(#paint17_linear)"/><defs><linearGradient id="paint0_linear" x1="97.6" y1="124.5" x2="96.2" y2="57.6" gradientUnits="userSpaceOnUse"><stop stop-color="#fff" stop-opacity="0"/><stop offset=".1" stop-color="#fff" stop-opacity=".2"/><stop offset=".2" stop-color="#fff" stop-opacity=".4"/><stop offset=".3" stop-color="#fff" stop-opacity=".6"/><stop offset=".5" stop-color="#fff" stop-opacity=".7"/><stop offset=".6" stop-color="#fff" stop-opacity=".8"/><stop offset=".7" stop-color="#fff" stop-opacity=".9"/><stop offset=".8" stop-color="#fff"/><stop offset=".9" stop-color="#fff"/></linearGradient><linearGradient id="paint1_linear" x1="635.2" y1="630.7" x2="-190.4" y2="-333.5" gradientUnits="userSpaceOnUse"><stop stop-color="#010101" stop-opacity="0"/><stop offset=".9" stop-color="#010101"/></linearGradient><linearGradient id="paint2_linear" x1="137508" y1="163790" x2="134948" y2="-11762.1" gradientUnits="userSpaceOnUse"><stop stop-color="#fff" stop-opacity="0"/><stop offset=".1" stop-color="#fff" stop-opacity=".2"/><stop offset=".2" stop-color="#fff" stop-opacity=".4"/><stop offset=".3" stop-color="#fff" stop-opacity=".6"/><stop offset=".5" stop-color="#fff" stop-opacity=".7"/><stop offset=".6" stop-color="#fff" stop-opacity=".8"/><stop offset=".7" stop-color="#fff" stop-opacity=".9"/><stop offset=".8" stop-color="#fff"/><stop offset=".9" stop-color="#fff"/></linearGradient><linearGradient id="paint3_linear" x1="133454" y1="2715.4" x2="133548" y2="14204.4" gradientUnits="userSpaceOnUse"><stop stop-color="#010101" stop-opacity="0"/><stop offset=".9" stop-color="#010101"/></linearGradient><linearGradient id="paint4_linear" x1="8966.6" y1="6761.6" x2="8956.7" y2="8912.2" gradientUnits="userSpaceOnUse"><stop stop-color="#010101" stop-opacity="0"/><stop offset=".9" stop-color="#010101"/></linearGradient><linearGradient id="paint5_linear" x1="96824.3" y1="28745.6" x2="144462" y2="181770" gradientUnits="userSpaceOnUse"><stop stop-color="#fff" stop-opacity="0"/><stop offset=".1" stop-color="#fff" stop-opacity=".2"/><stop offset=".2" stop-color="#fff" stop-opacity=".4"/><stop offset=".3" stop-color="#fff" stop-opacity=".6"/><stop offset=".5" stop-color="#fff" stop-opacity=".7"/><stop offset=".6" stop-color="#fff" stop-opacity=".8"/><stop offset=".7" stop-color="#fff" stop-opacity=".9"/><stop offset=".8" stop-color="#fff"/><stop offset=".9" stop-color="#fff"/></linearGradient><linearGradient id="paint6_linear" x1="71392.3" y1="14314.3" x2="169720" y2="-41760" gradientUnits="userSpaceOnUse"><stop stop-color="#010101" stop-opacity="0"/><stop offset=".9" stop-color="#010101"/></linearGradient><linearGradient id="paint7_linear" x1="11856.1" y1="3225.7" x2="11860.8" y2="5197.2" gradientUnits="userSpaceOnUse"><stop stop-color="#fff" stop-opacity="0"/><stop offset=".1" stop-color="#fff" stop-opacity=".2"/><stop offset=".2" stop-color="#fff" stop-opacity=".4"/><stop offset=".3" stop-color="#fff" stop-opacity=".6"/><stop offset=".5" stop-color="#fff" stop-opacity=".7"/><stop offset=".6" stop-color="#fff" stop-opacity=".8"/><stop offset=".7" stop-color="#fff" stop-opacity=".9"/><stop offset=".8" stop-color="#fff"/><stop offset=".9" stop-color="#fff"/></linearGradient><linearGradient id="paint8_linear" x1="11829" y1="3248.8" x2="11833.7" y2="5220.3" gradientUnits="userSpaceOnUse"><stop stop-color="#fff" stop-opacity="0"/><stop offset=".1" stop-color="#fff" stop-opacity=".2"/><stop offset=".2" stop-color="#fff" stop-opacity=".4"/><stop offset=".3" stop-color="#fff" stop-opacity=".6"/><stop offset=".5" stop-color="#fff" stop-opacity=".7"/><stop offset=".6" stop-color="#fff" stop-opacity=".8"/><stop offset=".7" stop-color="#fff" stop-opacity=".9"/><stop offset=".8" stop-color="#fff"/><stop offset=".9" stop-color="#fff"/></linearGradient><linearGradient id="paint9_linear" x1="3218" y1="1944.8" x2="3133.4" y2="2000.5" gradientUnits="userSpaceOnUse"><stop stop-color="#010101" stop-opacity="0"/><stop offset=".9" stop-color="#010101"/></linearGradient><linearGradient id="paint10_linear" x1="1953.7" y1="1529.1" x2="1918.4" y2="1546.2" gradientUnits="userSpaceOnUse"><stop stop-color="#010101" stop-opacity="0"/><stop offset=".9" stop-color="#010101"/></linearGradient><linearGradient id="paint11_linear" x1="2875.6" y1="2165.6" x2="2888.5" y2="2164.7" gradientUnits="userSpaceOnUse"><stop stop-color="#010101" stop-opacity="0"/><stop offset=".9" stop-color="#010101"/></linearGradient><linearGradient id="paint12_linear" x1="25318.1" y1="11397.8" x2="25965.5" y2="9429.5" gradientUnits="userSpaceOnUse"><stop stop-color="#fff" stop-opacity="0"/><stop offset=".1" stop-color="#fff" stop-opacity=".2"/><stop offset=".2" stop-color="#fff" stop-opacity=".4"/><stop offset=".3" stop-color="#fff" stop-opacity=".6"/><stop offset=".5" stop-color="#fff" stop-opacity=".7"/><stop offset=".6" stop-color="#fff" stop-opacity=".8"/><stop offset=".7" stop-color="#fff" stop-opacity=".9"/><stop offset=".8" stop-color="#fff"/><stop offset=".9" stop-color="#fff"/></linearGradient><linearGradient id="paint13_linear" x1="80047.9" y1="34518.6" x2="81573.3" y2="28517.4" gradientUnits="userSpaceOnUse"><stop stop-color="#fff" stop-opacity="0"/><stop offset=".1" stop-color="#fff" stop-opacity=".2"/><stop offset=".2" stop-color="#fff" stop-opacity=".4"/><stop offset=".3" stop-color="#fff" stop-opacity=".6"/><stop offset=".5" stop-color="#fff" stop-opacity=".7"/><stop offset=".6" stop-color="#fff" stop-opacity=".8"/><stop offset=".7" stop-color="#fff" stop-opacity=".9"/><stop offset=".8" stop-color="#fff"/><stop offset=".9" stop-color="#fff"/></linearGradient><linearGradient id="paint14_linear" x1="68244.9" y1="11178.1" x2="65355.7" y2="35908" gradientUnits="userSpaceOnUse"><stop stop-color="#010101" stop-opacity="0"/><stop offset=".9" stop-color="#010101"/></linearGradient><linearGradient id="paint15_linear" x1="42061.6" y1="8290.4" x2="42423" y2="13545.9" gradientUnits="userSpaceOnUse"><stop stop-color="#010101" stop-opacity="0"/><stop offset=".9" stop-color="#010101"/></linearGradient><linearGradient id="paint16_linear" x1="3267.3" y1="1965.4" x2="3182.6" y2="2021" gradientUnits="userSpaceOnUse"><stop stop-color="#010101" stop-opacity="0"/><stop offset=".9" stop-color="#010101"/></linearGradient><linearGradient id="paint17_linear" x1="1983.7" y1="1545.1" x2="1948.5" y2="1562.3" gradientUnits="userSpaceOnUse"><stop stop-color="#010101" stop-opacity="0"/><stop offset=".9" stop-color="#010101"/></linearGradient></defs></svg>