<svg width="620" height="480" fill="none" xmlns="http://www.w3.org/2000/svg"><path d="M78.2 150.5c-5.2 25.4-5 51.9-13.3 76.4-14.8 44.2-55.4 77.8-63.5 123.8-6 33.5 8 69.8 35 90.6 23 17.9 53 24 82 28 108.5 15.6 218.8 11.6 328.1 4 39.9-2.8 81.1-6.5 116-26a112.8 112.8 0 0050.6-54.8 80.8 80.8 0 00-5.5-73C592.4 296 563 281.4 557.2 254c-5-23.2 9.3-45.6 19.7-67 17.3-35.6 24-79.4 4.9-114-11.9-21.4-32.2-37-54.1-47.8C466.5-5.2 394.5-2.2 326.5 4c-98.6 9.3-225.1 32.3-248.3 146.4z" fill="#BAE5FF"/><path d="M476 131.9H178.9c-9.7 0-17.7 7.9-17.7 17.6v179.6c0 9.8 8 17.7 17.7 17.7h297.3c9.7 0 17.6-7.9 17.6-17.7V149.5c0-9.7-7.9-17.6-17.6-17.6z" fill="#1280FF"/><path d="M466.3 140.2H185.8c-9.2 0-16.7 7.4-16.7 16.7v169.4c0 9.2 7.5 16.7 16.7 16.7h280.5c9.2 0 16.7-7.5 16.7-16.7V157c0-9.3-7.5-16.7-16.7-16.7z" fill="#fff"/><path opacity=".1" d="M181.5 258.8H90.3c-7.6 0-13.8 6.2-13.8 13.8v23.8c0 7.7 6.2 13.9 13.8 13.9h91.2c7.6 0 13.8-6.2 13.8-13.9v-23.8c0-7.6-6.2-13.8-13.8-13.8zM552.6 261.4h-91.1c-7.7 0-13.9 6.2-13.9 13.9V299c0 7.7 6.2 13.9 13.9 13.9h91.1c7.7 0 13.9-6.2 13.9-13.9v-23.7c0-7.7-6.2-14-13.9-14zM555 143.8H464c-7.7 0-13.9 6.2-13.9 13.9v23.7c0 7.7 6.2 14 13.9 14H555c7.7 0 13.9-6.3 13.9-14v-23.7c0-7.7-6.2-13.9-13.9-13.9zM308.1 199h-93.7c-7.2 0-13.1 6-13.1 13.2v103.3c0 7.3 5.9 13.2 13.1 13.2h93.7c7.3 0 13.2-6 13.2-13.2V212.2c0-7.3-6-13.2-13.2-13.2z" fill="#1280FF"/><path opacity=".1" d="M195.7 235.5s-2.6 10.3 5.7 15.5c8.2 5.1 39.7-8.8 58.8-10.9 19-2 58.3 5.7 58.3 5.7s-7.3 13.5-6.7 28.4c.5 15 1.5 26.8 0 29.4-1.6 2.6 8.7 12.9 10.3 13.4a221 221 0 0015.4 1.6l17.6 25.8 44.6-1-27.4-90.6 13.2-44.6-122.7-16-67 43.3z" fill="#1280FF"/><path d="M171.8 345.2L110 391.7h432.8l-60.4-47.2-310.6.7z" fill="#1280FF"/><path d="M171.8 345.2L110 391.7h432.8l-60.4-47.2-310.6.7z" fill="url(#paint0_linear)"/><path d="M127.7 408.8l-17.7-17h432.8l-16 18-399.1-1z" fill="#1280FF"/><path d="M127.7 408.8l-17.7-17h432.8l-16 18-399.1-1z" fill="url(#paint1_linear)"/><path opacity=".6" d="M277.8 384.4l18.4-14.5 67.4-.4 19.4 14.6-105.2.3zM149.6 367.2l350.2-.5-18.8-15.3H171.1l-21.5 15.8z" fill="#1280FF"/><path d="M364.4 318.7c-2-2.7-5.6-3.8-8.8-5a82.3 82.3 0 01-31-24.7 22 22 0 01-5-7.8 11.7 11.7 0 012.2-10.6c.5-.5 1-1.1 1.3-1.7.5-1 .8-2 1-3 .5-3 2-6.4 5-7l2-.5c1.1-.4 1.6-1.7 2.1-2.8 1.8-4 4.7-8.3 9-8.8.6 0 1.2-.1 1.7-.4 1.2-.7 1-2.4 1.3-3.8.7-3.4 5-5.2 8.4-4.5 3.4.8 6.2 3.3 8.7 5.6l10 9.1c2.7 2.4 5.4 5 9 5.8a2.4 2.4 0 001.8 0 2.7 2.7 0 001-2c1.2-7.7 14.8-16.2 20.7-15.2a247.6 247.6 0 00-8.6 41.6c10.1 16.7 25.1 29.3 40.4 41.4 3.8 3.2 7.7 6 11.9 8.7 5 3 10.4 5.1 14.8 8.8l-63.6 1.5c-1.8.2-3.6 0-5.3-.5-1.6-.7-3.1-1.7-4.4-3-6-5.3-12-10.7-17.7-16.4-2-2-5.1-4-7.9-4.8z" fill="url(#paint2_linear)"/><path d="M379.2 272.7a32.9 32.9 0 01-6.9 15 38.2 38.2 0 01-8.3 8.8 17.4 17.4 0 01-11.6 3.5c-3.4-.3-6.6-2-8.8-4.5a6.5 6.5 0 01-1.7-3c-.5-2.6 1.5-5 3.3-6.9 6.8-7 14-13.7 21.7-19.9 2.4-1.9 9-7.5 12.5-6.2 1.7.7.1 10.4-.2 13.2z" fill="url(#paint3_linear)"/><path d="M398.3 236.5l-57.2 73.8s-15-1-24.3-8.8c-9.3-7.7 7.2-12.4 7.2-12.4s34-34 38.7-60.8l35.6 8.2z" fill="#1280FF"/><path d="M316.8 301.5c4.3 3.6 9.8 5.7 14.4 7a54 54 0 009.9 1.8l56.3-72.5 1-1.2-35.6-8.3c-4.7 26.9-38.7 61-38.7 61s-16.5 4.5-7.3 12.2z" fill="url(#paint4_linear)"/><path d="M326.1 305.2c1.6 1.3 3.3 2.4 5 3.3 3.3.9 6.6 1.5 10 1.8l56.3-72.5-25.3-6c-4.7 27-38.7 61-38.7 61s-16.6 4.6-7.3 12.4z" fill="url(#paint5_linear)"/><path d="M439.1 194a28 28 0 00-18.1-14c-35.8-8.7-147.7-39.8-154.2-93.5 0 0-2-14-19.6-14-17.5 0-45.4 166.1-40.7 169.7 4.6 3.6 20.6-4.1 28.8-11.8a64.2 64.2 0 0163-14 923 923 0 0064 15.7c17.3 3.8 33.7 7.2 44.3 9.3a24.8 24.8 0 0024-8.5c6.6-7.9 13-19.8 10.5-35l-2-4z" fill="#1280FF"/><path d="M252.6 164.6c11.9-46.5 8.8-87.5-6.8-91.5-15.7-4-38 30.4-50 77-12 46.5-8.9 87.5 6.8 91.5s38-30.5 50-77z" fill="#1280FF"/><path d="M252.6 164.6c11.9-46.5 8.8-87.5-6.8-91.5-15.7-4-38 30.4-50 77-12 46.5-8.9 87.5 6.8 91.5s38-30.5 50-77z" fill="url(#paint6_linear)"/><path d="M236 160.6c3.5-14 2.6-26.3-2-27.6-4.8-1.2-11.5 9.2-15.1 23.2-3.6 14-2.7 26.3 2 27.6 4.7 1.2 11.5-9.2 15-23.2z" fill="url(#paint7_linear)"/><path d="M233.9 133l22.3 3s-8.5 54.1-18 58.8L223 183.4l10.9-50.4z" fill="url(#paint8_linear)"/><path d="M362.9 252.8c3.2 2.7 6.9 4.6 10.3 7 2.3 1.4 4.6 3.5 4.7 6.2 0 1.3-.3 2.6-1 3.8a20.2 20.2 0 01-5 6.2c-1.6 1.4-3.5 2.6-4.8 4.2-1 1.2-1.7 2.5-2.4 3.8a51.4 51.4 0 01-12.7 13.2 13 13 0 01-11.2.8 20 20 0 01-9-7.1c-2.4-3.2-4-7.3-3.4-11.2.5-2.4 1.5-4.6 3-6.6 4.5-7.3 9.7-14.1 15.6-20.4 1.5-1.6 6.6-8.5 9-8.2 1.8.3 5 6.8 6.9 8.3z" fill="url(#paint9_linear)"/><path d="M388.5 203.9s-6 27.5-26.3 28.2l50 11.3s18-1 21.4-8.2c3.4-7.2 21.3-32.3-3.8-52L389.6 171s4.4 16.5-1.1 33z" fill="url(#paint10_linear)"/><path d="M269.9 105.5s5.9 64.7-31.6 121.8c0 0 22.3-17.2 49.5-13.4 0 0 14.8-54.4 8.2-69.5-6.5-15.1-26.1-38.9-26.1-38.9z" fill="url(#paint11_linear)"/><path d="M552.6 36.6h-146c-12.3 0-22.3 10-22.3 22.2v38c0 12.3 10 22.3 22.3 22.3h146c12.3 0 22.2-10 22.2-22.2V58.8c0-12.3-10-22.2-22.2-22.2zM559.6 137.2h-91.1c-7.7 0-13.9 6.2-13.9 13.9v23.8c0 7.6 6.2 13.8 13.9 13.8h91.1c7.7 0 13.9-6.2 13.9-13.8V151c0-7.7-6.2-13.9-13.9-13.9zM349.4 14.4h-91.1c-7.7 0-13.9 6.2-13.9 13.9V52c0 7.7 6.2 13.9 13.9 13.9h91.1c7.7 0 13.9-6.2 13.9-13.9V28.3c0-7.7-6.2-14-13.9-14zM176 253.5H84.9c-7.7 0-14 6.2-14 13.9V291c0 7.7 6.3 14 14 14H176c7.7 0 13.9-6.3 13.9-14v-23.7c0-7.7-6.2-13.9-13.9-13.9zM558.8 254.4h-91.2c-7.6 0-13.8 6.2-13.8 13.9V292c0 7.7 6.2 13.9 13.8 13.9h91.2c7.6 0 13.8-6.2 13.8-13.9v-23.7c0-7.7-6.2-14-13.8-14z" fill="#fff"/><path opacity=".1" d="M548.9 50.8H412.3a3 3 0 000 5.9h136.6a3 3 0 100-6zM548.9 71.2H412.3a3 3 0 000 5.9h136.6a3 3 0 100-6zM557.4 148.7H474c-1.3 0-2.3 1-2.3 2.3v1.2c0 1.3 1 2.4 2.3 2.4h83.4c1.3 0 2.3-1 2.3-2.4V151c0-1.3-1-2.3-2.3-2.3zM557.4 169H474c-1.3 0-2.3 1-2.3 2.4v1.2c0 1.3 1 2.3 2.3 2.3h83.4c1.3 0 2.3-1 2.3-2.3v-1.2c0-1.3-1-2.4-2.3-2.4zM557.4 265.6H474c-1.3 0-2.3 1-2.3 2.3v1.3c0 1.3 1 2.3 2.3 2.3h83.4c1.3 0 2.3-1 2.3-2.3v-1.3c0-1.3-1-2.3-2.3-2.3zM557.4 286H474c-1.3 0-2.3 1-2.3 2.3v1.2c0 1.3 1 2.4 2.3 2.4h83.4c1.3 0 2.3-1 2.3-2.4v-1.2c0-1.3-1-2.3-2.3-2.3zM175 264.3H91.8c-1.3 0-2.3 1-2.3 2.3v1.3c0 1.2 1 2.3 2.3 2.3h83.4c1.3 0 2.3-1 2.3-2.3v-1.3c0-1.3-1-2.3-2.3-2.3zM175 284.6H91.8c-1.3 0-2.3 1-2.3 2.4v1.2c0 1.3 1 2.4 2.3 2.4h83.4c1.3 0 2.3-1 2.3-2.4V287c0-1.3-1-2.4-2.3-2.4zM345.9 26h-83.4c-1.3 0-2.3 1-2.3 2.4v1.2c0 1.3 1 2.4 2.3 2.4H346c1.3 0 2.3-1 2.3-2.4v-1.2c0-1.3-1-2.4-2.3-2.4zM345.9 46.4h-83.4c-1.3 0-2.3 1-2.3 2.3V50c0 1.3 1 2.3 2.3 2.3H346c1.3 0 2.3-1 2.3-2.3v-1.3c0-1.3-1-2.3-2.3-2.3zM548.9 91.5H412.3a3 3 0 000 6h136.6a3 3 0 100-6z" fill="#1280FF"/><path d="M168 46.2c1.3 2.6 22.3 38.5 22.3 38.5l10-7L189.5 37 168 46.2z" fill="url(#paint12_linear)"/><path d="M125.5 90.4l33.7 25.4-7 11-40.7-12.7 14-23.7z" fill="url(#paint13_linear)"/><path d="M101.9 185l43.8-7 .4 12.7-43 14.5L102 185z" fill="url(#paint14_linear)"/><defs><linearGradient id="paint0_linear" x1="323.7" y1="303.8" x2="326.8" y2="405.9" gradientUnits="userSpaceOnUse"><stop stop-color="#fff" stop-opacity="0"/><stop offset=".9" stop-color="#fff"/></linearGradient><linearGradient id="paint1_linear" x1="326.2" y1="387" x2="329.6" y2="461.2" gradientUnits="userSpaceOnUse"><stop stop-color="#010101" stop-opacity="0"/><stop offset=".9" stop-color="#010101"/></linearGradient><linearGradient id="paint2_linear" x1="463.3" y1="290.7" x2="319.1" y2="290.7" gradientUnits="userSpaceOnUse"><stop stop-color="#E5C6D6"/><stop offset=".4" stop-color="#EAD4D0"/><stop offset="1" stop-color="#F0E9CB"/></linearGradient><linearGradient id="paint3_linear" x1="-26778.5" y1="15466.7" x2="-32166.9" y2="12504.5" gradientUnits="userSpaceOnUse"><stop stop-color="#010101" stop-opacity="0"/><stop offset=".9" stop-color="#010101"/></linearGradient><linearGradient id="paint4_linear" x1="-62005.7" y1="29690.2" x2="-63225.7" y2="21405.6" gradientUnits="userSpaceOnUse"><stop stop-color="#010101" stop-opacity="0"/><stop offset=".9" stop-color="#010101"/></linearGradient><linearGradient id="paint5_linear" x1="-54088" y1="28535.9" x2="-55273.5" y2="21142.8" gradientUnits="userSpaceOnUse"><stop stop-color="#010101" stop-opacity="0"/><stop offset=".9" stop-color="#010101"/></linearGradient><linearGradient id="paint6_linear" x1="-157154" y1="13465.9" x2="-144808" y2="24542.1" gradientUnits="userSpaceOnUse"><stop stop-color="#010101" stop-opacity="0"/><stop offset=".9" stop-color="#010101"/></linearGradient><linearGradient id="paint7_linear" x1="-43808.1" y1="4377.1" x2="-46592.9" y2="2944.8" gradientUnits="userSpaceOnUse"><stop stop-color="#010101" stop-opacity="0"/><stop offset=".9" stop-color="#010101"/></linearGradient><linearGradient id="paint8_linear" x1="-28536.4" y1="14432.9" x2="-26742.3" y2="14726" gradientUnits="userSpaceOnUse"><stop stop-color="#010101" stop-opacity="0"/><stop offset=".9" stop-color="#010101"/></linearGradient><linearGradient id="paint9_linear" x1="36162" y1="19480.3" x2="38877.9" y2="19480.3" gradientUnits="userSpaceOnUse"><stop stop-color="#E5C6D6"/><stop offset=".4" stop-color="#EAD4D0"/><stop offset="1" stop-color="#F0E9CB"/></linearGradient><linearGradient id="paint10_linear" x1="-53819.8" y1="19487.3" x2="-59908.6" y2="28642.9" gradientUnits="userSpaceOnUse"><stop stop-color="#010101" stop-opacity="0"/><stop offset=".9" stop-color="#010101"/></linearGradient><linearGradient id="paint11_linear" x1="-48692.7" y1="28969.5" x2="-58749.2" y2="29118" gradientUnits="userSpaceOnUse"><stop stop-color="#010101" stop-opacity="0"/><stop offset=".9" stop-color="#010101"/></linearGradient><linearGradient id="paint12_linear" x1="6111.4" y1="5847.6" x2="7266.5" y2="5847.6" gradientUnits="userSpaceOnUse"><stop stop-color="#fff" stop-opacity="0"/><stop offset=".9" stop-color="#fff"/></linearGradient><linearGradient id="paint13_linear" x1="5966.4" y1="4433" x2="8473" y2="4433" gradientUnits="userSpaceOnUse"><stop stop-color="#fff" stop-opacity="0"/><stop offset=".9" stop-color="#fff"/></linearGradient><linearGradient id="paint14_linear" x1="5058.6" y1="5900.6" x2="7211.1" y2="5900.6" gradientUnits="userSpaceOnUse"><stop stop-color="#fff" stop-opacity="0"/><stop offset=".9" stop-color="#fff"/></linearGradient></defs></svg>