<svg data-name="Layer 1" xmlns="http://www.w3.org/2000/svg" xmlns:xlink="http://www.w3.org/1999/xlink" viewBox="0 0 420.1 204.9"><defs><linearGradient id="a" x1="-65" y1="72.2" x2="262.9" y2="255.7" gradientUnits="userSpaceOnUse"><stop offset="0" stop-opacity="0"/><stop offset="1"/></linearGradient><linearGradient id="b" x1="217.2" y1="164.8" x2="115.3" y2="227.4" xlink:href="#a"/><linearGradient id="c" x1="425.4" y1="249.2" x2="137.4" y2="3.7" xlink:href="#a"/><linearGradient id="d" x1="295.9" y1="167.2" x2="-18.2" y2="154.5" xlink:href="#a"/><linearGradient id="e" x1="259.2" y1="105.4" x2="169" y2="201.9" xlink:href="#a"/><linearGradient id="f" x1="246.4" y1="180.3" x2="233.2" y2="118" xlink:href="#a"/><linearGradient id="g" x1="206.6" y1="128.4" x2="209.2" y2="127.5" xlink:href="#a"/><linearGradient id="h" x1="207.3" y1="138.4" x2="222.6" y2="150.9" xlink:href="#a"/></defs><path d="M24 168.2A61.9 61.9 0 0117.7 76c9.2-9.2 21-15.2 31.2-23.2C66.5 39 79.5 19.1 99 8.7c23.6-12.7 52.2-9.4 78-3s52 15.3 78.6 13c15.9-1.4 31.1-6.8 46.8-9.4s32.9-2.1 46 7c19 13.4 23.6 40.5 39.3 58 7.6 8.4 17.7 14.4 24.4 23.6a44.3 44.3 0 01-.7 51.5c-14.3 18.6-40.1 21.5-61 31.7-11.6 5.7-22 13.9-34 18.6-25.2 10-53.6 3.5-79.4-4.5s-52.5-17.8-79.3-13.9c-25 3.7-47.5 19.2-72.7 21.5-11.7 1.1-25-1-32.2-11-7.7-11-18.4-15.6-28.9-23.6z" fill="#1280ff" opacity=".2" style="isolation:isolate"/><path d="M30.8 111c6.8-7.6 6.8-7.6 14.5-16.7L78.1 56a143 143 0 0014-18h31a217 217 0 00-1.2 25v49.1h4.4a105.9 105.9 0 0015-1.2v27.5a120.6 120.6 0 00-14.9-.9H122v7.5a105.5 105.5 0 001.2 18.6H92a131 131 0 001.2-18.8v-7.5H50.5c-9.9 0-14 .2-19.7.6zm62.5-16c0-6.9.3-15.2 1-21.8-3 4.2-5.4 7.2-9.4 12.3l-22 27h30.4z" fill="#1280ff"/><path d="M31 174.7C38 167 38 167 45.7 158l32.8-38.4a143 143 0 0014-18h31a217 217 0 00-1.3 25V176h4.4a105.9 105.9 0 0015-1.2v27.5a120.6 120.6 0 00-14.8-1h-4.5v7.6a105.5 105.5 0 001.2 18.6H92.2a131 131 0 001.2-18.9v-7.4H50.7c-9.8 0-14 .2-19.6.6zm62.6-16c0-6.8.3-15.1 1-21.8-3 4.3-5.4 7.3-9.5 12.4l-22 26.9h30.5z" transform="translate(-.3 -63.8)" fill="url(#a)"/><path d="M198.9 73c3 .5 5.7 2.4 8.8 3 2.6.6 5.4.3 8 1.3 4.8 1.7 8 7.5 8.7 13.4s-.6 11.8-2 17.5c-3.7 15-8.7 30-17.7 41.4-.6.8-1.4 1.6-2.3 1.6a3.2 3.2 0 01-1.7-.8 28.9 28.9 0 01-5.2-4.5 31.1 31.1 0 01-5-10.5c-3.4-10.6-9.9-17.4-11.1-28.6-1.3-11.9 5.1-36.1 19.5-33.8z" fill="#1280ff"/><path d="M189.4 144.4a5.4 5.4 0 00-3.7.7 10 10 0 00-4.6 6.5 25.3 25.3 0 00-.2 8.2 110.8 110.8 0 004.6 23.6c.7 2.2-1.3 7.5.1 9.3 1.2 1.5.6 10.4 2.2 11.5 4.2 3 13.1 1.3 17.4 4.4 5.5 4 5.1-6.5 4.3-10.9-1-4.8-8.6-4-14.3-20.4-7.6-21.8-3.8-32.5-5.8-32.9z" transform="translate(-.3 -63.8)" fill="url(#b)"/><path d="M264 110.4c6.8-7.6 6.8-7.6 14.5-16.7l32.7-38.3a150.7 150.7 0 0014-18h31a217 217 0 00-1.2 25v49.1h4.4a107.4 107.4 0 0015-1.2v27.5a118.7 118.7 0 00-14.8-.9H355v7.5a105.3 105.3 0 001.2 18.6h-31a131 131 0 001.1-18.8v-7.4h-42.7c-9.8 0-14 .2-19.6.6zm62.5-16c0-6.8.3-15.1.9-21.8-3 4.2-5.3 7.3-9.4 12.4l-22 26.9h30.5z" fill="#1280ff"/><path d="M264.2 174.1c6.8-7.5 6.8-7.5 14.5-16.6l32.8-38.3a150.7 150.7 0 0014-18h31a217 217 0 00-1.2 25v49.1h4.4a107.4 107.4 0 0015-1.2v27.5a118.7 118.7 0 00-14.9-1h-4.5v7.6a105.3 105.3 0 001.2 18.6h-31.1a131 131 0 001.2-18.8v-7.4h-42.7c-9.8 0-14 .1-19.7.6zm62.6-16c0-6.8.2-15 .8-21.7-3 4.2-5.2 7.2-9.3 12.4l-22 26.8h30.5z" transform="translate(-.3 -63.8)" fill="url(#c)"/><path d="M166.3 151.2a47.6 47.6 0 01-11-16.8 100.3 100.3 0 01-6-34.6c0-15.8 3.8-32.3 9.6-41.8a49.1 49.1 0 0144-23.9c14.6 0 27.4 5 36.6 14a47.6 47.6 0 0111 16.8 100.6 100.6 0 015.9 34.7 89 89 0 01-9.5 42c-9 15.2-25 23.6-44.1 23.6a50.2 50.2 0 01-36.5-14zm14-52.6c0 27 7.7 41 22.6 41s22.4-13.7 22.4-40.5c0-25.9-7.9-39.4-22.5-39.4-14.2 0-22.5 14.3-22.5 39z" fill="#1280ff"/><path d="M166.5 215a47.6 47.6 0 01-11-16.8 100.3 100.3 0 01-5.9-34.6c0-15.9 3.8-32.3 9.6-41.8A49.1 49.1 0 01203 97.9c14.7 0 27.5 5 36.7 14a47.6 47.6 0 0111 16.8 100.6 100.6 0 015.9 34.7 89 89 0 01-9.5 42c-9.1 15.1-25 23.6-44.1 23.6a50.2 50.2 0 01-36.6-14zm14-52.6c0 27 7.7 41 22.7 41s22.3-13.7 22.3-40.6c0-25.8-7.8-39.4-22.5-39.4-14.1 0-22.4 14.4-22.4 39z" transform="translate(-.3 -63.8)" fill="url(#d)"/><path d="M34.2 110.4c6.8-7.6 6.8-7.6 14.5-16.7l32.8-38.3a150.7 150.7 0 0014-18h31a217 217 0 00-1.2 25v49.1h4.3a107.4 107.4 0 0015-1.2v27.5a118.7 118.7 0 00-14.7-.9h-4.6v7.5a105.3 105.3 0 001.2 18.6H95.4a131 131 0 001.2-18.8v-7.4H53.8c-9.8 0-14 .2-19.6.6zm62.5-16c0-6.8.3-15.1 1-21.8-3 4.2-5.4 7.3-9.4 12.4l-22 26.9h30.4zM169.6 151.7a47.6 47.6 0 01-11-16.7 100.3 100.3 0 01-5.9-34.6c0-15.9 3.8-32.3 9.6-41.8a49.1 49.1 0 0143.9-23.9c14.6 0 27.5 5 36.7 14a47.5 47.5 0 0111 16.8 100.3 100.3 0 015.9 34.7 89 89 0 01-9.5 42c-9 15.1-25 23.6-44.1 23.6a50.2 50.2 0 01-36.6-14zm14.1-52.5c0 27 7.7 41 22.7 41 14.8 0 22.3-13.6 22.3-40.5 0-25.8-7.8-39.4-22.5-39.4-14.2 0-22.5 14.3-22.5 39z" fill="#1280ff"/><path d="M231.1 110.5a7 7 0 012.7 7.3 14.3 14.3 0 019.7 5.2 18.8 18.8 0 013.8 9.8 51.3 51.3 0 01-.2 10.5 11 11 0 01-.8 3.6 7.5 7.5 0 01-5.1 3.8 22 22 0 01-6.6.3l-5.2-.2a1 1 0 01-.5-.1 1 1 0 01-.4-.8c-.4-2.1-1-3-1.3-5.2a33.5 33.5 0 00-5.6-12.6 4.7 4.7 0 01-1-2 5.3 5.3 0 01.6-2.8 39.4 39.4 0 001.8-5.3 55.8 55.8 0 011.6-6.4 9.4 9.4 0 014-5" transform="translate(-.3 -63.8)" fill="url(#e)"/><path d="M228.7 173.3s19.2 1.7 28-10c3.4-4.7-4.4-26.5-4.4-26.5l-8.8 15.8-14 3.2z" transform="translate(-.3 -63.8)" fill="url(#f)"/><path d="M267.7 110.4c6.7-7.6 6.7-7.6 14.4-16.7L315 55.4c7.3-8.3 10.1-12 14-18h31a217 217 0 00-1.2 25v49.2h4.4a107.4 107.4 0 0015-1.2v27.4a118.7 118.7 0 00-14.8-.9h-4.6v7.6A105.3 105.3 0 00360 163h-31.1a131 131 0 001.2-18.9v-7.4h-42.7c-9.8 0-14 .2-19.6.6zm62.5-16c0-6.8.3-15.1.9-21.8-3 4.2-5.3 7.3-9.4 12.4l-22 26.9h30.5z" fill="#1280ff"/><path d="M183.3 75.3a10.2 10.2 0 00-1.5.7 3.5 3.5 0 00-1.2 1 1.5 1.5 0 00-.2 1.4 1.9 1.9 0 002 .8c1.2-.2 2.3-.8 3.6-1s2.3-1 1.5-2.3-3-1-4.2-.6z" fill="#f7af87"/><path d="M187.2 78.2c-1.8-.4-3.7.3-5.3 1.3a3.1 3.1 0 00-1 .7 1 1 0 00.7 1.8 3.4 3.4 0 001 0l2.6-.5a5.3 5.3 0 001.6-.5c1.2-.6 2.1-2.3.4-2.8z" fill="#f7af87"/><path d="M183.7 81.5a11.4 11.4 0 00-1.5.7 3.5 3.5 0 00-1.1 1 1.5 1.5 0 00-.2 1.5 1.9 1.9 0 001.9.8c1.2-.2 2.4-.8 3.6-1s2.4-1 1.5-2.3-3-1.1-4.2-.7z" fill="#f7af87"/><path d="M187.6 84c-1.8 0-3.6 1-5 2.2a3.3 3.3 0 00-.9 1 1 1 0 001 1.6 3.3 3.3 0 001.1-.3l2.4-.9a5.3 5.3 0 001.5-.7c1-.8 1.7-2.7 0-2.8zM240.6 55.8a20.2 20.2 0 00-9.3-2 3.9 3.9 0 00-1.6.3 1.4 1.4 0 00-.9 1.3 2 2 0 00.8 1.2 17 17 0 004 2.7 3.5 3.5 0 011 .7 1 1 0 01.2 1.3c-.3.5-1 .5-1.3 1-.3.6.5 1.3 1.2 1.4a4.4 4.4 0 002.3-.2 4.3 4.3 0 011.6-.5 4 4 0 011.6.7c1.6 1 6.5 1 6.2-1.8-.3-2.5-3.8-5-5.8-6z" fill="#f7af87"/><path d="M216.4 77.9s22.2 9 24.7 8.6-1.6-22.3-1.6-22.3l7.6-3.4s17 33.7 3 38.6a40.5 40.5 0 01-26.4-.3z" fill="#1280ff"/><path d="M228.2 65.2a15 15 0 01-1.4 5.7 10 10 0 01-7.5 4.8 22.4 22.4 0 00-3.3.4 3.1 3.1 0 00-2.3 2c-1 2.1-1.8 4.3-4.7 3.6a3.6 3.6 0 01-.8-.3 7.7 7.7 0 01-2.4-1.8 14.4 14.4 0 01-2.2-2.8 4.2 4.2 0 01-.6-1.6 5.2 5.2 0 01.3-2c1-4 1.1-8.6 2.5-12.5a18.2 18.2 0 017.9-9.4c3.6-2 8.6-2.1 11.6.7a10.5 10.5 0 013 6.2 29.1 29.1 0 010 7z" fill="#f7af87"/><path d="M203.9 60.2c.2-1.9.2-3.8.5-5.6a8 8 0 012.7-4.9 4.4 4.4 0 011.2-.7l1.2-.3a15.8 15.8 0 003.3-1.7 16.5 16.5 0 015.2-2 22.7 22.7 0 013.7-.2h6.8a3.4 3.4 0 011.6.2 2.5 2.5 0 011 1.5 7 7 0 010 4.2 20.2 20.2 0 01-1.7 4 6.8 6.8 0 01-1.4 2c-.6-.9-1-1.9-1.5-2.8-1.6 1.6-4 2-6.2 1.8s-4.3-.7-6.5-.8a4 4 0 00-3 1 4.6 4.6 0 00-1 2 49.6 49.6 0 00-1 5c-.4-.6-1.4-1.9-2-1.8a1.2 1.2 0 00-.8.4c-.9 1-.4 4.7.4 5.7a1.4 1.4 0 01.4.6 1.1 1.1 0 01-.3.9 2.2 2.2 0 01-1.9.7c-.8 0-1-1.6-1-2.3-.5-2.3 0-4.6.3-6.9z" fill="#606060"/><path d="M207.7 128.2a1.7 1.7 0 01-.2-.8 2.4 2.4 0 000-.9 1 1 0 00-.6-.5.4.4 0 00-.2 0 .4.4 0 00-.2.2 5 5 0 000 3.4 1.3 1.3 0 00.9.8 1 1 0 00.9-.2 1.2 1.2 0 00.2-1.3c-.2-.4-.6-.3-.8-.7z" transform="translate(-.3 -63.8)" fill="url(#g)"/><path d="M216.2 139.9a3.1 3.1 0 00-2.3 1.9c-.9 2.1-1.8 4.3-4.6 3.6a3.6 3.6 0 01-.8-.3 2.3 2.3 0 01-.6-.7 2.7 2.7 0 010-2.1 4.7 4.7 0 014.3-3 13.4 13.4 0 012.3.4h1.4a.9.9 0 01.3.2z" transform="translate(-.3 -63.8)" fill="url(#h)"/></svg>