<svg width="333" height="325" fill="none" xmlns="http://www.w3.org/2000/svg"><path opacity=".4" d="M91.3 9.8c50.8 20.1 80.3 72 118.8 110.9 22 22.3 47.6 40.8 70.3 62.5 22.7 21.7 42.8 47.7 49.6 78.4 13.2 58-23.4 114.8-33 173.5-3 18.8-3.3 38.1-9.4 56.1a123 123 0 01-22.7 38.7 196.2 196.2 0 01-161.5 69.7c-40.1-2.7-78.6-17.8-118.8-19.4-60.6-2.6-121.7 25.6-180.5 10.7-27-7-51-22.5-74.1-38.3-45.8-31.4-93.4-69.9-104-124.3-7.8-40 6-82.2-3.6-121.8-5.6-23-18.9-43.4-25.8-66-14.9-48 1-102.4 34.7-139.5 33.8-37 83.4-57.6 133.3-62 32.8-2.8 65.7.8 98.6.2C-56.6 37.7 8-23.2 91.3 9.8z" fill="#BAE5FF"/></svg>