<svg width="20" height="20" fill="none" xmlns="http://www.w3.org/2000/svg"><path d="M17.1 3A10 10 0 001.4 15l-1.4 5 5.3-1.4A10 10 0 0020 9.8c0-2.6-1-5-2.9-6.9zm-7 15.2c-1.5 0-3-.4-4.2-1.2l-.3-.1-3.2.8.8-3.1-.2-.3a8.3 8.3 0 0114-8.6c2.5 3.8 1.3 8.8-2.6 11.2a8 8 0 01-4.3 1.3zm4.8-6l-.6-.3-1.4-.7h-.2l-.4.1-.8 1h-.3-.2l-.3-.1c-.6-.3-1.2-.6-1.6-1l-.4-.4a6 6 0 01-1-1.3l-.2-.3v-.3l.5-.4.2-.4c.1-.2.2-.4.1-.5 0-.3-.7-1.8-.8-2a.6.6 0 00-.4-.4h-.2-.4l-.3.1H6l-.3.3-.3.3a2.7 2.7 0 00-.3 3 9 9 0 002 2.8l.3.2.4.5c1.1 1 2.5 1.7 4 2l.5.1h.5c.3 0 .6 0 .8-.2.2 0 .3 0 .4-.2l.1-.1.4-.3.2-.3.2-.8v-.3l-.1-.1z" fill="#fff"/></svg>