<svg width="27" height="16" fill="none" xmlns="http://www.w3.org/2000/svg"><path fill-rule="evenodd" clip-rule="evenodd" d="M13.1 15.6h1.6s.4 0 .7-.3c.2-.3.2-.7.2-.7s0-2.1 1-2.4c.9-.3 2.1 2 3.4 2.9 1 .7 1.8.5 1.8.5h3.4s1.9-.1 1-1.6c0 0-.5-1-2.6-3-2.2-2-1.9-1.7.7-5.2 1.6-2.1 2.3-3.4 2-4-.1-.5-1.3-.4-1.3-.4h-3.9l-.5.1-.4.5s-.6 1.6-1.4 3C17 8 16.4 8.1 16 8c-.7-.5-.5-1.8-.5-2.7 0-2.9.4-4-.9-4.4L13 .8c-1.4 0-2.6 0-3.3.3-.4.2-.8.7-.5.7.2 0 .8.2 1.1.6.4.6.4 1.8.4 1.8s.2 3.4-.5 3.8c-.6.3-1.3-.3-2.8-3-.8-1.4-1.4-3-1.4-3l-.4-.3-.6-.3H1.2s-.6 0-.8.3v.7s3 6.8 6.2 10.2c3 3.2 6.5 3 6.5 3z" fill="#fff"/></svg>