<svg width="360" height="352" fill="none" xmlns="http://www.w3.org/2000/svg"><path opacity=".4" d="M22.8 6.5c-34.3 13.5-54.1 48-80 74-15 14.8-32.2 27.2-47.5 41.6-15.2 14.5-28.8 31.9-33.4 52.3C-147 213-122.3 250.9-116 290c2 12.5 2.3 25.4 6.4 37.4 3.2 9.5 8.8 18 15.3 25.7 26.1 31.4 68 49.2 108.9 46.5 27-1.7 53-11.8 80-13 40.8-1.6 82 17.2 121.6 7.2 18.3-4.6 34.5-15 50-25.5 30.9-20.9 63-46.6 70.1-82.9 5.3-26.7-4-54.8 2.4-81.2 3.8-15.3 12.7-28.9 17.4-44 10-32-.6-68.3-23.4-93C310 42.6 276.6 29 243 26.1c-22-2-44.3.5-66.4 0-54.1-1-97.7-41.6-153.8-19.6z" fill="#BAE5FF"/></svg>