<svg width="230" height="181" fill="none" xmlns="http://www.w3.org/2000/svg"><path opacity=".4" d="M26.3 49.7c-7 14.8-17.6 28-23.1 43.3-5.6 15.3-4.5 35 8.7 44.8 14 10.4 34.5 5.5 50.8 12.2 12.6 5.2 21.3 16.9 33.3 23.3 6 3.3 12.6 5 19.3 6.2 35 6 71.5-6.6 99.7-27.8a43 43 0 0010.9-10.7c7-11 4-25.5-1.3-37.4-5.3-12-12.6-23.4-14-36.3-1.2-12.2 2.9-26-4.4-36-8-11.1-25.2-10.6-38.7-7-13.5 3.8-27.8 9.4-41 4.5C106.6 21.4 91.9.3 67.9 1c-25.2.7-33.1 30.7-41.5 48.7z" fill="#BAE5FF"/><path d="M117.4 54.7a7 7 0 01-1 4 12.4 12.4 0 01-7.6 5.4c-4.5 1.2-9.2.6-13.8 1.2A27 27 0 0083 70c-3.8 2.7-7.8 6.7-12.4 5.4-3.8-1-5.6-6.5-3.2-9.7-6-.7-12.2.1-17.8 2.4-2.3 1-4.5 2-7 2.2-2.4.2-5.1-1-5.8-3.3-.7-2.7 1.5-5.3 4-6.5a29 29 0 013.9-1.5c1.3-.4 2.5-.9 3.7-1.5a7 7 0 001.5-1.4c1.5-1.6 2.2-3.8 1-5.6a5.2 5.2 0 00-2.5-1.9c-3.1-1.3-6.7-.7-10-1.5-3.3-1-6.4-4.7-4.5-7.5 1.7-2.5 5.1-2.4 9-1.8 4.2.6 8.8 2 12.2 1.2a5 5 0 004.1-3.8c1.2-4.1-5.9-10 .2-13.2 4-2 8.3 3.4 12.5 1.7 2.9-1.3 3.3-5.2 3.4-8.4.2-3.2 1.1-7.1 4.2-7.8 2.3-.4 4.6 1.4 5.4 3.6.3.7.4 1.5.5 2.2.1 1.6 0 3.2-.1 4.8-.2 1.2-.3 2.4.2 3.4.9 1.7 2.7 2 4.6 1.7a9.1 9.1 0 004.3-2.4c2.4-2.5 4.9-5.9 8.3-5.5 2.4.2 3.9 2 4.5 4.4.5 2 .6 4 0 6-1 4.2-3.4 8.4-2.3 12.5 1.9 6.8 12 9.4 12.5 16.5z" fill="#FA3D38"/><path d="M117.4 54.7a7 7 0 01-1 4l-2.7.8c-4.5 1-9.2.5-13.8 1-4.2.4-8.3 1.7-12 3.8-3.8 2.2-7.8 5.4-12.4 4.4-3.8-.9-5.6-5.3-3.2-7.9a44 44 0 00-17.9 2c-2.2.7-4.4 1.6-6.9 1.8-2.4 0-5 1.1-5.7-.8-.7-1.8.9-3.6 2.8-4.7l1.1-.6c1.5-.6 2.9-1.5 4.2-2.4l3.4-2c2.3-1.2 4-3.8 2.6-5.7a5.1 5.1 0 00-2.5-1.6c-3.2-1-6.8-.5-10.1-1.2s-6.4-3.8-4.5-6.1c.9-1 2.3-1.6 4-1.7 4.3.7 9 2 12.3 1.3 4.2.4 7.9.1 9-3.1 1.2-3.3-5.9-8.2.2-10.7 4-1.7 8.3 2.7 12.5 1.3 3-1 3.3-4.2 3.5-6.8 0-2.6 1-5.9 4.1-6.4h1c.1 1.6 0 3.1-.1 4.7-.2 1.2-.3 2.4.2 3.4.9 1.7 2.7 2 4.6 1.7 0 .5 0 1.1.4 1.6 1.5 2.5 6.3 1.4 8.8-.6 2.3-2 4.7-4.6 7.9-4.5.5 2 .6 4 0 6-1 4.2-3.4 8.4-2.3 12.5 1.9 6.8 12 9.4 12.5 16.5z" fill="url(#paint0_linear)"/><path d="M61 14.6c-1-.8-2-2-1.7-3.2a2.2 2.2 0 013.1-1.7c1.2.5 1.7 2 1.7 3.2 0 .7 0 2.7-.7 3-.7.4-2-.9-2.5-1.3zM35 51c-.4.1-.8.5-1 1-.7 1.4-.6 3.4.7 4.3 2 1.5 5.7 1.1 6-1.8.3-2.4-3.6-4.2-5.7-3.6zM52.6 11.8c0-.7-.7-1.2-1.2-1.6-1-.6-2.2-1.3-3.1-.6-.7.5-.7 1.4-.4 2.1.3.7.8 1.3 1.5 1.8.4.5 1 .8 1.5 1 .6.2 1.4 0 1.6-.6.3-.5.2-1.4.8-1.5M36.3 28a1.4 1.4 0 00-2.4.6c-.2.7.1 1.4.5 2 .3.3.7.6 1.2.7.8.1 1.5-.6 1.7-1.4.1-.5 0-1-.1-1.3A1.1 1.1 0 0036 28M52.3 18.5a1 1 0 00-1.6.3 1.4 1.4 0 00.3 1.3c.2.3.5.5.8.5.6.1 1-.4 1.2-1l-.1-.8a.8.8 0 00-.8-.4" fill="#FA3D38"/><path opacity=".2" d="M85.8 135.5c11.8-.8 25.4 0 32.6 9.4 2.8 3.6 4.3 8.1 7.5 11.5 6.2 6.5 16.4 6.3 25.4 5.7 9.4-.6 19.7-1.6 26.3-8.4 8.7-9 7.7-25.2 18-32.3 4.1-2.9 9.3-3.7 14-5.7 4.5-2 8.9-6.5 8-11.5-1.1-5.4-7.6-7.6-13-8.7a326.5 326.5 0 00-118.8-1.6 59.3 59.3 0 00-28.7 10.8c-6.4 5.4-13.9 19-6.6 26.3 7.5 7.5 26 5 35.3 4.5z" fill="#1280FF"/><path d="M77.1 82.1c67.4-16 101 17 104 40.9 2.7 19.9-6.8 47.6-42.1 38.7-26.7-6.6-3.9-26.9-27-31.6-17.3-3.6-51.8.5-66.2-7.8-1.6-.9-36-24.2 31.3-40.2z" fill="#1280FF"/><path d="M77.1 82.1c67.4-16 101 17 104 40.9 2.7 19.9-6.8 47.6-42.1 38.7-26.7-6.6-3.9-26.9-27-31.6-17.5-3.7-52.8.6-66.8-8.2-1.3-.8-35.4-23.8 32-39.8z" fill="url(#paint1_linear)"/><path d="M41.9 113.3S9.8 92.3 77 76.2c67.4-16 101 17 104 40.9 2.7 19.9-6.8 47.6-42.1 38.7-26.7-6.6-3.9-26.9-27-31.6-19.1-4-59.4 1.5-70.1-11z" fill="#1280FF"/><path d="M78.2 91.7c0 .7-.1 1.5-.5 2.1-1.5 2.6-5.9 4.8-11.2 5-5.5.4-10.3-1.3-11.9-4-.3-.5-.5-1-.5-1.7-.2-3.5 5-6.7 11.7-7.1 6.6-.4 12.2 2.1 12.4 5.7z" fill="url(#paint2_linear)"/><path d="M115.4 83.3c0 .7-.2 1.5-.6 2.1-1.4 2.6-5.8 4.7-11.1 5-5.6.4-10.4-1.3-12-4-.3-.5-.4-1-.5-1.7-.2-3.5 5-6.8 11.7-7.2 6.7-.4 12.3 2.2 12.5 5.8z" fill="url(#paint3_linear)"/><path d="M106.4 100.1c0 .8-.2 1.5-.6 2.1-1.4 2.7-5.8 4.8-11.1 5-5.6.4-10.4-1.3-12-4-.3-.5-.5-1-.5-1.6-.2-3.6 5-6.8 11.7-7.2 6.7-.4 12.3 2.1 12.5 5.7z" fill="url(#paint4_linear)"/><path d="M147 92.4c0 .7-.2 1.5-.6 2.1-1.5 2.6-5.9 4.8-11.2 5-5.5.4-10.4-1.3-12-4l-.5-1.6c-.2-3.6 5-6.8 11.7-7.2 6.7-.4 12.3 2.1 12.5 5.7z" fill="url(#paint5_linear)"/><path d="M171.8 108.2c0 .7-.1 1.5-.5 2.1-1.5 2.7-5.9 4.8-11.2 5-5.6.4-10.4-1.3-12-4-.2-.5-.4-1-.4-1.6-.3-3.6 5-6.8 11.6-7.2 6.7-.4 12.3 2.1 12.5 5.7z" fill="url(#paint6_linear)"/><path d="M160.7 129c0 .8 0 1.5-.5 2.2-1.4 2.6-5.8 4.7-11.1 5-5.6.4-10.4-1.4-12-4-.3-.5-.5-1-.5-1.7-.2-3.6 5-6.8 11.7-7.2 6.6-.4 12.2 2.2 12.4 5.8z" fill="url(#paint7_linear)"/><path d="M137.9 109.2c0 .8-.1 1.5-.5 2.2-1.5 2.6-5.9 4.7-11.2 5-5.6.4-10.4-1.4-12-4l-.5-1.7c-.2-3.6 5-6.8 11.7-7.2 6.7-.4 12.3 2.2 12.5 5.7z" fill="url(#paint8_linear)"/><path d="M77.7 93.8c-1.5 2.6-5.9 4.8-11.2 5-5.5.4-10.3-1.3-11.9-4 1.5-2.6 5.9-4.7 11.2-5 5.5-.4 10.3 1.4 11.9 4zM114.8 85.4c-1.4 2.6-5.8 4.7-11.1 5-5.6.4-10.4-1.4-12-4 1.5-2.6 5.9-4.8 11.2-5 5.6-.4 10.4 1.3 12 4zM105.8 102.2c-1.4 2.7-5.8 4.8-11.1 5-5.6.4-10.4-1.3-12-4 1.5-2.6 5.9-4.7 11.2-5 5.6-.3 10.4 1.4 12 4zM146.4 94.5c-1.5 2.6-5.9 4.8-11.2 5-5.5.4-10.4-1.3-12-4 1.5-2.6 6-4.7 11.2-5 5.6-.4 10.4 1.4 12 4zM171.3 110.3c-1.5 2.6-5.9 4.8-11.2 5-5.6.4-10.4-1.3-12-4 1.5-2.6 6-4.7 11.2-5 5.6-.4 10.4 1.4 12 4zM160.2 131.2c-1.4 2.6-5.8 4.7-11.1 5-5.6.4-10.5-1.4-12-4 1.5-2.7 5.8-4.8 11.2-5 5.5-.4 10.4 1.3 12 4zM137.4 111.4c-1.5 2.6-5.9 4.7-11.2 5-5.6.4-10.4-1.4-12-4 1.5-2.7 6-4.8 11.2-5 5.6-.4 10.4 1.3 12 4z" fill="#fff"/><path d="M77.7 93.8c-1.5 2.6-5.9 4.8-11.2 5-5.5.4-10.3-1.3-11.9-4 1.5-2.6 5.9-4.7 11.2-5 5.5-.4 10.3 1.4 11.9 4z" fill="url(#paint9_linear)"/><path d="M114.8 85.4c-1.4 2.6-5.8 4.7-11.1 5-5.6.4-10.4-1.4-12-4 1.5-2.6 5.9-4.8 11.2-5 5.6-.4 10.4 1.3 12 4z" fill="url(#paint10_linear)"/><path d="M105.8 102.2c-1.4 2.7-5.8 4.8-11.1 5-5.6.4-10.4-1.3-12-4 1.5-2.6 5.9-4.7 11.2-5 5.6-.3 10.4 1.4 12 4z" fill="url(#paint11_linear)"/><path d="M146.4 94.5c-1.5 2.6-5.9 4.8-11.2 5-5.5.4-10.4-1.3-12-4 1.5-2.6 6-4.7 11.2-5 5.6-.4 10.4 1.4 12 4z" fill="url(#paint12_linear)"/><path d="M171.3 110.3c-1.5 2.6-5.9 4.8-11.2 5-5.6.4-10.4-1.3-12-4 1.5-2.6 6-4.7 11.2-5 5.6-.4 10.4 1.4 12 4z" fill="url(#paint13_linear)"/><path d="M160.2 131.2c-1.4 2.6-5.8 4.7-11.1 5-5.6.4-10.5-1.4-12-4 1.5-2.7 5.8-4.8 11.2-5 5.5-.4 10.4 1.3 12 4z" fill="url(#paint14_linear)"/><path d="M137.4 111.4c-1.5 2.6-5.9 4.7-11.2 5-5.6.4-10.4-1.4-12-4 1.5-2.7 6-4.8 11.2-5 5.6-.4 10.4 1.3 12 4z" fill="url(#paint15_linear)"/><path d="M184.4 51s-2-1.4-2.4-2c-.3-.4 1-2 .6-2.3-.4-.3-1.8-1-1.7-1.7.2-.7 2.5.8 3.5 1.6s2 2.8 2 2.8-.3 2-2 1.6z" fill="#C58067"/><path d="M169.6 58.8l43.6-32.2 15.3-11.5s.8-2.4-1.5-2.2c-2.2.2-76 49.6-76 49.6l-5.4 4.6 5.6 6.4 18.4-14.7z" fill="#1280FF"/><path d="M169.6 58.8l43.6-32.2 15.3-11.5s.8-2.4-1.5-2.2c-2.2.2-76 49.6-76 49.6l-5.4 4.6 5.6 6.4 18.4-14.7z" fill="url(#paint16_linear)"/><path d="M205.4 42s4-1.2 4.3-.8c.4.4-3 25.3-3.3 26.3-.1 1-6 .7-8.5 0-1.6-.5-3.3-1.1-4.8-2 0 0 2.9-22.6 3.4-23 .5-.3 4.4-.7 4.4-.7l4.5.2z" fill="#1280FF"/><path d="M197 42.3c-.6.2-1.1.6-1.6 1-.5.8-4.7 9.3-4.2 11 .5 1.8 2.4 3.1 2.9 2.8.5-.4 1.5-3.6 1.7-4.4l.5-3 .7-7.4z" fill="#1280FF"/><path d="M191 102.3s-.7 2.8-1 3c-.4.2-1.6-.4-2.3-1-.7-.5-.5-1.6-.5-1.6l.3-.8 3.6.4zM210 100.9s1.3 3.9 1.2 4.2c-.2.4-1.8-.1-2.7 0-1 0-1.2-1.4-1.2-1.4l-.3-.8 3-2zM205.7 39.9s-.5 2.3-.3 3.2c.1.9-1.3 3.3-3 3.3-1.8 0-1.8-3-1.8-3.3 0-.4.5-.6.3-1.5s4.6-2.8 4.8-1.7z" fill="#C58067"/><path d="M201 41.7a1.4 1.4 0 01-.4 1.1c.4.4 1 .7 1.5.7 1 0 2.7-.9 3.4-2.5l.2-1.1c-.2-1-5 .9-4.8 1.8z" fill="#B6765E"/><path d="M205.3 42.7s-1.4 3.4-2.6 3.7c0 0-.4.2.5.8 1 .5 3.4-2.2 3-4.1a1.5 1.5 0 00-.8-1.2v.8zM201 42s-.5 2.5.5 4.2c0 0-.4.6-.7.6-.4 0-1.3-2.1-1-3.7.3-1 1-1.3 1.1-1z" fill="#fff"/><path d="M206.4 67.5l-2 15.4 6.1 20s-1 .6-3.4.4L199 83.6V71.1L196 81.9l-5 21s-2.7.6-4.2-.5l3.4-20.5 2.8-16.3 13.3 2z" fill="#606161"/><path d="M199.9 34.7s-.4 4.6 0 5.9c.3 1.2 1.4 2.3 2.4 2.3 1.1 0 2.7-.9 3.4-2.5.7-1.6 1.1-5.5 1-6-.3-.5-1.3-2.2-4.2-2-2 .2-2.6 1.6-2.6 2.3z" fill="#C58067"/><path d="M206.4 37a.7.7 0 01-1 .1 1.3 1.3 0 01-.3-1.1l.2-1.2v-.1-.1a.3.3 0 00-.3-.1c-.6 0-1.2.2-1.6-.2-.2-.2-.2-.6-.6-.7l-.7.2a2.5 2.5 0 01-2 .1l-.1-.1v-.3a2.2 2.2 0 011-1.6c.4-.3.9-.4 1.4-.5a15 15 0 011.8-.2l1 .1.7.7c.4.3.8.5 1.1 1 .2.3.7.2.9 1l.3 2c.2.8-.1 1.5-.3 2.1-.3 1.4-.3 1.4-.8 2l-1 .6h-.4c-.2 0-.2-.2 0-.3" fill="#606161"/><path d="M205.8 37.7s.2-1 .9-.7c.7.4-.2 2.3-.5 2.5a1 1 0 01-.6.1" fill="#C58067"/><path d="M194.5 55.6l-8.6-7.2s-2 .2-2 2.6c0 0 3.9 5 8 7.4 1.7 1 3-2.4 2.6-2.8z" fill="#1280FF"/><path d="M194 57l1.7-10.2-2 11 .4-.8z" fill="url(#paint17_linear)"/><path d="M183.7 104a3 3 0 00-1.2.7 1 1 0 00-.2 1.2 1.4 1.4 0 001.1.4 36 36 0 006.5-.2l.5-.4.3-2c-.6 0-1.6.3-2.3.2-.8-.2-1.1-1-2-.8-.8.1-1.8.6-2.7 1zM204.5 104.7a3 3 0 00-1.2.6 1 1 0 00-.2 1.2 1.4 1.4 0 001 .5 36 36 0 006.6-.2l.8-.6c.1-.7-.4-1.7-.5-2.1-.6 0-1.2.5-1.8.4-.8-.1-1.2-1-2-.8-.9.2-1.8.7-2.7 1z" fill="#1280FF"/><path d="M213.2 29c.2-.8.2-1.6 0-2.4-.3-.8-.7-1.5-1.2-2.2-.6-.2-1.2-.2-1.7 0-.8.3.3 1.7.2 2.4-.1.6-.8-1.2-1.1-1-.4.1.5 2.6 1.3 3" fill="#C58067"/><path d="M205.7 50.4s2.6-.7 3.5-2.3c.9-1.7 5.5-9.2 5.3-11-.1-2-1.1-8.6-1.1-8.6s-.1-.6-1.4-.4c-1.3.2-1.5.9-1.5.9l-.1 7.8-4 7.2s-1.5 5-.7 6.4zM148.9 64c-1.2.1-1.8 1.3-2.8 2-.6.5-1.5.7-2.2 1-.7.4-1.4 1.2-1.2 2 .1.3.3.7.6 1l4.2 5.1c.2.4.6.7 1 .6l.3-.2 4.8-3.9c.5-.4 1-.9 1-1.5-.1-.3-.3-.7-.6-1-1.2-1.4-2.9-5-5.1-5z" fill="#1280FF"/><path d="M148.9 64c-1.2.1-1.8 1.3-2.8 2-.6.5-1.5.7-2.2 1-.7.4-1.4 1.2-1.2 2 .1.3.3.7.6 1l4.2 5.1c.2.4.6.7 1 .6l.3-.2 4.8-3.9c.5-.4 1-.9 1-1.5-.1-.3-.3-.7-.6-1-1.2-1.4-2.9-5-5.1-5z" fill="url(#paint18_linear)"/><path d="M139.2 70.7c-1.1 1.2-1.9 2.8-2.7 4.2-.9 1.5-2 3-3.3 4a6.2 6.2 0 01-4.8 1.3l.9 1.6c4.2.4 8.6 0 12.7-1 1.8-.6 3.7-1.3 5-2.6 1.3-1.3 2-3.5 1.2-5.1-.8-1.7-2.8-2.6-4-4-.8-.8-1-1-2.2-.5a7 7 0 00-2.8 2z" fill="#fff"/><path d="M135.7 77.5v-.2l-.2-.2c-.2-.1-.4 0-.6.2-1 1-2.6 1-4 1.2-1.5.1-3 .5-3.7 1.8-.4.7-.4 1.5-.4 2.2 0 1.3 0 2.5.5 3.7.2.3.5.8.9.6a.8.8 0 00.3-.5c.2-.7.4-1.4.9-2 .7-.8 1.9-.8 3-1 1.8-.2 3.5-.8 5-1.7.5-.2.9-.6.8-1-.1-.4-.8-.6-1.3-.4-.4.1-.9.4-1.4.3v-1.4l.2-1.6z" fill="#1280FF"/><path d="M135.7 77.5v-.2l-.2-.2c-.2-.1-.4 0-.6.2-1 1-2.6 1-4 1.2-1.5.1-3 .5-3.7 1.8-.4.7-.4 1.5-.4 2.2 0 1.3 0 2.5.5 3.7.2.3.5.8.9.6a.8.8 0 00.3-.5c.2-.7.4-1.4.9-2 .7-.8 1.9-.8 3-1 1.8-.2 3.5-.8 5-1.7.5-.2.9-.6.8-1-.1-.4-.8-.6-1.3-.4-.4.1-.9.4-1.4.3v-1.4l.2-1.6z" fill="url(#paint19_linear)"/><path d="M129.1 81c.5-.4 1.1-.8 1.8-1 1-.5 2-.8 3.2-.9.3 0 .6 0 1-.2a.6.6 0 00.2-.8.6.6 0 00-.5-.3h-.2a3 3 0 00-.7.4c-1 .5-2.2.5-3.3.7-1.1.2-2.3.6-2.9 1.6-.3.6-.4 1.4-.4 2.2 0 1 0 2 .3 3l.3.3.2-.2c.7-.8 0-1.5 0-2.4 0-.9.4-1.7 1-2.4z" fill="url(#paint20_linear)"/><path d="M129 87.8c-.5.2-.7 1-.7 1.6a14.1 14.1 0 000 3.5l.4.5a1 1 0 001 0c.4 0 .7-.4.8-.7.6-1.1.1-2 0-3.1-.1-.7-.4-2.3-1.5-1.8z" fill="url(#paint21_linear)"/><path d="M127 88a1 1 0 00-.6.6.9.9 0 00-.2.6.6.6 0 00.8.4.8.8 0 00.5-.7c0-.3 0-.6-.2-.8" fill="url(#paint22_linear)"/><path d="M80.4 55.5s1.5 1.5 2.2 1.6c.6 0 5.7-1.5 6.1-1.8.4-.4.8-2.7.8-2.7l-9 3z" fill="#fff"/><path d="M80.4 55.5s1.5 1.5 2.2 1.6c.6 0 5.7-1.5 6.1-1.8.4-.4.8-2.7.8-2.7l-9 3z" fill="url(#paint23_linear)"/><path d="M88.8 43.4v.3c.9 1.6-6 12.2-11.8 4.4L75.6 46s-13.3-14.4-10-23.4c3.4-9 16.4-12 23.3-3.2 5.2 6.5-.4 21.3-.1 24z" fill="#fff"/><path d="M88.8 43.4v.3c.9 1.6-6 12.2-11.8 4.4L75.6 46s-13.3-14.4-10-23.4c3.4-9 16.4-12 23.3-3.2 5.2 6.5-.4 21.3-.1 24z" fill="url(#paint24_linear)"/><path d="M88.8 43.7c.9 1.6-6 12.2-11.8 4.4a13.7 13.7 0 0111.8-4.7v.3z" fill="url(#paint25_linear)"/><path d="M78.3 50.8l.2.4-.1.4a1.8 1.8 0 00.5 2c-.6.3-.4 1.3.1 1.7.6.5 1.4.5 2.1.4 2.8-.2 5.5-1 8-2.4 1-.5 2-1.3 2-2.3-.3-.3-.6-.4-1-.5.3-.5.5-1 0-1.3l-.4-.2a1 1 0 01-.3-1V47a1 1 0 00-1.1-.7c-2.1 1.7-4.5 3.5-7.2 3.3-1.2 0-4.8-1.2-2.8 1.3z" fill="#fff"/><path d="M78.3 50.8l.2.4-.1.4a1.8 1.8 0 00.5 2c-.6.3-.4 1.3.1 1.7.6.5 1.4.5 2.1.4 2.8-.2 5.5-1 8-2.4 1-.5 2-1.3 2-2.3-.3-.3-.6-.4-1-.5.3-.5.5-1 0-1.3l-.4-.2a1 1 0 01-.3-1V47a1 1 0 00-1.1-.7c-2.1 1.7-4.5 3.5-7.2 3.3-1.2 0-4.8-1.2-2.8 1.3z" fill="url(#paint26_linear)"/><path d="M86 48l-.8.1-.3-4.4c-.5-8.3-1.3-10-1.8-10.3h-.2l-.4.4 1 1c.4.9.5 1.6.1 2.1a1 1 0 01-1 .5c-.6-.2-1-1.2-1.2-2V34c-.2-.2-.5-.2-.9-.2s-.7.4-.9 1l-.1.9c1 .5 2 1.7 1.8 2.5a.8.8 0 01-.7.7 1.4 1.4 0 01-1.3-.4c-.3-.3-.8-1-.8-2.2-.3 0-.6.2-.8.9-.7 2 3.2 9 4.8 11.5l-.7.4c-.6-1-6-9.4-5-12.2.5-1.2 1.3-1.5 1.8-1.4l.2-.9c.3-1.2 1-1.6 1.6-1.7.5 0 1 0 1.4.3.2-.2.4-.5.7-.6a1 1 0 011 0c.8.4 1.8 2 2.3 11l.3 4.3zm-6.6-11.2c0 .4.2.8.5 1.2a.5.5 0 00.5.2c0-.3-.4-1-1-1.4zm2.9-2v.4c0 .8.4 1.2.5 1.3h.1c.1-.3 0-.7-.2-1.2l-.4-.5z" fill="#FFBD26"/><defs><linearGradient id="paint0_linear" x1="84.3" y1="58.5" x2="28.9" y2="-36" gradientUnits="userSpaceOnUse"><stop stop-color="#010101" stop-opacity="0"/><stop offset=".5" stop-color="#010101" stop-opacity=".5"/><stop offset=".9" stop-color="#010101"/></linearGradient><linearGradient id="paint1_linear" x1="91.7" y1="159.8" x2="153.1" y2="21.5" gradientUnits="userSpaceOnUse"><stop stop-color="#010101" stop-opacity="0"/><stop offset=".9" stop-color="#010101"/></linearGradient><linearGradient id="paint2_linear" x1="4584.2" y1="1719.6" x2="4666.5" y2="7537.9" gradientUnits="userSpaceOnUse"><stop stop-color="#010101" stop-opacity="0"/><stop offset=".9" stop-color="#010101"/></linearGradient><linearGradient id="paint3_linear" x1="7138.2" y1="1675.5" x2="7220.4" y2="7494.2" gradientUnits="userSpaceOnUse"><stop stop-color="#010101" stop-opacity="0"/><stop offset=".9" stop-color="#010101"/></linearGradient><linearGradient id="paint4_linear" x1="6495.8" y1="1701.4" x2="6578" y2="7519.8" gradientUnits="userSpaceOnUse"><stop stop-color="#010101" stop-opacity="0"/><stop offset=".9" stop-color="#010101"/></linearGradient><linearGradient id="paint5_linear" x1="9284.3" y1="1654.8" x2="9366.5" y2="7473.2" gradientUnits="userSpaceOnUse"><stop stop-color="#010101" stop-opacity="0"/><stop offset=".9" stop-color="#010101"/></linearGradient><linearGradient id="paint6_linear" x1="10955.9" y1="1646.9" x2="11038.1" y2="7463.8" gradientUnits="userSpaceOnUse"><stop stop-color="#010101" stop-opacity="0"/><stop offset=".9" stop-color="#010101"/></linearGradient><linearGradient id="paint7_linear" x1="10159.9" y1="1679.2" x2="10242.3" y2="7497.5" gradientUnits="userSpaceOnUse"><stop stop-color="#010101" stop-opacity="0"/><stop offset=".9" stop-color="#010101"/></linearGradient><linearGradient id="paint8_linear" x1="8632.9" y1="1680.9" x2="8715.1" y2="7499.9" gradientUnits="userSpaceOnUse"><stop stop-color="#010101" stop-opacity="0"/><stop offset=".9" stop-color="#010101"/></linearGradient><linearGradient id="paint9_linear" x1="4386.4" y1="1119.4" x2="4438.1" y2="7171.6" gradientUnits="userSpaceOnUse"><stop stop-color="#010101" stop-opacity="0"/><stop offset=".9" stop-color="#010101"/></linearGradient><linearGradient id="paint10_linear" x1="6828" y1="1089.7" x2="6879.7" y2="7137.9" gradientUnits="userSpaceOnUse"><stop stop-color="#010101" stop-opacity="0"/><stop offset=".9" stop-color="#010101"/></linearGradient><linearGradient id="paint11_linear" x1="6216.2" y1="1112.2" x2="6267.9" y2="7163.4" gradientUnits="userSpaceOnUse"><stop stop-color="#010101" stop-opacity="0"/><stop offset=".9" stop-color="#010101"/></linearGradient><linearGradient id="paint12_linear" x1="8877.2" y1="1082.3" x2="8929" y2="7135.1" gradientUnits="userSpaceOnUse"><stop stop-color="#010101" stop-opacity="0"/><stop offset=".9" stop-color="#010101"/></linearGradient><linearGradient id="paint13_linear" x1="10493.3" y1="1086" x2="10545.2" y2="7147.7" gradientUnits="userSpaceOnUse"><stop stop-color="#010101" stop-opacity="0"/><stop offset=".9" stop-color="#010101"/></linearGradient><linearGradient id="paint14_linear" x1="9738.9" y1="1113.2" x2="9790.8" y2="7174.9" gradientUnits="userSpaceOnUse"><stop stop-color="#010101" stop-opacity="0"/><stop offset=".9" stop-color="#010101"/></linearGradient><linearGradient id="paint15_linear" x1="8265.7" y1="1103.9" x2="8317.4" y2="7154.4" gradientUnits="userSpaceOnUse"><stop stop-color="#010101" stop-opacity="0"/><stop offset=".9" stop-color="#010101"/></linearGradient><linearGradient id="paint16_linear" x1="189.2" y1="43.8" x2="185.6" y2="38.1" gradientUnits="userSpaceOnUse"><stop stop-color="#fff" stop-opacity="0"/><stop offset=".9" stop-color="#fff"/></linearGradient><linearGradient id="paint17_linear" x1="1291.6" y1="1631.5" x2="1371.3" y2="1633.4" gradientUnits="userSpaceOnUse"><stop stop-color="#010101" stop-opacity="0"/><stop offset=".9" stop-color="#010101"/></linearGradient><linearGradient id="paint18_linear" x1="5141.9" y1="2354.6" x2="5560.1" y2="2858.2" gradientUnits="userSpaceOnUse"><stop stop-color="#010101" stop-opacity="0"/><stop offset=".9" stop-color="#010101"/></linearGradient><linearGradient id="paint19_linear" x1="4245.4" y1="2236.5" x2="4636.1" y2="2716.4" gradientUnits="userSpaceOnUse"><stop stop-color="#010101" stop-opacity="0"/><stop offset=".9" stop-color="#010101"/></linearGradient><linearGradient id="paint20_linear" x1="3062.1" y1="1861.1" x2="3573.8" y2="2664.3" gradientUnits="userSpaceOnUse"><stop stop-color="#fff" stop-opacity="0"/><stop offset=".9" stop-color="#fff"/></linearGradient><linearGradient id="paint21_linear" x1="1092.5" y1="1608.9" x2="1112" y2="1608.9" gradientUnits="userSpaceOnUse"><stop stop-color="#010101" stop-opacity="0"/><stop offset=".9" stop-color="#010101"/></linearGradient><linearGradient id="paint22_linear" x1="588.6" y1="501.9" x2="593.3" y2="501.9" gradientUnits="userSpaceOnUse"><stop stop-color="#010101" stop-opacity="0"/><stop offset=".9" stop-color="#010101"/></linearGradient><linearGradient id="paint23_linear" x1="3023.4" y1="78.8" x2="3253.8" y2="7.4" gradientUnits="userSpaceOnUse"><stop stop-color="#010101" stop-opacity="0"/><stop offset=".9" stop-color="#010101"/></linearGradient><linearGradient id="paint24_linear" x1="8823.9" y1="2585.6" x2="10612.6" y2="2031.9" gradientUnits="userSpaceOnUse"><stop stop-color="#fff" stop-opacity="0"/><stop offset=".9" stop-color="#fff"/></linearGradient><linearGradient id="paint25_linear" x1="4145.6" y1="125" x2="4325.6" y2="514.7" gradientUnits="userSpaceOnUse"><stop stop-color="#010101" stop-opacity="0"/><stop offset=".9" stop-color="#010101"/></linearGradient><linearGradient id="paint26_linear" x1="4703.8" y1="588.4" x2="4860.9" y2="-59.7" gradientUnits="userSpaceOnUse"><stop stop-color="#010101" stop-opacity="0"/><stop offset=".9" stop-color="#010101"/></linearGradient></defs></svg>