<svg width="515" height="490" fill="none" xmlns="http://www.w3.org/2000/svg"><path opacity=".4" d="M178.7 16.6c-23 17.7-34.7 46-54.4 67.2-28.8 31-73 45-99.7 77.8-30.9 37.9-31 94.5-9.8 138.5 11 22.7 27.4 45.8 22.3 70.4-2.4 12-9.8 22.4-12.7 34.2-5 20.8 4.8 43.3 20.9 57.5 16 14.2 37.3 21.2 58.4 24.6 69.7 11.4 140.1-12 210.7-13.2 20.8-.4 41.7 1.1 62.4-1.3 54-6.4 103-41 130-88.2 4.2-7.2 8-15 8.1-23.4.2-8.6-3.5-16.6-6.9-24.5a274.3 274.3 0 01-23.4-78.6c-3.2-28.6.6-57.6-1.4-86.4-3.8-52.2-31.6-106-80.2-125.4-39.5-15.8-87-4.1-125-23.2-16-8-21.3-20.2-41.1-22.2a82.5 82.5 0 00-58.2 16.2z" fill="#BAE5FF"/><path opacity=".2" d="M156.9 417.6c-21.8-.1-47.8 2.2-58 21.4 34.2 23 77.9 25.7 119.1 25.7 19 0 38.1-.4 57-3a482.5 482.5 0 0075.5-19l28.1-8.7c2.7-.8 5.8-2.2 6.2-5 2.9-19.5-78-11-90.8-10.6-45.6 1.1-91.5-.6-137.1-.8z" fill="#1280FF"/><path d="M226.8 107s-18.8 8.2-21 10c-2 1.7 3.3 115 3.7 120.5.5 5.5 30.6 6.4 43.7 4 8.7-1.8 17.2-4.5 25.5-7.8 0 0 4.1-117 1.5-119.1-2.5-2-27.5-9.8-27.5-9.8l-25.9 2.2z" fill="#1280FF"/><path d="M272.1 113.4s5.8-.4 9.7 2c4 2.4 40.8 34.6 41.7 44.1 1 9.5-6.5 15.5-9.7 14.9a56.8 56.8 0 01-15.4-13.5c-2.2-3-22-7.2-22-7.2l-4.3-40.3z" fill="#1280FF"/><path d="M208.1 171.6a2.6 2.6 0 002.5 2.6c12 2.6 23.8-4.5 35.9-7 5.5-1.1 11.2-1.3 16.3-3.8 6.1-3 10.2-8.9 14-14.6l10-14.7c1.7-2.3 3.3-5.4 1.8-7.8-1.1-1.9-3.8-2.4-6-1.7-2 .7-3.7 2.2-5.4 3.7A143.6 143.6 0 01250 147a64.3 64.3 0 01-13.1 5.5c-8 2.2-22.4.4-30.4.7 0 0 .6 12.9 1.6 18.3z" fill="url(#paint0_linear)"/><path d="M313.6 144.7c2.3 1 4.3 2.7 5.8 4.7 2.6 3.5 7 8.7 8 13 1 5-3.4 12-8.5 12.8a18.1 18.1 0 01-20.7-15c-.6-3.2-.4-6.4.4-9.4 2-7.6 9.2-8.7 15-6z" fill="#1280FF"/><path d="M261.2 423.5s-2.3 15-1 16.6c1.3 1.7 8.4 1.2 12.8.2s5.5-6.7 5.5-6.7l.3-4.7-17.6-5.4zM200.5 416.6s-4.6 20.2-3.5 22c1 1.8 9-2.6 13.5-3.2 4.4-.5 4.8-7.7 4.8-7.7l.8-4.7-15.6-6.4zM226 96s1.6 12 .3 16.5 4.8 17.8 14 18.7c9 .8 10.4-14.7 10.6-16.5.2-1.8-2.5-3-1.2-7.4 1.3-4.5-22.3-16.7-23.7-11.4z" fill="#E5C5D5"/><path d="M249.7 107.2c-1 3.5.3 5 1 6.3-2.3 1.8-5 2.8-7.9 2.6-5.4-.5-13.2-5.7-16.1-14.3l-.1-.4-.6-5.5c1.4-5.3 25 6.9 23.7 11.3z" fill="#A6634C"/><path d="M226.7 110.8s5.7 17.8 11.8 20.2c0 0 1.6 1-3.1 3.4-4.8 2.3-16.3-12.5-13.6-22.3a7.5 7.5 0 015-5.4l-.1 4zM249.6 109s.8 12.9-5 21c0 0 1.8 3.5 3.7 3.7 1.8.1 7.3-10.4 6.2-18.7-.6-4.9-4-7.2-5-6z" fill="#fff"/><path d="M210.5 237.6l-3.8 76.4-7.2 106s4.1 5 16 5.2L237 317.3l10-54.8 8.8 53.4 3.6 111.4s8.4.1 19.3 1.1l7-109.8-7-85-68.1 4z" fill="#606161"/><path d="M210.5 237.6l-3.8 76.4-7.2 106s4.1 5 16 5.2L237 317.3l10-54.8 8.8 53.4 3.6 111.4s8.4.1 19.3 1.1l7-109.8-7-85-68.1 4z" fill="url(#paint1_linear)"/><path d="M258.4 72.3s-.3 23.8-2.7 30c-2.4 6.2-8.4 11.1-13.8 10.6-5.5-.5-13.3-5.7-16.2-14.2a87 87 0 01-1.7-31.4c1.1-2.6 7.4-10.7 21.8-8 10 1.7 12.9 9.3 12.6 13z" fill="#E5C5D5"/><path d="M248.6 53c-1.7-2-3.8-3.6-6.2-4.8-2.3-1-4.8-1.5-7.4-1.6-4.9-.2-10.4 1-13 5a15 15 0 00-1.8 9.3c0 .4 0 .8-.2 1.2-.5 1-1.8.8-2.9.8-4.2 0-7 5-6.1 9 1.2 5.5 6.5 6.5 8.9 10.7.4.7.9 1.5 1.7 1.5 1 0 1.5-1.1 1.8-2 1.4-4.8.8-9.3 4.2-13.5.3-.4.6-.6 1-.7 1.2-.1 1.3 2 2.5 2.2 1.1-1.4 2.7-3 4.3-2.4 1 .5 1.8 1.3 2.3 2.2a17.6 17.6 0 0025 3.8c1.4-.9 2.4-2.2 3-3.8.5-2-.5-4.1-1.4-6a15 15 0 00-3-4.5 5.5 5.5 0 00-5-1.5c-.8.3-1.6.5-2.4.4a3 3 0 01-1.3-1l-4-4.3z" fill="#0D3DBF"/><path d="M224.4 83s-.4-5.6-4.2-4.1c-3.8 1.5-.2 12 1.6 13 .7.6 1.6 1 2.6 1M309.8 160.5s-4.8-7.4 5.9-15 43.6-28.6 43.6-28.6l2 12.1s-31.7 41-40 39.6a16 16 0 01-11.5-8.1z" fill="#E5C5D5"/><path d="M359.3 116.9c.8-1.5 1.7-2.9 2.7-4.2.6-.9 1.4-1.6 2-2.4 1-1.2.6-3.6.6-5.1 0-1.7.4-3.4 1.2-4.9l.7-.7a1 1 0 011 .3c.3.3.6.6.7 1 .7 1.6 1.2 3.3 1.3 5.1 0 1.3.5 2.4 1.8 1.8 1.3-.5 2.6-.8 4-1 1.1-.3 5-1 5.4.7.8 3.3-4.4 15.1-4.7 16-.3 1-14.6 5.6-14.6 5.6l-2.1-12.2z" fill="#E5C5D5"/><path d="M181.9 440.6c-.8.7-1.7 1.7-1.5 2.8.2 1.1 1.2 1.8 2.2 2.2a35.2 35.2 0 0022.2 1.2c2.7-.5 5.6-1.3 7.5-3.4 1-1.2 1.8-2.6 2.2-4.2a16.7 16.7 0 00.4-7.5l-.8-1-1.4-.2c-4.9-.1-12-1.7-16.5.2a48.1 48.1 0 00-14.3 9.9zM263.3 434.8a6.8 6.8 0 00-3.5 0 4.4 4.4 0 00-2.5 3.6c-.1 1.5 0 3 .5 4.5a8 8 0 001.5 3.5 7 7 0 003.8 2c2.8.5 5.6.8 8.4 1l17.7.9c1.3.2 2.7 0 3.8-.7a3.7 3.7 0 00.6-4.6c-.9-1.5-2.1-2.6-3.6-3.5-3.4-2.2-8.2-6-12.3-6.6-2-.3-4.3.4-6.3.4-2.7 0-5.4-.2-8.1-.5z" fill="#0D3DBF"/><path d="M181.9 440.6c-.8.7-1.7 1.7-1.5 2.8.2 1.1 1.2 1.8 2.2 2.2a35.2 35.2 0 0022.2 1.2c2.7-.5 5.6-1.3 7.5-3.4 1-1.2 1.8-2.6 2.2-4.2a16.7 16.7 0 00.4-7.5l-.8-1-1.4-.2c-4.9-.1-12-1.7-16.5.2a48.1 48.1 0 00-14.3 9.9z" fill="url(#paint2_linear)"/><path d="M263.3 434.8a6.8 6.8 0 00-3.5 0 4.4 4.4 0 00-2.5 3.6c-.1 1.5 0 3 .5 4.5a8 8 0 001.5 3.5 7 7 0 003.8 2c2.8.5 5.6.8 8.4 1l17.7.9c1.3.2 2.7 0 3.8-.7a3.7 3.7 0 00.6-4.6c-.9-1.5-2.1-2.6-3.6-3.5-3.4-2.2-8.2-6-12.3-6.6-2-.3-4.3.4-6.3.4-2.7 0-5.4-.2-8.1-.5z" fill="url(#paint3_linear)"/><path d="M420.1 192a3.2 3.2 0 01.6-2.5 27 27 0 006.7-19.8 24.2 24.2 0 00-24.6-23l-56 1 .2-1.7 2.4-16.1c1.3-7.2 1-14.5-.8-21.5-2.5-9.7-6.4-18.8-10.6-27.9a19.4 19.4 0 00-9.9-10.2c-9.4-4.2-18.5-4.4-27.3 1.5-5.7 3.7-9 8.7-8.5 15.8.5 8 .3 16 .5 24 .2 1.9-.1 3.8-.8 5.6-.8 1.8-2 3.2-2.8 5a285.9 285.9 0 01-7 12.5c-4.8 8.1-9.3 16.5-15.2 24-2.4 3-5 5.9-7.5 8.8-.7.7-1.5 1.2-2.6.3a13.4 13.4 0 00-8.6-2.5l-65.7 1a14 14 0 00-14.2 15.8l2.2 23.9 2 21.8 2.6 26 1.7 17.8c.2.9.6 1.7 1 2.5l-.8.1c.4 3 .3 6.3 1.4 9.1 3.4 8.3 9.8 9.6 17.1 9 .2 0 .2-.5.3-.8 1 .4 2 .6 3 .7 17.4-.3 34.8-.5 52.1-.9a13 13 0 0012.4-8c.8-2.1 1.4-4.3 1.9-6.4l2.2 1.1a109.1 109.1 0 018.1 5c1 .4 2.1.6 3.2.7 1.2.3 2.4.4 3.7.5l41-.7 50.5-.8 5.4-.2c2.5 0 4.9-.7 7-1.9 3.9-2.2 7.4-4.8 10.7-7.7 8-7 11.6-15.6 9-26.4 0-.9.2-1.8.7-2.5 1.4-2 3-3.9 4.3-5.9.3-.5 0-1.3 0-2 1.4.8 1.3-.5 1.5-1 2-5.3 2-10.6.8-16a3 3 0 01.5-2.4c6.7-7 8.4-15.4 6.2-24.8zm-171 .7l1.4 81.7c0 2.8 0 2.8-2.7 2.8l-53.7 1c-2 0-2.6-.6-2.8-2.5l-2.5-28-2.5-24.6-1.8-21-1.9-19.3c-.2-1.8.4-2.2 2.2-2.2l44.3-.7a835.3 835.3 0 0116 0c.6.2 1.1.6 1.5 1.2a8.2 8.2 0 012 4.4c0 .5 0 1 .2 1.5l.3 1.2c.2 1.5.2 3 .1 4.5zm156.9-9c-1 .6-1.9 1-2.7 1.6-1.9 1.2-2 2.4-.4 3.9 4.6 4.3 6.7 12.7.3 18.5-2 1.8-4.3 3.4-6.7 4.7-2.3 1.4-2.6 2.8-.5 4.4a9.5 9.5 0 014 6.5c0 1 .4 2 .6 3-1.1 6.9-5.6 10.8-11.6 13.6-2.3 1-2.5 2.1-.6 3.7 2.1 1.7 3.6 4 4.3 6.7 1.3 5.3-1.2 9-4.8 12.4l-2.4 2c-3.3 3-7.1 4-11.7 4-19.7.2-39.4.6-59.1 1l-2 .2-2.1-.2-11.2.2h-5.7c-1.7.3-3.4.2-5 0h-1l-3.5.5a9 9 0 01-3-.7c-2-.8-3.8-1.8-5.6-3-1.6-1-3.2-2.1-5-3-.6-.4-1.4-.6-2.1-.6h-7.2c-1.4.1-1.8-.4-1.9-1.8l-.3-23.7c-.3-16.7-.5-33.5-.9-50.2 0-2 .4-3.1 2.3-4A49.3 49.3 0 00278 167c6.3-8.7 12-17.8 17.2-27.3l3.3-5.8 7.8-14.4c.4-1 .7-2 .7-3 0-.5-.1-1-.3-1.4V114l-.1-3.2v-6.5l-.3-13-.1-4.3a3.3 3.3 0 011.3-2.8c5-4.5 11.7-3.5 16.5-.2 1.3 1 1.7 3 2.5 4.7 3.6 7.5 6.6 15.3 8.8 23.3 1.6 6 1.2 12 .2 18l-4.8 27.8c-.3 1.3-.4 2.6-.6 4l1.3.1 71.3-1.2c7-.2 12 6.2 10.8 13-.8 4.7-3.6 7.8-7.5 10.2z" fill="#FA3D38"/><path opacity=".5" d="M419.8 189.8a3.1 3.1 0 01.5-2.4 27 27 0 006.7-19.8 24.2 24.2 0 00-24.6-23l-55.9.9.1-1.6 2.5-16.2c1.2-7.1 1-14.5-.9-21.5-2.4-9.7-6.4-18.8-10.5-27.9a19.3 19.3 0 00-10-10.1c-9.3-4.3-18.5-4.4-27.3 1.4-5.6 3.8-8.9 8.7-8.4 15.9.4 8 .2 15.9.4 23.9.2 2 0 3.9-.8 5.7-.8 1.7-2 3-2.8 4.9-.7 1.4-1.4 2.8-2.2 4-1.6 3-3.1 5.7-4.8 8.5-4.7 8.2-9.3 16.6-15.2 24-2.4 3-4.9 6-7.4 8.8a1.7 1.7 0 01-2 .7c-.3 0-.5-.2-.7-.4a13.6 13.6 0 00-8.6-2.4l-65.7 1a14 14 0 00-14.1 15.6l2.2 24c.6 7.3 1.2 14.5 2 21.8l2.5 26.1c.6 6 1 11.8 1.7 17.7l1 2.5-.8.1c.4 3.1.3 6.3 1.4 9.1 3.4 8.3 9.8 9.6 17.1 9 .2 0 .2-.5.4-.8 1 .4 1.9.6 2.9.7l52.2-.8A13 13 0 00263 281c.8-2 1.4-4.1 1.9-6.3l2.2 1.1a104.4 104.4 0 018.2 5c1 .4 2 .6 3.1.7 1.2.3 2.5.5 3.7.5 13.7-.1 27.4-.4 41-.6 16.8-.3 33.7-.5 50.6-1h5.4c2.4 0 4.9-.8 7-2 3.8-2.1 7.3-4.7 10.6-7.6 8-7 11.6-15.6 9-26.3 0-1 .3-1.9.8-2.6 1.4-2 2.9-3.9 4.2-6 .3-.4.1-1.2.1-1.8 1.4.7 1.2-.6 1.4-1.2 2-5 2.2-10.6.9-15.8a3 3 0 01.5-2.4 25.6 25.6 0 006.2-24.9zm-172.4 85.3c-17.9.3-35.8.5-53.7 1-2 0-2.6-.6-2.7-2.6l-2.6-27.9c-.7-8.2-1.7-16.4-2.4-24.5L184 200c-.6-6.4-1.1-12.9-1.8-19.3-.2-1.8.4-2.2 2-2.2l44.4-.7h16.1c.6.2 1 .7 1.4 1.2a8 8 0 012 4.4l.3 1.5.3 1.3c.1 1.5.2 3 0 4.4l1.4 81.7c0 2.7 0 2.7-2.8 2.8zM413 171.4c-.8 4.7-3.6 7.9-7.5 10.2l-2.7 1.5c-1.8 1.3-2 2.5-.4 4 4.6 4.3 6.8 12.7.3 18.5-2 1.8-4.3 3.4-6.6 4.7-2.4 1.4-2.7 2.8-.5 4.4a9.4 9.4 0 013.9 6.5l.6 3c-1.1 6.9-5.6 10.8-11.6 13.6-2.3 1-2.5 2-.6 3.7 2.1 1.7 3.7 4 4.3 6.7 1.3 5.3-1.2 9-4.8 12.4l-2.3 2c-3.4 3-7.2 4-11.8 4-19.7.2-39.3.6-59 1l-2 .2-2.2-.2-11.2.2h-5.7c-1.7.3-3.4.2-5 0h-1c-1.2.2-2.3.4-3.5.4-1 0-2-.2-3-.6-2-.8-3.8-1.8-5.5-3l-5-3c-.7-.4-1.4-.6-2.2-.6a81 81 0 00-7.1 0c-1.5.2-2-.3-2-1.8l-.3-23.7-.8-50.2c0-1.9.3-3.1 2.2-4a48.7 48.7 0 0017.5-16.2c6.4-8.8 12.1-18 17.3-27.4l3.2-5.8c2.6-4.8 5.3-9.5 7.8-14.3.5-1 .7-2 .7-3.1 0-.5 0-1-.2-1.3l-.1-1.4v-3.2-6.5l-.3-12.9-.1-4.4a3.2 3.2 0 011.2-2.9c5-4.5 11.7-3.4 16.5-.1 1.3.9 1.8 3 2.5 4.7 3.7 7.4 6.6 15.3 8.8 23.3 1.6 6 1.2 12 .2 18l-4.8 27.7-.6 4 1.3.1 71.3-1.2a10.8 10.8 0 0110.8 13z" fill="url(#paint4_linear)"/><path d="M247.3 278l-53.7.8c-2 .1-2.6-.5-2.8-2.4-.7-9.4-1.6-18.6-2.5-28l-2.5-24.5-1.8-21-1.9-19.3c-.2-1.8.4-2.2 2.2-2.2l44.3-.7a628.2 628.2 0 0116 0c.7.2 1.1.6 1.5 1.1a8.1 8.1 0 012 4.5l.3 1.5.3 1.2v4.5l1.4 81.6c0 2.7 0 2.7-2.8 2.8z" fill="#fff"/><path d="M174.7 199.9c8.2 3.6 16.4 7 24.9 9.9 2 .8 4.3 1.4 6.5 1.6 5.1.4 10-2 14.4-4.5 2.3-1.2 5-3.1 4.5-5.7a4.5 4.5 0 00-3.5-3.3c-1.7-.3-3.5-.4-5.2-.3a38 38 0 01-17.4-5.9 57 57 0 01-16.7-12.9 6 6 0 00-2.2-2c-.8-.2-1.7-.2-2.5 0-12.1 2.2-13.6 18.2-2.8 23z" fill="url(#paint5_linear)"/><path d="M413.5 173.6c-.8 4.7-3.6 7.8-7.5 10.2l-2.7 1.5c-1.8 1.3-2 2.5-.4 4 4.6 4.3 6.7 12.7.3 18.5a40 40 0 01-6.6 4.7c-2.4 1.4-2.7 2.7-.5 4.4a9.4 9.4 0 013.9 6.5l.6 3c-1.1 6.8-5.6 10.8-11.6 13.5-2.3 1-2.5 2.2-.6 3.8 2.1 1.7 3.6 4 4.3 6.7 1.3 5.3-1.2 9-4.8 12.4-.7.7-1.6 1.2-2.3 2-3.4 3-7.2 4-11.8 4-19.7.1-39.4.6-59 1l-2 .2-2.2-.2c-3.7 0-7.5 0-11.2.2h-5.7c-1.7.3-3.4.2-5 0a3 3 0 00-1 0l-3.5.4c-1 0-2-.2-3-.6-2-.8-3.8-1.9-5.5-3-1.7-1-3.3-2.2-5-3a4 4 0 00-2.2-.7l-7.1.1c-1.4.1-1.9-.4-1.9-1.8 0-8-.2-15.9-.3-23.7l-.9-50.2c0-2 .3-3.2 2.3-4.1a49 49 0 0017.5-16.2 247 247 0 0017.2-27.4l3.2-5.7 7.9-14.4c.4-1 .6-2 .6-3.1 0-.4 0-.9-.2-1.3v-4.6c0-2.1 0-4.3-.2-6.4l-.2-13V87a3.2 3.2 0 011.2-2.8c5-4.5 11.7-3.4 16.5-.1 1.3.9 1.8 3 2.5 4.7a138 138 0 018.7 23.2c1.6 6 1.2 12 .2 18l-4.9 27.8-.5 4 1.3.1c23.7-.4 47.5-.7 71.2-1.2a10.8 10.8 0 0111 13z" fill="#fff"/><path d="M174.6 171.6l32.3 18.8 6.6 14.8-49.2-19.4 10.3-14.2z" fill="#E5C5D5"/><path d="M206.8 190.4c1.5-1.3 3-2.4 4.6-3.3 1.5-.7 17.4 5.7 17.5 7.4 0 1.7-.8 7.9-2.5 8.4-1.7.6-12.9 2.3-12.9 2.3s-11.2-11.5-6.7-14.8z" fill="#E5C5D5"/><path d="M206.7 116.4s-13.3 5-16.8 13.9c-3.6 8.8-33.6 49.2-27.8 56.1 3 3.5 9.5 6.4 9.5 6.4l19.4-12-4.2-4 19.2-27.2s5.5-26 .7-33.2z" fill="#1280FF"/><path d="M202.4 248.7c8.6.2 17.4.2 25.8-1.6 8.4-2 16.6-6 22-12.7l3.3 4.7a267 267 0 0086.6 8.3c4.1-.2 8.2-.8 12.2-1.7 6.9-1.6 13.2-5 19.4-8.2l22.7-12c3.4.7 4.7 5 4.2 8.4-.5 3.4-2.1 6.7-1.8 10.2.3 3 2 5.5 2.8 8.4 1.3 5.1-.8 10.7-4.3 14.6-3.6 4-8.4 6.4-13.4 8.3-12.8 4.8-26.7 6-40.4 6.5-11.7.5-23.4.7-35.1.8-7 .1-14 .2-20.5-1.8-6-1.8-11.4-5.3-17.2-7.6-1.8-.8-3.7-1.2-5.6-1a11 11 0 00-3.9 1.8c-6.6 4.2-12.8 9.4-20.1 12.5a77.2 77.2 0 01-33.4 3.3c-9-.4-19.6-1.7-24.1-9.5a27.3 27.3 0 01-2.7-8c-1-4.9-8.7-26-3-28.2 2.6-1 8.8 2.7 11.7 3.3 4.9.8 9.8 1.3 14.8 1.2z" fill="url(#paint6_linear)"/><defs><linearGradient id="paint0_linear" x1="245.9" y1="128.2" x2="264.7" y2="277.9" gradientUnits="userSpaceOnUse"><stop stop-color="#010101" stop-opacity="0"/><stop offset=".9" stop-color="#010101" stop-opacity=".4"/></linearGradient><linearGradient id="paint1_linear" x1="23931.4" y1="73365.6" x2="24376" y2="55870.9" gradientUnits="userSpaceOnUse"><stop stop-color="#010101" stop-opacity="0"/><stop offset=".9" stop-color="#010101" stop-opacity=".4"/></linearGradient><linearGradient id="paint2_linear" x1="7609.4" y1="8505.2" x2="8823.2" y2="8505.2" gradientUnits="userSpaceOnUse"><stop stop-color="#010101" stop-opacity="0"/><stop offset=".9" stop-color="#010101" stop-opacity=".4"/></linearGradient><linearGradient id="paint3_linear" x1="10959" y1="7472.8" x2="12320.2" y2="7472.8" gradientUnits="userSpaceOnUse"><stop stop-color="#010101" stop-opacity="0"/><stop offset=".9" stop-color="#010101" stop-opacity=".4"/></linearGradient><linearGradient id="paint4_linear" x1="296" y1="327.2" x2="299.4" y2="-4.7" gradientUnits="userSpaceOnUse"><stop stop-color="#fff" stop-opacity="0"/><stop offset=".1" stop-color="#fff" stop-opacity=".2"/><stop offset=".3" stop-color="#fff" stop-opacity=".5"/><stop offset=".5" stop-color="#fff" stop-opacity=".7"/><stop offset=".6" stop-color="#fff" stop-opacity=".8"/><stop offset=".8" stop-color="#fff" stop-opacity=".9"/><stop offset=".9" stop-color="#fff"/><stop offset="1" stop-color="#fff"/></linearGradient><linearGradient id="paint5_linear" x1="192.7" y1="219.9" x2="210.2" y2="95.8" gradientUnits="userSpaceOnUse"><stop stop-color="#010101" stop-opacity="0"/><stop offset=".9" stop-color="#010101"/></linearGradient><linearGradient id="paint6_linear" x1="72814.9" y1="12253.3" x2="72646.8" y2="41134.8" gradientUnits="userSpaceOnUse"><stop stop-color="#010101" stop-opacity="0"/><stop offset=".9" stop-color="#010101" stop-opacity=".4"/></linearGradient></defs></svg>