<svg width="235" height="180" fill="none" xmlns="http://www.w3.org/2000/svg"><path opacity=".4" d="M40.8 171.6l49 2.2 12.2.5c13.2.6 26.3 1.1 39.5 1 11 0 22-.6 33-1.1l36.7-1.9c2.8-.1 6.7-2.4 5-4.6 9-10 16.2-22.4 18.2-35.7 2-13.2-.9-27.4-8.8-38.1-6-8.1-15.3-15.5-15-25.6.3-6 4-11.6 4-17.7-.1-5.9-4-11.1-8.7-14.5a55.3 55.3 0 00-16-6.8c-21.9-6.7-47.6-13.6-70.4-12-22.7 1.4-45.7 11-59.5 29.2-3 4-5.7 8.4-9.4 11.8-6.8 6-16.2 7.9-24.2 12a49.8 49.8 0 00-25 33A57 57 0 008 144.3c3.8 6.5 8.8 12.1 13.7 17.7 2.7 3.1 5.5 6.3 9 8.2 3.6 2 6.5 3.4 10 1.3z" fill="#BAE5FF"/><path d="M119.7 162.2c-.1.7 0 1.3.4 1.8.4.4 1 .7 1.5.8 1.9.5 3.6 1.5 5 3a31.3 31.3 0 01-13 .2 1.4 1.4 0 01-.8-1v-.6l.2-33.6c0-3 2.1-6.3 5.6-4.7 2.9 1.4 2.1 5.5 2 8l-1 26.1z" fill="url(#paint0_linear)"/><path d="M103.6 162.2c-.1.7 0 1.3.3 1.8.4.4 1 .7 1.5.8 2 .5 3.7 1.5 5 3-4 .9-8.2 1-12.3.3-.5 0-.9-.2-1.2-.6a2 2 0 01-.3-1.1l.3-33.6c0-3 2.1-6.3 5.5-4.7 3 1.4 2.2 5.5 2 8l-.8 26.1z" fill="url(#paint1_linear)"/><path d="M152.5 73.5H116v21.7h36.5V73.5z" fill="#1280FF"/><path d="M152.5 73.5H116v21.7h36.5V73.5z" fill="url(#paint2_linear)"/><path d="M209.5 172.4h-11.3v-49.9a16.1 16.1 0 00-16.1-16H57.2a16 16 0 00-16 16v49.9H29.8v-49.9a27.5 27.5 0 0127.3-27.4h125a27.3 27.3 0 0127.3 27.4v49.9z" fill="#1280FF"/><path d="M209.5 122.5v49.9h-11.3v-49.9a16.1 16.1 0 00-16.1-16H57.2a16 16 0 00-16 16v49.9H29.8v-49.9a27.5 27.5 0 0127.3-27.4h125a27.3 27.3 0 0127.3 27.4z" fill="url(#paint3_linear)"/><path d="M209.5 130.1V180h-11.3v-57.5a16.1 16.1 0 00-16.1-16H57.2a16 16 0 00-16 16V180H29.8v-49.9a27.5 27.5 0 0127.3-27.4h125a27.3 27.3 0 0127.3 27.4z" fill="url(#paint4_linear)"/><path d="M122.5 96.1h34.6l-11.5 6.3h-31.9l8.8-6.3z" fill="#fff"/><path d="M184.9 0H80.4a5.7 5.7 0 00-5.7 5.7v66.6c0 3.1 2.5 5.7 5.7 5.7h104.5c3.1 0 5.7-2.6 5.7-5.7V5.7c0-3.1-2.6-5.7-5.7-5.7z" fill="#1280FF"/><path d="M184.9 0H80.4a5.7 5.7 0 00-5.7 5.7v66.6c0 3.1 2.5 5.7 5.7 5.7h104.5c3.1 0 5.7-2.6 5.7-5.7V5.7c0-3.1-2.6-5.7-5.7-5.7z" fill="url(#paint5_linear)"/><path d="M184.2 3H79c-3 0-5.4 2.5-5.4 5.5v59.8c0 3 2.4 5.4 5.4 5.4h105c3 0 5.5-2.4 5.5-5.4V8.5c0-3-2.5-5.5-5.4-5.5z" fill="url(#paint6_linear)"/><path d="M99.2 24.8h-4V55h4V24.8zM105.9 30.2h-4V55h4V30.2zM112.7 24.8h-4V55h4V24.8zM119.4 37h-3.9v18h4V37zM126.3 24.8h-4V55h4V24.8zM133 33.9h-4V55h4V33.9zM167.7 16.5a14.6 14.6 0 00-10.5 25c2.8 2.8 6.5 4.4 10.4 4.4v-5.1a9.7 9.7 0 01-9.6-11.6 9.7 9.7 0 0113.2-7.1 9.7 9.7 0 016 10.4h5l.2-1.3a14.7 14.7 0 00-14.7-14.7z" fill="#1280FF"/><path opacity=".3" d="M182.3 32.4A14.7 14.7 0 01167.7 46v-5.1a9.7 9.7 0 009.4-8.4h5.2z" fill="#1280FF"/><path d="M106.7 70.8c-.2-2.5-.5-5-1.5-7.3s-3-4.2-5.5-4.6a2 2 0 00-1 0c-.5.2-.9.8-1.3 1.3-.5.4-1.3.6-1.6.1.4-1.8 2.1-3 2.3-4.9a6 6 0 00-.4-2.3c-.7-2.3-1.5-4.5-2.4-6.8-.2-.6-.5-1.2-1.1-1.4-.4 0-.9 0-1.2.2-2.9 1.3-4.7 4.1-6 6.9-1.2 2.4-2.2 5-2.1 7.8 0 1.8.7 3.6.9 5.4.1 1.6 0 3.4.7 4.8 1.5 2.9 5.6 3 8 5 .9.7 1.5 1.6 2.5 2 .5.2.9.6 1.5.6l9 .3-.8-7z" fill="url(#paint7_linear)"/><path d="M92.8 40.6l1 .6a5.8 5.8 0 011.3 6.6c-.1.4-.3.6-.6.9a4.5 4.5 0 00-.8.5h-.2c-1.2-.4-2.3-1-3.3-1.8-1-1-1.8-2.1-2.3-3.4-.5-1-.6-2.6.5-3.3.6-.2 1.1-.4 1.7-.3.9 0 1.8 0 2.7.2z" fill="#0D3DBF"/><path d="M97 71.7l.3-5.7 4.5-.8 4.2 24s-6.4-4.2-6.7-4.8C99 83.8 97 71.7 97 71.7z" fill="url(#paint8_linear)"/><path d="M80.8 66.2v.9l.5.4a4 4 0 001.8.4h4c.4 0 .7 0 .8-.3l.1-.4v-5c0-.6 0-1.2-.2-1.8a3.7 3.7 0 00-1.8-2.5 3.4 3.4 0 00-2.8 0c-.7.2-1.3.6-1.7 1.2-.3.5-.4 1-.4 1.6 0 1.9-.2 3.7-.3 5.5z" fill="url(#paint9_linear)"/><path d="M87.4 63a1.3 1.3 0 01-1.3.3l-1.3-.8a17 17 0 01-1.3-1.2c-.3.4-.5 1-.5 1.7 0 .6.3 1.2.1 1.9a3 3 0 01-.8 1.2l-1 1.1c-.2.1-.3.3-.5.2l-.2-.1a20.6 20.6 0 01-1.3-1.5v-2.2l.1-.8.5-.8.7-1.5c.3-.7.7-1.3 1.2-1.8l1-.7h.7a27.2 27.2 0 013.4.1c.9.3 1.7 1.5 1.4 2.4-.2.3-.4.5-.5.9-.1.5 0 1-.4 1.5z" fill="url(#paint10_linear)"/><path d="M91.3 67.2a16 16 0 0110.6 8c1 2 1.4 4.2 1.9 6.4a189.5 189.5 0 004 15.4h.6a318 318 0 0117.4-.7c.3.2.6.5.7 1 .7 1.5 1 3.2 1 4.9a234 234 0 01-17.8 3.7c-3.2.5-6.9 1-9.7-1-2-1.3-3.2-3.6-4.2-5.9l1.5 9c.2.6 0 1.3-.3 2-.4.4-1 .7-1.8.8a63 63 0 01-16 .4 2.8 2.8 0 01-2.9-2.5c-2-7-2-14.7-3.7-21.9-.5-2-1.1-3.8-1.4-5.8a24 24 0 010-6.2c.3-2.6 1.3-6 4-7.2 1-.4 2.2-.4 3.2-.6 2-.3 4-.5 6-.5 2.3 0 4.6.2 6.9.7z" fill="#FA3D38"/><path d="M93.7 61.5a1 1 0 00.7 1.4c.4 0 .9-.2 1.2 0 .4.2.4.9.5 1.3a2.5 2.5 0 001.2 1.8c.7.4 1.4.5 2.2.5a3 3 0 002.3-1.3c.4-.6.5-1.4.3-2-.2-.8-.5-1.4-1-2-.8-1-2.4-2.5-3.8-2.4-1.2.1-3.2 1.6-3.6 2.7z" fill="url(#paint11_linear)"/><path d="M130 94.7l1.2-.4c.5 0 1 0 1.4.3 1.7.7 3 2 4 3.6.5.7 1 1.5.8 2.3a2 2 0 01-1.4 1.3 6 6 0 01-2 .1l-4.8-.1c-.5 0-1-.1-1.3-.3-.9-.4-1.2-1.4-1.5-2.3-.1-.6-.6-1.6-.6-2.2 0-.5.2-.4.6-.6l3.6-1.7z" fill="url(#paint12_linear)"/><path d="M130.7 95l.3.6h1.8c-.5-1.5-1-3.1-1.8-4.6l-1.4-3c-.2-.4-.4-.9-.9-1-.5-.1-1.6.4-1.6 1 0 .7 1 1.6 1.3 2.1.9 1.6 1.6 3.2 2.3 5z" fill="#fff"/><path d="M107.1 114.4A29 29 0 01120 118a18 18 0 018.3 10l-13.1 6.9a3 3 0 01-1.4.4c-.7 0-1.3-.5-1.9-1-2.3-2-5-3.4-7.8-4.3-5.8-1.6-12-.3-18-1.3-1.6-.1-3.1-.6-4.4-1.4a9.3 9.3 0 01-3.8-6.7c-.3-2.6 0-5.2.5-7.8 0-.7.3-1.4.7-2 .4-.3 1-.6 1.6-.7 4-1 9.9-3.3 13.7-.6 1.6 1.1 2.8 2.7 4.7 3.6 2.5 1.3 5.4 1.3 8.1 1.4zM119.2 163.1l.8-.2c.3 0 .5.1.7.3l6.6 3.4c.5.2 1 .5 1.3.9a1.4 1.4 0 01.3 1.5 2 2 0 01-1.4.9c-1.3.2-2.5.4-3.8.4h-8.3c-1.2 0-2.4-.2-3.6-.6-.3 0-.6-.3-.8-.6v-.8c.2-2-.1-3.4 2-3.7 2.1-.3 4.2-.8 6.2-1.5z" fill="#000"/><path d="M103 163.1l.9-.2.7.3 6.5 3.4c.5.2 1 .5 1.3.9a1.4 1.4 0 01.4 1.5 2 2 0 01-1.5.9c-1.2.2-2.5.4-3.7.4h-8.3c-1.2 0-2.4-.2-3.6-.6-.3 0-.6-.3-.8-.6-.1-.3-.1-.5 0-.8.1-2-.2-3.4 2-3.7 2-.3 4.2-.8 6.2-1.5z" fill="#000"/><path d="M90.6 136.3h-5.7v25.4h5.7v-25.4z" fill="#1280FF"/><path d="M106.3 158.6h-37a1.7 1.7 0 000 3.5h37a1.7 1.7 0 000-3.5z" fill="#1280FF"/><path d="M69 169.6a3.8 3.8 0 100-7.5 3.8 3.8 0 000 7.5zM87.5 169.6a3.8 3.8 0 100-7.5 3.8 3.8 0 000 7.5zM105.9 169.6a3.8 3.8 0 100-7.5 3.8 3.8 0 000 7.5z" fill="#000"/><path d="M89.3 43.4s3-.6 4 1c1 1.7.6 7.3 1.8 8.8 1.2 1.5 1.3 2.4 0 3.3-1.1 1-.8 3.5-1.4 4.3-.6.8-2.1 1.9-5 1-2.7-1-7.6-3.5-7.6-3.8 0-.3.1-14.2 8.2-14.6z" fill="url(#paint13_linear)"/><path d="M90.2 40.7c2 1.3 2.8 4.1 2.1 6.5a8.7 8.7 0 01-4.9 5.2 2 2 0 00-1.1.9l-.1.7c0 1.8.1 3.4-1.3 4.8l-2 1.4-.4.4c-.4.6-.3 1.3-.2 2a4.7 4.7 0 01-3.6 4.7l-1.3.3a1.6 1.6 0 00-1 .8c-.3.6 0 1.3 0 2-.2.8-1.1 1.4-2 1.7a6.7 6.7 0 01-5.3-.5c-.5-.3-1.1-.3-1.6-.8-.4-.5-.7-1.2-.8-2 0-1 0-2 .3-3l1.3-6.7c.4-1.8.9-3.8 2.5-4.6l1.5-.8c.5-.5.8-1.1.9-1.8.4-2 .6-4 1.2-5.8a9.8 9.8 0 013.1-5 10 10 0 015.9-1.7c3-.1 4.8-1 6.7 1.3" fill="#0D3DBF"/><path d="M53.8 74.3s-1.2-.3-1.2 3.7 10 58 10 58-1 2 8.1 1.7c9.1-.4 38.5-.6 38.5-.6s2.7 0 3-3.8c.2-3.9-5.5-4.5-5.5-4.5l-23.4-1.1L74 75.2l-20.2-1z" fill="#1280FF"/><path d="M112.1 133.3c-.2 3.8-2.9 3.8-2.9 3.8l-31.1.3-7.4.3c-9.1.4-8.2-1.7-8.2-1.7s-10-54-10-58 1.3-3.7 1.3-3.7l12.6.5 7.6.4 9.3 52.5 23.4 1s5.7.7 5.4 4.6z" fill="url(#paint14_linear)"/><path d="M112.1 133.3c-.2 3.8-2.9 3.8-2.9 3.8l-31.1.3c-2.7-.4-2.2-1.3-2.2-1.3S65.9 82 65.9 78c0-1.7.3-2.7.5-3.2l7.6.4 9.3 52.5 23.4 1s5.7.7 5.4 4.6z" fill="url(#paint15_linear)"/><defs><linearGradient id="paint0_linear" x1="112.8" y1="148.1" x2="126.6" y2="148.1" gradientUnits="userSpaceOnUse"><stop stop-color="#E5C5D5"/><stop offset=".4" stop-color="#EAD4D1"/><stop offset="1" stop-color="#F0E9CB"/></linearGradient><linearGradient id="paint1_linear" x1="2600.2" y1="12181.7" x2="2955.8" y2="12181.7" gradientUnits="userSpaceOnUse"><stop stop-color="#E5C5D5"/><stop offset=".4" stop-color="#EAD4D1"/><stop offset="1" stop-color="#F0E9CB"/></linearGradient><linearGradient id="paint2_linear" x1="133.7" y1="94" x2="135.2" y2="65.8" gradientUnits="userSpaceOnUse"><stop stop-opacity="0"/><stop offset="1"/></linearGradient><linearGradient id="paint3_linear" x1="40953.2" y1="21051.3" x2="41703.7" y2="12741.4" gradientUnits="userSpaceOnUse"><stop stop-opacity="0"/><stop offset="1"/></linearGradient><linearGradient id="paint4_linear" x1="40953.2" y1="22146.8" x2="41703.7" y2="13836.9" gradientUnits="userSpaceOnUse"><stop stop-opacity="0"/><stop offset="1"/></linearGradient><linearGradient id="paint5_linear" x1="131.7" y1="-52.1" x2="133.5" y2="121.7" gradientUnits="userSpaceOnUse"><stop offset="0" stop-color="#fff" stop-opacity="0"/><stop offset=".3" stop-color="#fff" stop-opacity=".4"/><stop offset=".7" stop-color="#fff" stop-opacity=".7"/><stop offset="1" stop-color="#fff"/></linearGradient><linearGradient id="paint6_linear" x1="28228.9" y1="-5798.8" x2="28360.7" y2="14852.5" gradientUnits="userSpaceOnUse"><stop offset="0" stop-color="#fff" stop-opacity="0"/><stop offset=".3" stop-color="#fff" stop-opacity=".4"/><stop offset=".7" stop-color="#fff" stop-opacity=".7"/><stop offset="1" stop-color="#fff"/></linearGradient><linearGradient id="paint7_linear" x1="4883.8" y1="3048.7" x2="1140.1" y2="7270.6" gradientUnits="userSpaceOnUse"><stop stop-opacity="0"/><stop offset="1"/></linearGradient><linearGradient id="paint8_linear" x1="1719.9" y1="3976.8" x2="1868.1" y2="3976.8" gradientUnits="userSpaceOnUse"><stop stop-color="#E5C5D5"/><stop offset=".4" stop-color="#EAD4D1"/><stop offset="1" stop-color="#F0E9CB"/></linearGradient><linearGradient id="paint9_linear" x1="1180.6" y1="1479.4" x2="1278.5" y2="1479.4" gradientUnits="userSpaceOnUse"><stop stop-color="#E5C5D5"/><stop offset=".4" stop-color="#EAD4D1"/><stop offset="1" stop-color="#F0E9CB"/></linearGradient><linearGradient id="paint10_linear" x1="1580.3" y1="1527.7" x2="1399.7" y2="1133.2" gradientUnits="userSpaceOnUse"><stop stop-opacity="0"/><stop offset="1"/></linearGradient><linearGradient id="paint11_linear" x1="1592.8" y1="1110.4" x2="1727.9" y2="1110.4" gradientUnits="userSpaceOnUse"><stop stop-color="#E5C5D5"/><stop offset=".4" stop-color="#EAD4D1"/><stop offset="1" stop-color="#F0E9CB"/></linearGradient><linearGradient id="paint12_linear" x1="2851.2" y1="1640.5" x2="3100.7" y2="1640.5" gradientUnits="userSpaceOnUse"><stop stop-color="#E5C5D5"/><stop offset=".4" stop-color="#EAD4D1"/><stop offset="1" stop-color="#F0E9CB"/></linearGradient><linearGradient id="paint13_linear" x1="2351.9" y1="2269.2" x2="2766" y2="2269.2" gradientUnits="userSpaceOnUse"><stop stop-color="#E5C5D5"/><stop offset=".4" stop-color="#EAD4D1"/><stop offset="1" stop-color="#F0E9CB"/></linearGradient><linearGradient id="paint14_linear" x1="5951.5" y1="13843" x2="12538.8" y2="13843" gradientUnits="userSpaceOnUse"><stop stop-opacity="0"/><stop offset="1"/></linearGradient><linearGradient id="paint15_linear" x1="8297" y1="12566" x2="3206.2" y2="17798.3" gradientUnits="userSpaceOnUse"><stop stop-opacity="0"/><stop offset="1"/></linearGradient></defs></svg>