<svg width="196" height="180" fill="none" xmlns="http://www.w3.org/2000/svg"><path opacity=".4" d="M33.4 179.8h128s31.1 3.3 28.2-31.1c-3-34.4-10.5-29.7-1.8-55 8.7-25.4 13.6-43.3-1.7-53.4C171 30.3 143-16 90.1 5.8c-52.9 21.8-61.6 14.4-67.7 18-6.1 3.4-35.8 3.8-15.3 61 20.5 57.3-21.6 86.8 26.3 95z" fill="#BAE5FF"/><path d="M104.5 33a1.4 1.4 0 00-1.4.3 2 2 0 00-.4.8 6 6 0 00.7 4.4c.7 1.3 2 1.9 3 1.5.3-.1.6-.3.7-.6.3-.5.4-1 .2-1.6 0-.6-.2-1.2-.5-1.7-.7-2.1-.7-3-2.3-3.1z" fill="url(#paint0_linear)"/><path d="M96.5 52.8s5.7-.2 19.4.6c13.7.7 22.7 2.5 29 4.4 6.2 2 11.8 2.5 14.8 9.4s6.5 50.1-3.6 60c-10.1 10-13.7 4.5-13.7 4.5l-3 33.5s-58.4-.6-67.5-12c0 0 19.1-33.4 14.5-43.5-5.8-13 1.5-28.3 1.5-28.3S61 122.3 55.6 120.9C50 119.4 15.3 89 15.3 89L23 78.2l27.7 14.6s33-43.5 45.8-40z" fill="#FA3D38"/><path d="M145.6 30.3c1 1.6 1.3 3.6 1 5.5-.3 2.2-1 4.5-1.9 6.6-.7 1.6-1.5 3.3-1.7 5.2-.2 1.8.3 3.8 1.7 5a4.5 4.5 0 01-5.9-2c.2.5.2 1 0 1.5a9.3 9.3 0 01-3.1-3l-.9.8a18.2 18.2 0 01-4.5-11.5c.1-3.5 2-7.2 5-8.8 3-1.6 8.2-2.6 10.3.7z" fill="#0D3DBF"/><path d="M145.6 30.3c1 1.6 1.3 3.6 1 5.5-.3 2.2-1 4.5-1.9 6.6-.7 1.6-1.5 3.3-1.7 5.2-.2 1.8.3 3.8 1.7 5a4.5 4.5 0 01-5.9-2c.2.5.2 1 0 1.5a9.3 9.3 0 01-3.1-3l-.9.8a18.2 18.2 0 01-4.5-11.5c.1-3.5 2-7.2 5-8.8 3-1.6 8.2-2.6 10.3.7z" fill="url(#paint1_linear)"/><path d="M72 67.8l3.9-3.5-.2 26.3 12.2-9.2-18 24.9 2-38.5z" fill="url(#paint2_linear)"/><path d="M113.8 51.8s-5.7 10.8 3 15.6c11.9 6.5 11.2-21 11.2-21l-14.2 5.4z" fill="url(#paint3_linear)"/><path d="M114.7 58c.7.5 1.4.7 2.3.8 3.2.2 6.5-1.5 8.4-4.1 1.9-2.8 2.7-6 2.2-9.4 0-.1 0-.3-.2-.3h-.1c-1.7 1.1-3.5 2-5.4 2.8l-4.4 1.6c-1.2.5-3 1.1-3.8 2.2-1.5 1.8-1 5.2 1 6.5z" fill="url(#paint4_linear)"/><path d="M142.1 131c-5.6-5.9-11.8-11-18.6-15.6.4-2 2-3.3 3.4-4.8 1.7-1.8 3.1-4 4-6.4 4.8 3.2 9.7 6.3 14.6 9.3-.3-6.4-.4-12.8-.2-19.2-3.6 2-7.4 3.8-11.1 5.7a23.4 23.4 0 00-12.8 13.2c-.5 1.2-1 2.6-.6 3.9a6 6 0 002 3c1.4 1.3 3 2.3 4.6 3 1.4.7 2.9 1.2 4.1 2 1.7 1.2 3 2.8 4.6 4.1 1.5 1.3 4.1 2.5 6 1.8z" fill="url(#paint5_linear)"/><path d="M124 101.4c-1.8-.7-3.6-1-5.4-1-.4.7.7 1.8 0 2.4a72.7 72.7 0 01-15.2 1.2 1.3 1.3 0 00-.8 1.2c0 .3.2.7.5 1 2 2.3 4.9 3.7 8 4.4 3 .6 6 .7 9.1.6 2.8 0 5.8 0 8.2 1.4l2.2 1.2a2.3 2.3 0 002.3-.3 2.1 2.1 0 00.4-2.3c-.7-1.8-2.6-3.8-3.8-5.3a14.1 14.1 0 00-5.5-4.5z" fill="url(#paint6_linear)"/><path d="M11.2 38l56.6 2.5a5.8 5.8 0 015.5 6l-3.5 78.8a6 6 0 01-6.2 5.7l-56.2-2.4a6 6 0 01-5.7-6.3l3.5-78.8a5.8 5.8 0 016-5.5z" fill="#1280FF"/><path d="M69.4 44.9L9.8 42.3l-3.5 80.4 59.6 2.6L69.4 45z" fill="#fff"/><path d="M52.5 33.8l-22.4-1c-2 0-3.7 1.5-3.8 3.5l-.2 4.4c0 2 1.5 3.7 3.5 3.8l22.4 1c2 0 3.6-1.5 3.7-3.5l.2-4.4c.1-2-1.4-3.7-3.4-3.8z" fill="#1280FF"/><path d="M52.5 33.8l-22.4-1c-2 0-3.7 1.5-3.8 3.5l-.2 4.4c0 2 1.5 3.7 3.5 3.8l22.4 1c2 0 3.6-1.5 3.7-3.5l.2-4.4c.1-2-1.4-3.7-3.4-3.8z" fill="url(#paint7_linear)"/><path d="M51.5 86.6a16.8 16.8 0 11-13.8-26.4L36.9 77l14.6 9.6z" fill="#1280FF"/><path opacity=".3" d="M48.8 61L38.5 74.8l.7-16.8h.8c3.2.1 6.2 1.2 8.8 3z" fill="#1280FF"/><path d="M56.5 77.2c-.2 3.2-1.2 6.3-3 8.9l-14.6-9.6 10.4-13.8a16.7 16.7 0 017.2 14.5zM15.4 101l-3.4-.2-.2 3.6 3.4.2.2-3.7zM15.1 106l-3.4-.1-.1 3.6 3.4.2.1-3.7z" fill="#0D3DBF"/><path d="M15.1 106l-3.4-.1-.1 3.6 3.4.2.1-3.7z" fill="url(#paint8_linear)"/><path d="M15 111.1l-3.5-.1-.1 3.6 3.4.2.1-3.7zM14.7 116.2l-3.4-.2-.2 3.7 3.4.2.2-3.7z" fill="#0D3DBF"/><path d="M7.1 70.8c.6 2.9 0 5.9-1.8 8.3-.5.7-1.3 1.4-2.2 1.3a2.5 2.5 0 01-1.7-1C0 78 .4 75.9.7 74c.3-1.6.7-3.2 1.4-4.7.4-1 1.5-2.3 2.9-1.8 1.2.5 1.9 2.3 2.1 3.4z" fill="url(#paint9_linear)"/><path d="M73.8 155.5s-6.6 14.6-6.6 24.5l70.8-.3-1-14.7s-54-5.3-63.2-9.5z" fill="#000"/><path d="M105.5 11.7c3.2-5.2 9.2-8.8 15.3-8.4 3.1.3 6 1.5 9 2.7 4 1.6 8.1 3.5 10.4 7.2 1.4 2.3 1.8 5.2 1.8 8 0 3.7-.6 7.4-2.4 10.6a11.6 11.6 0 01-8.8 5.9c-2.3.2-4.7-.6-7-1.3-5.5-1.8-15.3-2.9-19.7-7.2-4.4-4.3-1.3-13.2 1.4-17.5z" fill="#0D3DBF"/><path d="M105.5 11.7c3.2-5.2 9.2-8.8 15.3-8.4 3.1.3 6 1.5 9 2.7 4 1.6 8.1 3.5 10.4 7.2 1.4 2.3 1.8 5.2 1.8 8 0 3.7-.6 7.4-2.4 10.6a11.6 11.6 0 01-8.8 5.9c-2.3.2-4.7-.6-7-1.3-5.5-1.8-15.3-2.9-19.7-7.2-4.4-4.3-1.3-13.2 1.4-17.5z" fill="url(#paint10_linear)"/><path d="M103.7 26.7s1 24.5 14 26.4c13.2 1.9 14.4-25.4 14.4-25.4s-12-26.3-28.4-1z" fill="url(#paint11_linear)"/><path d="M134.9 33.4a6.6 6.6 0 01-3.6 6c-2 1-1-4.5-.6-5.5.7-1.8 4-3.6 4.2-.5z" fill="url(#paint12_linear)"/><path d="M114.7 24.2c.8-.3 1-1.6 1.8-1.7.4.8-.1 2 .4 2.6.3.3.7.5 1 .5 2.5.6 4.8 1.5 7 2.7.9.5 1.9 1.1 2.9 1h1.5c.7.4.8 1.4.8 2.3v4.8a23.8 23.8 0 005.2-10.9c.5-2.7.3-5.6-1-8a12 12 0 00-7-5.3c-16.6-5.5-19.8-2.9-21.4-2-2.9 1.3-6.8 10-3.6 15.1.8 1.3 4.9-3 6.1-2.3 1 .3 2 .6 3 .7.9.2 2.4 1 3.3.5z" fill="#0D3DBF"/><path d="M14.8 111.1l-3.4-.1-.1 3.6 3.4.2.1-3.7z" fill="url(#paint13_linear)"/><path d="M14.8 111.1l-3.4-.1-.1 3.6 3.4.2.1-3.7z" fill="url(#paint14_linear)"/><path d="M14.7 116.1l-3.4-.1-.2 3.7 3.4.1.2-3.7z" fill="url(#paint15_linear)"/><path d="M14.7 116.1l-3.4-.1-.2 3.7 3.4.1.2-3.7z" fill="url(#paint16_linear)"/><path d="M14.7 116.1l-3.4-.1-.2 3.7 3.4.1.2-3.7z" fill="url(#paint17_linear)"/><path opacity=".3" d="M42.8 118.4l-25.3-1.2c-.5 0-.8.4-.9.8v.1c0 .5.4.9.8.9l25.3 1.1c.4 0 .8-.3.8-.8s-.3-.9-.7-1zM42.8 113.6l-25.3-1.1c-.5 0-.8.3-.9.8v.1c0 .4.4.8.8.8l25.3 1.2c.4 0 .8-.3.8-.8v-.1c0-.5-.3-.8-.7-.9zM42.8 108.9l-25.3-1.1c-.5 0-.8.3-.9.7v.2c0 .4.4.8.8.8l25.3 1.2c.4 0 .8-.4.8-.8v-.1c0-.5-.3-.9-.7-.9zM42.8 104.2L17.5 103c-.5 0-.8.4-.9.8v.1c0 .5.4.9.8.9l25.3 1.1c.4 0 .8-.3.8-.8s-.3-1-.7-1z" fill="#1280FF"/><path d="M132.1 35.4c.4-.8.4-1.8 1-2.2.4.3.5.8.5 1.3 0 .7-.1 1.4-.4 2-.3.6-.8 1.1-1.4 1.4a1 1 0 01-1 0 .7.7 0 01-.2-.8c.2-.8 1.2-1 1.5-1.7z" fill="url(#paint18_linear)"/><defs><linearGradient id="paint0_linear" x1="102.5" y1="36.5" x2="107.4" y2="36.5" gradientUnits="userSpaceOnUse"><stop stop-color="#E5C5D5"/><stop offset=".4" stop-color="#EAD4D1"/><stop offset="1" stop-color="#F0E9CB"/></linearGradient><linearGradient id="paint1_linear" x1="145.3" y1="42.7" x2="136.7" y2="37.9" gradientUnits="userSpaceOnUse"><stop stop-opacity="0"/><stop offset="1"/></linearGradient><linearGradient id="paint2_linear" x1="2839" y1="3590.4" x2="2034.5" y2="12292.5" gradientUnits="userSpaceOnUse"><stop stop-opacity="0"/><stop offset="1"/></linearGradient><linearGradient id="paint3_linear" x1="4275.3" y1="2789.1" x2="4768.6" y2="2789.1" gradientUnits="userSpaceOnUse"><stop stop-color="#E5C5D5"/><stop offset=".4" stop-color="#EAD4D1"/><stop offset="1" stop-color="#F0E9CB"/></linearGradient><linearGradient id="paint4_linear" x1="4185.4" y1="1942.8" x2="4257.2" y2="1033.8" gradientUnits="userSpaceOnUse"><stop stop-opacity="0"/><stop offset="1"/></linearGradient><linearGradient id="paint5_linear" x1="6871.2" y1="7478.6" x2="10303.8" y2="9049.8" gradientUnits="userSpaceOnUse"><stop stop-opacity="0"/><stop offset="1"/></linearGradient><linearGradient id="paint6_linear" x1="7547.9" y1="3095.8" x2="9367.3" y2="3095.8" gradientUnits="userSpaceOnUse"><stop stop-color="#E5C5D5"/><stop offset=".4" stop-color="#EAD4D1"/><stop offset="1" stop-color="#F0E9CB"/></linearGradient><linearGradient id="paint7_linear" x1="3716.1" y1="819.6" x2="3705.6" y2="1499" gradientUnits="userSpaceOnUse"><stop stop-opacity="0"/><stop offset="1"/></linearGradient><linearGradient id="paint8_linear" x1="251.1" y1="872" x2="251.9" y2="944.9" gradientUnits="userSpaceOnUse"><stop stop-opacity="0"/><stop offset=".8" stop-opacity=".7"/><stop offset="1"/></linearGradient><linearGradient id="paint9_linear" x1="316.7" y1="2115.8" x2="407.8" y2="2115.8" gradientUnits="userSpaceOnUse"><stop stop-color="#E5C5D5"/><stop offset=".4" stop-color="#EAD4D1"/><stop offset="1" stop-color="#F0E9CB"/></linearGradient><linearGradient id="paint10_linear" x1="11229.2" y1="2056.1" x2="11709.3" y2="1008.7" gradientUnits="userSpaceOnUse"><stop stop-opacity="0"/><stop offset="1"/></linearGradient><linearGradient id="paint11_linear" x1="7012.4" y1="3032.7" x2="8553.1" y2="3032.7" gradientUnits="userSpaceOnUse"><stop stop-color="#E5C5D5"/><stop offset=".4" stop-color="#EAD4D1"/><stop offset="1" stop-color="#F0E9CB"/></linearGradient><linearGradient id="paint12_linear" x1="1590.6" y1="666.5" x2="1558.3" y2="670" gradientUnits="userSpaceOnUse"><stop stop-color="#E5C5D5"/><stop offset=".4" stop-color="#EAD4D1"/><stop offset="1" stop-color="#F0E9CB"/></linearGradient><linearGradient id="paint13_linear" x1="248.8" y1="913.1" x2="249.6" y2="985.9" gradientUnits="userSpaceOnUse"><stop stop-opacity="0"/><stop offset=".8" stop-opacity=".7"/><stop offset="1"/></linearGradient><linearGradient id="paint14_linear" x1="248.8" y1="913.1" x2="249.6" y2="985.9" gradientUnits="userSpaceOnUse"><stop stop-opacity="0"/><stop offset=".8" stop-opacity=".7"/><stop offset="1"/></linearGradient><linearGradient id="paint15_linear" x1="247.5" y1="953.4" x2="248.3" y2="1026.2" gradientUnits="userSpaceOnUse"><stop stop-opacity="0"/><stop offset=".8" stop-opacity=".7"/><stop offset="1"/></linearGradient><linearGradient id="paint16_linear" x1="247.5" y1="953.4" x2="248.3" y2="1026.2" gradientUnits="userSpaceOnUse"><stop stop-opacity="0"/><stop offset=".8" stop-opacity=".7"/><stop offset="1"/></linearGradient><linearGradient id="paint17_linear" x1="247.5" y1="953.4" x2="248.3" y2="1026.2" gradientUnits="userSpaceOnUse"><stop stop-opacity="0"/><stop offset=".8" stop-opacity=".7"/><stop offset="1"/></linearGradient><linearGradient id="paint18_linear" x1="1004.5" y1="420.7" x2="1076.1" y2="434.4" gradientUnits="userSpaceOnUse"><stop stop-color="#E5C5D5"/><stop offset=".4" stop-color="#EAD4D1"/><stop offset="1" stop-color="#F0E9CB"/></linearGradient></defs></svg>