<svg width="194" height="180" fill="none" xmlns="http://www.w3.org/2000/svg"><path opacity=".4" d="M26 20.3C32.6 9.1 47 5.4 60 5.4s26.2 2.7 38.9 0c5.8-1.2 11.5-3.6 17.5-3.9C129 .8 140.2 9.3 150 17.4L168 32c7.3 6 14.8 12.2 19.2 20.5a36 36 0 013.4 24c-2 10-8.5 19.5-6.9 29.6.8 5.1 3.6 9.7 5.4 14.5a39.2 39.2 0 01-23.5 50.6c-13.5 4.8-28.5 1.9-42.7-.1-27.2-3.7-54.8-3.6-82.2-5.2-4.7-.2-9.8-.7-13.5-3.6-5.4-4.2-6.3-12-6.4-18.8-.4-18.1.9-36.2 2.7-54.2a79 79 0 00-3.6-35.8c-3-8.7 1.2-25.2 6-33.3z" fill="#BAE5FF"/><path d="M81.8 27.5l1.6 2.8 11.1-5 1.1 1.8S84.1 38.6 83.4 38.5c-.7-.2-5.3-8.2-5.3-8.2l3.7-2.8z" fill="url(#paint0_linear)"/><path d="M77.7 17l5 9.8-4.4 3.8-.6-13.6z" fill="#FA3D38"/><path opacity=".7" d="M77.7 17l5 9.8-4.4 3.8-.6-13.6z" fill="url(#paint1_linear)"/><path d="M87.4 35.5L90.1 17l10.8-.2-3.5 18.8-10-.1zM117.8 99.1h3.2v-23a5.7 5.7 0 015.7-5.6h14.8v-3.2h-14.8a8.8 8.8 0 00-8.9 8.9v23z" fill="#1280FF"/><path d="M118 99.1h3v-23a5.7 5.7 0 015.8-5.6h14.8v-3.2h-14.9a8.8 8.8 0 00-8.8 8.9v23z" fill="url(#paint2_linear)"/><path d="M79 50.6H22.4a13 13 0 00-13 13V142a13 13 0 0013 13.1h56.8a13 13 0 0013-13V63.6a13 13 0 00-13-13.1z" fill="url(#paint3_linear)"/><path d="M87.8 143.8a1.6 1.6 0 011.6-1.6h14a5.7 5.7 0 005.6-5.7v-14.8h3.2v14.8a8.9 8.9 0 01-8.8 8.9h-14a1.6 1.6 0 01-1.1-.5 1.6 1.6 0 01-.5-1.1zM147 148.8v-3.2h-22.8a5.7 5.7 0 01-5.7-5.7v-14.8h-3.2v14.8a8.9 8.9 0 008.9 8.9H147z" fill="#1280FF"/><path d="M87.8 143.8a1.6 1.6 0 011.6-1.6h14a5.7 5.7 0 005.6-5.7v-14.8h3.2v14.8a8.9 8.9 0 01-8.8 8.9h-14a1.6 1.6 0 01-1.1-.5 1.6 1.6 0 01-.5-1.1z" fill="url(#paint4_linear)"/><path d="M147 148.8v-3.2h-22.8a5.7 5.7 0 01-5.7-5.7v-14.8h-3.2v14.8a8.9 8.9 0 008.9 8.9H147z" fill="url(#paint5_linear)"/><path d="M194 174.6a5.4 5.4 0 01-5.4 5.4H10.8a5.4 5.4 0 01-4.3-8.6 5.4 5.4 0 014.3-2.2h177.8a5.4 5.4 0 015.4 5.4z" fill="#1280FF"/><path d="M81.2 148.3H12.6v23.3h68.6v-23.3z" fill="#0D3DBF"/><path d="M69.8 50.6H13.1A13 13 0 000 63.6V142a13 13 0 0013 13.1h56.8a13 13 0 0013-13V63.6a13 13 0 00-13-13.1z" fill="#1280FF"/><path d="M133.3 94.9H99v32.3h34.3V94.9z" fill="#435276"/><path d="M133.1 90.3H99.8a3.4 3.4 0 00-3.5 3.4v5.9c0 2 1.6 3.4 3.5 3.4H133c2 0 3.5-1.5 3.5-3.4v-5.9c0-1.9-1.6-3.4-3.5-3.4zM133.1 105H99.8a3.4 3.4 0 00-3.5 3.5v5.9c0 1.9 1.6 3.4 3.5 3.4H133c2 0 3.5-1.5 3.5-3.4v-6c0-1.8-1.6-3.4-3.5-3.4zM133.1 119.8H99.8a3.4 3.4 0 00-3.5 3.5v5.8c0 2 1.6 3.5 3.5 3.5H133c2 0 3.5-1.6 3.5-3.5v-5.8c0-2-1.6-3.5-3.5-3.5z" fill="#1280FF"/><path d="M115 90.3H112V67.4a5.7 5.7 0 00-5.7-5.7h-17a1.6 1.6 0 010-3.1h17a8.8 8.8 0 018.9 8.8v23z" fill="#1280FF"/><path d="M115 90.3H112V67.4a5.7 5.7 0 00-5.7-5.7h-17a1.6 1.6 0 010-3.1h17a8.8 8.8 0 018.9 8.8v23z" fill="url(#paint6_linear)"/><path d="M130.8 97.8a1.4 1.4 0 100-2.7 1.4 1.4 0 000 2.7z" fill="url(#paint7_linear)"/><path d="M127.4 97.8a1.4 1.4 0 100-2.7 1.4 1.4 0 000 2.7z" fill="url(#paint8_linear)"/><path d="M124 97.8a1.4 1.4 0 100-2.7 1.4 1.4 0 000 2.7z" fill="url(#paint9_linear)"/><path d="M117.3 34.8H181a6.2 6.2 0 006.2-6.3 13.2 13.2 0 00-13-13.2h-5.5a13.2 13.2 0 00-13-13.1H147a13.1 13.1 0 00-13.2 13.1V18h-7.3a13.1 13.1 0 00-13 12.7 4 4 0 003.8 4zM44.6 34.8H5.9a3 3 0 01-3-3.1V31a7.8 7.8 0 017.8-7.8h3.2a7.9 7.9 0 017.8-7.9H27a7.8 7.8 0 017.8 7.9v1.6h4.4a7.8 7.8 0 017.8 7.5 2.3 2.3 0 01-2.3 2.5z" fill="#1280FF"/><path d="M68.8 75.6H14.3a3.9 3.9 0 000 7.8h54.5a3.9 3.9 0 000-7.8z" fill="#fff"/><path d="M50.3 77.1H14.7a2.5 2.5 0 000 5h35.6c1.3 0 2.5-1 2.5-2.5 0-1.4-1.2-2.5-2.5-2.5zM172.4 50.6h-26.3a6 6 0 00-6.1 6V93a6 6 0 006 6.1h26.4a6 6 0 006-6V56.5a6 6 0 00-6-6z" fill="#1280FF"/><path d="M172.4 50.6h-7.8a6 6 0 00-6.1 6V93a6 6 0 006 6.1h8a6 6 0 006-6V56.5a6 6 0 00-6-6z" fill="url(#paint10_linear)"/><path d="M178.5 56.6H140a6 6 0 016-6h26.4a6 6 0 016 6z" fill="url(#paint11_linear)"/><path d="M178.5 93a6 6 0 01-6 6.1H146a6 6 0 01-6-6h38.4z" fill="url(#paint12_linear)"/><path d="M189.7 166.5h-43.9v-55.7l32.6-.4 11.7 8.8-.4 47.3zm-42.2-1.7H188l.5-44.7-10.7-8-30.3.4v52.3z" fill="#FA3D38"/><path d="M189.7 120.6l-10 .1-1.7-9.7 11.7 9.6zm-8.5-1.5l4.8-.3-5.5-4 .7 4.3zM182.2 123h-27.4a1 1 0 000 2h27.4c.5-.2 1-.6 1-1.1 0-.6-.5-1-1-1zM182.2 129.3h-27.4a1 1 0 000 2h27.4c.5 0 1-.5 1-1 0-.6-.5-1-1-1zM182.2 135.7h-27.4a1 1 0 000 2h27.4c.5-.1 1-.5 1-1 0-.6-.5-1-1-1zM182.2 142h-27.4a1 1 0 000 2h27.4c.5 0 1-.5 1-1s-.5-1-1-1zM182.2 148.4h-27.4a1 1 0 000 2h27.4c.5 0 1-.5 1-1 0-.6-.5-1-1-1zM182.2 154.8h-27.4a1 1 0 000 2h27.4c.5 0 1-.5 1-1 0-.6-.5-1-1-1z" fill="#FA3D38"/><path d="M96.5 81.3H88a.7.7 0 010-1.4h8.4a6.5 6.5 0 006.5-6.6v-14a7.7 7.7 0 017.7-7.7h16.7a7 7 0 007-7V33.2h1.4v11.4a8.5 8.5 0 01-8.4 8.4h-16.7a6.2 6.2 0 00-6.3 6.3v14a8 8 0 01-8 8zM47 50h1.4v-.8a7.7 7.7 0 00-7.7-7.7h-7.3a5.9 5.9 0 01-5.9-5.9v-1.1h-1.4v1.1a7.3 7.3 0 007.3 7.3h7.3a6.2 6.2 0 016.3 6.3v.8z" fill="#1280FF"/><path opacity=".3" d="M173.7 61h-28.3v19.2h28.3V61z" fill="#fff"/><path d="M167.6 174.7a5.4 5.4 0 01-4.3 5.3H10.8a5.4 5.4 0 01-4.3-8.6c.8-1 2-1.8 3.3-2h152.4a5.4 5.4 0 015.4 5.3z" fill="url(#paint13_linear)"/><path d="M61.6 24.1v21.3h17.5V22.7s.2-7.4-3.7-7c-3.8.3-12.2-1.4-13.8 8.4z" fill="#FA3D38"/><path opacity=".7" d="M61.6 24.1v21.3h17.5V22.7s.2-7.4-3.7-7c-3.8.3-12.2-1.4-13.8 8.4z" fill="url(#paint14_linear)"/><path d="M79 45.3s11.4.4 14.7 5.7c3.2 5.4 7.6 18.8 7.6 18.8l-4 1.6-7.3-9.2-11-16.9z" fill="#fff"/><path d="M79 45.3s11.4.4 14.7 5.7c3.2 5.4 7.6 18.8 7.6 18.8l-4 1.6-7.3-9.2-11-16.9z" fill="url(#paint15_linear)"/><path d="M61.6 45.3s-1.6 7.9 2.6 9.1c4 1.3 16.7 2.6 16.7 2.6l6.3 20.8 5.2-2.4S90.4 53 87.9 50c-2.6-2.8-8.8-4.7-8.8-4.7H61.6z" fill="#fff"/><path d="M70.5 9.3c.2-1.1.5-2.2 1-3.2a5.6 5.6 0 014.6-3h.7l.7.4a4.8 4.8 0 012 3.2c.2 1.2.2 2.5.1 3.8 0 1.4-.3 3-1.6 3.7-.8.4-1.9.2-2.8-.1a.7.7 0 00-.6 0 .7.7 0 00-.2.4c-.2 1.4.2 2.8-.1 4.1a1 1 0 01-.5.8c-.2.1-.5.1-.8 0-1.2-.3-2.3-1-3.2-1.8-.4-.3-1.4-1-1.5-1.4-.2-.5.5-1.6.7-2.1l1.5-4.8z" fill="url(#paint16_linear)"/><path opacity=".7" d="M61.8 24.1l5.4 10.3 5.7-4.3s-4.2-10.7-5-11c-.9-.5-3-1.8-3.9-.4-1 1.4-2.4 3.6-2.2 5.4z" fill="url(#paint17_linear)"/><path d="M68.5 33.7s2.3 4.2 3.4 4.3c1 .1 16.2-6.5 16.2-6.5l2.4-.8.6-3c.1-.6 1-2.4-.2-2.6-1.2-.3-3 1.2-3 1.2l-.9 2.2-12.7 4-1.4-2.4-4.4 3.6z" fill="url(#paint18_linear)"/><path d="M82.1 3.6c.6-1.3 0-3-1.2-3.4-1-.3-2.1.3-3.2.3-1 0-1.9-.4-2.8-.5a4.7 4.7 0 00-5 3.5c0 .3 0 .7-.2 1-.4.6-1.3 1-1.5 1.7l.1 1.1 1.2 3.6c.2.4.5.9.9.7.2 0 .3-.3.4-.5l.8-2.3c.7 0 .6 1.7 1.3 1.6.5-.1.4-.8.2-1.3a2.4 2.4 0 012-2.8l1-.1.7-.4c.9-.4 1.8.4 2.8 0 1.1-.4 2-1.2 2.5-2.2z" fill="#0D3DBF"/><path d="M90.7 76.1l.7 2h5.8l-7.3 3.3-1.4-4.5 2.2-.8z" fill="#000"/><path d="M90.2 76.4l.7 2h5.8l-7.3 3.2-1.3-4.5 2-.7z" fill="url(#paint19_linear)"/><path d="M100.8 70l.8 2h5.7l-7.2 3.3-1.4-4.5 2.1-.8z" fill="#000"/><path d="M100.3 70.3l.8 2h5.7l-7.2 3.2-1.4-4.4 2.1-.8z" fill="url(#paint20_linear)"/><defs><linearGradient id="paint0_linear" x1="78.1" y1="31.9" x2="95.6" y2="31.9" gradientUnits="userSpaceOnUse"><stop stop-color="#ECC4D7"/><stop offset=".4" stop-color="#EFD4D1"/><stop offset="1" stop-color="#F2EAC9"/></linearGradient><linearGradient id="paint1_linear" x1="77.7" y1="23.8" x2="82.7" y2="23.8" gradientUnits="userSpaceOnUse"><stop offset="0" stop-color="#fff" stop-opacity="0"/><stop offset=".6" stop-color="#fff" stop-opacity=".4"/><stop offset=".7" stop-color="#fff" stop-opacity=".7"/><stop offset="1" stop-color="#fff"/></linearGradient><linearGradient id="paint2_linear" x1="129.7" y1="83.4" x2="130.6" y2="103.5" gradientUnits="userSpaceOnUse"><stop stop-opacity="0"/><stop offset="1"/></linearGradient><linearGradient id="paint3_linear" x1="2034.1" y1="28413.1" x2="20178.6" y2="28413.1" gradientUnits="userSpaceOnUse"><stop stop-opacity="0"/><stop offset="1"/></linearGradient><linearGradient id="paint4_linear" x1="7664.3" y1="9084.4" x2="7586.5" y2="7802.2" gradientUnits="userSpaceOnUse"><stop stop-opacity="0"/><stop offset="1"/></linearGradient><linearGradient id="paint5_linear" x1="12531.7" y1="8961.9" x2="12541.8" y2="8113.9" gradientUnits="userSpaceOnUse"><stop stop-opacity="0"/><stop offset="1"/></linearGradient><linearGradient id="paint6_linear" x1="8716" y1="7303.5" x2="8778.2" y2="8789.2" gradientUnits="userSpaceOnUse"><stop stop-opacity="0"/><stop offset="1"/></linearGradient><linearGradient id="paint7_linear" x1="1053.4" y1="783.6" x2="1072.7" y2="783.6" gradientUnits="userSpaceOnUse"><stop stop-opacity="0"/><stop offset="1"/></linearGradient><linearGradient id="paint8_linear" x1="1025.8" y1="783.6" x2="1045.1" y2="783.6" gradientUnits="userSpaceOnUse"><stop stop-opacity="0"/><stop offset="1"/></linearGradient><linearGradient id="paint9_linear" x1="998.5" y1="783.6" x2="1017.9" y2="783.6" gradientUnits="userSpaceOnUse"><stop stop-opacity="0"/><stop offset="1"/></linearGradient><linearGradient id="paint10_linear" x1="8082.6" y1="9583.5" x2="12862.6" y2="9626.8" gradientUnits="userSpaceOnUse"><stop stop-opacity="0"/><stop offset="1"/></linearGradient><linearGradient id="paint11_linear" x1="14590.4" y1="932.7" x2="31300.4" y2="3254.3" gradientUnits="userSpaceOnUse"><stop stop-opacity="0"/><stop offset="1"/></linearGradient><linearGradient id="paint12_linear" x1="18039.1" y1="1592" x2="18042.7" y2="2045.7" gradientUnits="userSpaceOnUse"><stop stop-opacity="0"/><stop offset="1"/></linearGradient><linearGradient id="paint13_linear" x1="207.6" y1="184.6" x2="-97.6" y2="159.7" gradientUnits="userSpaceOnUse"><stop stop-opacity="0"/><stop offset=".4" stop-opacity=".4"/><stop offset="1"/></linearGradient><linearGradient id="paint14_linear" x1="3690.8" y1="2564.2" x2="4498.6" y2="2564.2" gradientUnits="userSpaceOnUse"><stop offset="0" stop-color="#fff" stop-opacity="0"/><stop offset=".6" stop-color="#fff" stop-opacity=".4"/><stop offset=".7" stop-color="#fff" stop-opacity=".7"/><stop offset="1" stop-color="#fff"/></linearGradient><linearGradient id="paint15_linear" x1="6742.3" y1="4116.7" x2="5209.6" y2="4315.7" gradientUnits="userSpaceOnUse"><stop stop-opacity="0"/><stop offset="1"/></linearGradient><linearGradient id="paint16_linear" x1="2647" y1="578.1" x2="2993.2" y2="578.1" gradientUnits="userSpaceOnUse"><stop stop-color="#ECC4D7"/><stop offset=".4" stop-color="#EFD4D1"/><stop offset="1" stop-color="#F2EAC9"/></linearGradient><linearGradient id="paint17_linear" x1="2387.5" y1="1319.4" x2="2768.2" y2="1197" gradientUnits="userSpaceOnUse"><stop offset="0" stop-color="#fff" stop-opacity="0"/><stop offset=".6" stop-color="#fff" stop-opacity=".4"/><stop offset=".7" stop-color="#fff" stop-opacity=".7"/><stop offset="1" stop-color="#fff"/></linearGradient><linearGradient id="paint18_linear" x1="5261.1" y1="1172.4" x2="6659" y2="1172.4" gradientUnits="userSpaceOnUse"><stop stop-color="#ECC4D7"/><stop offset=".4" stop-color="#EFD4D1"/><stop offset="1" stop-color="#F2EAC9"/></linearGradient><linearGradient id="paint19_linear" x1="2096.7" y1="1167" x2="2293.8" y2="1167" gradientUnits="userSpaceOnUse"><stop stop-opacity="0"/><stop offset="1"/></linearGradient><linearGradient id="paint20_linear" x1="2338.9" y1="1077.6" x2="2536" y2="1077.6" gradientUnits="userSpaceOnUse"><stop stop-opacity="0"/><stop offset="1"/></linearGradient></defs></svg>