<svg width="700" height="438" fill="none" xmlns="http://www.w3.org/2000/svg"><path opacity=".4" d="M104.4 178.2c15.7-16.7 39.1-24.4 54.7-41.2 21.2-22.8 23.9-57.2 40.7-83.3a113.5 113.5 0 0150.4-40.6c35-15.3 74.5-17.3 110.9-5.6 16.8 5.5 32.8 13.9 50.4 16 30.4 3.8 64.4-11.1 90.4 5.1 17.8 11.2 24.5 33.3 31.3 53.2 9 26.6 22.8 40 36.1 79 6.2 18 26.9 30.5 26.2 49.6a20.2 20.2 0 01-5.8 14.3 28.6 28.6 0 01-11.3 5.4 1363 1363 0 01-431 58.5c-28.8-.8-46.1-5.5-54.3-33.2-8-26.8-9.4-55.3 11.3-77.2z" fill="#BAE5FF"/><path d="M443.2 118.4c.6-2 2.2-3.8 2.9-5.8.5-1.7.4-3.6.9-5.3a11 11 0 015.2-6.5c2.5-1.3 5.2-2.1 8-2.3a27 27 0 0117.3 4.5c5 3.5 8.5 8.7 9.8 14.7.3 1.9.7 3.8 1.2 5.6.6 1.8 2 3.5 3.8 4l-.2 2a8.7 8.7 0 016.8 6.8c.5 2.9-.4 5.9.5 8.6.9 2.6 3 4.5 3.4 7.1 0 1.6-.2 3.2-1 4.7-1.3 3.4-2.7 6.8-4.2 10.1a25 25 0 00-8-6.4c-2-.9-4-1.2-6-1.8-10.5-3.6-15.5-16.1-25.4-21.3-2.2-1.1-5-1.5-7.1-2.8-1.6-1-1.6-2.4-2.6-3.9-2.5-3.9-7-6.6-5.3-12z" fill="#3F3D56"/><path d="M449.2 142.7c.6 2.8 2.6 5.2 4.7 7.1 1.1 1 2.4 2.1 2.7 3.6 0 .5.2 1 .5 1.4.6.8 1.9.7 2.9.3a8.6 8.6 0 004.4-6c.5-2.5.2-5.1-.8-7.5a16.7 16.7 0 00-10-9.4c-5.2-1.5-5.1 7.3-4.4 10.5z" fill="#3F3D56"/><path opacity=".2" d="M700 268.5C701 257.6 687 252 676 251.7c-22.8-.8-45.3 5-67.9 8.8-59.1 10-119.7 6.2-179.4 12.3-46.2 4.8-91.6 15.6-137.2 24.8a3141.9 3141.9 0 01-161.4 27.8c-26.4 4-53.1 9.2-79.8 11.4-12.2 1-46-.7-50.3 16.9-1 4.2 4.2 7 8.4 8a1259 1259 0 00103.6 25c22.7 4.1 45.8 7 67.7 14 19.3 6.3 37.4 15.5 56.6 21.8 32.4 10.6 67 12.6 101.1 14.5 8.5.5 17 1 25.4-.5 10.7-1.8 20.7-6.6 30.6-11.4L685 283.4" fill="#1280FF"/><path d="M205.6 155l13-29.2s14.1-6.8 23.9-1c9.8 6 1.5 25.7 0 32-1.5 6.2-11.1 8.6-14.8 5.7-3.6-2.8-8.4 5.6-8.4 5.6L205.6 155z" fill="url(#paint0_linear)"/><path d="M677.2 273.2l-390 138.7a77 77 0 01-51 .2L41.7 344.5a12.5 12.5 0 01-8.7-12.1 12.7 12.7 0 0110.2-12.7l18.3-3.8 197-41.6 214.9-45.2L563 244l65.5 10.9 48.6 18.3z" fill="url(#paint1_linear)"/><path d="M695.8 245.7a29.2 29.2 0 01-19.4 27.5l-390 138.7a77 77 0 01-51 .2L40.8 344.5c-1.5-.5-2.8-1.3-4-2.2l-4.6-8.3v-37.2l225.6-22.5L562.2 244 681 232.2a13.5 13.5 0 0113.2 7" fill="#1280FF"/><path d="M695.8 245.7a29.2 29.2 0 01-19.4 27.5l-390 138.7a77 77 0 01-51 .2L40.8 344.5c-1.5-.5-2.8-1.3-4-2.2l-4.6-8.3v-37.2l225.6-22.5L562.2 244 681 232.2a13.5 13.5 0 0113.2 7" fill="url(#paint2_linear)"/><path d="M694.9 239.2a29.1 29.1 0 01-17.7 17.8l-390 138.7a77 77 0 01-51 .2L41.7 328.3c-1.5-.5-2.9-1.2-4-2.2l-4.6-8.3-.1-.1v-21l225.6-22.4L563.1 244l118.6-11.8a13.5 13.5 0 0113.2 7" fill="url(#paint3_linear)"/><path d="M688.3 233.2l-401 143.1a77 77 0 01-51 .2L41.7 309c-12.4-4.3-11.3-22.1 1.5-24.8l411.3-91a39.2 39.2 0 0115.6-.3l207.6 36.7c1.6.3 12.1 3 10.6 3.6z" fill="#1280FF"/><path d="M452.4 157.8s-17.5 20.8-24 27.6c-8.7 9.2-33.2 0-33.2 0l10 20.3 9.8 1.3 34.3-24.6 3-24.6z" fill="url(#paint4_linear)"/><path d="M390.4 179.8l-.9-2.4h4.2v-1.8h3.4V174l5.9 1.9 8.7 2 2.3-1 27.2 6.6-.5 1.6-27.6 11.8-11.9-2-10.8-15zM285.4 162.6s4.1-23.6 5.2-31.3c2-14.2 7.5-19 13.2-19.9 23.7-3.1 30-3.8 55.3-.2 12.4 1.8 15 49.9 15.6 63.4 0 2.3-.6 4.5-1.9 6.4l-8.8 6.3-2.6 22.2-64 3.3-.5-24.8-25.3-.6.8-19.2 13-5.6z" fill="#1280FF"/><path d="M296.9 188l3.7-53.3s25.3-.7 25.1 3.2c0 4-18.4 40-18.4 40l-10.4 10z" fill="url(#paint5_linear)"/><path d="M340.5 108.7c1.5-.3 3 0 4.3.7 0 0-3.1 13.8-14.8 19-11.7 5.3-13.8-13.3-13.8-13.3l24.3-6.4z" fill="url(#paint6_linear)"/><path d="M265.7 166.3a2 2 0 00-1 .2c-.7.4-.6 1.5 0 2.1.5.6 1.2 1 2 1.3a1.3 1.3 0 01.7.7l-.1.7c-.7 1.8-2.9 2.4-4.7 3-2.8.7-5.5 1.8-8 3.2-.4 0-.6.3-.8.6-.2.8.9 1.3 1.7 1.3h5.8c-.5.4-1 .9-1 1.5.2.6.8.8 1.3.8.6 0 1.1 0 1.7.2.8.4 1.2 1.4 2 2 .8.4 1.7.5 2.5.3 1.7-.2 3.3-.6 4.9-1a7 7 0 002.5-1.4c.9-.8 1.5-2 1.7-3.1.8-2.6 1.9-7.7-.4-9.8-2.2-2.2-7.9-2.5-10.8-2.6z" fill="url(#paint7_linear)"/><path d="M219.3 168.1l19 30.7s6 11 13.2 9.5c7.1-1.5 13.9-10.5 13.9-10.5l9.5 9.8s-15 25.3-31.4 23.1c-9.1-1.2-28.6-20.2-28.6-20.2l4.4-42.4z" fill="#1280FF"/><path d="M219.3 168.1l19 30.7s6 11 13.2 9.5c7.1-1.5 13.9-10.5 13.9-10.5l9.5 9.8s-15 25.3-31.4 23.1c-9.1-1.2-28.6-20.2-28.6-20.2l4.4-42.4z" fill="url(#paint8_linear)"/><path d="M57.6 281l374.1-76 210.8 40L307 362 57.6 281z" fill="url(#paint9_linear)"/><path opacity=".2" d="M260.1 303.8a28.9 28.9 0 0031.5 19.6c9-1.6 16.5-7.2 24.3-11.8a111.3 111.3 0 0163.7-15c13.3 1 27.4 4.2 39.4-1.7 8.3-4 14-11.9 21.7-17 6.5-4.3 14.1-6.6 21.2-10 10.9-5.2 23.3-19 41-31.8 10.3-7.6 28.3-14.6 33.1-19.9-9.8-2.7-18.7 8.7-33.2 10.2-30.2 3.1-70 1.2-91.2 4-25.3 3.2-50.5 6.4-75.5 11.5-53.2 10.8-105.2 25-158.8 34-10.7 1.9-38.2 3.4-44.8 14-10 15.9 21.4 23.3 31.6 24.5 8 1 98.3-3 96-10.6z" fill="#1D2741"/><path d="M374.2 262.5s-11.4.4-13.5 3.3c-2.1 2.8 2.1 5.2 2.1 5.2l22.8-9.3-11.4.8zM366.9 210.5s6-.3 8.8 4.4c2.9 4.7 2.9 15.8 2.9 15.8s-4.8 6-10.1 4c-5.4-2.1-3.1-13.8-3.1-13.8l1.5-10.4z" fill="#25233A"/><path d="M308.7 251.6L328 241l-.6-19.7s-22.4 8.4-22.8 9.6c-.4 1 4.2 20.7 4.2 20.7z" fill="url(#paint10_linear)"/><path d="M296.5 197.4s-16.2 37.6-11.2 48.3c2.9 6.2 10.1 8 15.7 8.5a8.9 8.9 0 009.3-6.2c4-12.5 13.7-36.8 19 5 .9 7 24.5 3.6 28.4.2 3.8-3.3 12.6-24.1 12.6-24.1s-1.8-6.5-5.5-8.2c0 0 4.9-18.5-2.9-21.4 0 0-55.5 15.1-65.4-2.1z" fill="#1280FF"/><path d="M296.5 197.4s-16.2 37.6-11.2 48.3c2.9 6.2 10.1 8 15.7 8.5a8.9 8.9 0 009.3-6.2c4-12.5 13.7-36.8 19 5 .9 7 24.5 3.6 28.4.2 3.8-3.3 12.6-24.1 12.6-24.1s-1.8-6.5-5.5-8.2c0 0 4.9-18.5-2.9-21.4 0 0-55.5 15.1-65.4-2.1z" fill="url(#paint11_linear)"/><path d="M212.8 230.7s70.4 19.4 83.4 25.6c13 6.2 16 6.8 16 6.8l-5 14.5-135.5-14 41-32.9z" fill="#1280FF"/><path d="M212.8 230.7s70.4 19.4 83.4 25.6c13 6.2 16 6.8 16 6.8l-5 14.5-135.5-14 41-32.9z" fill="url(#paint12_linear)"/><path d="M309 271.9l-26.3-6.7-14.4-18.4-58 18.4 2.6 3.9 94.2 8.5 2-5.7z" fill="url(#paint13_linear)"/><path d="M124.6 311.3l50.3 16.3h1.2l.4-.2a1.7 1.7 0 00-.1-3.2l-50.8-16c-.4-.2-.8-.2-1.1 0a1.7 1.7 0 000 3.1z" fill="#25233A"/><path d="M513.9 214l63.4 12.2c1.6.3 3.3.2 4.9-.4l5-2a2 2 0 00-.3-3.9l-61-11.4a11 11 0 00-5.6.4l-6.6 2.2a1.5 1.5 0 00.2 2.9z" fill="#1280FF"/><path d="M513.9 214l63.4 12.2c1.6.3 3.3.2 4.9-.4l5-2a2 2 0 00-.3-3.9l-61-11.4a11 11 0 00-5.6.4l-6.6 2.2a1.5 1.5 0 00.2 2.9z" fill="url(#paint14_linear)"/><path d="M513.9 211.2l63.4 12.3c1.6.3 3.3.1 4.9-.5l5-2a2 2 0 00-.3-3.8l-61-11.4c-1.9-.4-3.8-.3-5.6.3l-6.6 2.2a1.5 1.5 0 00.2 3zM285 154.8s1.5-2.4 5.8-2.2c4.3.3 12.1 2.3 12.1 2.3l-27.2 57.9h-13.2a3.2 3.2 0 01-2.9-4.6l25.4-53.4z" fill="#1280FF"/><path d="M285 154.8s1.5-2.4 5.8-2.2c4.3.3 12.1 2.3 12.1 2.3l-27.2 57.9h-13.2a3.2 3.2 0 01-2.9-4.6l25.4-53.4z" fill="url(#paint15_linear)"/><path d="M287.8 154.8s1.6-2.4 5.9-2.2c2.8.3 5.7.8 8.5 1.4a3 3 0 012 4.2l-24.5 52.3a4 4 0 01-3.6 2.3h-10.7a3.2 3.2 0 01-3-4.6l25.4-53.4z" fill="#1280FF"/><path d="M287.8 154.8s1.6-2.4 5.9-2.2c2.8.3 5.7.8 8.5 1.4a3 3 0 012 4.2l-24.5 52.3a4 4 0 01-3.6 2.3h-10.7a3.2 3.2 0 01-3-4.6l25.4-53.4z" fill="url(#paint16_linear)"/><path d="M152.7 263.2s-12-35.7 21.2-79.9c12.6-16.6 22.6-25 30.2-29a11.9 11.9 0 0117.3 11.8 24238 24238 0 00-6.5 62.5c0 .4-50.3 41.5-62.2 34.6z" fill="#1280FF"/><path d="M192 177.9s-26.2 44-20.2 73c0 0 45.6-18 43-22.3-2.4-4.3-2-50.7-2-50.7h-20.7z" fill="url(#paint17_linear)"/><path d="M290.6 283.7a49.2 49.2 0 01-18 5.3c-11.6-9-22.5-18.8-32.6-29.4-21 14.8-45.7 27.8-71.3 25-3.2-.3-6.3-1.2-9.1-2.7a19.5 19.5 0 01-4.9-4.3 17 17 0 01-4-8.8c-.5-6 4.5-8 9.4-10.6a445 445 0 0173.3-32.1c5.5-1.9 11.7-3.6 17.2-1.5 5.5 2 8.9 7.4 11.9 12.4l28.1 46.7z" fill="#1280FF"/><path d="M290.6 283.7a49.2 49.2 0 01-18 5.3c-11.6-9-22.5-18.8-32.6-29.4-21 14.8-45.7 27.8-71.3 25-3.2-.3-6.3-1.2-9.1-2.7a19.5 19.5 0 01-4.9-4.3 17 17 0 01-4-8.8c-.5-6 4.5-8 9.4-10.6a445 445 0 0173.3-32.1c5.5-1.9 11.7-3.6 17.2-1.5 5.5 2 8.9 7.4 11.9 12.4l28.1 46.7z" fill="url(#paint18_linear)"/><path d="M192 177.9s13.6 40.9 20.4 46.4c6.8 5.5 45-29.6 45-29.6v-13.6l-32.6 14.2s-1.8-34-5-36c-3.3-2.2-23.6-4.5-27.7 18.6z" fill="#1280FF"/><path d="M192 177.9s13.6 40.9 20.4 46.4c6.8 5.5 45-29.6 45-29.6v-13.6l-32.6 14.2s-1.8-34-5-36c-3.3-2.2-23.6-4.5-27.7 18.6z" fill="url(#paint19_linear)"/><path d="M261.4 178.4c1.3-.4 2.5-.7 3.8-.8 2.8-.4 4-1.1 6.7-1 3.1 0 .8 2.2 0 2.5a8 8 0 00-2.7 1.2c-1.3 1.1-1.1 3.1-1.3 4.8a9.7 9.7 0 01-10.5 8.6 2.3 2.3 0 01-1.8-.8c-.2-.4-.3-.9-.3-1.4-.1-2.3-1-5.8.2-8 .9-1.4 4-5 6-5z" fill="url(#paint20_linear)"/><path d="M210.6 119.8a9.1 9.1 0 00-3.4 5.6c-.4 2.1-.6 4.4-.6 6.6-.2 3.3-.7 6.5-1.5 9.6.3-.2.6-.3.9-.2v2.6l1.5-.2c0 2.2 0 4.4-.3 6.6a30.7 30.7 0 009.1-8.4v-1c-.2-1.6 0-3.2.8-4.6.9-1.3 2.7-2.1 4-1.3 1.8 1 1.7 3.4 2.2 5.4.8-1.7 1.5-3.6 1.8-5.4.1-.7.3-1.4.7-2 .4-.5.9-1 1.4-1.2 3.4-1.8 7.3-2.4 11-1.6 2.2.5 4.3 1.4 6.4 1 .4-.2 1-.2 1.4-.1.8.2 1.5 1.2 2.3 1a1.7 1.7 0 001-1 12 12 0 00-1.2-12l4.4.6a27.7 27.7 0 00-26.5-11.1c-2.2.2-4.3 1-6.1 2.4a9.4 9.4 0 00-3.4 6.5c-.2 1.9-.5 1.3-2.1 1.2-1.3-.2-2.7.2-3.8 1z" fill="#3F3D56"/><path d="M218.5 138.5l.2 1.8c0 1-.3 2.3.3 3.1.4.5 1 .9 1.5 1.1.1.1.3.2.5.1a.8.8 0 00.5-.5c.3-.8.3-1.7 0-2.6l-.5-2.4c0-.6.1-1.5-.3-2-1-1.2-2.2.4-2.2 1.4z" fill="url(#paint21_linear)"/><path d="M289.7 178.5c-.6-.7-1.5-1.4-2.2-1-.8.5-.6 1.8-.2 2.6l1.2 2.9a9 9 0 00-1.6-2.1c-.2-.3-.5-.4-.8-.5a1 1 0 00-1 .8c0 .5 0 1 .2 1.3l1 3.8a6 6 0 00-2.6-2.1h-.4c-.3.3-.3.7-.2 1.1.4 1.8 1 3.6 1.8 5.2-.5-.4-1.2-1-1.7-.6-.6.3-.4 1.3-.1 2l1.8 4.1c.2.5.5.8.9 1.1.8.3 1.6-.6 2-1.3 1.5-2.6 2.7-5.2 3.8-7.9.6-1.5 1.3-3.5 1-5-.5-1.7-1.8-3.2-2.9-4.4z" fill="url(#paint22_linear)"/><path d="M308 275.1h6.8l3.5-9.9-6.2-2.1-4.1 12z" fill="url(#paint23_linear)"/><path d="M328.6 247.2c.7-1.1 1.6-2 2.7-2.8a3.5 3.5 0 013.7-.2 4.4 4.4 0 011.5 3 26 26 0 01-.8 9.8 334.8 334.8 0 01-5.6 21.2 1.8 1.8 0 01-2 .8c-4-.2-8-1-11.7-2.2-.6-.2-1.1-.5-1.4-1a2.6 2.6 0 01.1-2.1c3.7-9.4 7.6-18.2 13.5-26.5z" fill="#25233A"/><path d="M278 288.2l5.3 4.6 10.5-3.8-3.2-5.3-12.5 4.5z" fill="url(#paint24_linear)"/><path d="M283.3 292.8l5.8 11.5 30.3-8.6s1.6-5.3-5.4-5.8c-7-.6-20.2-.9-20.2-.9l-10.5 3.8z" fill="#25233A"/><path d="M281.1 286.5l-4 1.9-4.5.6c-11.6-9-22.5-18.8-32.6-29.4-21 14.8-45.7 27.8-71.3 25-3.2-.3-6.3-1.2-9.1-2.7a19.5 19.5 0 01-4.9-4.3c5.3 3 14.1 0 14.1 0s69-35.7 73.1-36.4c4-.7 39.2 45.3 39.2 45.3z" fill="url(#paint25_linear)"/><path d="M317.4 109.7s-.6 12 7.3 14.9c8 2.8 17.9-14.9 17.9-14.9s-4-.9-5-5.9c-5.2-24.1-14.3 4.1-20.2 6z" fill="url(#paint26_linear)"/><path d="M303.1 98s2.2 22.1 13.6 25c11.4 2.9 18.7-18.8 18.7-18.8s8.1-22.3-4.4-22.4c-12.5 0-31.8-6.7-27.9 16.3z" fill="url(#paint27_linear)"/><path d="M364 187.3l-20.3 7a5 5 0 01-6.4-3.4l-2.6-8.8a4 4 0 012-4.7l18.4-9.3-3.2-33.4-55 53.3.2 9.3s3 6.7 19 7.7c16.1 1 46.5-5.5 46.5-5.5l1.4-12.2z" fill="url(#paint28_linear)"/><path d="M336.7 181.2s-5-2.1-8-1.2l-5.5 1.8a2 2 0 001 1.5c.6.5-4 1.7-7 2.4a2.6 2.6 0 00-2 3.1 6.8 6.8 0 005.9 5.3c3 .4 6.2.6 9.3.6 4.3-.3 9-6.2 9-6.2s-.5-6.5-2.7-7.3z" fill="url(#paint29_linear)"/><path d="M289 87a2.3 2.3 0 002 .5 15 15 0 01-1.8-8.7c.7.8 2 .6 3 0 .8-.6 1.5-1.5 2.5-2 .8-.4 1.6-.7 2.5-.8a47 47 0 0012.8-4.6c2.4-1.3 4.7-2.9 7.3-3.7a17 17 0 0117.3 5.5A36.4 36.4 0 00339 78c1.5 1.8 1.6 4.3 1.4 6.7-.5 5.9-2.3 11.6-5.2 16.8l.3-7.7c0-1.3-.2-3-1.6-3.4-1-.2-2 .9-2.4 1.9a9 9 0 00-.7 5c-1.9-1.1-3-3-4.3-4.7-1.4-1.7-3.2-3.3-5.3-3.1-2.4.1-4 2.3-5.9 3.8a11 11 0 01-7.7 2.3c-.6-.2-1.3-.2-1.9 0-1.6.6-1.6 2-3.4 2-1.1-.1-3.9-2-4.9-2.6a23 23 0 01-8.4-8z" fill="#3F3D56"/><path d="M473.4 235s-12.8 9.2-32.7 4.2a365 365 0 01-29.8-8.5l-21.7 26.7-.1.1-2.7-1-8.5-3.2s9.5-34.3 15-40.4c1.8-1.9 8.2-10 18.3-7.3 11.7 3 35 6.4 51 10 14.4 3.1 11.2 19.5 11.2 19.5z" fill="#1280FF"/><path d="M473.4 235s-12.8 9.2-32.7 4.2a365 365 0 01-29.8-8.5l-21.7 26.7-.1.1-2.7-1-8.5-3.2s9.5-34.3 15-40.4c1.8-1.9 8.2-10 18.3-7.3 11.7 3 35 6.4 51 10 14.4 3.1 11.2 19.5 11.2 19.5z" fill="url(#paint30_linear)"/><path d="M442.8 225.9l-2 13.3c-19.9-5-29.9-8.5-29.9-8.5l-21.7 26.7-2.8-.9 22.4-37.3 34 6.7z" fill="url(#paint31_linear)"/><path d="M462.3 215.5l-97 52.4s6 4.9 7.4 7.2c1.4 2.3 7.5 4 7.5 4s57.5-17.9 63.5-23.2c0 0 14.5-1.7 21.3-2.8 6.8-1.2 14.3-8.3 18.1-18 3.8-9.8 2.3-21 2.3-21l-23.1 1.4z" fill="#1280FF"/><path d="M462.3 215.5l-97 52.4s6 4.9 7.4 7.2c1.4 2.3 7.5 4 7.5 4s57.5-17.9 63.5-23.2c0 0 14.5-1.7 21.3-2.8 6.8-1.2 14.3-8.3 18.1-18 3.8-9.8 2.3-21 2.3-21l-23.1 1.4z" fill="url(#paint32_linear)"/><path d="M366.7 269l-7.8 4 9.6 9.4 8.6-4.4-10.4-9z" fill="url(#paint33_linear)"/><path d="M360.7 273s-10.8-14.7-14.3-13.3c-3.6 1.4-4.6 7.7-4.4 8.5.2.6 9.7 13.7 14.3 20.2a4.7 4.7 0 006.3 1.2l5-3 2.3-4.9-9.2-8.8z" fill="#25233A"/><path d="M378.7 253.6l-2.6 8.5 10.3-5.6-7.7-3z" fill="url(#paint34_linear)"/><path d="M455.7 217.7l-11.4-5.7s14.3-14.6 4.6-26.6c0 0-6.3-5-5.2-10.8.8-3.7 5.4-11.5 8.7-16.8a14 14 0 019.2-6.3l20-3.8s8.3 1 11.5 11.3c3.3 10.3-7.8 55-7.8 55l-29.6 3.7z" fill="#1280FF"/><path d="M455.7 217.7l-11.4-5.7s14.3-14.6 4.6-26.6c0 0-6.3-5-5.2-10.8.8-3.7 5.4-11.5 8.7-16.8a14 14 0 019.2-6.3l20-3.8s8.3 1 11.5 11.3c3.3 10.3-7.8 55-7.8 55l-29.6 3.7z" fill="url(#paint35_linear)"/><path d="M481.7 147.7s-14.9 16-20.1 13a4.2 4.2 0 01-2.4-3.8c0-2.7 2.4-5.3 2.4-5.3s3.8-7.8-2.9-6.7c-7 1.2-9.3-15.4-6.4-25.9 2.8-10.5 21-2.4 21.4 1.2.5 3.6 8 27.5 8 27.5z" fill="url(#paint36_linear)"/><path d="M457.5 110.9c2 .7 3 2.8 4 4.6 2.8 4.5 7 8 11.9 10 2.2 1 4.8 1.5 7 .5-1.4-2.4-2.2-5-2.5-7.8l-.6-4.7c-1.1-4.5-5.4-7.5-9.7-9.4-2.4-1.1-5-1.7-7.6-1.8a9.2 9.2 0 00-7 3 9.4 9.4 0 00-1.9 4.5c-.3 1.7-.8 5.5 1.3 3.8 1.6-1.5 2.1-3.8 5.1-2.7z" fill="#3F3D56"/><path d="M471.6 131c.8-1 1.6-1.9 2.5-2.7.3-.4.8-.7 1.2-.5l.4.4a4.3 4.3 0 01-3 6.3c2 .3-3 9.5 5 15.5 7.3 5.7 11.6.7 13 .8.3-3.6-9.4-17.6-9.5-21.2 0-1.1-.2-2.2-.7-3.2-1-1.7-4.4-3.9-6.3-2.4-1.6 1.3-2 5.1-2.6 7z" fill="#3F3D56"/><path d="M493.3 156.2a5.7 5.7 0 00-9.7-.3 12.9 12.9 0 00-2 10.3c2.3 9 21.3 29 21.3 29l14.5 26.1s-3.6 8.8 2 2c2.9-3.4 9.6-3.9 13.2-4a3.4 3.4 0 003.4-3c0-.6 0-1-.5-1-1.3.2-9.2-.7-9.2-.7l-7 1.6s-9.3-25.9-9.8-26.4c-.4-.4-8.8-20.9-16.2-33.6z" fill="url(#paint37_linear)"/><path d="M389.5 179.8l12.3 17 16.7 2s13.4-8.1 16-9.5l8.3-4-26.6-5.6-12.3 14-2.7 1-10.8-15h-.9z" fill="#1280FF"/><path d="M389.5 179.8l12.3 17 16.7 2s13.4-8.1 16-9.5l8.3-4-26.6-5.6-12.3 14-2.7 1-10.8-15h-.9z" fill="url(#paint38_linear)"/><path d="M393.7 175.6l8.5 16.6.5 1.2 1.2.3-6.8-18h-3.4zM389.5 177.4l12.3 16.7h.8l-9-16.7h-4zM397.1 174l6.8 17.2 7.8-13.3-14.6-4z" fill="#1280FF"/><path d="M393.7 175.6l8.5 16.6.5 1.2 1.2.3-6.8-18h-3.4z" fill="url(#paint39_linear)"/><path d="M389.5 177.4l12.3 16.7h.8l-9-16.7h-4z" fill="url(#paint40_linear)"/><path d="M397.1 174l6.8 17.2 7.8-13.3-14.6-4z" fill="url(#paint41_linear)"/><path d="M372.7 275.1s50-17.8 70.2-26.6c3.8-1.7 7.9-2.9 12-3.6 5-.9 12-2.6 16.7-5.7 8-5.4 13.7-16.4 13.7-16.4s.2 24.6-20.4 30.3l-21.2 2.8s-7.4 4.3-20.9 9a3046 3046 0 01-42.6 14.1s-5.8-1.8-6.2-2.3l-1.3-1.6z" fill="url(#paint42_linear)"/><path d="M459.2 157c0-2.8 2.4-5.4 2.4-5.4s3.8-7.8-2.9-6.7c11-1.8 9.6-9 12.2-2.4 4.3 10.9-11.1 14.4-11.7 14.4z" fill="url(#paint43_linear)"/><defs><linearGradient id="paint0_linear" x1="205.6" y1="145.3" x2="247.2" y2="145.3" gradientUnits="userSpaceOnUse"><stop stop-color="#ECC4D7"/><stop offset=".4" stop-color="#EFD4D1"/><stop offset="1" stop-color="#F2EAC9"/></linearGradient><linearGradient id="paint1_linear" x1="33" y1="322.7" x2="677.2" y2="322.7" gradientUnits="userSpaceOnUse"><stop stop-color="#68E1FD"/><stop offset="1" stop-color="#69B9EB"/></linearGradient><linearGradient id="paint2_linear" x1="369.1" y1="299.1" x2="456.8" y2="482.1" gradientUnits="userSpaceOnUse"><stop offset="0" stop-color="#3C3A52" stop-opacity="0"/><stop offset=".9"/></linearGradient><linearGradient id="paint3_linear" x1="354.6" y1="231.1" x2="387" y2="395.8" gradientUnits="userSpaceOnUse"><stop offset="0" stop-color="#fff" stop-opacity="0"/><stop offset="1" stop-color="#fff"/></linearGradient><linearGradient id="paint4_linear" x1="28951" y1="14400.2" x2="28310.3" y2="16201.3" gradientUnits="userSpaceOnUse"><stop stop-color="#ECC4D7"/><stop offset=".4" stop-color="#EFD4D1"/><stop offset="1" stop-color="#F2EAC9"/></linearGradient><linearGradient id="paint5_linear" x1="305.2" y1="160.6" x2="287.5" y2="162.7" gradientUnits="userSpaceOnUse"><stop offset="0" stop-color="#fff" stop-opacity="0"/><stop offset=".3" stop-color="#fff" stop-opacity=".4"/><stop offset="1" stop-color="#fff"/></linearGradient><linearGradient id="paint6_linear" x1="323.5" y1="116.1" x2="386" y2="133.9" gradientUnits="userSpaceOnUse"><stop offset="0" stop-color="#3C3A52" stop-opacity="0"/><stop offset="1"/></linearGradient><linearGradient id="paint7_linear" x1="7805.8" y1="5447.7" x2="7790.9" y2="5140.3" gradientUnits="userSpaceOnUse"><stop stop-color="#ECC4D7"/><stop offset=".4" stop-color="#EFD4D1"/><stop offset="1" stop-color="#F2EAC9"/></linearGradient><linearGradient id="paint8_linear" x1="16330.6" y1="19593.4" x2="23743.3" y2="24854.7" gradientUnits="userSpaceOnUse"><stop offset="0" stop-color="#3C3A52" stop-opacity="0"/><stop offset="1"/></linearGradient><linearGradient id="paint9_linear" x1="39666.7" y1="52617.8" x2="442391" y2="52617.8" gradientUnits="userSpaceOnUse"><stop offset="0" stop-color="#3C3A52" stop-opacity="0"/><stop offset=".9"/></linearGradient><linearGradient id="paint10_linear" x1="9029.6" y1="10802.9" x2="9079.5" y2="11584.6" gradientUnits="userSpaceOnUse"><stop offset="0" stop-color="#fff" stop-opacity="0"/><stop offset="1" stop-color="#fff"/></linearGradient><linearGradient id="paint11_linear" x1="33372.2" y1="18293.2" x2="33396.7" y2="22647.5" gradientUnits="userSpaceOnUse"><stop offset="0" stop-color="#fff" stop-opacity="0"/><stop offset=".3" stop-color="#fff" stop-opacity=".4"/><stop offset="1" stop-color="#fff"/></linearGradient><linearGradient id="paint12_linear" x1="28547.3" y1="17946.7" x2="51758.4" y2="17946.7" gradientUnits="userSpaceOnUse"><stop offset="0" stop-color="#fff" stop-opacity="0"/><stop offset="1" stop-color="#fff"/></linearGradient><linearGradient id="paint13_linear" x1="31569.9" y1="9011.8" x2="31167.5" y2="12472.8" gradientUnits="userSpaceOnUse"><stop offset="0" stop-color="#3C3A52" stop-opacity="0"/><stop offset=".9"/></linearGradient><linearGradient id="paint14_linear" x1="46306.6" y1="6242.6" x2="53083.4" y2="6242.6" gradientUnits="userSpaceOnUse"><stop offset="0" stop-color="#3C3A52" stop-opacity="0"/><stop offset=".9"/></linearGradient><linearGradient id="paint15_linear" x1="14232.9" y1="17834.7" x2="16472.8" y2="17834.7" gradientUnits="userSpaceOnUse"><stop offset="0" stop-color="#3C3A52" stop-opacity="0"/><stop offset="1"/></linearGradient><linearGradient id="paint16_linear" x1="13880.8" y1="17142.1" x2="15998.7" y2="18705" gradientUnits="userSpaceOnUse"><stop offset="0" stop-color="#3C3A52" stop-opacity="0"/><stop offset="1"/></linearGradient><linearGradient id="paint17_linear" x1="8867.9" y1="22348.2" x2="15424.6" y2="26151.5" gradientUnits="userSpaceOnUse"><stop offset="0" stop-color="#3C3A52" stop-opacity="0"/><stop offset="1"/></linearGradient><linearGradient id="paint18_linear" x1="24968.3" y1="25086.6" x2="48044.3" y2="25086.6" gradientUnits="userSpaceOnUse"><stop offset="0" stop-color="#fff" stop-opacity="0"/><stop offset="1" stop-color="#fff"/></linearGradient><linearGradient id="paint19_linear" x1="15954.4" y1="20618.5" x2="23234.5" y2="19314" gradientUnits="userSpaceOnUse"><stop offset="0" stop-color="#3C3A52" stop-opacity="0"/><stop offset="1"/></linearGradient><linearGradient id="paint20_linear" x1="5715.8" y1="5262.6" x2="6124.2" y2="5262.6" gradientUnits="userSpaceOnUse"><stop stop-color="#ECC4D7"/><stop offset=".4" stop-color="#EFD4D1"/><stop offset="1" stop-color="#F2EAC9"/></linearGradient><linearGradient id="paint21_linear" x1="1060" y1="2102.5" x2="1200.7" y2="2218.6" gradientUnits="userSpaceOnUse"><stop stop-color="#ECC4D7"/><stop offset=".4" stop-color="#EFD4D1"/><stop offset="1" stop-color="#F2EAC9"/></linearGradient><linearGradient id="paint22_linear" x1="3558.2" y1="6085.8" x2="3673.2" y2="6085.8" gradientUnits="userSpaceOnUse"><stop stop-color="#ECC4D7"/><stop offset=".4" stop-color="#EFD4D1"/><stop offset="1" stop-color="#F2EAC9"/></linearGradient><linearGradient id="paint23_linear" x1="4055.5" y1="4078.7" x2="4181.3" y2="4078.7" gradientUnits="userSpaceOnUse"><stop stop-color="#ECC4D7"/><stop offset=".4" stop-color="#EFD4D1"/><stop offset="1" stop-color="#F2EAC9"/></linearGradient><linearGradient id="paint24_linear" x1="5413.3" y1="3365.5" x2="5703.1" y2="3365.5" gradientUnits="userSpaceOnUse"><stop stop-color="#ECC4D7"/><stop offset=".4" stop-color="#EFD4D1"/><stop offset="1" stop-color="#F2EAC9"/></linearGradient><linearGradient id="paint25_linear" x1="31611.4" y1="20171" x2="33538.8" y2="16026" gradientUnits="userSpaceOnUse"><stop offset="0" stop-color="#fff" stop-opacity="0"/><stop offset="1" stop-color="#fff"/></linearGradient><linearGradient id="paint26_linear" x1="330.9" y1="101.9" x2="328.9" y2="119.3" gradientUnits="userSpaceOnUse"><stop stop-color="#ECC4D7"/><stop offset=".4" stop-color="#EFD4D1"/><stop offset=".6" stop-color="#F0DACE"/><stop offset="1" stop-color="#F2EAC9"/></linearGradient><linearGradient id="paint27_linear" x1="32549.8" y1="-15129.7" x2="34030.1" y2="-15418" gradientUnits="userSpaceOnUse"><stop stop-color="#ECC4D7"/><stop offset=".4" stop-color="#EFD4D1"/><stop offset="1" stop-color="#F2EAC9"/></linearGradient><linearGradient id="paint28_linear" x1="25166.1" y1="18205.1" x2="33601.6" y2="30723.6" gradientUnits="userSpaceOnUse"><stop offset="0" stop-color="#3C3A52" stop-opacity="0"/><stop offset="1"/></linearGradient><linearGradient id="paint29_linear" x1="9323.5" y1="4647.7" x2="10017.7" y2="4647.7" gradientUnits="userSpaceOnUse"><stop stop-color="#ECC4D7"/><stop offset=".4" stop-color="#EFD4D1"/><stop offset="1" stop-color="#F2EAC9"/></linearGradient><linearGradient id="paint30_linear" x1="45277.9" y1="16498.3" x2="47312.2" y2="22146.3" gradientUnits="userSpaceOnUse"><stop offset="0" stop-color="#3C3A52" stop-opacity="0"/><stop offset="1"/></linearGradient><linearGradient id="paint31_linear" x1="26049.4" y1="13951.6" x2="29797" y2="13951.6" gradientUnits="userSpaceOnUse"><stop offset="0" stop-color="#3C3A52" stop-opacity="0"/><stop offset="1"/></linearGradient><linearGradient id="paint32_linear" x1="59278.7" y1="22580.8" x2="61099.7" y2="28005.2" gradientUnits="userSpaceOnUse"><stop offset="0" stop-color="#3C3A52" stop-opacity="0"/><stop offset="1"/></linearGradient><linearGradient id="paint33_linear" x1="8073.6" y1="4607" x2="8466.3" y2="4607" gradientUnits="userSpaceOnUse"><stop stop-color="#ECC4D7"/><stop offset=".4" stop-color="#EFD4D1"/><stop offset="1" stop-color="#F2EAC9"/></linearGradient><linearGradient id="paint34_linear" x1="4937.8" y1="2829.4" x2="5062.8" y2="2829.4" gradientUnits="userSpaceOnUse"><stop stop-color="#ECC4D7"/><stop offset=".4" stop-color="#EFD4D1"/><stop offset="1" stop-color="#F2EAC9"/></linearGradient><linearGradient id="paint35_linear" x1="26094.2" y1="19620.1" x2="37570.4" y2="22790.8" gradientUnits="userSpaceOnUse"><stop offset="0" stop-color="#fff" stop-opacity="0"/><stop offset="1" stop-color="#fff"/></linearGradient><linearGradient id="paint36_linear" x1="16724.7" y1="11470.9" x2="17830.5" y2="11470.9" gradientUnits="userSpaceOnUse"><stop stop-color="#ECC4D7"/><stop offset=".4" stop-color="#EFD4D1"/><stop offset="1" stop-color="#F2EAC9"/></linearGradient><linearGradient id="paint37_linear" x1="31449.8" y1="22063.1" x2="34968.1" y2="22063.1" gradientUnits="userSpaceOnUse"><stop stop-color="#ECC4D7"/><stop offset=".4" stop-color="#EFD4D1"/><stop offset="1" stop-color="#F2EAC9"/></linearGradient><linearGradient id="paint38_linear" x1="25788.3" y1="5897.7" x2="29553.5" y2="7379.1" gradientUnits="userSpaceOnUse"><stop offset="0" stop-color="#3C3A52" stop-opacity="0"/><stop offset="1"/></linearGradient><linearGradient id="paint39_linear" x1="5136.8" y1="4094.1" x2="5260.1" y2="4094.1" gradientUnits="userSpaceOnUse"><stop offset="0" stop-color="#fff" stop-opacity="0"/><stop offset="1" stop-color="#fff"/></linearGradient><linearGradient id="paint40_linear" x1="6387.6" y1="3848" x2="6589" y2="3848" gradientUnits="userSpaceOnUse"><stop offset="0" stop-color="#fff" stop-opacity="0"/><stop offset="1" stop-color="#fff"/></linearGradient><linearGradient id="paint41_linear" x1="7195.1" y1="3888.1" x2="7444.1" y2="3888.1" gradientUnits="userSpaceOnUse"><stop offset="0" stop-color="#fff" stop-opacity="0"/><stop offset="1" stop-color="#fff"/></linearGradient><linearGradient id="paint42_linear" x1="49784.2" y1="21264.3" x2="64718.1" y2="21264.3" gradientUnits="userSpaceOnUse"><stop offset="0" stop-color="#3C3A52" stop-opacity="0"/><stop offset="1"/></linearGradient><linearGradient id="paint43_linear" x1="7636.6" y1="4394.2" x2="7670" y2="4379" gradientUnits="userSpaceOnUse"><stop stop-color="#ECC4D7"/><stop offset=".4" stop-color="#EFD4D1"/><stop offset="1" stop-color="#F2EAC9"/></linearGradient></defs></svg>