<svg width="258" height="180" fill="none" xmlns="http://www.w3.org/2000/svg"><path opacity=".4" d="M2.7 149C-5 130.6 5.2 109.7 16 92.8A518.8 518.8 0 0157.4 37C67.9 24.6 79.4 12.4 94 5.8a75.7 75.7 0 0147.6-3.6c15.7 3.6 30.4 11.1 44 20a107.3 107.3 0 0128 24.3A140 140 0 01227 70.1l16.9 34.4c8.2 17 16.8 35.5 13.2 54a56.7 56.7 0 01-12.2 21.3s-152.6.4-195.5 0c-29.6-.3-32.8 3-46.8-30.7z" fill="#BAE5FF"/><path d="M132.6 35.2H9.9v80h122.7v-80z" fill="#1280FF"/><path d="M132.6 35.2H9.9v80h122.7v-80z" fill="url(#paint0_linear)"/><path d="M105 137.8H58.3l2.2-11h43.3l1.4 11z" fill="#1280FF"/><path opacity=".5" d="M105 137.8H60.9l2-11h40.8l1.3 11z" fill="url(#paint1_linear)"/><path d="M201.7 110.2l-.5 5.7-2.1 21.8-2.3 23.2c-.3 3.3-18.3 3.8-26 2.4-5.2-1.1-10.3-2.7-15.2-4.7 0 0 1.4-18.8 1-34.8-.5-18.9-2.8-35.4-2-36 1.6-1.3 16.5-5.9 16.5-5.9l15.4 1.4a257 257 0 0016.4 7.9c.3 1-.3 8.9-1.2 19z" fill="#FA3D38"/><path d="M159.2 113.4s-1.8 3.6-2.8 6.3l-.7 2.1a32 32 0 01-6.5 9.5c-.8.8-2.8.7-4.9-.4a9 9 0 01-4.2-4.7c-.3-1-.4-2-.3-3 .3-2.6.8-5.1 1.5-7.6l1.6-5.4c2.7-8.6 6.4-17.5 7.1-18.7 1.5-2.4 4.6-3.7 4.6-3.7l4.6 25.6z" fill="#FA3D38"/><path d="M154 125.2l-.2.6a10.8 10.8 0 01-7 7.5c-2.2.7-5.3-.6-7-2.6-.4-.5-.8-1.2-1-2-.5-1.6-.2-4 .2-6.1l.5-2.9c.2-1.5.8-2.9 1.8-4v-.1c1.1-1.4 2.6-2.4 4.3-2.8a5.6 5.6 0 015.3 2 12 12 0 013 10.4z" fill="#FA3D38"/><path d="M187 76.7s-1 7.2-.2 9.8c.7 2.7-3 10.7-8.3 11.1-5.4.5-6.3-8.7-6.4-9.8 0-1 1.5-1.7.7-4.4s13.3-10 14.2-6.7z" fill="#BB826C"/><path d="M172.8 83.4c.7 2-.2 3-.5 3.7 1.3 1.1 3 1.7 4.6 1.6 3.3-.3 7.9-3.4 9.6-8.5l.1-.3.4-3.2c-.9-3.2-15 4-14.2 6.7z" fill="#A7634C"/><path opacity=".5" d="M186.6 85.5s-3.5 10.6-7.1 12c0 0-1 .7 1.9 2 2.9 1.5 9.7-7.4 8-13.2a4.5 4.5 0 00-3-3.2l.2 2.4z" fill="url(#paint2_linear)"/><path opacity=".5" d="M173 84.5s-.6 7.6 2.9 12.5c0 0-1.1 2-2.2 2.2-1 0-4.4-6.2-3.7-11.2.3-2.9 2.3-4.2 3-3.5z" fill="url(#paint3_linear)"/><path d="M167.7 62.6s.1 14.2 1.6 17.9c1.4 3.7 5 6.6 8.2 6.3 3.3-.3 7.9-3.4 9.6-8.5 1.8-5 1.8-17.1 1-18.7-.6-1.5-4.4-6.4-13-4.8-5.9 1.1-7.6 5.6-7.4 7.8z" fill="#BB826C"/><path d="M172.7 50.4c2.3-1.4 5.1-1.2 7.7-.8 1.8.2 3.5.6 5.2 1a8 8 0 011.7.4c.7.3 1.3.8 1.8 1.3 1.3 1.3 2.3 2.8 3 4.4a11 11 0 011 3.7c.1 3-1 5.8-2.5 8.4-.2.4-.5.8-1 .9-.6 0-1-.7-1-1.3-1-2.8-1-5.3-4-7a7.2 7.2 0 00-6.5 0c-2.1 1-3.7 3.2-6 3.7.7-.8 1.3-1.8 1.7-2.9a17.4 17.4 0 01-9 .7 1 1 0 01-.4-1.4c.6-2.3 1.9-4.5 3.5-6.2 1.6-1.6 2.8-3.7 4.8-4.9z" fill="#0D3DBF"/><path d="M172.7 50.4c2.3-1.4 5.1-1.2 7.7-.8 1.8.2 3.5.6 5.2 1a8 8 0 011.7.4c.7.3 1.3.8 1.8 1.3 1.3 1.3 2.3 2.8 3 4.4a11 11 0 011 3.7c.1 3-1 5.8-2.5 8.4-.2.4-.5.8-1 .9-.6 0-1-.7-1-1.3-1-2.8-1-5.3-4-7a7.2 7.2 0 00-6.5 0c-2.1 1-3.7 3.2-6 3.7.7-.8 1.3-1.8 1.7-2.9a17.4 17.4 0 01-9 .7 1 1 0 01-.4-1.4c.6-2.3 1.9-4.5 3.5-6.2 1.6-1.6 2.8-3.7 4.8-4.9z" fill="url(#paint4_linear)"/><path d="M187.9 69s.3-3.3 2.5-2.4c2.3.8.1 7-1 7.7a3 3 0 01-1.5.6M148.3 126.5s4-3.4-.9-9.5c-4.8-6.1-20.1-23.7-20.1-23.7L124 100s11.4 28.7 16.3 29.3a9.6 9.6 0 008-2.7zM210.1 127.2l-13 18v9.7l22-22.5-9-5.2z" fill="#BB826C"/><path d="M225 130.5c-1.7 2.1-8.5 8.2-8.5 8.2l-14.1-.9h-1.9l6.2-8a4.7 4.7 0 00-.3-6l-5.2-7.9-2.5-3.9-.6-4.3c-.7-5.8-1.6-15.9.4-18.8 1.6.6 3 1.4 4.5 2.3 2.1 1.4 4.5 3.4 5.5 6 2.1 5.2 20 29.2 16.5 33.3z" fill="#FA3D38"/><path d="M197.1 145.2l-3.3-.7c-1 0-8 7.3-7.7 8.3.4.9 2.3 4 3.4 4 1-.1 7.6-2 7.6-2s3.3-9 0-9.6z" fill="#BB826C"/><path d="M250.6 137.7H45.3v4.4h205.3v-4.4z" fill="#1280FF"/><path d="M125 88.8c-.4-.7-1-1.2-1.6-1.6l-1.6-.4-3.3-.4-6.7-1c-.4 0-1 0-1.2.4-.2.4.2.9.6 1.1 1.5 1 3.7 1.3 4.6 3 .4.8.3 1.9.3 2.9a7.7 7.7 0 006.3 7 3.6 3.6 0 002.8-.6c.5-.4.9-1 1.1-1.6 1.8-3.3.7-6-1.3-8.8z" fill="#BB826C"/><path d="M245 142H49.5v37.8H245v-37.7z" fill="#1280FF"/><path opacity=".5" d="M245 142H49.5v37.8H245v-37.7z" fill="url(#paint5_linear)"/><path opacity=".2" d="M245 142H49.5v9.1H245v-9z" fill="url(#paint6_linear)"/><path d="M150.2 123c0 2.8-2.3 5-4.5 7l-1.4 1h-.2c-.8.4-1.8.5-2.7.2a7 7 0 01-1.5-.5c-2.6-1.2-4.5-3.9-6-6.4-2-2.9-3.7-6-5.1-9-.8-2-1.4-4-2-6l-.6-1.9-1-3.3c-.3-.8-.4-1.5-.4-2.3 0-1.5 1-2.7 2.2-3.7l3.3-2.8c1.8 1.1 3.4 3.8 4.8 5.5l4.4 5.5c1 1.4 2.2 2.6 3.5 3.8.8 1 1.7 1.8 2.6 2.7 1.4 1.4 2.7 2.9 3.8 4.4a7 7 0 01.8 3.7v2z" fill="#FA3D38"/><path opacity=".5" d="M156.4 119.5v.2l-.7 2.2c0 .8-.9 2.3-2 3.9a10.8 10.8 0 01-6.9 7.5c-2.2.7-5.3-.6-7-2.6-2.5-1.2-4.3-3.9-6-6.4-1.9-2.9-3.6-5.9-5-9-.8-2-1.4-4-2-6l-.6-1.9c.2-1 .7-2 1.3-2.8a38.7 38.7 0 0012.4 18.6c.6.4 1.2.9 2 1.3a3.4 3.4 0 004.5-.3 28.2 28.2 0 009.8-13c-.8 2.2.2 6 .2 8.3z" fill="url(#paint7_linear)"/><path opacity=".5" d="M212.2 129.1c-.8 1.2-9.2 8.2-9.9 8.7l-1.8-.1 6.2-7.8a4.7 4.7 0 00-.3-6l-5.2-8-2.1 21.8-9-.1 6.4-28.6c.4-.6 1-1 1.6-1.3a1.9 1.9 0 012.1.6l1.5 1.9a154 154 0 019.8 14.4c.7 1.8 1.5 3.3.7 4.5z" fill="url(#paint8_linear)"/><path d="M73.4 43h-4.6a4.7 4.7 0 100 9.6h4.6a4.7 4.7 0 100-9.5zM46 62.4h-4.6a4.7 4.7 0 100 9.5H46a4.7 4.7 0 100-9.5zM101.4 61.9h-4.6a4.7 4.7 0 100 9.4h4.6a4.7 4.7 0 100-9.4zM46.1 86.8h-4.5a4.7 4.7 0 100 9.5H46a4.7 4.7 0 100-9.5zM74.2 85.3h-4.6a4.7 4.7 0 100 9.5h4.6a4.7 4.7 0 100-9.5zM103.4 84.8H99a4.7 4.7 0 100 9.5h4.5a4.7 4.7 0 100-9.5zM74.8 61.7h-4.5a4.7 4.7 0 100 9.5h4.5a4.7 4.7 0 100-9.5z" fill="#fff"/><path d="M70.9 52l.3 9.8M47.8 66.1h19.7M76 66.1h19.7M43.8 69.4v19.7M71.3 69.4v19.7M99.6 69.4v19.7" stroke="#fff" stroke-width=".8" stroke-miterlimit="10"/><path d="M174.6 98.2l2 5.2 4.2-4.3-.6-1.2-4.3-.9-1.3 1.2z" fill="#fff"/><path d="M165.8 137.6s7.7-17.9 8.2-24.8c.3-4.1.9-8.2 1.7-12.2l2.2.7s.4 14-.4 17.6c-.9 3.6-2.5 18.5-2.5 18.5l-9.2.2z" fill="#fff"/><defs><linearGradient id="paint0_linear" x1="72.3" y1="1.2" x2="69.1" y2="221.8" gradientUnits="userSpaceOnUse"><stop offset="0" stop-color="#fff" stop-opacity="0"/><stop offset=".4" stop-color="#fff" stop-opacity=".4"/><stop offset="1" stop-color="#fff"/></linearGradient><linearGradient id="paint1_linear" x1="86.8" y1="113.2" x2="79.8" y2="157.9" gradientUnits="userSpaceOnUse"><stop offset="0"/><stop offset=".8" stop-opacity=".1"/><stop offset="1" stop-opacity="0"/></linearGradient><linearGradient id="paint2_linear" x1="185.2" y1="85.4" x2="182.5" y2="116" gradientUnits="userSpaceOnUse"><stop offset="0"/><stop offset=".1" stop-opacity=".6"/><stop offset=".8" stop-opacity=".1"/><stop offset="1" stop-opacity="0"/></linearGradient><linearGradient id="paint3_linear" x1="1830.3" y1="2584.5" x2="1678.1" y2="3275.4" gradientUnits="userSpaceOnUse"><stop offset="0"/><stop offset=".1" stop-opacity=".6"/><stop offset=".8" stop-opacity=".1"/><stop offset="1" stop-opacity="0"/></linearGradient><linearGradient id="paint4_linear" x1="192.9" y1="64.1" x2="174.8" y2="56.4" gradientUnits="userSpaceOnUse"><stop offset="0"/><stop offset=".1" stop-opacity=".8"/><stop offset="1" stop-opacity="0"/></linearGradient><linearGradient id="paint5_linear" x1="44819.6" y1="6584.1" x2="44885.7" y2="15445.9" gradientUnits="userSpaceOnUse"><stop offset="0"/><stop offset=".8" stop-opacity=".1"/><stop offset="1" stop-opacity="0"/></linearGradient><linearGradient id="paint6_linear" x1="45218.6" y1="1955.4" x2="45219.9" y2="2730.9" gradientUnits="userSpaceOnUse"><stop offset="0"/><stop offset=".8" stop-opacity=".1"/><stop offset="1" stop-opacity="0"/></linearGradient><linearGradient id="paint7_linear" x1="8501.2" y1="7435.3" x2="6224.3" y2="5769.5" gradientUnits="userSpaceOnUse"><stop offset="0"/><stop offset=".8" stop-opacity=".1"/><stop offset="1" stop-opacity="0"/></linearGradient><linearGradient id="paint8_linear" x1="7265.6" y1="8221.8" x2="7765.4" y2="5445.9" gradientUnits="userSpaceOnUse"><stop offset="0"/><stop offset=".1" stop-opacity=".6"/><stop offset=".8" stop-opacity=".1"/><stop offset="1" stop-opacity="0"/></linearGradient></defs></svg>