<svg width="196" height="180" fill="none" xmlns="http://www.w3.org/2000/svg"><path opacity=".4" d="M162.2 148.6c-5.8 2.3-12 3.6-17.7 6.1-9.3 4.2-17 11.2-25.9 16.3a64.4 64.4 0 01-24.7 8.3c-5.7.8-11.5.9-17.3.4-5.5-.4-11-1.2-16.4-2.5-8.2-1.9-16.2-4.3-24-7.4C12 160.5-3.8 112 6.8 89.2 11.4 79.2 20.5 72 27 63c12.2-16.6 15.8-39.4 31.7-52.5A52.9 52.9 0 0196.4.2c13.3 1 26 5.6 38.4 10.6 6 2.3 12 4.9 16.8 9.1 8.6 7.5 12 19 17.4 29 8.8 16.4 23.7 30.1 26.5 48.4 3.4 21.8-12.7 43.4-33.3 51.3z" fill="#BAE5FF"/><path d="M123.7 122.7H59.2v24.9h64.5v-25z" fill="#1280FF"/><path d="M123.7 122.7H59.2v24.9h64.5v-25z" fill="url(#paint0_linear)"/><path d="M123.7 121.1H59.2v25h64.5v-25z" fill="#1280FF"/><path d="M66 125.3h-4.2v3.6H66v-3.6z" fill="url(#paint1_linear)"/><path d="M66 129.6h-4.2v3.7H66v-3.7z" fill="url(#paint2_linear)"/><path d="M66 134h-4.2v3.6H66V134z" fill="url(#paint3_linear)"/><path d="M66 138.3h-4.2v3.7H66v-3.7z" fill="url(#paint4_linear)"/><path d="M71.6 125.3h-4.2v3.6h4.2v-3.6z" fill="url(#paint5_linear)"/><path d="M71.6 129.6h-4.2v3.7h4.2v-3.7z" fill="url(#paint6_linear)"/><path d="M71.6 134h-4.2v3.6h4.2V134z" fill="url(#paint7_linear)"/><path d="M71.6 138.3h-4.2v3.7h4.2v-3.7z" fill="url(#paint8_linear)"/><path d="M77.2 125.3H73v3.6h4.2v-3.6z" fill="url(#paint9_linear)"/><path d="M77.2 129.6H73v3.7h4.2v-3.7z" fill="url(#paint10_linear)"/><path d="M77.2 134H73v3.6h4.2V134z" fill="url(#paint11_linear)"/><path d="M77.2 138.3H73v3.7h4.2v-3.7z" fill="url(#paint12_linear)"/><path d="M82.8 125.3h-4.2v3.6h4.2v-3.6z" fill="url(#paint13_linear)"/><path d="M82.8 129.6h-4.2v3.7h4.2v-3.7z" fill="url(#paint14_linear)"/><path d="M82.8 134h-4.2v3.6h4.2V134z" fill="url(#paint15_linear)"/><path d="M88.4 125.3h-4.2v3.6h4.2v-3.6z" fill="url(#paint16_linear)"/><path d="M88.4 129.6h-4.2v3.7h4.2v-3.7z" fill="url(#paint17_linear)"/><path d="M88.4 134h-4.2v3.6h4.2V134z" fill="url(#paint18_linear)"/><path d="M94 125.3h-4.2v3.6H94v-3.6z" fill="url(#paint19_linear)"/><path d="M94 129.6h-4.2v3.7H94v-3.7z" fill="url(#paint20_linear)"/><path d="M94 134h-4.2v3.6H94V134z" fill="url(#paint21_linear)"/><path d="M99.6 125.3h-4.2v3.6h4.2v-3.6z" fill="url(#paint22_linear)"/><path d="M99.6 129.6h-4.2v3.7h4.2v-3.7z" fill="url(#paint23_linear)"/><path d="M99.6 134h-4.2v3.6h4.2V134z" fill="url(#paint24_linear)"/><path d="M105.2 125.3H101v3.6h4.2v-3.6z" fill="url(#paint25_linear)"/><path d="M105.2 129.6H101v3.7h4.2v-3.7z" fill="url(#paint26_linear)"/><path d="M105.2 134H101v3.6h4.2V134z" fill="url(#paint27_linear)"/><path d="M110.8 125.3h-4.3v3.6h4.3v-3.6z" fill="url(#paint28_linear)"/><path d="M110.8 129.6h-4.3v3.7h4.3v-3.7z" fill="url(#paint29_linear)"/><path d="M110.8 134h-4.3v3.6h4.3V134z" fill="url(#paint30_linear)"/><path d="M110.8 138.3h-4.3v3.7h4.3v-3.7z" fill="url(#paint31_linear)"/><path d="M116.4 125.3H112v3.6h4.3v-3.6z" fill="url(#paint32_linear)"/><path d="M116.4 129.6H112v3.7h4.3v-3.7z" fill="url(#paint33_linear)"/><path d="M116.4 134H112v3.6h4.3V134z" fill="url(#paint34_linear)"/><path d="M116.4 138.3H112v3.7h4.3v-3.7z" fill="url(#paint35_linear)"/><path d="M122 125.3h-4.3v3.6h4.3v-3.6z" fill="url(#paint36_linear)"/><path d="M122 129.6h-4.3v3.7h4.3v-3.7z" fill="url(#paint37_linear)"/><path d="M122 134h-4.3v3.6h4.3V134z" fill="url(#paint38_linear)"/><path d="M122 138.3h-4.3v3.7h4.3v-3.7z" fill="url(#paint39_linear)"/><path d="M105.3 138.5H72.1v3.6h33.2v-3.6z" fill="url(#paint40_linear)"/><path d="M68.5 138.3c0-.5.4-1.1.9-1 .3.1.4.4.5.7.3.7 1.3 1.6 1.6 2.4 0-1.8 0-6.3 1.1-8.8a.7.7 0 011.3.1c.4 3 .7 7.6.8 6.7.3-1.2 1-11 2.8-9.9.5 1.7.1 8.4-.1 10.3.5-2.4 1.4-12 3.2-11 1.2 3.1-1.2 10.9-.1 14 .2.5.6 1 1.2 1s1-.6 1-1.2v-1.7a.9.9 0 01.3-.8c.6-.2 1 .5 1.2 1 .7 2.7.6 5.5-.2 8.2a29.5 29.5 0 01-4.8 8.5l-.6.3c-1.4.4-2.8.6-4.3.6-6.2-.4-5.6-4.4-6.1-7.9-.7-3.8-.6-7.7.3-11.5z" fill="url(#paint41_linear)"/><path d="M68.6 158c.2-.6.7-1 1.2-1.3a42.2 42.2 0 0110.4 1c.2 0 .2.2.2.4.2 1.4 0 2.9-.4 4.3 0 .2-.2.3-.3.5a76.4 76.4 0 00-9.5-.4c-3 0-3-2.1-1.6-4.5z" fill="#fff"/><path d="M79.7 179.7c-5.8-.4-11.5-1.3-17.1-2.6-.2-.6-.3-1.2-.2-1.7.8-4.4 2.2-8.6 4.5-12.5.1-.4.5-.7.8-1a54.3 54.3 0 0112.6.9l.6.5c.2.3.3.7.3 1 .2 5.2-.3 10.4-1.5 15.4z" fill="#FA3D38"/><path d="M92.6 156.3c-.2-.4-.4-1 0-1.3.3-.1.5-.2.7 0 .8 0 1.6.4 2.3.8 1 .8 2.2 2 3.4 1.4 1-.4 1.1-1.8 1-3l-.6-11.3c0-.3 0-.8.3-1 .5-.3 1 .4 1.2.9l2.7 6.8c.5-1.6-.1-7.3.2-9.8a.7.7 0 011-.6l.4.4c.8 2 1.7 7 1.8 8.3.5 3.6.7.4.8-.2.3-1.5 0-6.6.8-7 1.3.1 1.8 1.8 1.8 3.2 0 1.3-.7 6.5.6 6.8.6-1.5.6-4 1.3-4.2 1.3.6.2 6-.2 7.4-1.1 3.8-.4 3.3-1.5 7.1a7 7 0 01-1.3 2.7c-.7.7-1.7 1.2-2.7 1.5-6.4 1.8-11.2-3.9-14-8.9z" fill="url(#paint42_linear)"/><path d="M100.3 170.4a1.2 1.2 0 00.4.9h.5c2.6.4 5.2.2 7.8-.5l.7-.3c.2-.3.3-.5.3-.8.3-1.8-.5-3.4-1.2-5l-.2-.3h-.4a42 42 0 01-3.7.5c-1 0-2.4-.3-3.3 0-1.6.8-1 4-.9 5.5z" fill="#fff"/><path d="M112 176a70.6 70.6 0 01-13.3 3l.3-5.4c0-1.5 1.6-4.5 3.4-4.5 1.8-.8 4-.8 6-.9.6 0 1.4 0 2 .5.5.4.6 1 .7 1.7l.8 5.5z" fill="#FA3D38"/><path opacity=".5" d="M140.5 108.6H33.9L5.1 48.5h171.4l-36 60.1z" fill="#1280FF"/><path opacity=".3" d="M57.8 102.5H16c-2.5 0-5-1.4-5.9-3L3 84c-.8-1.7.6-3 3-3h41.9c2.4 0 5 1.3 5.8 3l7.2 15.4c.8 1.7-.5 3.1-3 3.1z" fill="#fff"/><path d="M55.1 106.4H13.2c-2.4 0-5-1.4-5.8-3L.2 87.8c-.8-1.7.6-3 3-3h41.9c2.4 0 5 1.3 5.8 3l7.2 15.4c.8 1.7-.5 3-3 3z" fill="#fff"/><path opacity=".3" d="M132.6 89h42c2.4 0 5-1.5 5.7-3.1l7.2-15.5c.8-1.6-.5-3-3-3h-41.8c-2.5 0-5 1.4-5.9 3L129.6 86c-.7 1.6.6 3 3 3z" fill="#fff"/><path d="M132.6 94.3h42c2.4 0 5-1.3 5.7-3l7.2-15.4c.8-1.7-.5-3-3-3h-41.8c-2.5 0-5 1.3-5.9 3l-7.2 15.4c-.7 1.7.6 3 3 3z" fill="#fff"/><path d="M45.4 59.9h31.4l.4 2.3H46.4l-1-2.3z" fill="url(#paint43_linear)"/><path d="M47.4 64.2h18.4l.5 2h-18l-1-2z" fill="url(#paint44_linear)"/><path d="M73.2 64.2H131l-.7 2H73.6l-.4-2z" fill="url(#paint45_linear)"/><path d="M58.4 68.1h24.2l.2 2H59l-.6-2z" fill="url(#paint46_linear)"/><path d="M67.2 71.8H95v1.7H67.7l-.5-1.7z" fill="url(#paint47_linear)"/><path d="M96.8 71.8h23.3l-.5 2H96.7l.1-2z" fill="url(#paint48_linear)"/><path d="M68 75.1h20.8v1.6H68.6l-.4-1.6z" fill="url(#paint49_linear)"/><path d="M90.8 75.1h42.7l-.8 1.8H90.8V75z" fill="url(#paint50_linear)"/><path d="M54.3 79.3H80l.2 1.5H55l-.8-1.5z" fill="url(#paint51_linear)"/><path d="M55.6 82.2h15l.4 1.3H56.2l-.6-1.3z" fill="url(#paint52_linear)"/><path d="M76.8 82.2H124l-.5 1.3H77l-.2-1.3z" fill="url(#paint53_linear)"/><path d="M64.4 84.8h20l.2 1.3H64.9l-.5-1.3z" fill="url(#paint54_linear)"/><path d="M71.6 87.3h23v1.3H72l-.3-1.3z" fill="url(#paint55_linear)"/><path d="M96.2 87.3h19.3l-.4 1.4h-19v-1.4z" fill="url(#paint56_linear)"/><path d="M72.2 89.7h17.3v1h-17l-.3-1z" fill="url(#paint57_linear)"/><path d="M91.1 89.7h35.7l-.6 1.2h-35v-1.2z" fill="url(#paint58_linear)"/><path d="M60.4 92.6H82l.2 1H60.9l-.5-1z" fill="url(#paint59_linear)"/><path d="M61.4 94.6H74l.3 1H61.8l-.4-1z" fill="url(#paint60_linear)"/><path d="M79.2 94.6h40.1l-.3 1H79.4l-.2-1z" fill="url(#paint61_linear)"/><path d="M68.7 96.5h17l.1 1H69l-.3-1z" fill="url(#paint62_linear)"/><path d="M74.7 98.4h19.7v.9H74.9l-.2-1z" fill="url(#paint63_linear)"/><path d="M95.7 98.4h16.5l-.3 1H95.6v-1z" fill="url(#paint64_linear)"/><path d="M75.1 100H90v.9H75.3l-.2-.8z" fill="url(#paint65_linear)"/><path d="M91.4 100H122l-.4 1H91.4v-1z" fill="url(#paint66_linear)"/><g opacity=".5" fill="#1280FF"><path opacity=".5" d="M4 89h16.2l.2.8H4.6L4 89zM5 90.6h9.5l.3.8H5.5l-.4-.8zM18.3 90.6H48l-.4.8h-29l-.3-.8zM10.7 92.1h12.5v.7H11.2l-.4-.7zM15.2 93.5h14.3v.7h-14l-.3-.7zM30.4 93.5h12l-.3.7H30.4v-.7zM15.7 94.8h10.6v.6H16l-.2-.6zM27.3 94.8h22l-.4.6H27.4v-.6zM8.6 96.4h13.1l.2.5h-13l-.3-.5zM9.3 97.5H17l.2.5H9.6l-.3-.5zM20.2 97.5h24.3l-.3.5h-24v-.5zM13.8 98.5h10.3v.5h-10l-.3-.5zM17.5 99.4h11.8v.5H17.7l-.2-.5zM30.1 99.4h10l-.3.5h-9.7v-.5zM17.8 100.3h8.9v.4H18l-.2-.4zM27.5 100.3h18.3l-.2.5h-18v-.5zM11.8 101.4h11v.4H12l-.2-.4zM12.3 102.2h6.5l.1.3h-6.4l-.3-.3zM21.4 102.2H42l-.2.3H21.5v-.3zM16 103h8.7l.1.3h-8.6l-.2-.4zM19 103.6h10.2v.3h-10l-.1-.3zM29.9 103.6h8.5l-.2.4h-8.4v-.4zM19.3 104.3H27v.3h-7.5v-.3zM27.7 104.3h15.7l-.2.3H27.7v-.3z"/></g><g opacity=".5" fill="#1280FF"><path opacity=".5" d="M145.6 77.4h13.3l-.4.7h-13v-.7zM145.4 78.8h7.8l-.2.6h-7.6v-.6zM156.3 78.8h24.5l-.8.6h-24l.3-.6zM149.2 80h10.2l-.3.7h-10V80zM152 81.3h11.8l-.4.5h-11.5l.2-.5zM164.6 81.3h9.8l-.7.6h-9.6l.5-.6zM151.7 82.4h8.7l-.3.5h-8.6l.2-.5zM161.3 82.4h18l-.8.5H161l.4-.5zM145 83.7h10.7l-.3.5H145v-.5zM144.8 84.6h6.4l-.2.5h-6.2v-.5zM153.7 84.6h20l-.5.5h-19.7l.2-.5zM148 85.5h8.4l-.3.4h-8.3l.1-.4zM150.4 86.3h9.7l-.3.4h-9.6l.2-.4zM160.7 86.3h8.2l-.5.5h-8l.3-.5zM150 87h7.4l-.2.4H150v-.3zM158 87h15.1l-.5.5h-14.8l.3-.4zM144.5 88h9l-.1.4h-9V88zM144.4 88.7h5.4l-.1.3h-5.3v-.3zM152 88.7h16.9l-.4.3h-16.7l.1-.3zM147 89.3h7.2l-.1.3H147v-.3zM149.2 90h8.3l-.2.2H149V90zM158 90h7l-.3.2h-7l.3-.3zM149 90.5h6.2l-.2.2H149v-.2zM155.8 90.5h13l-.4.3h-12.8l.2-.3z"/></g><defs><linearGradient id="paint0_linear" x1="91.6" y1="139.8" x2="92.6" y2="170" gradientUnits="userSpaceOnUse"><stop stop-color="#010101" stop-opacity="0"/><stop offset=".9" stop-color="#010101"/></linearGradient><linearGradient id="paint1_linear" x1="662.1" y1="1144" x2="725.5" y2="1364" gradientUnits="userSpaceOnUse"><stop stop-color="#010101" stop-opacity="0"/><stop offset=".9" stop-color="#010101"/></linearGradient><linearGradient id="paint2_linear" x1="662.1" y1="1184.5" x2="725.5" y2="1404.5" gradientUnits="userSpaceOnUse"><stop stop-color="#010101" stop-opacity="0"/><stop offset=".9" stop-color="#010101"/></linearGradient><linearGradient id="paint3_linear" x1="662.1" y1="1225" x2="725.5" y2="1445" gradientUnits="userSpaceOnUse"><stop stop-color="#010101" stop-opacity="0"/><stop offset=".9" stop-color="#010101"/></linearGradient><linearGradient id="paint4_linear" x1="662.1" y1="1265.5" x2="725.5" y2="1485.4" gradientUnits="userSpaceOnUse"><stop stop-color="#010101" stop-opacity="0"/><stop offset=".9" stop-color="#010101"/></linearGradient><linearGradient id="paint5_linear" x1="721.5" y1="1144" x2="784.9" y2="1364" gradientUnits="userSpaceOnUse"><stop stop-color="#010101" stop-opacity="0"/><stop offset=".9" stop-color="#010101"/></linearGradient><linearGradient id="paint6_linear" x1="721.5" y1="1184.5" x2="784.9" y2="1404.5" gradientUnits="userSpaceOnUse"><stop stop-color="#010101" stop-opacity="0"/><stop offset=".9" stop-color="#010101"/></linearGradient><linearGradient id="paint7_linear" x1="721.5" y1="1225" x2="784.9" y2="1445" gradientUnits="userSpaceOnUse"><stop stop-color="#010101" stop-opacity="0"/><stop offset=".9" stop-color="#010101"/></linearGradient><linearGradient id="paint8_linear" x1="721.5" y1="1265.5" x2="784.9" y2="1485.4" gradientUnits="userSpaceOnUse"><stop stop-color="#010101" stop-opacity="0"/><stop offset=".9" stop-color="#010101"/></linearGradient><linearGradient id="paint9_linear" x1="781" y1="1144" x2="844.4" y2="1364" gradientUnits="userSpaceOnUse"><stop stop-color="#010101" stop-opacity="0"/><stop offset=".9" stop-color="#010101"/></linearGradient><linearGradient id="paint10_linear" x1="781" y1="1184.5" x2="844.4" y2="1404.5" gradientUnits="userSpaceOnUse"><stop stop-color="#010101" stop-opacity="0"/><stop offset=".9" stop-color="#010101"/></linearGradient><linearGradient id="paint11_linear" x1="781" y1="1225" x2="844.4" y2="1445" gradientUnits="userSpaceOnUse"><stop stop-color="#010101" stop-opacity="0"/><stop offset=".9" stop-color="#010101"/></linearGradient><linearGradient id="paint12_linear" x1="781" y1="1265.5" x2="844.4" y2="1485.4" gradientUnits="userSpaceOnUse"><stop stop-color="#010101" stop-opacity="0"/><stop offset=".9" stop-color="#010101"/></linearGradient><linearGradient id="paint13_linear" x1="840.4" y1="1144" x2="903.8" y2="1364" gradientUnits="userSpaceOnUse"><stop stop-color="#010101" stop-opacity="0"/><stop offset=".9" stop-color="#010101"/></linearGradient><linearGradient id="paint14_linear" x1="840.4" y1="1184.5" x2="903.8" y2="1404.5" gradientUnits="userSpaceOnUse"><stop stop-color="#010101" stop-opacity="0"/><stop offset=".9" stop-color="#010101"/></linearGradient><linearGradient id="paint15_linear" x1="840.4" y1="1225" x2="903.8" y2="1445" gradientUnits="userSpaceOnUse"><stop stop-color="#010101" stop-opacity="0"/><stop offset=".9" stop-color="#010101"/></linearGradient><linearGradient id="paint16_linear" x1="899.9" y1="1144" x2="963.3" y2="1364" gradientUnits="userSpaceOnUse"><stop stop-color="#010101" stop-opacity="0"/><stop offset=".9" stop-color="#010101"/></linearGradient><linearGradient id="paint17_linear" x1="899.9" y1="1184.5" x2="963.3" y2="1404.5" gradientUnits="userSpaceOnUse"><stop stop-color="#010101" stop-opacity="0"/><stop offset=".9" stop-color="#010101"/></linearGradient><linearGradient id="paint18_linear" x1="899.9" y1="1225" x2="963.3" y2="1445" gradientUnits="userSpaceOnUse"><stop stop-color="#010101" stop-opacity="0"/><stop offset=".9" stop-color="#010101"/></linearGradient><linearGradient id="paint19_linear" x1="959.3" y1="1144" x2="1022.7" y2="1364" gradientUnits="userSpaceOnUse"><stop stop-color="#010101" stop-opacity="0"/><stop offset=".9" stop-color="#010101"/></linearGradient><linearGradient id="paint20_linear" x1="959.3" y1="1184.5" x2="1022.7" y2="1404.5" gradientUnits="userSpaceOnUse"><stop stop-color="#010101" stop-opacity="0"/><stop offset=".9" stop-color="#010101"/></linearGradient><linearGradient id="paint21_linear" x1="959.3" y1="1225" x2="1022.7" y2="1445" gradientUnits="userSpaceOnUse"><stop stop-color="#010101" stop-opacity="0"/><stop offset=".9" stop-color="#010101"/></linearGradient><linearGradient id="paint22_linear" x1="1018.8" y1="1144" x2="1082.2" y2="1364" gradientUnits="userSpaceOnUse"><stop stop-color="#010101" stop-opacity="0"/><stop offset=".9" stop-color="#010101"/></linearGradient><linearGradient id="paint23_linear" x1="1018.8" y1="1184.5" x2="1082.2" y2="1404.5" gradientUnits="userSpaceOnUse"><stop stop-color="#010101" stop-opacity="0"/><stop offset=".9" stop-color="#010101"/></linearGradient><linearGradient id="paint24_linear" x1="1018.8" y1="1225" x2="1082.2" y2="1445" gradientUnits="userSpaceOnUse"><stop stop-color="#010101" stop-opacity="0"/><stop offset=".9" stop-color="#010101"/></linearGradient><linearGradient id="paint25_linear" x1="1078.2" y1="1144" x2="1141.6" y2="1364" gradientUnits="userSpaceOnUse"><stop stop-color="#010101" stop-opacity="0"/><stop offset=".9" stop-color="#010101"/></linearGradient><linearGradient id="paint26_linear" x1="1078.2" y1="1184.5" x2="1141.6" y2="1404.5" gradientUnits="userSpaceOnUse"><stop stop-color="#010101" stop-opacity="0"/><stop offset=".9" stop-color="#010101"/></linearGradient><linearGradient id="paint27_linear" x1="1078.2" y1="1225" x2="1141.6" y2="1445" gradientUnits="userSpaceOnUse"><stop stop-color="#010101" stop-opacity="0"/><stop offset=".9" stop-color="#010101"/></linearGradient><linearGradient id="paint28_linear" x1="1137.7" y1="1144" x2="1201.1" y2="1364" gradientUnits="userSpaceOnUse"><stop stop-color="#010101" stop-opacity="0"/><stop offset=".9" stop-color="#010101"/></linearGradient><linearGradient id="paint29_linear" x1="1137.7" y1="1184.5" x2="1201.1" y2="1404.5" gradientUnits="userSpaceOnUse"><stop stop-color="#010101" stop-opacity="0"/><stop offset=".9" stop-color="#010101"/></linearGradient><linearGradient id="paint30_linear" x1="1137.7" y1="1225" x2="1201.1" y2="1445" gradientUnits="userSpaceOnUse"><stop stop-color="#010101" stop-opacity="0"/><stop offset=".9" stop-color="#010101"/></linearGradient><linearGradient id="paint31_linear" x1="1137.7" y1="1265.5" x2="1201.1" y2="1485.4" gradientUnits="userSpaceOnUse"><stop stop-color="#010101" stop-opacity="0"/><stop offset=".9" stop-color="#010101"/></linearGradient><linearGradient id="paint32_linear" x1="1197.1" y1="1144" x2="1260.5" y2="1364" gradientUnits="userSpaceOnUse"><stop stop-color="#010101" stop-opacity="0"/><stop offset=".9" stop-color="#010101"/></linearGradient><linearGradient id="paint33_linear" x1="1197.1" y1="1184.5" x2="1260.5" y2="1404.5" gradientUnits="userSpaceOnUse"><stop stop-color="#010101" stop-opacity="0"/><stop offset=".9" stop-color="#010101"/></linearGradient><linearGradient id="paint34_linear" x1="1197.1" y1="1225" x2="1260.5" y2="1445" gradientUnits="userSpaceOnUse"><stop stop-color="#010101" stop-opacity="0"/><stop offset=".9" stop-color="#010101"/></linearGradient><linearGradient id="paint35_linear" x1="1197.1" y1="1265.5" x2="1260.5" y2="1485.4" gradientUnits="userSpaceOnUse"><stop stop-color="#010101" stop-opacity="0"/><stop offset=".9" stop-color="#010101"/></linearGradient><linearGradient id="paint36_linear" x1="1256.5" y1="1144" x2="1320" y2="1364" gradientUnits="userSpaceOnUse"><stop stop-color="#010101" stop-opacity="0"/><stop offset=".9" stop-color="#010101"/></linearGradient><linearGradient id="paint37_linear" x1="1256.5" y1="1184.5" x2="1320" y2="1404.5" gradientUnits="userSpaceOnUse"><stop stop-color="#010101" stop-opacity="0"/><stop offset=".9" stop-color="#010101"/></linearGradient><linearGradient id="paint38_linear" x1="1256.5" y1="1225" x2="1320" y2="1445" gradientUnits="userSpaceOnUse"><stop stop-color="#010101" stop-opacity="0"/><stop offset=".9" stop-color="#010101"/></linearGradient><linearGradient id="paint39_linear" x1="1256.5" y1="1265.5" x2="1320" y2="1485.4" gradientUnits="userSpaceOnUse"><stop stop-color="#010101" stop-opacity="0"/><stop offset=".9" stop-color="#010101"/></linearGradient><linearGradient id="paint40_linear" x1="6749.9" y1="1216.5" x2="6749.7" y2="1534.1" gradientUnits="userSpaceOnUse"><stop stop-color="#010101" stop-opacity="0"/><stop offset=".9" stop-color="#010101"/></linearGradient><linearGradient id="paint41_linear" x1="67.7" y1="142.7" x2="84.7" y2="142.7" gradientUnits="userSpaceOnUse"><stop stop-color="#E5C6D6"/><stop offset=".4" stop-color="#EAD4D0"/><stop offset="1" stop-color="#F0E9CB"/></linearGradient><linearGradient id="paint42_linear" x1="6197" y1="9252" x2="7149.9" y2="9252" gradientUnits="userSpaceOnUse"><stop stop-color="#E5C6D6"/><stop offset=".4" stop-color="#EAD4D0"/><stop offset="1" stop-color="#F0E9CB"/></linearGradient><linearGradient id="paint43_linear" x1="62.4" y1="-1.2" x2="60.8" y2="89.1" gradientUnits="userSpaceOnUse"><stop stop-color="#fff" stop-opacity="0"/><stop offset="1" stop-color="#fff"/></linearGradient><linearGradient id="paint44_linear" x1="4204.4" y1="925.7" x2="4203.7" y2="556.4" gradientUnits="userSpaceOnUse"><stop stop-color="#fff" stop-opacity="0"/><stop offset="1" stop-color="#fff"/></linearGradient><linearGradient id="paint45_linear" x1="18720.7" y1="930.8" x2="18720.5" y2="553.3" gradientUnits="userSpaceOnUse"><stop stop-color="#fff" stop-opacity="0"/><stop offset="1" stop-color="#fff"/></linearGradient><linearGradient id="paint46_linear" x1="6199.8" y1="885.1" x2="6199.3" y2="550.9" gradientUnits="userSpaceOnUse"><stop stop-color="#fff" stop-opacity="0"/><stop offset="1" stop-color="#fff"/></linearGradient><linearGradient id="paint47_linear" x1="7706.3" y1="821.2" x2="7705.9" y2="527.5" gradientUnits="userSpaceOnUse"><stop stop-color="#fff" stop-opacity="0"/><stop offset="1" stop-color="#fff"/></linearGradient><linearGradient id="paint48_linear" x1="7971.6" y1="898.4" x2="7971.1" y2="574.4" gradientUnits="userSpaceOnUse"><stop stop-color="#fff" stop-opacity="0"/><stop offset="1" stop-color="#fff"/></linearGradient><linearGradient id="paint49_linear" x1="5646.3" y1="715" x2="5645.9" y2="476.1" gradientUnits="userSpaceOnUse"><stop stop-color="#fff" stop-opacity="0"/><stop offset="1" stop-color="#fff"/></linearGradient><linearGradient id="paint50_linear" x1="14815.5" y1="783.7" x2="14815.3" y2="514.4" gradientUnits="userSpaceOnUse"><stop stop-color="#fff" stop-opacity="0"/><stop offset="1" stop-color="#fff"/></linearGradient><linearGradient id="paint51_linear" x1="6297.5" y1="625.4" x2="6297.2" y2="413.6" gradientUnits="userSpaceOnUse"><stop stop-color="#fff" stop-opacity="0"/><stop offset="1" stop-color="#fff"/></linearGradient><linearGradient id="paint52_linear" x1="3655.5" y1="552.7" x2="3655.2" y2="380.4" gradientUnits="userSpaceOnUse"><stop stop-color="#fff" stop-opacity="0"/><stop offset="1" stop-color="#fff"/></linearGradient><linearGradient id="paint53_linear" x1="15126.5" y1="562" x2="15126.4" y2="377.8" gradientUnits="userSpaceOnUse"><stop stop-color="#fff" stop-opacity="0"/><stop offset="1" stop-color="#fff"/></linearGradient><linearGradient id="paint54_linear" x1="5284.1" y1="542.9" x2="5283.9" y2="380.8" gradientUnits="userSpaceOnUse"><stop stop-color="#fff" stop-opacity="0"/><stop offset="1" stop-color="#fff"/></linearGradient><linearGradient id="paint55_linear" x1="6500.9" y1="514.9" x2="6500.8" y2="368.6" gradientUnits="userSpaceOnUse"><stop stop-color="#fff" stop-opacity="0"/><stop offset="1" stop-color="#fff"/></linearGradient><linearGradient id="paint56_linear" x1="6499" y1="558.6" x2="6498.8" y2="398.4" gradientUnits="userSpaceOnUse"><stop stop-color="#fff" stop-opacity="0"/><stop offset="1" stop-color="#fff"/></linearGradient><linearGradient id="paint57_linear" x1="4809.6" y1="462.8" x2="4809.5" y2="341.1" gradientUnits="userSpaceOnUse"><stop stop-color="#fff" stop-opacity="0"/><stop offset="1" stop-color="#fff"/></linearGradient><linearGradient id="paint58_linear" x1="12110.1" y1="505" x2="12110" y2="364.8" gradientUnits="userSpaceOnUse"><stop stop-color="#fff" stop-opacity="0"/><stop offset="1" stop-color="#fff"/></linearGradient><linearGradient id="paint59_linear" x1="5496.6" y1="423.7" x2="5496.5" y2="311.6" gradientUnits="userSpaceOnUse"><stop stop-color="#fff" stop-opacity="0"/><stop offset="1" stop-color="#fff"/></linearGradient><linearGradient id="paint60_linear" x1="3225.5" y1="382.3" x2="3225.4" y2="290.8" gradientUnits="userSpaceOnUse"><stop stop-color="#fff" stop-opacity="0"/><stop offset="1" stop-color="#fff"/></linearGradient><linearGradient id="paint61_linear" x1="12694.5" y1="389.7" x2="12694.4" y2="288.2" gradientUnits="userSpaceOnUse"><stop stop-color="#fff" stop-opacity="0"/><stop offset="1" stop-color="#fff"/></linearGradient><linearGradient id="paint62_linear" x1="4602.2" y1="382.2" x2="4602.1" y2="293.4" gradientUnits="userSpaceOnUse"><stop stop-color="#fff" stop-opacity="0"/><stop offset="1" stop-color="#fff"/></linearGradient><linearGradient id="paint63_linear" x1="5625.6" y1="368.7" x2="5625.5" y2="286.7" gradientUnits="userSpaceOnUse"><stop stop-color="#fff" stop-opacity="0"/><stop offset="1" stop-color="#fff"/></linearGradient><linearGradient id="paint64_linear" x1="5488.1" y1="395.9" x2="5488" y2="306.9" gradientUnits="userSpaceOnUse"><stop stop-color="#fff" stop-opacity="0"/><stop offset="1" stop-color="#fff"/></linearGradient><linearGradient id="paint65_linear" x1="4191.8" y1="337.7" x2="4191.8" y2="269.1" gradientUnits="userSpaceOnUse"><stop stop-color="#fff" stop-opacity="0"/><stop offset="1" stop-color="#fff"/></linearGradient><linearGradient id="paint66_linear" x1="10240.4" y1="366.4" x2="10240.4" y2="285.6" gradientUnits="userSpaceOnUse"><stop stop-color="#fff" stop-opacity="0"/><stop offset="1" stop-color="#fff"/></linearGradient></defs></svg>