<svg width="172" height="180" fill="none" xmlns="http://www.w3.org/2000/svg"><path opacity=".4" d="M61.3 32c-13.3 8.1-30 10-41.9 20-4.2 3.6-7.6 8-10.3 12.8a63.6 63.6 0 00-4.8 51.6A63.7 63.7 0 0039.9 154a99.6 99.6 0 0024.9 5.9c15.5 2 31.3 2.5 47 1.4 10-.7 20.4-2.3 28-8.6 5-4.3 8.4-10.3 11-16.4 6.9-16.6 9-34.8 6.1-52.5a77.6 77.6 0 00-11.4-30.3c-10-15.3-26-25.3-42.3-33-6.4-2.9-14.6-8-21.7-5-7.5 3-13 12.2-20.2 16.5z" fill="#BAE5FF"/><path opacity=".5" d="M5.3 160.8c-1.4.2-2.9.6-4 1.5-2 1.8-1.6 5.3.2 7.4 1.8 2 4.5 3 7.1 3.8 21.7 6.5 44.6 6.5 67.2 6.5 7 0 14 0 20.5-2.5 4.5-1.7 8.4-4.5 12.8-6.4 16.6-7 36 .3 53.5-3.8 2-.5 4.3-1.4 5-3.4 1.4-4-4.4-6.4-8.7-6.6-18.6-1-37.4-.9-56 .2-15 .9-28.5-3.5-43.5-3-18.2.8-36.3 2.9-54.1 6.3z" fill="url(#paint0_linear)"/><path d="M90.5 157.2h-5a6.4 6.4 0 01-6.4-6.3V6.4A6.4 6.4 0 0185.5 0h5A6.4 6.4 0 0084 6.4v144.5a6.4 6.4 0 006.4 6.3zM43.9 49.7S29.9 68 31.2 76.2a91.3 91.3 0 005 16.5l9.4-40.3-1.7-2.7z" fill="#1280FF"/><path d="M43.9 49.7S29.9 68 31.2 76.2a91.3 91.3 0 005 16.5l9.4-40.3-1.7-2.7z" fill="url(#paint1_linear)"/><path d="M165.6 0H90.5A6.4 6.4 0 0084 6.4v144.4c0 3.6 2.8 6.4 6.4 6.4h75.1c3.5 0 6.4-2.8 6.4-6.4V6.4c0-3.5-2.9-6.4-6.4-6.4z" fill="#EBEBF0"/><path d="M129 17.7H91a2.2 2.2 0 110-4.5h38a2.2 2.2 0 011.5 3.9c-.4.4-1 .6-1.6.6zM129 40.6H91a2.2 2.2 0 01-2-3.1 2.2 2.2 0 012-1.4h38a2.2 2.2 0 012.2 2.2 2.2 2.2 0 01-2.3 2.3zM129 63.4H91a2.2 2.2 0 110-4.5h38a2.2 2.2 0 011.5 3.8c-.4.5-1 .7-1.6.7zM129 86.2H91a2.2 2.2 0 010-4.4h38a2.2 2.2 0 010 4.4zM129 109H91a2.2 2.2 0 01-1.5-3.7 2.2 2.2 0 011.5-.7h38a2.2 2.2 0 110 4.5zM129 132H91a2.2 2.2 0 110-4.6h38a2.3 2.3 0 012.2 2.3 2.2 2.2 0 01-2.3 2.2z" fill="#fff"/><path d="M37.3 97.8c2.7-5 15.7 6 17.3 11.4 1.6 5.5-9 24.7-14.6 30.6A55.9 55.9 0 0117.7 153s-2.3-3-1.8-4.3c.4-1.3 14-11.1 15.2-17.1 1.3-6 3.6-28.5 6.2-33.7z" fill="#302F47"/><path d="M100 50.2s-1.7-4.7-1.5-5.2c.3-.6 2-1.8 2.7-1 .7.7 2.2 5 2.2 5l16-5.4s1.8-.3 1.6 1.6c-.2 2-17.4 8.8-17.4 8.8s-1.4 1.4-3.7-3.8z" fill="#1280FF"/><path d="M100 50.2s-1.7-4.7-1.5-5.2c.3-.6 2-1.8 2.7-1 .7.7 2.2 5 2.2 5l16-5.4s1.8-.3 1.6 1.6c-.2 2-17.4 8.8-17.4 8.8s-1.4 1.4-3.7-3.8z" fill="url(#paint2_linear)"/><path d="M61.6 23.3s5 8.7 4 14c-1 5.2-3.8 4-4.8 6.8a23 23 0 00-1.2 5.5s-2.9 2.4-8-4a14 14 0 00-.9-7.8c-1.6-3.9-.7-18.1 11-14.5z" fill="url(#paint3_linear)"/><path d="M46.2 18.8c-7.6 7.3-10.7 2.9-14.6 4.9-3.8 2-5.2 2.7-3.9 10.3 1.4 7.6-5.4 6-7 10.5-4.7 13.2 3 15.4 11.7 15 8.7-.3 7.8-16 14.2-16.7 6.4-.6 7.7.4 10.3-7.8 1.5-4.8.5-7 2.5-8.6 2.7-2 3.6-6.6.8-8.5a11 11 0 00-14 .9z" fill="#FA3D38"/><path d="M45.7 48.5s-.6-2.9 1.4-3.9c2.1-1 8.1-1.5 9 0 .8 1.5 1.7 4.9 2.6 5 1 0 4.6 5.9 4.6 5.9s.7 16.1.8 22.4c0 10-6 25.6-14.2 24.3-8.3-1.3-14.3-3.6-14.2-7.8.2-4.3 7.2-36.6 6.7-40.2-.6-4 3.2-5.8 3.3-5.7z" fill="#1280FF"/><path d="M45.7 48.5s-.6-2.9 1.4-3.9c2.1-1 8.1-1.5 9 0 .8 1.5 1.7 4.9 2.6 5 1 0 4.6 5.9 4.6 5.9s.7 16.1.8 22.4c0 10-6 25.6-14.2 24.3-8.3-1.3-14.3-3.6-14.2-7.8.2-4.3 7.2-36.6 6.7-40.2-.6-4 3.2-5.8 3.3-5.7z" fill="url(#paint4_linear)"/><path d="M53.1 53.6s3.2-6.3 7.7-2.5 10 18 14 18c3.8 0 19.6-12.7 21-11.5 1.4 1.1 3.8 4 2.5 6.5-1.3 2.4-19 18-26.6 16.5-7.7-1.5-24-11.9-18.6-27z" fill="#1280FF"/><path d="M53.1 53.6s3.2-6.3 7.7-2.5 10 18 14 18c3.8 0 19.6-12.7 21-11.5 1.4 1.1 3.8 4 2.5 6.5-1.3 2.4-19 18-26.6 16.5-7.7-1.5-24-11.9-18.6-27z" fill="url(#paint5_linear)"/><path d="M96.3 58s3.2-6 3.5-7c.3-1.1 1 .5 1 .5s2.8-2.2 3.3-3.1c.5-1 4.5-2.4 6.3-2.2 1.8.2-1.2 1.3-1.2 1.3s-1.5.7-2.2 4.3c-.8 3.6-1.5 6.7-4.9 8.2a14.2 14.2 0 00-3.5 1.8s-.8-3.1-2.3-3.7z" fill="url(#paint6_linear)"/><path d="M37.3 97.8s-4 9.1 3.4 17.6c7.4 8.4 13 15 11.4 28.1a35.2 35.2 0 002.1 19.9h4.4s6.7-24.3 5.6-34.6c-1.2-10.2-6.3-31-6.3-31s-10-4.7-20.6 0z" fill="#3F3D56"/><path d="M54.2 163.4v5.5h12s-7.2-1.3-7.4-2.8l-.2-2.7h-4.4z" fill="url(#paint7_linear)"/><path d="M55.1 167.2c-.5-.1-1.2-.2-1.5.2-.2.1-.2.3-.3.5v1.7c0 .4 0 .8.4 1 .2.1.5.2.7.1l12.4-.2c.5 0 1 0 1.3-.4l.2-.7a2.1 2.1 0 00-1-1.5c-.5-.4-1-.6-1.6-.8-1.6-.4-4-1.3-5.6-.7a8.2 8.2 0 01-5 .8z" fill="#3F3D56"/><path d="M15.8 149.4l-5 2.5 6 10.4s-2.4-6.9-1.3-7.8l2.3-1.6-2-3.5z" fill="url(#paint8_linear)"/><path d="M12.7 151.9c-.1-.6-.4-1.2-1-1.3h-.5l-1.5.8c-.3.2-.7.5-.7 1l.3.6 6.4 10.7c.3.4.6.8 1 .8l.7-.1a2.2 2.2 0 00.9-1.6c0-.6 0-1.3-.2-1.9-.4-1.5-.9-4.1-2.2-5a8 8 0 01-3.2-4z" fill="#3F3D56"/><path d="M155.2 7.4h-12.8c-1 0-1.8.8-1.8 1.8v10.7c0 1 .8 1.8 1.8 1.8h12.8c1 0 1.7-.8 1.7-1.8V9.2c0-1-.7-1.8-1.7-1.8zM155.2 32.2h-12.8c-1 0-1.8.8-1.8 1.7v10.8c0 1 .8 1.8 1.8 1.8h12.8c1 0 1.7-.8 1.7-1.8V34c0-1-.7-1.7-1.7-1.7zM155.2 54.7h-12.8c-1 0-1.8.8-1.8 1.7v10.8c0 1 .8 1.8 1.8 1.8h12.8c1 0 1.7-.8 1.7-1.8V56.4c0-1-.7-1.7-1.7-1.7zM155.2 99.2h-12.8c-1 0-1.8.8-1.8 1.8v10.7c0 1 .8 1.8 1.8 1.8h12.8c1 0 1.7-.8 1.7-1.8V101c0-1-.7-1.8-1.7-1.8zM155.2 76.9h-12.8c-1 0-1.8.7-1.8 1.7v10.8c0 1 .8 1.7 1.8 1.7h12.8c1 0 1.7-.8 1.7-1.7V78.6c0-1-.7-1.7-1.7-1.7zM155.2 122.6h-12.8c-1 0-1.8.7-1.8 1.7v10.8c0 1 .8 1.7 1.8 1.7h12.8c1 0 1.7-.8 1.7-1.7v-10.8c0-1-.7-1.7-1.7-1.7z" fill="#fff"/><path d="M141.8 12.5l2.9 4.9c1 1.5 2.5 1.8 3.7.7l9.9-9.5s1-1.4 0-2.4-1.9.2-1.9.2l-8.8 8.4c-.5.5-1.3.4-1.7-.4l-2.3-4c-.5-.7-1.3-.7-1.8 0a2 2 0 000 2zM141.8 36.8l2.9 5c1 1.4 2.5 1.8 3.7.7l9.9-9.6s1-1.3 0-2.3c-1-1-1.9.1-1.9.1l-8.8 8.5c-.5.5-1.3.3-1.7-.4l-2.3-4c-.5-.7-1.3-.8-1.8-.1a2 2 0 000 2.1zM141.8 83.2l2.9 4.9c1 1.5 2.5 1.8 3.7.7l9.9-9.5s1-1.3 0-2.4c-1-1-1.9.2-1.9.2l-8.8 8.4c-.5.6-1.3.4-1.7-.3l-2.3-4c-.5-.7-1.3-.8-1.8-.1a2 2 0 000 2zM141.8 105.7l2.9 4.9c1 1.5 2.5 1.8 3.7.7l9.9-9.5s1-1.3 0-2.4c-1-1-1.9.2-1.9.2l-8.8 8.5c-.5.5-1.3.3-1.7-.4l-2.3-4c-.5-.7-1.3-.8-1.8-.1a2 2 0 000 2zM141.8 127.6l2.9 5c1 1.5 2.5 1.8 3.7.7l9.9-9.6s1-1.3 0-2.3c-1-1-1.9.1-1.9.1l-8.8 8.5c-.5.5-1.3.3-1.7-.4l-2.3-4c-.5-.7-1.3-.8-1.8 0a2 2 0 000 2z" fill="#FA3D38"/><path d="M141.8 12.5l2.9 4.9c1 1.5 2.5 1.8 3.7.7l9.9-9.5s1-1.4 0-2.4-1.9.2-1.9.2l-8.8 8.4c-.5.5-1.3.4-1.7-.4l-2.3-4c-.5-.7-1.3-.7-1.8 0a2 2 0 000 2z" fill="url(#paint9_linear)"/><path d="M141.8 36.8l2.9 5c1 1.4 2.5 1.8 3.7.7l9.9-9.6s1-1.3 0-2.3c-1-1-1.9.1-1.9.1l-8.8 8.5c-.5.5-1.3.3-1.7-.4l-2.3-4c-.5-.7-1.3-.8-1.8-.1a2 2 0 000 2.1z" fill="url(#paint10_linear)"/><path d="M141.8 83.2l2.9 4.9c1 1.5 2.5 1.8 3.7.7l9.9-9.5s1-1.3 0-2.4c-1-1-1.9.2-1.9.2l-8.8 8.4c-.5.6-1.3.4-1.7-.3l-2.3-4c-.5-.7-1.3-.8-1.8-.1a2 2 0 000 2z" fill="url(#paint11_linear)"/><path d="M141.8 105.7l2.9 4.9c1 1.5 2.5 1.8 3.7.7l9.9-9.5s1-1.3 0-2.4c-1-1-1.9.2-1.9.2l-8.8 8.5c-.5.5-1.3.3-1.7-.4l-2.3-4c-.5-.7-1.3-.8-1.8-.1a2 2 0 000 2z" fill="url(#paint12_linear)"/><path d="M141.8 127.6l2.9 5c1 1.5 2.5 1.8 3.7.7l9.9-9.6s1-1.3 0-2.3c-1-1-1.9.1-1.9.1l-8.8 8.5c-.5.5-1.3.3-1.7-.4l-2.3-4c-.5-.7-1.3-.8-1.8 0a2 2 0 000 2z" fill="url(#paint13_linear)"/><defs><linearGradient id="paint0_linear" x1="84.8" y1="136" x2="79.9" y2="300.1" gradientUnits="userSpaceOnUse"><stop stop-opacity="0"/><stop offset="1"/></linearGradient><linearGradient id="paint1_linear" x1="2424" y1="9682.8" x2="4088" y2="9893.8" gradientUnits="userSpaceOnUse"><stop stop-opacity="0"/><stop offset="1"/></linearGradient><linearGradient id="paint2_linear" x1="9879.5" y1="1444.5" x2="9421.4" y2="3267.6" gradientUnits="userSpaceOnUse"><stop stop-opacity="0"/><stop offset="1"/></linearGradient><linearGradient id="paint3_linear" x1="50.1" y1="36.4" x2="65.7" y2="36.4" gradientUnits="userSpaceOnUse"><stop stop-color="#ECC4D7"/><stop offset=".4" stop-color="#EFD4D1"/><stop offset="1" stop-color="#F2EAC9"/></linearGradient><linearGradient id="paint4_linear" x1="7387.4" y1="14402.4" x2="-5437.8" y2="13495.6" gradientUnits="userSpaceOnUse"><stop stop-opacity="0"/><stop offset="1"/></linearGradient><linearGradient id="paint5_linear" x1="14525" y1="6583.8" x2="14108.7" y2="11230.6" gradientUnits="userSpaceOnUse"><stop stop-opacity="0"/><stop offset="1"/></linearGradient><linearGradient id="paint6_linear" x1="5661.3" y1="2863.3" x2="6357.9" y2="2863.3" gradientUnits="userSpaceOnUse"><stop stop-color="#ECC4D7"/><stop offset=".4" stop-color="#EFD4D1"/><stop offset="1" stop-color="#F2EAC9"/></linearGradient><linearGradient id="paint7_linear" x1="2968.1" y1="3177.4" x2="3433.9" y2="3177.4" gradientUnits="userSpaceOnUse"><stop stop-color="#ECC4D7"/><stop offset=".4" stop-color="#EFD4D1"/><stop offset="1" stop-color="#F2EAC9"/></linearGradient><linearGradient id="paint8_linear" x1="723.4" y1="6725.9" x2="880.9" y2="6725.9" gradientUnits="userSpaceOnUse"><stop stop-color="#ECC4D7"/><stop offset=".4" stop-color="#EFD4D1"/><stop offset="1" stop-color="#F2EAC9"/></linearGradient><linearGradient id="paint9_linear" x1="9787.9" y1="-1059.2" x2="9142.9" y2="15107.1" gradientUnits="userSpaceOnUse"><stop stop-opacity="0"/><stop offset="1"/></linearGradient><linearGradient id="paint10_linear" x1="9862.9" y1="-1031.6" x2="9218.6" y2="15129.2" gradientUnits="userSpaceOnUse"><stop stop-opacity="0"/><stop offset="1"/></linearGradient><linearGradient id="paint11_linear" x1="9999.9" y1="-979.9" x2="9355.2" y2="15184.6" gradientUnits="userSpaceOnUse"><stop stop-opacity="0"/><stop offset="1"/></linearGradient><linearGradient id="paint12_linear" x1="10066.3" y1="-954.8" x2="9421.6" y2="15209.9" gradientUnits="userSpaceOnUse"><stop stop-opacity="0"/><stop offset="1"/></linearGradient><linearGradient id="paint13_linear" x1="10127.4" y1="-930.5" x2="9482.3" y2="15236.7" gradientUnits="userSpaceOnUse"><stop stop-opacity="0"/><stop offset="1"/></linearGradient></defs></svg>