<svg width="213" height="180" fill="none" xmlns="http://www.w3.org/2000/svg"><path opacity=".4" d="M208.8 110.7c-3.7 7.1-10.6 12.6-12.5 20.5-.8 3.3-.6 6.9-1 10.3-1.5 12.1-10.5 22.2-21.3 27.9l-1.4.7c-7 3.4-14.8 5.3-22.6 6.5a596.1 596.1 0 01-74 3.3c-9.6-.2-19.4-.7-28.5-3.9l-1.4-.5a62.7 62.7 0 01-19.6-12.9l-.3-.2A85.1 85.1 0 016 133.7a74.8 74.8 0 01-3.2-49C5.4 75.2 10.2 66 10.9 56c.5-7.5-1.2-15.1 0-22.6C13.2 18.5 26.9 7.7 41.4 4 55.9.4 71 2.4 85.9 4.5c7.3 1 15.7 3.8 22.9 1.6 8.8-2.7 16.2-6 25.7-6.1 3.8 0 7.8.4 11.3 2 4.3 1.9 7.7 5.3 11.2 8.4 9.8 8.7 20.9 15.8 30.8 24.3 10 8.5 19 18.8 22.7 31.4a75.8 75.8 0 012.4 19c.3 8.7 0 17.9-4 25.6z" fill="#BAE5FF"/><path d="M158.4 58.2h-101a7.9 7.9 0 00-7.9 7.9v67.5c0 4.3 3.5 7.8 7.9 7.8h101c4.3 0 7.9-3.5 7.9-7.8V66c0-4.4-3.6-7.9-7.9-7.9z" fill="#1280FF"/><path d="M55.8 108.5c-1.2.8-2.8 1-4 1.7-1.3.8-2.2 2-2.7 3.4a24.2 24.2 0 00-1.3 9.2c0 3.4 0 7 .7 10.3.2.9 1.6 4.8 3 4.6.8 0 1.5-15.7 1.8-17.8l1.1-6c.3-.9.6-4.8 1.4-5.4z" fill="url(#paint0_linear)"/><path d="M159.1 64.2H56.6v69.6h102.5V64.2z" fill="#fff"/><path d="M123.8 135.7c0-1.5.4-3.2-.6-4.3-.5-.4-1.1-.8-1.7-1a7.4 7.4 0 01-3.8-5.7V121c-.1-2.6-1.3-5-2.7-7.2-1.4-2.2-3-4.3-4-6.6-.3-.5-.5-1.2 0-1.5.4-.3 1 .1 1.4.5 4.3 4.4 9 8.5 14.5 11.3 1.7.9 3.4 1.6 5 2.7 2.6 1.8 4.5 4.5 6 7.3 1.3 2.8 2.2 5.8 3.1 8.9.4 1 .7 2.3.3 3.4 0 .3-.3.6-.6.8a2 2 0 01-.9.2c-4 .2-8 .2-12 .2-1 0-2 .3-2.9-.4-1.1-1-1.2-3.4-1-4.8z" fill="url(#paint1_linear)"/><path d="M72.3 76.8h-3.1v28h3v-28zM77.6 81.4h-3v23.3h3V81.4zM82.8 85.5h-3v19.2h3V85.5zM88 81.4h-3v23.3h3V81.4zM93.3 90.8h-3v14h3v-14zM98.6 81.4h-3v23.3h3V81.4zM103.8 88.4h-3v16.3h3V88.4zM109.1 85.2h-3v19.5h3V85.2z" fill="#1280FF"/><path d="M85.3 113.6H67.8v1h17.5v-1zM85.3 116.4H67.8v1h17.5v-1zM85.3 119.2H67.8v1h17.5v-1zM85.3 122H67.8v1h17.5v-1zM85.3 124.9H67.8v1h17.5v-1zM130.7 75a11.4 11.4 0 000 22.7v-4h-.1a7.5 7.5 0 117.4-6.4h4v-1A11.4 11.4 0 00130.8 75z" fill="#FA3D38"/><path d="M176.4 38.2H148a3.8 3.8 0 00-3.8 3.8V70c0 2.1 1.7 3.8 3.8 3.8h28.5c2.2 0 3.9-1.7 3.9-3.8V42c0-2.1-1.7-3.8-3.9-3.8z" fill="url(#paint2_linear)"/><path d="M205.6 89.8h-28.5a3.8 3.8 0 00-3.8 3.8v27.9c0 2.1 1.7 3.8 3.8 3.8h28.5c2.2 0 3.9-1.7 3.9-3.8V93.6c0-2-1.7-3.8-3.9-3.8z" fill="url(#paint3_linear)"/><path d="M58 13H29.5a3.8 3.8 0 00-3.8 3.9v27.9c0 2 1.7 3.8 3.8 3.8H58c2.1 0 3.9-1.7 3.9-3.8V16.9c0-2.1-1.8-3.8-3.9-3.8z" fill="url(#paint4_linear)"/><path d="M47.5 66.3H19a3.8 3.8 0 00-3.9 3.9V98c0 2.2 1.7 3.9 3.9 3.9h28.5c2.1 0 3.8-1.7 3.8-3.9V70.2c0-2.1-1.7-3.9-3.8-3.9z" fill="url(#paint5_linear)"/><path d="M54.3 103.1c.7-.4 1.6-.5 2.3-.4a2.4 2.4 0 011.6 2.2c0 1-.1 1.8-.6 2.7-1.4 3.1-4 5.6-5.6 8.7-1 1.9-1.6 4-1.8 6-.1 2.3 0 5-2 6.2-1.4.8-3.2.2-4.3-.9a8.8 8.8 0 01-2-4.2 29.6 29.6 0 015.4-24.9c.4-.5 1-1 1.7-.7a1.4 1.4 0 01.4 1c.1 1.3-.4 5.6.6 6.3 1 .9 3.1-1.4 4.3-2z" fill="url(#paint6_linear)"/><path d="M48 172.5l.8-6.7-1.3 10v.2l-1.4-.5a62.7 62.7 0 01-19.6-12.9l-.3-.2 4-15c2.3-7.9 4-17 9.3-23.2.8-1 2.5-.6 3.7-.2l3.9 1.5c.8.2 1.5.7 2 1.4.6.7.7 1.7.7 2.6.6 14.4 0 28.7-1.9 43zM174 169.4l-1.4.7c-7 3.4-14.8 5.3-22.6 6.5-4.2-9-8.7-18.6-14.5-26.6-2-2.7-4-5-5.3-8.2-.9-2.4-2.2-5.4-2.4-8-.2-2.6 1.7-4 3.6-5.6a40 40 0 0115-7.5c.4-.2 1-.2 1.4 0 .4.2.7.6 1 1l15.1 27.8c3.4 6.2 6.8 12.3 9.6 18.8l.5 1z" fill="#1280FF"/><path d="M121.3 126.3c-1.2-2-.4-4.6-.5-7-.2-4-3-7.2-5.2-10.5-1-1.5-1.9-3-1.7-4.8 0-.6.3-1.4 1-1.4.2 0 .5 0 .8.2 1 .5 1.8 1.2 2.5 2 1 1 1.8 2.1 3.1 2l1.5-.6c1.6-1 3.5-1.2 5.4-1.5l2.4-.4c2-.3 4-.6 5.9-.2a8.2 8.2 0 015.2 3.8c1.7 2.9 1.5 6.5 2.5 9.6.4 1.3 1 2.4 1.3 3.7.4 1.2.3 2.6-.2 3.8-.8 1.4-2.4 2.1-4 2.5-1.5.3-3.2.4-4.7 1-1.2.5-2.3 1.4-3.5 2-2.8 1.6-3.8.3-6.4-.8-2-.8-4.3-1.4-5.4-3.4z" fill="url(#paint7_linear)"/><path d="M126 78h-.5l6.7-26h12.2v.4h-11.8L125.9 78zM173 112h-24.4L137 91.9l.4-.3 11.5 20h24v.4zM84.8 81.4L71.5 39.5H61v-.4h10.7v.1l13.4 42-.4.2zM69.4 97.3L60 86.7h-9.3v-.4h9.5L69.8 97l-.4.3z" fill="#1280FF"/><path d="M142 87.3a11.4 11.4 0 01-11.3 10.4v-4a7.5 7.5 0 007.4-6.4h4z" fill="#1280FF"/><path d="M142 87.3a11.4 11.4 0 01-11.3 10.4v-4a7.5 7.5 0 007.4-6.4h4z" fill="url(#paint8_linear)"/><defs><linearGradient id="paint0_linear" x1="68.2" y1="126.6" x2="21.5" y2="115.5" gradientUnits="userSpaceOnUse"><stop stop-opacity="0"/><stop offset="1"/></linearGradient><linearGradient id="paint1_linear" x1="7601.6" y1="8979.3" x2="9520.8" y2="8979.3" gradientUnits="userSpaceOnUse"><stop stop-opacity="0"/><stop offset="1"/></linearGradient><linearGradient id="paint2_linear" x1="169.6" y1="-79" x2="159" y2="114.4" gradientUnits="userSpaceOnUse"><stop offset="0" stop-color="#fff" stop-opacity="0"/><stop offset=".1" stop-color="#fff" stop-opacity=".1"/><stop offset=".3" stop-color="#fff" stop-opacity=".4"/><stop offset=".7" stop-color="#fff" stop-opacity=".7"/><stop offset="1" stop-color="#fff"/></linearGradient><linearGradient id="paint3_linear" x1="201.5" y1="-77.5" x2="190.9" y2="115.9" gradientUnits="userSpaceOnUse"><stop offset="0" stop-color="#fff" stop-opacity="0"/><stop offset=".3" stop-color="#fff" stop-opacity=".4"/><stop offset=".7" stop-color="#fff" stop-opacity=".7"/><stop offset="1" stop-color="#fff"/></linearGradient><linearGradient id="paint4_linear" x1="3778.6" y1="-7535.3" x2="3031.4" y2="6369.1" gradientUnits="userSpaceOnUse"><stop offset="0" stop-color="#fff" stop-opacity="0"/><stop offset=".3" stop-color="#fff" stop-opacity=".4"/><stop offset=".7" stop-color="#fff" stop-opacity=".7"/><stop offset="1" stop-color="#fff"/></linearGradient><linearGradient id="paint5_linear" x1="2989.4" y1="-3527.7" x2="2242.2" y2="10376.7" gradientUnits="userSpaceOnUse"><stop offset="0" stop-color="#fff" stop-opacity="0"/><stop offset=".3" stop-color="#fff" stop-opacity=".4"/><stop offset=".7" stop-color="#fff" stop-opacity=".7"/><stop offset="1" stop-color="#fff"/></linearGradient><linearGradient id="paint6_linear" x1="41.1" y1="113.2" x2="58.2" y2="113.2" gradientUnits="userSpaceOnUse"><stop stop-color="#E5C5D5"/><stop offset=".4" stop-color="#EAD4D1"/><stop offset="1" stop-color="#F0E9CB"/></linearGradient><linearGradient id="paint7_linear" x1="8075.8" y1="6915.1" x2="10135.8" y2="6915.1" gradientUnits="userSpaceOnUse"><stop stop-color="#E5C5D5"/><stop offset=".4" stop-color="#EAD4D1"/><stop offset="1" stop-color="#F0E9CB"/></linearGradient><linearGradient id="paint8_linear" x1="3308.1" y1="1810.8" x2="3701.6" y2="2406.1" gradientUnits="userSpaceOnUse"><stop offset="0" stop-color="#fff" stop-opacity="0"/><stop offset=".3" stop-color="#fff" stop-opacity=".4"/><stop offset=".7" stop-color="#fff" stop-opacity=".7"/><stop offset="1" stop-color="#fff"/></linearGradient></defs></svg>