<svg width="247" height="180" fill="none" xmlns="http://www.w3.org/2000/svg"><path opacity=".4" d="M238.8 160.6c-1 4.9-3 9.4-6.6 12.8-10 9.4-25.7 6.7-39.2 4.4-23.7-4.2-47.8-5.1-71.8-2.9-27 2.5-55.2 9-80.7-.3a40.8 40.8 0 01-20.2-15.7 58.7 58.7 0 01-8.7-20.9c-5.3-23.3-1.2-51.9 3-71.4 2-8.5 4.4-17 8.5-24.7C33.6 21.9 54.4 9 76.2 3.6a177 177 0 0167-.8c17.8 2.5 36.4 6.5 49.6 18.8 12.3 11.3 18 28 21.4 44.4 3.5 16.3 5.2 33.2 11.4 48.7 4 9.8 9.6 19 12.3 29.1a40.6 40.6 0 01.9 16.8z" fill="#BAE5FF"/><path opacity=".3" d="M238.8 160.6H21l-.7-1.7-8.2-18.6-1-2.3h.5l220.6-5 6.7 15.4c.6 4 .6 8.2-.1 12.2z" fill="url(#paint0_linear)"/><path d="M59 40.8H9.9a4 4 0 000 8h49a4 4 0 000-8zM117.8 40.8H68.7a4 4 0 000 8h49a4 4 0 000-8zM176.5 40.8h-49a4 4 0 000 8h49a4 4 0 000-8zM235.3 40.8h-49.1a4 4 0 000 8h49a4 4 0 000-8z" stroke="#1280FF" stroke-width=".7" stroke-miterlimit="10"/><path d="M239.8 31.5H7.2c-4 0-7.2 3.2-7.2 7.2V137c0 4 3.2 7.2 7.2 7.2h232.6c4 0 7.2-3.2 7.2-7.2V38.7c0-4-3.2-7.2-7.2-7.2z" fill="#1280FF"/><path d="M239.8 27.8H7.2C3.2 27.8 0 31 0 35v98.3c0 4 3.2 7.2 7.2 7.2h232.6c4 0 7.2-3.2 7.2-7.2V35c0-4-3.2-7.2-7.2-7.2z" fill="url(#paint1_linear)"/><path opacity=".3" d="M191.1 129.2a10 10 0 00-.9-3.8c-1.7-3.3-6.4-3.7-9.5-6a12 12 0 01-4.5-7.7c-.5-3-.3-6 0-9.1 0-.9 0-1.8.7-2.5 1.2-1.4 3.5-.4 5.1.7l4.2 2.8c.9.6 2 1.2 2.9.6.5-.5.6-1.2.7-2l.8-11c.2-3 .7-6.5 3.3-8 2.7-1.5 6.2.1 7.8 2.6 1.7 2.5 2 5.6 2.2 8.6a276 276 0 01-.7 47.3c0 .6-.2 1.3-.7 1.7-.4.2-.8.3-1.3.2-2.9 0-8.1 1-9.6-2-1.4-3-.2-9-.5-12.4z" fill="url(#paint2_linear)"/><path d="M175.3 97.5l11.8-3.2 6 14.1-2 4-8-.5-7.8-14.4z" fill="url(#paint3_linear)"/><path d="M177.4 108.1c-.2-1.2-.1-2.5 0-3.7l.3-.6c.3-.5 1.2-.3 1.6.2.4.4.5 1 1 1.6l1 1a4.9 4.9 0 011.2 3c0 .3-.2.6-.4.8-.6 1-1.7 2.3-2.9 1.4-1-.8-1.6-2.4-1.8-3.7z" fill="url(#paint4_linear)"/><path opacity=".7" d="M239.2 42.5h-50.4a2 2 0 00-2 2v4.2c0 1.1 1 2 2 2h50.4a2 2 0 002-2v-4.2a2 2 0 00-2-2z" fill="#1280FF"/><path d="M56.7 53.3H10.4c-2 0-3.7 1.7-3.7 3.7v71.9c0 2 1.7 3.6 3.7 3.6h46.3c2 0 3.6-1.6 3.6-3.6v-72c0-2-1.6-3.6-3.6-3.6zM116.4 53.2H71.1a5 5 0 00-5 5v15.4a5 5 0 005 5h45.3a5 5 0 005-5V58.2a5 5 0 00-5-5zM116.3 82.4H71.2a5 5 0 00-5 5v16.2a5 5 0 005 5h45.1a5 5 0 005-5V87.4a5 5 0 00-5-5zM116.4 111.7H71.1a5 5 0 00-5 5v15.4a5 5 0 005 5h45.3a5 5 0 005-5v-15.4a5 5 0 00-5-5zM177.4 54h-45.8a4.7 4.7 0 00-4.7 4.8v.9c0 2.5 2 4.7 4.7 4.7h45.8c2.6 0 4.7-2.2 4.7-4.7v-1c0-2.5-2-4.6-4.7-4.6zM238.3 54.9H189a3 3 0 00-3 2.9v2.9a3 3 0 003 2.9h49.4a3 3 0 003-3v-2.8a3 3 0 00-3-3z" fill="#fff"/><path opacity=".7" d="M58.6 42.5H8.5a2 2 0 00-2 2v4.2c0 1.2.9 2 2 2h50.1a2 2 0 002-2v-4.2a2 2 0 00-2-2z" fill="#1280FF"/><path opacity=".9" d="M118.6 42.5H68.4a2 2 0 00-2 2v4.2c0 1.2 1 2 2 2h50.2a2 2 0 002-2v-4.2a2 2 0 00-2-2z" fill="#1280FF"/><path opacity=".7" d="M179.4 42.5H129a2 2 0 00-2 2v4.2c0 1.1 1 2 2 2h50.4a2 2 0 002-2v-4.2a2 2 0 00-2-2z" fill="#1280FF"/><path opacity=".3" d="M179.4 42.5H129a2 2 0 00-2 2v4.2c0 1.1 1 2 2 2h50.4a2 2 0 002-2v-4.2a2 2 0 00-2-2z" fill="url(#paint5_linear)"/><path opacity=".3" d="M239.6 42.5h-50.4a2 2 0 00-2 2v4.2c0 1.1 1 2 2 2h50.4a2 2 0 002-2v-4.2a2 2 0 00-2-2z" fill="url(#paint6_linear)"/><path opacity=".3" d="M72.1 63a3 3 0 100-5.8 3 3 0 000 5.9z" fill="url(#paint7_linear)"/><path opacity=".3" d="M72.1 72a3 3 0 100-5.8 3 3 0 000 5.9z" fill="url(#paint8_linear)"/><path opacity=".7" d="M33.1 58.7H12.4a1.1 1.1 0 000 2.2H33a1.1 1.1 0 000-2.2zM31.5 65.3H12.4a1.1 1.1 0 000 2.2h19a1.1 1.1 0 000-2.2zM31.5 79.7H12.4a1.1 1.1 0 000 2.2h19a1.1 1.1 0 000-2.2zM48.7 85.2H12.4a1.1 1.1 0 000 2.2h36.3a1.1 1.1 0 000-2.2zM115.5 58.3H79.2a1.1 1.1 0 000 2.2h36.3a1.1 1.1 0 000-2.2z" fill="#1280FF"/><path opacity=".3" d="M132.9 62.6a3 3 0 100-6 3 3 0 000 6z" fill="url(#paint9_linear)"/><path opacity=".7" d="M176.3 57.8h-36.4a1.1 1.1 0 000 2.2h36.4a1.1 1.1 0 000-2.2z" fill="#1280FF"/><path opacity=".3" d="M193.7 62.6a3 3 0 100-6 3 3 0 000 6z" fill="url(#paint10_linear)"/><path opacity=".7" d="M237.1 57.8h-36.4a1.1 1.1 0 000 2.2h36.4a1.1 1.1 0 000-2.2z" fill="#1280FF"/><path d="M177.4 66.2h-45.8a4.7 4.7 0 00-4.7 4.7v1c0 2.5 2 4.6 4.7 4.6h45.8c2.6 0 4.7-2 4.7-4.7V71c0-2.6-2-4.7-4.7-4.7z" fill="#fff"/><path opacity=".3" d="M132.9 74.7a3 3 0 100-5.8 3 3 0 000 5.8z" fill="url(#paint11_linear)"/><path opacity=".7" d="M176.3 70h-36.4a1.1 1.1 0 000 2.2h36.4a1.1 1.1 0 000-2.2z" fill="#1280FF"/><path d="M177.4 78.4h-45.8a4.7 4.7 0 00-4.7 4.7v1c0 2.5 2 4.6 4.7 4.6h45.8c2.6 0 4.7-2 4.7-4.7v-.9c0-2.6-2-4.7-4.7-4.7z" fill="#fff"/><path opacity=".3" d="M132.9 87a3 3 0 100-6 3 3 0 000 6z" fill="url(#paint12_linear)"/><path opacity=".7" d="M176.3 82.2h-36.4a1.1 1.1 0 000 2.2h36.4a1.1 1.1 0 000-2.2zM109.2 67.7H79.1a1 1 0 00-1 1v.2c0 .5.4 1 1 1h30.1c.6 0 1-.5 1-1v-.2c0-.6-.4-1-1-1z" fill="#1280FF"/><path opacity=".3" d="M72.1 90.6a3 3 0 100-5.8 3 3 0 000 5.8z" fill="url(#paint13_linear)"/><path opacity=".7" d="M109.2 86.3H79.1a1 1 0 00-1 1v.2c0 .5.4 1 1 1h30.1c.6 0 1-.5 1-1v-.2c0-.6-.4-1-1-1z" fill="#1280FF"/><path opacity=".3" d="M72.1 98.5a3 3 0 100-5.9 3 3 0 000 5.9z" fill="url(#paint14_linear)"/><path opacity=".7" d="M109.2 94.1H79.1a1 1 0 00-1 1v.2c0 .6.4 1 1 1h30.1c.6 0 1-.4 1-1v-.2c0-.5-.4-1-1-1z" fill="#1280FF"/><path opacity=".3" d="M72.1 106.3a3 3 0 100-5.8 3 3 0 000 5.8z" fill="url(#paint15_linear)"/><path opacity=".7" d="M109.2 102H79.1a1 1 0 00-1 1v.2c0 .5.4 1 1 1h30.1c.6 0 1-.5 1-1v-.2c0-.6-.4-1-1-1z" fill="#1280FF"/><path opacity=".3" d="M72.1 120.6a3 3 0 100-5.9 3 3 0 000 5.9z" fill="url(#paint16_linear)"/><path opacity=".7" d="M109.2 116.2H79.1a1 1 0 00-1 1v.2c0 .6.4 1 1 1h30.1c.6 0 1-.4 1-1v-.2c0-.5-.4-1-1-1z" fill="#1280FF"/><path opacity=".3" d="M72.1 134.4a3 3 0 100-5.9 3 3 0 000 5.9z" fill="url(#paint17_linear)"/><path opacity=".7" d="M109.2 123.6H79.1a1 1 0 00-1 1v.2c0 .5.4 1 1 1h30.1c.6 0 1-.5 1-1v-.2c0-.6-.4-1-1-1zM109.2 130.8H79.1a1 1 0 00-1 1v.1c0 .6.4 1 1 1h30.1c.6 0 1-.4 1-1v-.1c0-.6-.4-1-1-1zM31.5 102.8H12.4a1.1 1.1 0 000 2.2h19a1.1 1.1 0 000-2.2zM48.7 108.3H12.4a1.1 1.1 0 000 2.2h36.3a1.1 1.1 0 000-2.2z" fill="#1280FF"/><path d="M79.3 45.4h-1V45h2.3v.4h-1V48h-.3v-2.7zM81.9 48.1V48a.8.8 0 01-.7.3.6.6 0 01-.7-.6c0-.6.5-.9 1.3-.9a.5.5 0 00-.5-.5l-.5.1-.1-.2c.2-.2.4-.2.7-.2.7 0 .8.4.8.9V48H82zm0-1c-.5 0-1 0-1 .4a.4.4 0 00.4.4.6.6 0 00.5-.4V47zM82.8 47.7l.6.2c.3 0 .4-.2.4-.3 0-.2-.1-.3-.4-.5-.4 0-.6-.3-.6-.6a.7.7 0 01.8-.6l.5.1v.3a.9.9 0 00-.5-.1c-.3 0-.4.1-.4.3 0 .1.1.2.4.3.4.2.6.4.6.7 0 .4-.3.7-.8.7-.3 0-.5 0-.7-.2l.1-.3zM85.1 47l.2-.3.7-.8h.4l-.8 1 1 1.2H86l-.8-1-.2.2v.8h-.4V45h.4v2zM88.3 45.3a.2.2 0 01-.3.2.2.2 0 01-.2-.2.3.3 0 01.2-.3.2.2 0 01.3.3zm-.5 2.8V46h.5v2.2h-.5zM89 46.5V46h.3v.4a.8.8 0 01.7-.4c.4 0 .8.1.8 1v1.3h-.4v-1.3c0-.4-.1-.7-.5-.7a.6.6 0 00-.5.4V48.2h-.5v-1.7zM92.5 45h.7c.3 0 .7 0 1 .3a.8.8 0 01.2.6 1 1 0 01-.3.7 1.3 1.3 0 01-1 .3H93v1.2h-.5v-3zm.4 1.6h.3c.5 0 .8-.2.8-.7 0-.4-.3-.6-.8-.6H93v1.3zM94.8 46.6v-.7h.4v.4a.7.7 0 01.6-.4h.1v.3h-.1a.6.6 0 00-.6.6V48h-.4v-1.5zM98.3 47a1 1 0 01-1.1 1.2 1 1 0 01-1-1.2 1 1 0 011-1.1 1 1 0 011.1 1.1zm-1.8 0c0 .5.3.9.7.9.4 0 .7-.4.7-.9 0-.4-.2-.9-.7-.9-.4 0-.7.5-.7 1zM100.7 46v1.8a1.3 1.3 0 01-.3 1c-.2.2-.5.3-.8.3-.2 0-.5 0-.7-.2v-.3l.7.2c.4 0 .7-.2.7-.8v-.2a.8.8 0 01-.7.3 1 1 0 01-1-1 1 1 0 011-1.2.7.7 0 01.8.3V46h.3zm-.4.8v-.2a.6.6 0 00-.5-.4c-.4 0-.7.3-.7.8s.2.8.7.8a.6.6 0 00.5-.4V46.8zM101.4 46.6v-.7h.3v.4a.7.7 0 01.8-.4v.3h-.2a.6.6 0 00-.5.6V48h-.4v-1.5zM103 47.1a.7.7 0 00.5.7H104.4l.1.3a1.8 1.8 0 01-1.2 0 1 1 0 01-.6-1 1 1 0 01.6-1.1l.4-.1a1 1 0 011 1v.2H103zm1.2-.3a.6.6 0 000-.4.6.6 0 00-.5-.2.7.7 0 00-.6.6h1.1zM105 47.7l.6.2c.3 0 .4-.2.4-.3 0-.2 0-.3-.4-.5-.4 0-.6-.3-.6-.6a.7.7 0 01.3-.5.7.7 0 01.5-.1l.6.1-.1.3a.9.9 0 00-.5-.1c-.2 0-.4.1-.4.3l.5.3c.3.2.5.4.5.7 0 .4-.3.7-.8.7-.2 0-.4 0-.6-.2v-.3zM107 47.7l.4.2c.3 0 .5-.2.5-.3 0-.2-.1-.3-.4-.5-.4 0-.6-.3-.6-.6a.7.7 0 01.5-.6h.2l.6.1-.1.3a.9.9 0 00-.5-.1c-.2 0-.3.1-.3.3 0 .1 0 .2.4.3.4.2.6.4.6.7 0 .4-.3.7-.9.7-.2 0-.4 0-.6-.2l.1-.3zM19.4 45V47c0 .7.3 1 .8 1 .4 0 .7-.4.7-1V45h.4v1.8c0 1-.5 1.4-1.2 1.4s-1-.4-1-1.3V45h.3zM22 47.7l.4.2c.3 0 .5-.2.5-.3 0-.2-.1-.3-.4-.5-.4 0-.6-.3-.6-.6a.7.7 0 01.7-.6l.6.1-.1.3a.9.9 0 00-.5-.1c-.2 0-.3.1-.3.3 0 .1.1.2.4.3.4.2.6.4.6.7 0 .4-.3.7-.9.7-.2 0-.4 0-.6-.2l.1-.3zM24 47.1a.7.7 0 00.8.8l.6-.1v.3a1.8 1.8 0 01-1.1 0 1 1 0 01-.7-1 1 1 0 011-1.2 1 1 0 011 1v.2H24zm1.2-.3a.6.6 0 00-.6-.6.7.7 0 00-.6.6h1.2zM26.1 46.6v-.7h.4v.4a.7.7 0 01.6-.4v.3a.6.6 0 00-.6.6V48h-.4v-1.5zM28.5 47.7l.8.2c.4 0 .6-.3.6-.6s-.2-.4-.6-.6c-.5-.2-.8-.4-.8-.9a.9.9 0 011-.8l.7.1-.1.4-.6-.2c-.4 0-.6.3-.6.5 0 .3.2.4.6.6.6.2.8.5.8 1 0 .3-.3.8-1 .8-.3 0-.6 0-.9-.2l.1-.3zM31.3 45.3v.6h.6v.3h-.6v1.2c0 .3.1.5.3.5h.3v.2a1 1 0 01-.4 0 .6.6 0 01-.4 0 .8.8 0 01-.2-.7v-1.2h-.3V46h.3v-.5l.4-.1zM34.4 47a1 1 0 01-2 .9 1 1 0 01-.2-.9 1 1 0 011.9-.8 1 1 0 01.3.8zm-1.8 0c0 .5.3.9.7.9.4 0 .6-.4.6-.9 0-.4-.1-.9-.6-.9s-.7.5-.7 1zM34.9 46.6v-.7h.3v.4a.7.7 0 01.6-.4h.1v.3h-.1a.6.6 0 00-.5.6V48h-.4v-1.5zM36.8 45.3a.3.3 0 01-.4 0 .2.2 0 01.2-.3.2.2 0 01.2.3zm-.4 2.8V46h.4v2.2h-.4zM37.7 47.1a.7.7 0 00.8.8l.6-.1v.3a1.8 1.8 0 01-1.1 0 1 1 0 01-.7-1 1 1 0 011-1.2 1 1 0 011 1v.2h-1.6zm1.2-.3a.6.6 0 00-.6-.6.7.7 0 00-.6.6h1.2zM39.7 47.7l.6.2c.3 0 .4-.2.4-.3 0-.2-.1-.3-.4-.5-.4 0-.6-.3-.6-.6a.7.7 0 01.8-.6l.5.1-.1.3a.9.9 0 00-.5-.1c-.2 0-.3.1-.3.3 0 .1.1.2.4.3.4.2.6.4.6.7 0 .4-.3.7-.9.7-.2 0-.4 0-.6-.2l.1-.3zM139.4 45.4h-1V45h2.4v.4h-1V48h-.4v-2.7zM142 48.1V48a.8.8 0 01-.7.3.6.6 0 01-.7-.6c0-.6.5-.9 1.4-.9a.4.4 0 00-.1-.4.5.5 0 00-.4-.1l-.6.1v-.2c.1-.2.4-.2.7-.2.6 0 .8.4.8.9V48h-.4zm0-1c-.5 0-1 0-1 .4v.1l.1.2a.4.4 0 00.3 0 .6.6 0 00.6-.3V47zM143 47.7l.5.2c.3 0 .4-.2.4-.3 0-.2 0-.3-.4-.5-.4 0-.6-.3-.6-.6a.7.7 0 01.3-.5.7.7 0 01.5-.1l.5.1v.3a.9.9 0 00-.5-.1c-.3 0-.4.1-.4.3 0 .1.1.2.4.3.4.2.6.4.6.7 0 .4-.3.7-.8.7-.2 0-.4 0-.6-.2v-.3zM145.2 47l.2-.3.7-.8h.5l-.9 1 1 1.2h-.5l-.7-1-.3.2v.8h-.4V45h.4v2zM150.2 48a2 2 0 01-.9.2 1.5 1.5 0 01-1.5-1.6 1.5 1.5 0 011.6-1.6l.8.1-.1.4-.7-.2a1.2 1.2 0 00-1.2 1.3 1.1 1.1 0 001.2 1.3c.2 0 .5 0 .7-.2v.3zM152.6 47a1 1 0 01-1 1.2 1 1 0 01-1.2-1.2 1 1 0 01.7-1l.4-.1a1 1 0 011.1 1.1zm-1.7 0c0 .5.2.9.6.9.4 0 .7-.4.7-.9 0-.4-.2-.9-.7-.9-.4 0-.6.5-.6 1zM153.1 46.5V46h.4v.4a.8.8 0 01.7-.4.7.7 0 01.6.4l.3-.3.4-.1c.3 0 .8.2.8 1V48h-.4V47c0-.4-.2-.7-.5-.7a.5.5 0 00-.5.4V48h-.4v-1.3c0-.3-.2-.6-.5-.6a.6.6 0 00-.5.4v1.5h-.4v-1.6zM157 46.6V46h.3v.4a.9.9 0 01.8-.4 1 1 0 011 1.1 1 1 0 01-.6 1 1 1 0 01-.4.2.8.8 0 01-.7-.4v1.3h-.4v-2.5zm.4.6v.2a.6.6 0 00.6.5c.4 0 .7-.4.7-.9s-.3-.8-.7-.8a.7.7 0 00-.6.7v.3zM159.6 44.9h.4V48h-.4V45zM160.9 47.1a.7.7 0 00.8.8l.6-.1v.3h-.7a1 1 0 01-1-1 1 1 0 01.2-.9 1 1 0 01.8-.3 1 1 0 011 1v.2h-1.7zm1.2-.3a.6.6 0 00-.1-.4.6.6 0 00-.5-.2.7.7 0 00-.6.6h1.2zM163.5 45.3v.6h.6v.3h-.6v1.2c0 .3 0 .5.3.5h.2v.2a1 1 0 01-.6 0h-.2a.8.8 0 01-.1-.7v-1.2h-.4V46h.4v-.5l.4-.1zM164.7 47.1a.7.7 0 00.8.8l.6-.1v.3a1.8 1.8 0 01-1.1 0 1 1 0 01-.7-1 1 1 0 01.6-1.1l.5-.1a1 1 0 01.9 1v.2h-1.6zm1.2-.3a.6.6 0 00-.1-.4.6.6 0 00-.5-.2.7.7 0 00-.6.6h1.2zM168.7 44.9V48h-.3v-.3a.8.8 0 01-.8.4 1 1 0 01-1-1.1 1 1 0 01.6-1.1l.4-.1a.7.7 0 01.7.3v-1.3h.4zm-.4 2v-.3a.6.6 0 00-.6-.4c-.4 0-.6.3-.6.8s.2.8.6.8a.6.6 0 00.6-.4V46.8zM205.3 45.4h-1V45h2.3v.4h-1V48h-.3v-2.7zM208 48.1V48a.8.8 0 01-.8.3.6.6 0 01-.6-.6c0-.6.4-.9 1.3-.9a.4.4 0 00-.1-.4.5.5 0 00-.4-.1l-.6.1v-.2c.2-.2.4-.2.7-.2.7 0 .8.4.8.9V48h-.3zm-.1-1c-.4 0-1 0-1 .4v.1l.2.2a.4.4 0 00.2 0 .6.6 0 00.6-.3V47zM208.9 47.7l.5.2c.3 0 .4-.2.4-.3 0-.2 0-.3-.4-.5-.4 0-.6-.3-.6-.6a.7.7 0 01.3-.5.7.7 0 01.5-.1l.6.1-.1.3a1 1 0 00-.5-.1c-.2 0-.4.1-.4.3l.4.3c.4.2.6.4.6.7 0 .4-.3.7-.8.7-.2 0-.4 0-.6-.2v-.3zM211.2 47c0-.1 0-.2.2-.3l.6-.8h.5l-.9 1 1 1.2h-.5l-.8-1-.2.2v.8h-.4V45h.4v2zM216 48a2 2 0 01-.7.2 1.5 1.5 0 01-1.6-1.6 1.6 1.6 0 011-1.5l.6-.1.8.1-.1.4-.6-.2a1.2 1.2 0 00-1.3 1.3 1.1 1.1 0 001.2 1.3c.3 0 .5 0 .7-.2v.3zM216.6 44.9h.4V48h-.4V45zM219.7 47a1 1 0 01-1.1 1.2 1 1 0 01-1.1-1.2 1 1 0 01.6-1l.5-.1a1 1 0 011 1.1zm-1.8 0c0 .5.3.9.7.9.4 0 .6-.4.6-.9 0-.4-.1-.9-.6-.9s-.7.5-.7 1zM220.1 47.7l.6.2c.3 0 .4-.2.4-.3 0-.2-.1-.3-.4-.5-.4 0-.6-.3-.6-.6a.7.7 0 01.2-.5.7.7 0 01.6-.1l.5.1-.1.3a.9.9 0 00-.5-.1c-.2 0-.3.1-.3.3 0 .1.1.2.4.3.4.2.6.4.6.7 0 .4-.3.7-.9.7-.2 0-.4 0-.6-.2l.1-.3zM222.2 47.1a.7.7 0 00.8.8l.6-.1v.3a1.8 1.8 0 01-1.1 0 1 1 0 01-.6-.6v-.4a1 1 0 01.5-1.1l.5-.1a1 1 0 011 1v.2h-1.7zm1.2-.3a.6.6 0 00-.1-.4.6.6 0 00-.4-.2.7.7 0 00-.7.6h1.2zM226.2 44.9V48h-.3v-.3a.8.8 0 01-.8.4 1 1 0 01-1-1.1 1 1 0 01.3-.9 1 1 0 01.7-.3.7.7 0 01.7.3v-1.3h.4zm-.4 2v-.3a.6.6 0 00-.6-.4c-.4 0-.6.3-.6.8s.2.8.6.8a.6.6 0 00.6-.4V46.8z" fill="#fff"/><path d="M194.5 125.4l2.8 47 5.1.7 2.3-35.7 2.1 35.6 5.1.1s2.3-35.9 1.8-38.5c-.5-2.6 0-11 0-11l-19.2 1.8z" fill="#000"/><path d="M193.7 120.8c-2.5-1.5-4.9-7.8-3.8-9.4 1.3-1.9 3.2-14.7 4.9-16.2a9 9 0 016-2.5c2.6.1 5.6-1.1 8-.1a13 13 0 013.6 2.6 85.8 85.8 0 011.2 31c-2.5 3.7-7.7 3.8-12 3.6-1.6-.1-3.2-.2-4.5-1-3.3-2-3.8-4-3.4-8z" fill="#FA3D38"/><path d="M194 83.8a6 6 0 00.8 3.9c1 1.5 2.7 2.4 3 4 .2.8 0 1.6 0 2.4 0 .8.5 1.6 1.3 1.7.3 0 .6 0 .8-.2a5 5 0 002-2.1c1.5-2.6 2.4-5.6 2-8.5-.5-2.9-2.6-5.6-5.4-6.3-3.5-1-4.2 2.3-4.5 5z" fill="url(#paint18_linear)"/><path d="M194.3 78.6c.4 1.4 1.6 2.5 2.9 3.3L199 83c1.6 1.6 1.2 4.3 1.2 6.7 0 1.7.3 3.4 1.3 4.8 1.7 2.3 5 2.7 7.8 2.8.3 0 .6 0 .8-.2.3-.2.4-.4.4-.7.6-2.6-1.9-5.1-1.7-7.8.1-1.5 1-2.8 1.4-4.3.4-2.2-.5-4.4-2-6a6 6 0 00-2-1.8c-1.6-.6-3.3-.3-4.8-.8-1-.4-1.7-1-2.5-1.3-2.4-1-5.3 1.7-4.6 4z" fill="#0D3DBF"/><path d="M183.4 109.4c-.3-.2-.7-.3-1.1-.2-.3.1-.5.2-.6.4-.8.9-1.5 1.8-1.9 3-.2.4-.3 1-.1 1.6.3.5.7 1 1.3 1.2 4 2.3 8.6 5.5 13.1 5 .3 0 .2-.9.5-1.1.2-.3.3-.7.3-1 .2-1.5.3-3 .2-4.4a6.5 6.5 0 00-1.7-3.9c-.4-.4-1-.7-1.5-.8-.9 0-.8.7-1.4 1-.6.4-1.5.4-2.3.3-1.6 0-3.2-.5-4.8-1.1z" fill="#FA3D38"/><path opacity=".3" d="M199 106.2s-1.4 11.7-5.3 14.6c0 0-1.4 7.2 4.8 8.4 1.5.5 3.1.7 4.7.5 0 0-6 1.8-4.9-10.2 1.2-12.1.8-13.3.8-13.3z" fill="url(#paint19_linear)"/><path d="M190.5 97.2l-2.8 3.5-.4 1.2 1.1-.7 3.5-4.6a.5.5 0 00-.4-.4c-.3 0-1 1-1 1z" fill="#606161"/><path d="M187.9 98.8l-.7.5a3 3 0 00-.9 1.2v1.2c0 .2 0 .5.2.6a.5.5 0 00.5-.2c.4-.4.6-.8.8-1.3.3-.7.9-1.1 1.3-1.7.4-.7-.8-.5-1.2-.3z" fill="url(#paint20_linear)"/><path d="M190.2 100.2l.4.8c.4.6 1 1.2 1.6 1.6l.1.1v.3l-.1.5-.6 1.2h-.1l-1.8-.6-.8-.4c-.6-.3-1-.7-1.3-1.2a.7.7 0 010-.8c.1-.2.4-.2.7-.4l.1-.2.9-1.3c.3-.4.7 0 .9.4z" fill="url(#paint21_linear)"/><path d="M193.6 175.5a.8.8 0 00-.3.6c0 .2.1.4.3.5.4.3 1 .6 1.6.6 1.8.3 3.8.2 5.6-.3.5-.1.9-.3 1.2-.6.4-.5.5-1.1.5-1.7v-2-.6c-.2-.3-.7-.4-1-.4h-4c-.3.3-.4.7-.6 1-1 1.1-2.3 1.9-3.3 3zM203.3 175.6a.8.8 0 00-.3.5c0 .2.1.3.3.5.4.3 1 .5 1.5.6 1.8.2 3.7.1 5.4-.3.5-.1.9-.3 1.2-.6.3-.5.5-1.1.4-1.7l.1-2v-.4c-.2-.4-.7-.4-1-.5H208l-1 .1-.5.9c-1 1.1-2.2 1.8-3.2 2.9z" fill="#000"/><defs><linearGradient id="paint0_linear" x1="120.3" y1="110.4" x2="140" y2="247.6" gradientUnits="userSpaceOnUse"><stop stop-color="#010101" stop-opacity="0"/><stop offset=".9" stop-color="#010101"/></linearGradient><linearGradient id="paint1_linear" x1="128.2" y1="-53.8" x2="121" y2="157.2" gradientUnits="userSpaceOnUse"><stop stop-color="#fff" stop-opacity="0"/><stop offset=".9" stop-color="#fff"/></linearGradient><linearGradient id="paint2_linear" x1="10077.3" y1="13746.5" x2="17197.5" y2="15142.4" gradientUnits="userSpaceOnUse"><stop stop-color="#010101" stop-opacity="0"/><stop offset=".9" stop-color="#010101"/></linearGradient><linearGradient id="paint3_linear" x1="7029.7" y1="3175" x2="6989.8" y2="4343.6" gradientUnits="userSpaceOnUse"><stop stop-color="#fff" stop-opacity="0"/><stop offset=".9" stop-color="#fff"/></linearGradient><linearGradient id="paint4_linear" x1="177.3" y1="107.8" x2="182.6" y2="107.8" gradientUnits="userSpaceOnUse"><stop stop-color="#E5C6D6"/><stop offset=".4" stop-color="#EAD4D0"/><stop offset="1" stop-color="#F0E9CB"/></linearGradient><linearGradient id="paint5_linear" x1="17428" y1="644.7" x2="17430.2" y2="1602.3" gradientUnits="userSpaceOnUse"><stop stop-color="#010101" stop-opacity="0"/><stop offset=".9" stop-color="#010101"/></linearGradient><linearGradient id="paint6_linear" x1="24223.5" y1="373.1" x2="24225.6" y2="1330.6" gradientUnits="userSpaceOnUse"><stop stop-color="#010101" stop-opacity="0"/><stop offset=".9" stop-color="#010101"/></linearGradient><linearGradient id="paint7_linear" x1="934.4" y1="549.3" x2="964.5" y2="1248.8" gradientUnits="userSpaceOnUse"><stop stop-color="#010101" stop-opacity="0"/><stop offset=".9" stop-color="#010101"/></linearGradient><linearGradient id="paint8_linear" x1="929.7" y1="558.4" x2="959.9" y2="1258.1" gradientUnits="userSpaceOnUse"><stop stop-color="#010101" stop-opacity="0"/><stop offset=".9" stop-color="#010101"/></linearGradient><linearGradient id="paint9_linear" x1="1732.7" y1="542.5" x2="1762.8" y2="1242.1" gradientUnits="userSpaceOnUse"><stop stop-color="#010101" stop-opacity="0"/><stop offset=".9" stop-color="#010101"/></linearGradient><linearGradient id="paint10_linear" x1="2531.9" y1="542.5" x2="2562" y2="1242.1" gradientUnits="userSpaceOnUse"><stop stop-color="#010101" stop-opacity="0"/><stop offset=".9" stop-color="#010101"/></linearGradient><linearGradient id="paint11_linear" x1="1732.7" y1="702.6" x2="1762.8" y2="1402.3" gradientUnits="userSpaceOnUse"><stop stop-color="#010101" stop-opacity="0"/><stop offset=".9" stop-color="#010101"/></linearGradient><linearGradient id="paint12_linear" x1="1732.7" y1="862.7" x2="1762.8" y2="1562.3" gradientUnits="userSpaceOnUse"><stop stop-color="#010101" stop-opacity="0"/><stop offset=".9" stop-color="#010101"/></linearGradient><linearGradient id="paint13_linear" x1="929.7" y1="802.7" x2="959.9" y2="1502.3" gradientUnits="userSpaceOnUse"><stop stop-color="#010101" stop-opacity="0"/><stop offset=".9" stop-color="#010101"/></linearGradient><linearGradient id="paint14_linear" x1="929.7" y1="905.9" x2="959.9" y2="1605.4" gradientUnits="userSpaceOnUse"><stop stop-color="#010101" stop-opacity="0"/><stop offset=".9" stop-color="#010101"/></linearGradient><linearGradient id="paint15_linear" x1="929.7" y1="1009" x2="959.9" y2="1708.6" gradientUnits="userSpaceOnUse"><stop stop-color="#010101" stop-opacity="0"/><stop offset=".9" stop-color="#010101"/></linearGradient><linearGradient id="paint16_linear" x1="929.7" y1="1196.3" x2="959.9" y2="1895.9" gradientUnits="userSpaceOnUse"><stop stop-color="#010101" stop-opacity="0"/><stop offset=".9" stop-color="#010101"/></linearGradient><linearGradient id="paint17_linear" x1="929.7" y1="1377.4" x2="959.9" y2="2077" gradientUnits="userSpaceOnUse"><stop stop-color="#010101" stop-opacity="0"/><stop offset=".9" stop-color="#010101"/></linearGradient><linearGradient id="paint18_linear" x1="4636.3" y1="3511.5" x2="4840.8" y2="3494.1" gradientUnits="userSpaceOnUse"><stop stop-color="#E5C6D6"/><stop offset=".4" stop-color="#EAD4D0"/><stop offset="1" stop-color="#F0E9CB"/></linearGradient><linearGradient id="paint19_linear" x1="4356" y1="6683.7" x2="3643.1" y2="6355.8" gradientUnits="userSpaceOnUse"><stop stop-color="#010101" stop-opacity="0"/><stop offset=".9" stop-color="#010101"/></linearGradient><linearGradient id="paint20_linear" x1="1346.7" y1="927.1" x2="1364.8" y2="927.1" gradientUnits="userSpaceOnUse"><stop stop-color="#E5C6D6"/><stop offset=".4" stop-color="#EAD4D0"/><stop offset="1" stop-color="#F0E9CB"/></linearGradient><linearGradient id="paint21_linear" x1="2103.8" y1="1276.4" x2="2152.8" y2="1276.4" gradientUnits="userSpaceOnUse"><stop stop-color="#E5C6D6"/><stop offset=".4" stop-color="#EAD4D0"/><stop offset="1" stop-color="#F0E9CB"/></linearGradient></defs></svg>