<svg width="289" height="180" fill="none" xmlns="http://www.w3.org/2000/svg"><path opacity=".4" d="M43 73.3c6.4-6.8 16-10 22.5-17 8.7-9.3 9.8-23.5 16.7-34.2a46.7 46.7 0 0120.7-16.7C117.4-1 133.6-1.7 148.6 3c6.9 2.3 13.5 5.7 20.7 6.6 12.5 1.5 26.5-4.6 37.2 2 7.3 4.7 10 13.8 12.9 22 3.7 10.9 9.4 16.4 14.9 32.5 2.5 7.4 11 12.5 10.7 20.4 0 2.1-.8 4.4-2.4 5.8-1.2 1.2-3 1.8-4.6 2.3a560.8 560.8 0 01-177.4 24c-11.8-.3-19-2.2-22.3-13.6C35 94 34.4 82.3 43 73.3z" fill="#BAE5FF"/><path d="M182.3 48.7c.3-.8 1-1.5 1.2-2.4.3-.7.2-1.4.4-2.1.3-1.2 1.1-2.1 2.1-2.7 1-.6 2.2-1 3.4-1 2.5-.2 5 .5 7 1.9 2.1 1.4 3.6 3.6 4.1 6l.5 2.3c.3.8.8 1.5 1.6 1.6l-.1 1a3.6 3.6 0 012.8 2.7c.2 1.2-.2 2.4.2 3.6.3 1 1.2 1.8 1.4 2.9a4 4 0 01-.4 1.9l-1.8 4.2c-1-1-2-2.1-3.3-2.7l-2.4-.7c-4.4-1.5-6.4-6.7-10.5-8.8-.9-.5-2-.6-2.9-1.2-.6-.4-.7-1-1-1.5-1-1.6-3-2.8-2.3-5z" fill="#3F3D56"/><path d="M184.8 58.7a6 6 0 002 3c.4.4 1 .8 1 1.4l.3.6c.2.3.8.3 1.1.1a3.5 3.5 0 001.9-2.4c.2-1 0-2.2-.4-3.1a6.8 6.8 0 00-4-3.9c-2.2-.6-2.2 3-1.9 4.3z" fill="#3F3D56"/><path opacity=".2" d="M288 110.5c.5-4.5-5.3-6.8-9.8-7-9.4-.3-18.7 2.1-28 3.7-24.3 4.1-49.2 2.5-73.8 5-19 2-37.7 6.4-56.4 10.3-22 4.4-44.2 8-66.4 11.4-10.9 1.6-21.9 3.7-32.8 4.7-5.1.4-19-.3-20.7 7-.5 1.7 1.7 2.8 3.4 3.2 14.1 3.9 28.2 7.7 42.6 10.3 9.4 1.7 18.8 3 27.9 5.8 7.9 2.5 15.4 6.3 23.3 9a161.2 161.2 0 0052 5.7c4.4-.7 8.5-2.7 12.6-4.7l120-58.3" fill="#1280FF"/><path d="M84.6 63.8l5.4-12s5.8-2.8 9.8-.4c4 2.4.6 10.5 0 13-.6 2.6-4.6 3.7-6.1 2.5-1.5-1.2-3.5 2.3-3.5 2.3l-5.6-5.4z" fill="url(#paint0_linear)"/><path d="M278.6 112.4l-160.4 57a31.7 31.7 0 01-21 .1l-80-27.8a5.1 5.1 0 01-3.6-5 5.2 5.2 0 014.2-5.2l7.5-1.5 81-17.1 88.5-18.6 36.9 6 27 4.6 20 7.5z" fill="url(#paint1_linear)"/><path d="M286.3 101a12 12 0 01-8 11.4l-160.4 57a31.7 31.7 0 01-21 .1l-80.1-27.8c-.6-.2-1.2-.5-1.7-.9l-1.8-3.4V122L106 113l125.2-12.5 48.8-4.9a5.6 5.6 0 015.5 2.9" fill="#1280FF"/><path d="M286.3 101a12 12 0 01-8 11.4l-160.4 57a31.7 31.7 0 01-21 .1l-80.1-27.8c-.6-.2-1.2-.5-1.7-.9l-1.8-3.4V122L106 113l125.2-12.5 48.8-4.9a5.6 5.6 0 015.5 2.9" fill="url(#paint2_linear)"/><path d="M286 98.4a12 12 0 01-7.4 7.3l-160.4 57.1a31.7 31.7 0 01-21 0l-80-27.7c-.7-.2-1.2-.5-1.7-1l-1.9-3.3V122l92.8-9.2 125.3-12.5 48.8-4.9a5.6 5.6 0 015.4 2.9" fill="url(#paint3_linear)"/><path d="M283.2 96l-165 58.8a31.6 31.6 0 01-21 .1l-80-27.8c-5.1-1.7-4.7-9 .6-10.2L187 79.5c2.1-.5 4.3-.5 6.4-.1l85.4 15c.7.2 5 1.3 4.4 1.5z" fill="#1280FF"/><path d="M186.1 65s-7.2 8.5-9.8 11.3c-3.6 3.8-13.7 0-13.7 0l4 8.3 4.1.6L185 75l1.2-10.2z" fill="url(#paint4_linear)"/><path d="M160.6 74l-.3-1h1.7v-.7h1.4v-.7l2.4.7 3.6.9 1-.4 11.1 2.6-.2.7L170 81l-5-.8-4.4-6.2zM117.4 66.9l2.2-12.9c.8-5.8 3-7.8 5.4-8.1a62.4 62.4 0 0122.7-.2c5.2.8 6.2 20.6 6.5 26.1 0 1-.3 1.9-.8 2.7l-3.6 2.6-1.1 9-26.3 1.5-.3-10.3-10.3-.2.3-8 5.3-2.2z" fill="#1280FF"/><path d="M122.2 77.3l1.5-21.9s10.4-.3 10.3 1.3c0 1.7-7.6 16.5-7.6 16.5l-4.3 4.1z" fill="url(#paint5_linear)"/><path d="M140.1 44.7c.6 0 1.2 0 1.8.3 0 0-1.3 5.7-6.1 7.8-4.8 2.2-5.7-5.4-5.7-5.4l10-2.7z" fill="url(#paint6_linear)"/><path d="M109.3 68.4l-.4.1c-.3.2-.2.6 0 .9l.8.5a.5.5 0 01.3.3v.3c-.3.7-1.2 1-2 1.2a18 18 0 00-3.3 1.3l-.3.3c0 .3.4.5.7.5h2.4c-.2.2-.4.4-.4.6 0 .3.3.4.5.4h.7c.4.2.5.6.8.8.4.2.7.3 1.1.2.7 0 1.3-.2 2-.5.4 0 .7-.2 1-.5.4-.3.6-.8.7-1.3.4-1 .8-3.1-.1-4-1-1-3.3-1-4.5-1z" fill="url(#paint7_linear)"/><path d="M90.2 69.2L98 81.8s2.5 4.5 5.5 4c3-.7 5.7-4.4 5.7-4.4l3.9 4s-6.2 10.4-13 9.5c-3.7-.5-11.7-8.3-11.7-8.3l1.8-17.4z" fill="#1280FF"/><path d="M90.2 69.2L98 81.8s2.5 4.5 5.5 4c3-.7 5.7-4.4 5.7-4.4l3.9 4s-6.2 10.4-13 9.5c-3.7-.5-11.7-8.3-11.7-8.3l1.8-17.4z" fill="url(#paint8_linear)"/><path d="M23.7 115.6l154-31.3 86.6 16.5-138 48.1-102.6-33.3z" fill="url(#paint9_linear)"/><path opacity=".2" d="M107 125c1.6 5.3 7.5 9 13 8 3.7-.6 6.8-3 10-4.8 7.9-4.6 17-6.8 26.2-6.1 5.5.3 11.3 1.7 16.2-.7 3.4-1.7 5.8-5 9-7 2.6-1.8 5.7-2.8 8.6-4.1 4.5-2.2 9.6-7.9 16.9-13.2 4.2-3 11.7-6 13.6-8.1-4-1.1-7.7 3.5-13.6 4.1-12.5 1.3-28.9.5-37.6 1.7a433.4 433.4 0 00-31 4.7c-22 4.5-43.3 10.3-65.4 14-4.3.8-15.7 1.4-18.4 5.8-4 6.5 8.8 9.6 13 10 3.3.5 40.5-1.2 39.5-4.3z" fill="#1D2741"/><path d="M154 108s-4.7.2-5.6 1.3c-.9 1.2.9 2.2.9 2.2l9.3-3.8-4.6.3zM151 86.6s2.4-.1 3.6 1.8c1.2 2 1.2 6.5 1.2 6.5s-2 2.5-4.2 1.6c-2.2-.8-1.3-5.6-1.3-5.6l.7-4.3z" fill="#25233A"/><path d="M127 103.5l8-4.3-.3-8.1s-9.3 3.4-9.4 3.9c-.2.5 1.7 8.5 1.7 8.5z" fill="url(#paint10_linear)"/><path d="M122 81.2s-6.7 15.5-4.6 19.9c1.2 2.5 4.1 3.3 6.5 3.5a3.7 3.7 0 003.8-2.5c1.6-5.2 5.6-15.2 7.8 2 .4 2.8 10 1.5 11.7.1 1.5-1.4 5.2-10 5.2-10s-.8-2.6-2.3-3.3c0 0 2-7.6-1.2-8.8 0 0-22.8 6.2-27-.9z" fill="#1280FF"/><path d="M122 81.2s-6.7 15.5-4.6 19.9c1.2 2.5 4.1 3.3 6.5 3.5a3.7 3.7 0 003.8-2.5c1.6-5.2 5.6-15.2 7.8 2 .4 2.8 10 1.5 11.7.1 1.5-1.4 5.2-10 5.2-10s-.8-2.6-2.3-3.3c0 0 2-7.6-1.2-8.8 0 0-22.8 6.2-27-.9z" fill="url(#paint11_linear)"/><path d="M87.6 95s29 7.9 34.3 10.5c5.3 2.5 6.5 2.7 6.5 2.7l-2 6-55.8-5.7 17-13.6z" fill="#1280FF"/><path d="M87.6 95s29 7.9 34.3 10.5c5.3 2.5 6.5 2.7 6.5 2.7l-2 6-55.8-5.7 17-13.6z" fill="url(#paint12_linear)"/><path d="M127.2 111.9l-10.9-2.8-5.9-7.6-23.9 7.6 1 1.6 38.9 3.5.8-2.3z" fill="url(#paint13_linear)"/><path d="M51.2 128.1l20.8 6.7H72.6a.7.7 0 00.4-.8.7.7 0 00-.4-.6l-21-6.6h-.4a.7.7 0 00-.4.7.7.7 0 00.4.6z" fill="#25233A"/><path d="M211.4 88l26.1 5c.7.2 1.4.1 2-.1l2.1-.8a.8.8 0 00.5-.9.8.8 0 00-.6-.7l-25.1-4.7c-.8-.1-1.6 0-2.3.1l-2.7 1a.6.6 0 000 1.1z" fill="#1280FF"/><path d="M211.4 88l26.1 5c.7.2 1.4.1 2-.1l2.1-.8a.8.8 0 00.5-.9.8.8 0 00-.6-.7l-25.1-4.7c-.8-.1-1.6 0-2.3.1l-2.7 1a.6.6 0 000 1.1z" fill="url(#paint14_linear)"/><path d="M211.4 86.9l26.1 5c.7.2 1.4.1 2-.1l2.1-.9a.8.8 0 00.5-.8.8.8 0 00-.6-.7l-25.1-4.7c-.8-.2-1.6-.1-2.3.1l-2.8 1a.6.6 0 00.1 1.1zM117.2 63.7s.7-1 2.5-1c1.7.2 5 1 5 1l-11.2 23.8H108a1.3 1.3 0 01-1.2-1.8l10.4-22z" fill="#1280FF"/><path d="M117.2 63.7s.7-1 2.5-1c1.7.2 5 1 5 1l-11.2 23.8H108a1.3 1.3 0 01-1.2-1.8l10.4-22z" fill="url(#paint15_linear)"/><path d="M118.4 63.7s.7-1 2.4-1a24.5 24.5 0 014 1 1.2 1.2 0 01.4 1.4L115 86.6a1.6 1.6 0 01-1.5 1h-4.4a1.3 1.3 0 01-1.2-2l10.4-21.9z" fill="#1280FF"/><path d="M118.4 63.7s.7-1 2.4-1a24.5 24.5 0 014 1 1.2 1.2 0 01.4 1.4L115 86.6a1.6 1.6 0 01-1.5 1h-4.4a1.3 1.3 0 01-1.2-2l10.4-21.9z" fill="url(#paint16_linear)"/><path d="M62.8 108.3s-5-14.7 8.8-32.9a40.7 40.7 0 0112.4-12c3.4-1.7 7.5 1 7 5L88.5 94c0 .1-20.7 17-25.6 14.2z" fill="#1280FF"/><path d="M79 73.2s-10.8 18.1-8.3 30c0 0 18.7-7.3 17.7-9.1-1-1.8-.8-21-.8-21H79z" fill="url(#paint17_linear)"/><path d="M119.6 116.7a20.2 20.2 0 01-7.4 2.2c-4.8-3.7-9.3-7.7-13.4-12-8.7 6-18.9 11.4-29.4 10.2-1.3-.1-2.6-.5-3.7-1.1a8 8 0 01-2-1.8 7 7 0 01-1.7-3.6c-.2-2.4 1.9-3.3 3.9-4.4A183 183 0 0196 93c2.3-.7 4.8-1.5 7.1-.6s3.7 3 4.9 5.1l11.6 19.2z" fill="#1280FF"/><path d="M119.6 116.7a20.2 20.2 0 01-7.4 2.2c-4.8-3.7-9.3-7.7-13.4-12-8.7 6-18.9 11.4-29.4 10.2-1.3-.1-2.6-.5-3.7-1.1a8 8 0 01-2-1.8 7 7 0 01-1.7-3.6c-.2-2.4 1.9-3.3 3.9-4.4A183 183 0 0196 93c2.3-.7 4.8-1.5 7.1-.6s3.7 3 4.9 5.1l11.6 19.2z" fill="url(#paint18_linear)"/><path d="M79 73.2s5.6 16.8 8.4 19c2.8 2.4 18.5-12 18.5-12v-5.7l-13.4 5.9s-.7-14-2-14.9c-1.4-.8-9.8-1.8-11.5 7.7z" fill="#1280FF"/><path d="M79 73.2s5.6 16.8 8.4 19c2.8 2.4 18.5-12 18.5-12v-5.7l-13.4 5.9s-.7-14-2-14.9c-1.4-.8-9.8-1.8-11.5 7.7z" fill="url(#paint19_linear)"/><path d="M107.6 73.4l1.5-.3c1.2-.2 1.6-.5 2.8-.5 1.3 0 .3 1 0 1.1-.4 0-.8.3-1.1.5-.6.4-.5 1.3-.6 2a4 4 0 01-4.3 3.5 1 1 0 01-.7-.3 1 1 0 01-.2-.6c0-1-.4-2.4.1-3.3.4-.6 1.7-2 2.5-2z" fill="url(#paint20_linear)"/><path d="M86.7 49.3c-.8.5-1.3 1.4-1.4 2.3l-.3 2.7a22 22 0 01-.6 4l.3-.1v1h.7l-.1 2.7a12.6 12.6 0 003.7-3.5V58a3 3 0 01.3-1.9c.4-.5 1.1-.8 1.7-.5.7.4.7 1.4.9 2.2.3-.7.6-1.5.7-2.2l.3-.9.6-.4c1.4-.8 3-1 4.5-.7.9.2 1.8.6 2.6.4h.6c.4 0 .6.5 1 .4a.7.7 0 00.4-.4 5 5 0 00-.5-5l1.8.3A11.4 11.4 0 0093 44.7c-1 .1-1.8.5-2.5 1a3.9 3.9 0 00-1.4 2.7c-.1.8-.2.5-.9.5-.5 0-1 0-1.5.4z" fill="#3F3D56"/><path d="M89.9 57v.7c0 .5 0 1 .2 1.3l.6.5h.2a.3.3 0 00.2-.2v-1l-.2-1-.1-.9c-.4-.5-1 .2-1 .6z" fill="url(#paint21_linear)"/><path d="M119.2 73.4c-.2-.2-.6-.5-1-.3-.2.1-.2.7 0 1l.5 1.2-.7-.9-.3-.2a.4.4 0 00-.4.4v.5l.5 1.5a2.5 2.5 0 00-1-.8h-.2c-.2 0-.2.3-.1.5.1.7.4 1.4.7 2.1-.2-.2-.5-.4-.7-.3-.2.1-.2.6 0 .9l.7 1.6.4.5c.3.1.7-.2.8-.6l1.6-3.2c.2-.6.5-1.4.4-2-.2-.7-.8-1.4-1.2-1.9z" fill="url(#paint22_linear)"/><path d="M126.7 113.2h2.8l1.5-4-2.6-1-1.7 5z" fill="url(#paint23_linear)"/><path d="M135.2 101.7a4 4 0 011.1-1.2 1.4 1.4 0 011.5 0 1.8 1.8 0 01.7 1.2c.2 1.4-.1 2.7-.4 4a137.6 137.6 0 01-2.5 9 .7.7 0 01-.6.1c-1.7-.1-3.3-.4-4.8-1a1 1 0 01-.6-.3 1 1 0 010-.9c1.6-3.9 3.2-7.5 5.6-10.9z" fill="#25233A"/><path d="M114.4 118.6l2.2 1.9 4.3-1.6-1.3-2.2-5.2 1.9z" fill="url(#paint24_linear)"/><path d="M116.6 120.5l2.3 4.7 12.5-3.6s.7-2.1-2.2-2.3c-3-.3-8.3-.4-8.3-.4l-4.3 1.6z" fill="#25233A"/><path d="M115.7 117.9l-1.7.7-1.8.3c-4.8-3.7-9.3-7.7-13.4-12-8.7 6-18.9 11.4-29.4 10.2-1.3-.1-2.6-.5-3.7-1.1a8 8 0 01-2-1.8c2.2 1.3 5.8 0 5.8 0s28.4-14.7 30-15c1.7-.3 16.2 18.7 16.2 18.7z" fill="url(#paint25_linear)"/><path d="M130.6 45.1s-.3 5 3 6.2c3.3 1.1 7.4-6.2 7.4-6.2s-1.7-.3-2.1-2.4c-2.1-10-5.9 1.7-8.3 2.4z" fill="url(#paint26_linear)"/><path d="M124.7 40.3s.9 9.1 5.6 10.3C135 51.8 138 43 138 43s3.3-9.2-1.8-9.2c-5.2 0-13-2.8-11.5 6.6z" fill="url(#paint27_linear)"/><path d="M149.8 77l-8.4 3a2 2 0 01-2.6-1.4l-1.1-3.7a1.7 1.7 0 01.8-2l7.6-3.7-1.3-13.8-22.6 22v3.8s1.3 2.7 7.9 3.1c6.6.5 19-2.2 19-2.2l.7-5z" fill="url(#paint28_linear)"/><path d="M138.5 74.6s-2-1-3.3-.6l-2.2.8a.9.9 0 00.4.6c.2.2-1.6.7-2.9 1a1 1 0 00-.8 1.3 2.8 2.8 0 002.4 2.2l3.9.2c1.7-.1 3.7-2.6 3.7-2.6s-.3-2.6-1.2-3z" fill="url(#paint29_linear)"/><path d="M119 35.8a1 1 0 00.8.2c-.7-1-1-2.3-.8-3.6.3.3.8.3 1.2 0l1-.8 1-.3c2-.4 3.7-1 5.3-2 1-.5 2-1.1 3-1.4a7 7 0 017.2 2.2 14.8 14.8 0 001.8 2c.6.7.7 1.8.6 2.7a17 17 0 01-2.2 7l.2-3.2c0-.5-.1-1.3-.7-1.4-.4 0-.8.4-1 .8-.3.6-.4 1.3-.3 2-.7-.4-1.2-1.2-1.7-2-.6-.6-1.3-1.3-2.2-1.2-1 0-1.7 1-2.4 1.6-1 .7-2 1-3.2 1-.3-.1-.5-.1-.8 0-.6.2-.6.8-1.4.7-.4 0-1.6-.8-2-1-1.4-.8-2.6-2-3.5-3.3z" fill="#3F3D56"/><path d="M194.8 96.7s-5.3 3.8-13.5 1.7c-8.1-2-12.2-3.5-12.2-3.5l-9 11-1.1-.4-3.5-1.3s3.9-14.1 6.2-16.6c.7-.8 3.3-4 7.5-3 4.8 1.2 14.4 2.6 21 4 5.9 1.4 4.6 8.1 4.6 8.1z" fill="#1280FF"/><path d="M194.8 96.7s-5.3 3.8-13.5 1.7c-8.1-2-12.2-3.5-12.2-3.5l-9 11-1.1-.4-3.5-1.3s3.9-14.1 6.2-16.6c.7-.8 3.3-4 7.5-3 4.8 1.2 14.4 2.6 21 4 5.9 1.4 4.6 8.1 4.6 8.1z" fill="url(#paint30_linear)"/><path d="M182.2 93l-.9 5.4a150 150 0 01-12.2-3.5l-9 11-1.1-.3 9.2-15.4 14 2.7z" fill="url(#paint31_linear)"/><path d="M190.2 88.7l-40 21.5s2.6 2 3.1 3c.6 1 3.1 1.6 3.1 1.6s23.7-7.3 26.2-9.5c0 0 6-.7 8.7-1.2 2.8-.5 6-3.4 7.5-7.4s.9-8.6.9-8.6l-9.5.6z" fill="#1280FF"/><path d="M190.2 88.7l-40 21.5s2.6 2 3.1 3c.6 1 3.1 1.6 3.1 1.6s23.7-7.3 26.2-9.5c0 0 6-.7 8.7-1.2 2.8-.5 6-3.4 7.5-7.4s.9-8.6.9-8.6l-9.5.6z" fill="url(#paint32_linear)"/><path d="M150.9 110.7l-3.3 1.6 4 4 3.6-2-4.3-3.6z" fill="url(#paint33_linear)"/><path d="M148.4 112.3s-4.4-6-5.9-5.4c-1.4.5-1.9 3.1-1.8 3.5l5.9 8.3a2 2 0 002.6.5l2-1.3 1-2-3.8-3.6z" fill="#25233A"/><path d="M155.8 104.3l-1 3.5 4.2-2.3-3.2-1.2z" fill="url(#paint34_linear)"/><path d="M187.5 89.6l-4.7-2.4s5.9-6 2-11c0 0-2.7-2-2.2-4.4.3-1.5 2.2-4.7 3.5-6.9a5.8 5.8 0 013.8-2.5l8.3-1.6s3.4.4 4.7 4.6c1.3 4.3-3.2 22.7-3.2 22.7l-12.2 1.5z" fill="#1280FF"/><path d="M187.5 89.6l-4.7-2.4s5.9-6 2-11c0 0-2.7-2-2.2-4.4.3-1.5 2.2-4.7 3.5-6.9a5.8 5.8 0 013.8-2.5l8.3-1.6s3.4.4 4.7 4.6c1.3 4.3-3.2 22.7-3.2 22.7l-12.2 1.5z" fill="url(#paint35_linear)"/><path d="M198.2 60.8s-6.1 6.6-8.3 5.3a1.7 1.7 0 01-1-1.5c0-1.1 1-2.2 1-2.2s1.6-3.2-1.2-2.8c-2.8.5-3.8-6.3-2.6-10.6 1.2-4.3 8.6-1 8.8.5.2 1.4 3.3 11.3 3.3 11.3z" fill="url(#paint36_linear)"/><path d="M188.2 45.6c.8.3 1.3 1.2 1.7 2 1.1 1.8 2.9 3.2 4.9 4 .9.4 2 .7 2.8.2-.5-1-.9-2-1-3.2 0-.6 0-1.2-.2-1.9-.5-1.9-2.3-3.1-4-3.9-1-.4-2-.7-3.1-.7a3.8 3.8 0 00-3 1.2c-.3.6-.6 1.2-.7 1.9-.1.7-.3 2.2.5 1.5.7-.6.9-1.5 2.1-1z" fill="#3F3D56"/><path d="M194 53.9l1-1.1c.2-.2.4-.3.6-.2l.1.2a1.8 1.8 0 01-.5 2.2c-.2.1-.4.3-.7.3.8.2-1.2 4 2 6.4 3 2.4 4.8.3 5.4.3.1-1.4-3.9-7.2-4-8.7.1-.4 0-.9-.2-1.3-.4-.7-1.8-1.6-2.6-1-.7.5-.8 2.1-1 2.9z" fill="#3F3D56"/><path d="M203 64.3a2.3 2.3 0 00-4-.1 5.3 5.3 0 00-.8 4.2c.9 3.7 8.7 12 8.7 12l6 10.7s-1.5 3.6.8.8c1.2-1.4 4-1.6 5.4-1.6a1.4 1.4 0 001.4-1.3c0-.3 0-.4-.2-.4l-3.8-.3-2.9.7s-3.8-10.7-4-10.9c-.1-.2-3.6-8.6-6.6-13.8z" fill="url(#paint37_linear)"/><path d="M160.3 74l5 7 6.9.8 6.6-4 3.4-1.5-11-2.4-5 5.8-1.1.4-4.5-6.2h-.3z" fill="#1280FF"/><path d="M160.3 74l5 7 6.9.8 6.6-4 3.4-1.5-11-2.4-5 5.8-1.1.4-4.5-6.2h-.3z" fill="url(#paint38_linear)"/><path d="M162 72.3l3.5 6.8.2.5h.5l-2.8-7.3H162zM160.3 73l5 6.9h.3l-3.6-7h-1.7zM163.4 71.6l2.8 7 3.2-5.4-6-1.6z" fill="#1280FF"/><path d="M162 72.3l3.5 6.8.2.5h.5l-2.8-7.3H162z" fill="url(#paint39_linear)"/><path d="M160.3 73l5 6.9h.3l-3.6-7h-1.7z" fill="url(#paint40_linear)"/><path d="M163.4 71.6l2.8 7 3.2-5.4-6-1.6z" fill="url(#paint41_linear)"/><path d="M153.3 113.2s20.6-7.4 29-11c1.5-.6 3.2-1.1 4.9-1.4 2-.4 5-1 6.9-2.4 3.2-2.2 5.6-6.7 5.6-6.7s0 10-8.4 12.4l-8.7 1.2s-3 1.8-8.6 3.7c-5.6 2-17.6 5.8-17.6 5.8s-2.3-.8-2.5-1l-.6-.6z" fill="url(#paint42_linear)"/><path d="M189 64.6c0-1.1 1-2.2 1-2.2s1.5-3.2-1.3-2.8c4.5-.7 4-3.7 5-1 1.8 4.5-4.5 6-4.7 6z" fill="url(#paint43_linear)"/><defs><linearGradient id="paint0_linear" x1="84.6" y1="59.8" x2="101.7" y2="59.8" gradientUnits="userSpaceOnUse"><stop stop-color="#ECC4D7"/><stop offset=".4" stop-color="#EFD4D1"/><stop offset="1" stop-color="#F2EAC9"/></linearGradient><linearGradient id="paint1_linear" x1="13.6" y1="132.8" x2="278.6" y2="132.8" gradientUnits="userSpaceOnUse"><stop stop-color="#68E1FD"/><stop offset="1" stop-color="#69B9EB"/></linearGradient><linearGradient id="paint2_linear" x1="151.9" y1="123.1" x2="188" y2="198.4" gradientUnits="userSpaceOnUse"><stop offset="0" stop-color="#3C3A52" stop-opacity="0"/><stop offset=".9"/></linearGradient><linearGradient id="paint3_linear" x1="145.9" y1="95.1" x2="159.2" y2="162.9" gradientUnits="userSpaceOnUse"><stop offset="0" stop-color="#fff" stop-opacity="0"/><stop offset="1" stop-color="#fff"/></linearGradient><linearGradient id="paint4_linear" x1="11911.7" y1="5924.9" x2="11648.1" y2="6665.9" gradientUnits="userSpaceOnUse"><stop stop-color="#ECC4D7"/><stop offset=".4" stop-color="#EFD4D1"/><stop offset="1" stop-color="#F2EAC9"/></linearGradient><linearGradient id="paint5_linear" x1="125.6" y1="66.1" x2="118.3" y2="66.9" gradientUnits="userSpaceOnUse"><stop offset="0" stop-color="#fff" stop-opacity="0"/><stop offset=".3" stop-color="#fff" stop-opacity=".4"/><stop offset="1" stop-color="#fff"/></linearGradient><linearGradient id="paint6_linear" x1="133.1" y1="47.8" x2="158.8" y2="55.1" gradientUnits="userSpaceOnUse"><stop offset="0" stop-color="#3C3A52" stop-opacity="0"/><stop offset="1"/></linearGradient><linearGradient id="paint7_linear" x1="3211.6" y1="2241.4" x2="3205.5" y2="2114.9" gradientUnits="userSpaceOnUse"><stop stop-color="#ECC4D7"/><stop offset=".4" stop-color="#EFD4D1"/><stop offset="1" stop-color="#F2EAC9"/></linearGradient><linearGradient id="paint8_linear" x1="6719.1" y1="8061.5" x2="9769" y2="10226.3" gradientUnits="userSpaceOnUse"><stop offset="0" stop-color="#3C3A52" stop-opacity="0"/><stop offset="1"/></linearGradient><linearGradient id="paint9_linear" x1="16320.6" y1="21649.2" x2="182018" y2="21649.2" gradientUnits="userSpaceOnUse"><stop offset="0" stop-color="#3C3A52" stop-opacity="0"/><stop offset=".9"/></linearGradient><linearGradient id="paint10_linear" x1="3715.2" y1="4444.8" x2="3735.7" y2="4766.4" gradientUnits="userSpaceOnUse"><stop offset="0" stop-color="#fff" stop-opacity="0"/><stop offset="1" stop-color="#fff"/></linearGradient><linearGradient id="paint11_linear" x1="13730.7" y1="7526.6" x2="13740.8" y2="9318.1" gradientUnits="userSpaceOnUse"><stop offset="0" stop-color="#fff" stop-opacity="0"/><stop offset=".3" stop-color="#fff" stop-opacity=".4"/><stop offset="1" stop-color="#fff"/></linearGradient><linearGradient id="paint12_linear" x1="11745.6" y1="7384" x2="21295.6" y2="7384" gradientUnits="userSpaceOnUse"><stop offset="0" stop-color="#fff" stop-opacity="0"/><stop offset="1" stop-color="#fff"/></linearGradient><linearGradient id="paint13_linear" x1="12989.2" y1="3707.8" x2="12823.6" y2="5131.9" gradientUnits="userSpaceOnUse"><stop offset="0" stop-color="#3C3A52" stop-opacity="0"/><stop offset=".9"/></linearGradient><linearGradient id="paint14_linear" x1="19052.5" y1="2568.5" x2="21840.8" y2="2568.5" gradientUnits="userSpaceOnUse"><stop offset="0" stop-color="#3C3A52" stop-opacity="0"/><stop offset=".9"/></linearGradient><linearGradient id="paint15_linear" x1="5856" y1="7337.9" x2="6777.6" y2="7337.9" gradientUnits="userSpaceOnUse"><stop offset="0" stop-color="#3C3A52" stop-opacity="0"/><stop offset="1"/></linearGradient><linearGradient id="paint16_linear" x1="5711.1" y1="7053" x2="6582.5" y2="7696" gradientUnits="userSpaceOnUse"><stop offset="0" stop-color="#3C3A52" stop-opacity="0"/><stop offset="1"/></linearGradient><linearGradient id="paint17_linear" x1="3648.6" y1="9195" x2="6346.3" y2="10759.9" gradientUnits="userSpaceOnUse"><stop offset="0" stop-color="#3C3A52" stop-opacity="0"/><stop offset="1"/></linearGradient><linearGradient id="paint18_linear" x1="10273" y1="10321.7" x2="19767.4" y2="10321.7" gradientUnits="userSpaceOnUse"><stop offset="0" stop-color="#fff" stop-opacity="0"/><stop offset="1" stop-color="#fff"/></linearGradient><linearGradient id="paint19_linear" x1="6564.3" y1="8483.3" x2="9559.7" y2="7946.6" gradientUnits="userSpaceOnUse"><stop offset="0" stop-color="#3C3A52" stop-opacity="0"/><stop offset="1"/></linearGradient><linearGradient id="paint20_linear" x1="2351.7" y1="2165.3" x2="2519.8" y2="2165.3" gradientUnits="userSpaceOnUse"><stop stop-color="#ECC4D7"/><stop offset=".4" stop-color="#EFD4D1"/><stop offset="1" stop-color="#F2EAC9"/></linearGradient><linearGradient id="paint21_linear" x1="436.1" y1="865.1" x2="494" y2="912.8" gradientUnits="userSpaceOnUse"><stop stop-color="#ECC4D7"/><stop offset=".4" stop-color="#EFD4D1"/><stop offset="1" stop-color="#F2EAC9"/></linearGradient><linearGradient id="paint22_linear" x1="1464" y1="2504" x2="1511.3" y2="2504" gradientUnits="userSpaceOnUse"><stop stop-color="#ECC4D7"/><stop offset=".4" stop-color="#EFD4D1"/><stop offset="1" stop-color="#F2EAC9"/></linearGradient><linearGradient id="paint23_linear" x1="1668.6" y1="1678.2" x2="1720.4" y2="1678.2" gradientUnits="userSpaceOnUse"><stop stop-color="#ECC4D7"/><stop offset=".4" stop-color="#EFD4D1"/><stop offset="1" stop-color="#F2EAC9"/></linearGradient><linearGradient id="paint24_linear" x1="2227.3" y1="1384.7" x2="2346.5" y2="1384.7" gradientUnits="userSpaceOnUse"><stop stop-color="#ECC4D7"/><stop offset=".4" stop-color="#EFD4D1"/><stop offset="1" stop-color="#F2EAC9"/></linearGradient><linearGradient id="paint25_linear" x1="13006.3" y1="8299.2" x2="13799.3" y2="6593.8" gradientUnits="userSpaceOnUse"><stop offset="0" stop-color="#fff" stop-opacity="0"/><stop offset="1" stop-color="#fff"/></linearGradient><linearGradient id="paint26_linear" x1="136.1" y1="41.9" x2="135.3" y2="49.1" gradientUnits="userSpaceOnUse"><stop stop-color="#ECC4D7"/><stop offset=".4" stop-color="#EFD4D1"/><stop offset=".6" stop-color="#F0DACE"/><stop offset="1" stop-color="#F2EAC9"/></linearGradient><linearGradient id="paint27_linear" x1="13392.4" y1="-6225" x2="14001.4" y2="-6343.6" gradientUnits="userSpaceOnUse"><stop stop-color="#ECC4D7"/><stop offset=".4" stop-color="#EFD4D1"/><stop offset="1" stop-color="#F2EAC9"/></linearGradient><linearGradient id="paint28_linear" x1="10354.4" y1="7490.4" x2="13825.1" y2="12641" gradientUnits="userSpaceOnUse"><stop offset="0" stop-color="#3C3A52" stop-opacity="0"/><stop offset="1"/></linearGradient><linearGradient id="paint29_linear" x1="3836.1" y1="1912.3" x2="4121.7" y2="1912.3" gradientUnits="userSpaceOnUse"><stop stop-color="#ECC4D7"/><stop offset=".4" stop-color="#EFD4D1"/><stop offset="1" stop-color="#F2EAC9"/></linearGradient><linearGradient id="paint30_linear" x1="18629.3" y1="6788.1" x2="19466.2" y2="9111.9" gradientUnits="userSpaceOnUse"><stop offset="0" stop-color="#3C3A52" stop-opacity="0"/><stop offset="1"/></linearGradient><linearGradient id="paint31_linear" x1="10717.8" y1="5740.3" x2="12259.7" y2="5740.3" gradientUnits="userSpaceOnUse"><stop offset="0" stop-color="#3C3A52" stop-opacity="0"/><stop offset="1"/></linearGradient><linearGradient id="paint32_linear" x1="24389.8" y1="9290.7" x2="25139" y2="11522.5" gradientUnits="userSpaceOnUse"><stop offset="0" stop-color="#3C3A52" stop-opacity="0"/><stop offset="1"/></linearGradient><linearGradient id="paint33_linear" x1="3321.8" y1="1895.5" x2="3483.4" y2="1895.5" gradientUnits="userSpaceOnUse"><stop stop-color="#ECC4D7"/><stop offset=".4" stop-color="#EFD4D1"/><stop offset="1" stop-color="#F2EAC9"/></linearGradient><linearGradient id="paint34_linear" x1="2031.6" y1="1164.1" x2="2083.1" y2="1164.1" gradientUnits="userSpaceOnUse"><stop stop-color="#ECC4D7"/><stop offset=".4" stop-color="#EFD4D1"/><stop offset="1" stop-color="#F2EAC9"/></linearGradient><linearGradient id="paint35_linear" x1="10736.3" y1="8072.6" x2="15458" y2="9377.1" gradientUnits="userSpaceOnUse"><stop offset="0" stop-color="#fff" stop-opacity="0"/><stop offset="1" stop-color="#fff"/></linearGradient><linearGradient id="paint36_linear" x1="6881.2" y1="4719.6" x2="7336.2" y2="4719.6" gradientUnits="userSpaceOnUse"><stop stop-color="#ECC4D7"/><stop offset=".4" stop-color="#EFD4D1"/><stop offset="1" stop-color="#F2EAC9"/></linearGradient><linearGradient id="paint37_linear" x1="12939.8" y1="9077.7" x2="14387.3" y2="9077.7" gradientUnits="userSpaceOnUse"><stop stop-color="#ECC4D7"/><stop offset=".4" stop-color="#EFD4D1"/><stop offset="1" stop-color="#F2EAC9"/></linearGradient><linearGradient id="paint38_linear" x1="10610.4" y1="2426.6" x2="12159.5" y2="3036.1" gradientUnits="userSpaceOnUse"><stop offset="0" stop-color="#3C3A52" stop-opacity="0"/><stop offset="1"/></linearGradient><linearGradient id="paint39_linear" x1="2113.5" y1="1684.5" x2="2164.2" y2="1684.5" gradientUnits="userSpaceOnUse"><stop offset="0" stop-color="#fff" stop-opacity="0"/><stop offset="1" stop-color="#fff"/></linearGradient><linearGradient id="paint40_linear" x1="2628.1" y1="1583.2" x2="2711" y2="1583.2" gradientUnits="userSpaceOnUse"><stop offset="0" stop-color="#fff" stop-opacity="0"/><stop offset="1" stop-color="#fff"/></linearGradient><linearGradient id="paint41_linear" x1="2960.4" y1="1599.7" x2="3062.8" y2="1599.7" gradientUnits="userSpaceOnUse"><stop offset="0" stop-color="#fff" stop-opacity="0"/><stop offset="1" stop-color="#fff"/></linearGradient><linearGradient id="paint42_linear" x1="20483.3" y1="8749" x2="26627.8" y2="8749" gradientUnits="userSpaceOnUse"><stop offset="0" stop-color="#3C3A52" stop-opacity="0"/><stop offset="1"/></linearGradient><linearGradient id="paint43_linear" x1="3142" y1="1808" x2="3155.8" y2="1801.7" gradientUnits="userSpaceOnUse"><stop stop-color="#ECC4D7"/><stop offset=".4" stop-color="#EFD4D1"/><stop offset="1" stop-color="#F2EAC9"/></linearGradient></defs></svg>