<svg width="569" height="480" fill="none" xmlns="http://www.w3.org/2000/svg"><path d="M557.2 295.2c-10 19-28.2 33.7-33.3 54.5-2.2 9-1.7 18.5-2.8 27.7-4 32.2-28.1 59-56.9 74.3l-3.7 1.9c-18.9 9.2-39.3 14.2-60.2 17.4-12.7 1.8-25.6 3-38.3 4-53 4.2-106 5.8-159.2 4.6-25.7-.5-51.8-1.7-76-10.2a167.3 167.3 0 01-56-35.7l-.8-.7a227 227 0 01-54.2-76.4A199.3 199.3 0 017.2 226c7.2-25.7 19.9-50.3 21.9-77 1.4-20-3.3-40.3-.1-60.1 6.1-39.4 42.7-68.5 81.4-78.2 38.7-9.7 79.4-4.2 118.9 1.4 19.3 2.7 41.8 10 61 4.2C313.6 9 333.4 0 358.7 0 369 0 379.7 1 389 5.3c11.5 5 20.6 14 29.9 22.4 26 23.3 55.7 42.2 82.2 64.8 26.6 22.7 50.7 50.2 60.5 83.8 4.8 16.4 6 33.6 6.5 50.6.7 23.3 0 47.7-11 68.3z" fill="#BAE5FF"/><path d="M422.7 155.2H153a21 21 0 00-21 21v180a21 21 0 0021 20.9h269.6a21 21 0 0021-21V176.2a21 21 0 00-21-21z" fill="#1280FF"/><path d="M148.8 289.3c-3.2 2.3-7.5 2.6-10.8 4.6a18.1 18.1 0 00-6.9 9 64.5 64.5 0 00-3.5 24.7c0 8.8-.2 18.6 1.9 27.2.5 2.4 4.2 12.8 7.8 12.4 2.3-.2 4.2-42 5-47.4.9-5.4 1.8-10.6 3-15.8.5-2.6 1.4-13.2 3.5-14.7z" fill="url(#paint0_linear)"/><path d="M424.6 171H151.2v185.7h273.4V171.1z" fill="#fff"/><path d="M330.4 362c.2-4 1-8.6-1.8-11.5a16.8 16.8 0 00-4.5-2.8 19.8 19.8 0 01-10-15c-.4-3.5.1-6.9 0-10.2-.4-7-3.6-13.4-7.2-19.3-3.7-5.8-8-11.4-11-17.6-.5-1.3-1-3.2.2-4 1.2-.8 2.9.3 4 1.3 11.3 11.8 24 22.6 38.5 30.2 4.5 2.3 9.2 4.3 13.3 7.2 7 4.8 12 11.8 15.8 19.3 3.8 7.5 6.2 15.7 8.7 23.7.8 3 1.7 6.2.7 9.1a4 4 0 01-1.6 2.2c-.8.4-1.6.5-2.5.5-10.5.6-21.2.6-31.8.8-2.6 0-5.7.6-7.9-1.3-3-2.7-3.1-9-3-12.7z" fill="url(#paint1_linear)"/><path d="M192.8 204.8h-8.1v74.5h8.1v-74.5zM207 217h-8.2v62.3h8.2V217zM220.9 228h-8.2v51.3h8.2v-51.2zM235 217h-8v62.3h8V217zM249 242h-8.2v37.3h8.1V242zM263.1 217H255v62.3h8.1V217zM277 235.7H269v43.6h8.1v-43.6zM291.2 227.3h-8.1v52h8.1v-52zM227.7 302.9H181v2.7h46.7v-2.7zM227.7 310.4H181v2.7h46.7v-2.7zM227.7 318H181v2.6h46.7V318zM227.7 325.5H181v2.7h46.7v-2.7zM227.7 333H181v2.7h46.7V333zM348.8 199.9a30.3 30.3 0 00-.2 60.6v-10.6h-.1a20 20 0 1119.8-17.2H379a28.7 28.7 0 00-2.2-14.1 30.3 30.3 0 00-28-18.7z" fill="#1280FF"/><path d="M470.8 101.8h-76c-5.7 0-10.3 4.6-10.3 10.3v74.2c0 5.7 4.6 10.3 10.2 10.3h76.1c5.7 0 10.3-4.6 10.3-10.3v-74.2c0-5.7-4.6-10.3-10.3-10.3z" fill="url(#paint2_linear)"/><path d="M548.7 239.5h-76c-5.8 0-10.3 4.6-10.3 10.2V324c0 5.6 4.5 10.2 10.2 10.2h76c5.8 0 10.4-4.6 10.4-10.2v-74.3c0-5.6-4.6-10.2-10.3-10.2z" fill="url(#paint3_linear)"/><path d="M154.8 34.8H78.7c-5.7 0-10.3 4.6-10.3 10.3v74.2c0 5.7 4.6 10.3 10.3 10.3h76c5.8 0 10.3-4.6 10.3-10.3V45.1c0-5.7-4.5-10.3-10.2-10.3z" fill="url(#paint4_linear)"/><path d="M126.7 176.9H50.6c-5.7 0-10.3 4.6-10.3 10.3v74.2c0 5.7 4.6 10.3 10.3 10.3h76c5.8 0 10.3-4.6 10.3-10.3v-74.2c0-5.7-4.6-10.3-10.2-10.3z" fill="url(#paint5_linear)"/><path d="M145 275a9 9 0 016.2-1 6.5 6.5 0 014.2 5.7c0 2.5-.5 5-1.6 7.2-3.9 8.3-10.8 15-15 23.1-2.8 5-4.3 10.7-4.8 16.4-.4 6-.2 13.2-5.3 16.2-3.7 2.1-8.6.7-11.6-2.3s-4.4-7.2-5.4-11.3a78.9 78.9 0 0114.4-66.3c1.1-1.4 3-3 4.5-1.9a3.7 3.7 0 011.3 2.9c.3 3.1-1.3 14.6 1.4 16.7 3 2.1 8.5-3.9 11.7-5.4z" fill="url(#paint6_linear)"/><path d="M127.9 460L130 442l-3.3 27v.3c-1.3-.5-2.5-1-3.7-1.3-19.6-7.7-37-20.2-52.4-34.5l-.7-.6c3.3-13.4 7-26.8 10.7-40 6-21 10.6-45 24.7-61.7 2.3-2.6 6.6-1.8 9.9-.6 3.3 1.1 7 2.6 10.3 4 2.2.6 4.2 2 5.7 3.7 1.4 2 1.5 4.5 1.6 7 1.6 38.2-.1 76.6-5 114.5zM464.2 451.7l-3.7 1.9c-18.9 9.2-39.3 14.2-60.2 17.4-11.3-24.2-23.1-49.7-38.8-71-5.3-7.2-10.7-13.4-14-21.9-2.4-6.3-6-14.5-6.5-21.1-.6-7.2 4.6-10.8 9.7-15a106.6 106.6 0 0139.8-20.2c1.3-.4 2.6-.5 3.9 0a6 6 0 012.4 2.8l40.7 74.2c9 16.4 18 32.8 25.4 49.9.4 1 1 2 1.3 3z" fill="#1280FF"/><path d="M323.7 336.9c-3.1-5.5-1-12.4-1.4-18.8-.6-10.5-8.2-19.2-14-28-2.5-3.8-4.8-8.2-4.5-12.8.2-1.7 1-3.6 2.7-3.7.7 0 1.5.1 2.1.5a25 25 0 017 5.3c2.2 2.5 4.7 5.8 8.1 5.4 1.4-.3 2.7-.9 3.8-1.7 4.5-2.4 9.6-3.2 14.6-4l6.4-.9c5.2-.8 10.6-1.6 15.6-.5a21.8 21.8 0 0114 10.2c4.5 7.6 4 17 6.6 25.5 1 3.3 2.7 6.4 3.5 9.8 1.1 3.3 1 7-.6 10-2 3.9-6.3 5.8-10.5 6.7-4.2 1-8.6 1.2-12.6 2.8-3.3 1.4-6.2 3.7-9.4 5.5-7.4 4.1-10.2.6-16.9-2.3-5.2-2.2-11.5-3.8-14.5-9z" fill="url(#paint7_linear)"/><path d="M336 208.1l-1.1-.3 18-69h32.4v1h-31.6L336 208.1zM461.5 298.5h-65L365.8 245l1-.5 30.5 53h64.3v1.1zM226.4 217.1l-35.6-111.8h-27.9v-1h28.7v.3l35.8 112.2-1 .3zM185.3 259.5L160 231.2H135v-1.1h25.4l25.6 28.6-.8.8z" fill="#1280FF"/><path d="M379 232.8a30.3 30.3 0 01-30.2 27.7h-.2V250a20 20 0 0019.8-17.2H379z" fill="#1280FF"/><path d="M379 232.8a30.3 30.3 0 01-30.2 27.7h-.2V250a20 20 0 0019.8-17.2H379z" fill="url(#paint8_linear)"/><defs><linearGradient id="paint0_linear" x1="182" y1="337.6" x2="57.4" y2="307.9" gradientUnits="userSpaceOnUse"><stop stop-opacity="0"/><stop offset="1"/></linearGradient><linearGradient id="paint1_linear" x1="20283.9" y1="23944.7" x2="25404.9" y2="23944.7" gradientUnits="userSpaceOnUse"><stop stop-opacity="0"/><stop offset="1"/></linearGradient><linearGradient id="paint2_linear" x1="452.5" y1="-210.7" x2="424.2" y2="305" gradientUnits="userSpaceOnUse"><stop offset="0" stop-color="#fff" stop-opacity="0"/><stop offset=".1" stop-color="#fff" stop-opacity=".1"/><stop offset=".3" stop-color="#fff" stop-opacity=".4"/><stop offset=".7" stop-color="#fff" stop-opacity=".7"/><stop offset="1" stop-color="#fff"/></linearGradient><linearGradient id="paint3_linear" x1="537.7" y1="-206.6" x2="509.4" y2="309" gradientUnits="userSpaceOnUse"><stop offset="0" stop-color="#fff" stop-opacity="0"/><stop offset=".3" stop-color="#fff" stop-opacity=".4"/><stop offset=".7" stop-color="#fff" stop-opacity=".7"/><stop offset="1" stop-color="#fff"/></linearGradient><linearGradient id="paint4_linear" x1="10082.7" y1="-20094.1" x2="8091.5" y2="16984.3" gradientUnits="userSpaceOnUse"><stop offset="0" stop-color="#fff" stop-opacity="0"/><stop offset=".3" stop-color="#fff" stop-opacity=".4"/><stop offset=".7" stop-color="#fff" stop-opacity=".7"/><stop offset="1" stop-color="#fff"/></linearGradient><linearGradient id="paint5_linear" x1="7976.8" y1="-9407" x2="5985.6" y2="27671.4" gradientUnits="userSpaceOnUse"><stop offset="0" stop-color="#fff" stop-opacity="0"/><stop offset=".3" stop-color="#fff" stop-opacity=".4"/><stop offset=".7" stop-color="#fff" stop-opacity=".7"/><stop offset="1" stop-color="#fff"/></linearGradient><linearGradient id="paint6_linear" x1="109.6" y1="302" x2="155.4" y2="302" gradientUnits="userSpaceOnUse"><stop stop-color="#E5C5D5"/><stop offset=".4" stop-color="#EAD4D1"/><stop offset="1" stop-color="#F0E9CB"/></linearGradient><linearGradient id="paint7_linear" x1="21549.1" y1="18440.2" x2="27046" y2="18440.2" gradientUnits="userSpaceOnUse"><stop stop-color="#E5C5D5"/><stop offset=".4" stop-color="#EAD4D1"/><stop offset="1" stop-color="#F0E9CB"/></linearGradient><linearGradient id="paint8_linear" x1="8827.1" y1="4828.9" x2="9876.2" y2="6416.8" gradientUnits="userSpaceOnUse"><stop offset="0" stop-color="#fff" stop-opacity="0"/><stop offset=".3" stop-color="#fff" stop-opacity=".4"/><stop offset=".7" stop-color="#fff" stop-opacity=".7"/><stop offset="1" stop-color="#fff"/></linearGradient></defs></svg>