<svg width="417" height="479" fill="none" xmlns="http://www.w3.org/2000/svg"><path d="M116.4 76.9c-11.7 17.2-15 40.3-31.1 53.6-10.1 8.4-23.6 11.3-35.3 17.3a77.5 77.5 0 00-41 76.9c1.7 13.6 7.2 26.8 7 40.6-.3 20-12.3 37.8-15.3 57.5-4.2 28 10.1 55.3 27.4 77.6 10.3 13.2 22.6 26 38.5 31 13.1 4.2 27.3 2.7 41 3.5 28.5 1.7 55.3 13.3 83 19.8 27.8 6.6 59.5 7.3 82.1-10 10.4-8 18.2-19.4 29.9-25.4 9-4.7 19.4-5.6 29.5-6.8 27.7-3.5 57.6-12 73-35.2 11.2-17 12.5-38.6 10-58.7-2.6-20.2-8.7-39.7-10.8-60-5-46.2 10.8-92.8 5.9-139.1-2.2-20.4-9-41.2-23.8-55.3-19.5-18.6-48.7-22-75.6-22.8-31.8-.9-63.6.7-95.4 2.2-33.7 1.7-78 2.2-99 33.3z" fill="#BAE5FF"/><path d="M133.7 203l2.7-14.8s.9-3.6-1.3-4.4c-2.2-.8-13.4-2.7-13.4-2.7s-2.3.7-2.2 2.3c.2 1.6-4.2 29-4.2 29s0 .9 1.4 1.7c1.3.8 11.3 1.7 11.3 1.7s2.8-1.1 3-1.7c.3-.6 2.7-11.2 2.7-11.2z" fill="#1280FF"/><path d="M133.7 203l2.7-14.8s.9-3.6-1.3-4.4c-2.2-.8-13.4-2.7-13.4-2.7s-2.3.7-2.2 2.3c.2 1.6-4.2 29-4.2 29s0 .9 1.4 1.7c1.3.8 11.3 1.7 11.3 1.7s2.8-1.1 3-1.7c.3-.6 2.7-11.2 2.7-11.2z" fill="url(#paint0_linear)"/><path d="M64 212.6S41 241 38.9 265c-2.3 24 12.9 48.4 12.9 48.4H64l-2.8-35.3 2.8-65.6z" fill="#1280FF"/><path d="M64 212.6S41 241 38.9 265c-2.3 24 12.9 48.4 12.9 48.4H64l-2.8-35.3 2.8-65.6z" fill="url(#paint1_linear)"/><path opacity=".3" d="M54 235.1s-12.5 18.3-10.5 40.3c2 22 10.2 31 10.2 31l2.7-7.4-2.3-63.9z" fill="url(#paint2_linear)"/><path d="M132.6 202.4l2.7-14.7s.8-3.6-1.3-4.4c-2.2-.8-13.4-2.7-13.4-2.7s-2.3.7-2.2 2.3c.1 1.6-4.3 29-4.3 29s0 .9 1.4 1.7c1.3.8 11.3 1.7 11.3 1.7s2.8-1.1 3-1.7c.3-.6 2.8-11.2 2.8-11.2z" fill="#FA3D38"/><path d="M131.5 201.1l2.3-12.8s.7-3-1.1-3.7a144 144 0 00-11.6-2.3s-2 .5-1.9 2c.1 1.3-3.7 25-3.7 25s.1.8 1.3 1.4c1 .8 9.7 1.6 9.7 1.6s2.4-1 2.7-1.6c.2-.4 2.3-9.6 2.3-9.6z" fill="url(#paint3_linear)"/><path d="M54 440.6c1.3 6.5.9 13.5 4.1 19.3 3.1 1 5-3.4 5.2-6.6l7.5-93.2c.6-7.7-6.6-13.8-14-9-6.8 4.3-5 15.7-4.9 22.4 0 22.4-5.7 27.7 2 67.1z" fill="url(#paint4_linear)"/><path d="M81 438c.7 6 1.4 12.3 4 17.8.4.8 1 1.6 1.8 1.8 1.5.3 2.4-1.8 2.6-3.4 3.4-27 5.3-54.1 5.5-81.3 0-5.4 0-11.2-3-15.7s-12.8-7.6-16.9-2.8c-4 4.7 0 20.1.6 25.8 1.5 19.3 3.4 38.6 5.5 57.9z" fill="url(#paint5_linear)"/><path d="M346.7 0h-136a46.2 46.2 0 00-46.3 46.2v298.6a46.2 46.2 0 0046.2 46.2h136a46.2 46.2 0 0046.3-46.2V46.2A46.2 46.2 0 00346.7 0z" fill="#1280FF"/><path d="M340.5 12.1H218.3a41.5 41.5 0 00-41.5 41.5v268.1a41.5 41.5 0 0041.5 41.5h122.2a41.5 41.5 0 0041.4-41.4V53.6A41.5 41.5 0 00340.5 12z" fill="url(#paint6_linear)"/><path opacity=".3" d="M229.6 89.8a31.3 31.3 0 01-4.3 6.7c-3.3 3.7-8.3 5.6-12.2 8.8-4 3.1-6.9 8.9-4.2 13.1 1.4 2 3.7 3.3 5.2 5.1 4.1 5 1.4 12.6 2.7 19 1.6 7.3 8.8 12.4 16.3 13 7.4.5 14.7-2.8 20.4-7.6 2-1.9 4-3.7 6.3-5.3 2.2-1.5 4.8-2.4 7-4a19 19 0 008.3-15c0-3.4-.8-6.7-1-10-.4-5 .5-10-.1-15s-3.2-10.3-8-11.9c-1.8-.6-3.8-.6-5.7-1-4-1-7.2-4.2-10.7-6.5-11.2-7.5-15.4 1.8-20 10.6zM354.7 141a31 31 0 01-1.7-7.8c-.2-5 2-9.9 2.5-14.9s-1.5-11.1-6.4-12.2c-2.4-.6-4.8.2-7.3 0-6.4-.7-9.8-8-15.2-11.5-6.3-4.1-15-2.7-20.7 2.2a29 29 0 00-9.1 19.8c-.1 2.7-.4 5.4-.8 8.2-.5 2.6-1.6 5-2.2 7.7a18.9 18.9 0 004.8 16.6c2.3 2.4 5.3 4.2 7.8 6.4 3.8 3.2 6.8 7.4 10.7 10.5 4 3.1 9.5 5 14 2.8 1.7-.9 3-2.3 4.7-3.3 3.6-2.2 8-2.1 12.2-3 13.2-2.6 9.6-12.2 6.7-21.6zM257.2 312a33 33 0 012.4-8.1c2.4-4.8 6.9-8.2 10-12.5 3.1-4.4 4.4-11.1.4-14.7-2-1.7-4.7-2.2-6.8-3.7-5.7-4-5-12.4-8.2-18.6-3.7-7-12.7-10.1-20.4-8.5-7.7 1.6-14.2 7-18.6 13.6-1.5 2.5-3.2 5-5 7.2-1.8 2.2-4.1 4-6 6.1a20 20 0 00-4 17.9c.9 3.4 2.7 6.6 4 9.9 1.8 5 2.4 10.4 4.4 15.3 2 4.9 6.2 9.5 11.5 9.7 2.1 0 4.1-.5 6.2-.6 4.4-.1 8.5 2.2 12.8 3.6 13.5 4.3 15.1-6.4 17.3-16.7zM250.8 226.2c.5-2.2 1.2-4.4 2.3-6.5 2-3.8 5.9-6.4 8.6-9.9 2.7-3.4 4-8.9.8-12-1.5-1.5-3.7-2-5.4-3.3-4.5-3.4-3.6-10.3-6-15.4-2.8-5.9-10-8.8-16.4-7.8-6.4 1-11.9 5.3-15.7 10.5-1.3 2-2.8 4-4.3 5.7-1.6 1.7-3.6 3-5.1 4.8a16.4 16.4 0 00-4 14.4c.6 2.9 2 5.5 2.8 8.3 1.4 4.1 1.6 8.6 3.1 12.7 1.5 4 4.8 8 9.1 8.3 1.7.2 3.4-.2 5-.2 3.7 0 7 2.1 10.4 3.4 11 4 12.7-4.7 14.8-13zM292.8 198.6c0 2.3-.5 4.7-1.2 7-1.5 4.4-5.1 8-7.4 12.2-2.2 4.2-2.5 10 1.5 12 2 1 4.5 1 6.6 1.7 5.5 2.2 6 9.2 9.6 13.6 4.2 5 12.6 5.8 19.4 3a30.9 30.9 0 0015-14.8c1-2.4 2.2-4.7 3.5-6.9 1.4-2.1 3.2-4 4.6-6.1a16 16 0 001.5-15.4c-1.3-2.6-3.3-4.8-4.8-7.3-2.3-3.7-3.5-8-6-11.6-2.3-3.7-6.7-6.6-11.5-5.7-1.8.3-3.6 1.2-5.4 1.6-4 1-8 0-11.9-.3-12.7-1-12.9 8.1-13.5 17zM339.8 324.2c.5-2.6 1.4-5.3 2.6-7.7 2.4-4.6 7-7.7 10-11.9 3.2-4 4.7-10.6.9-14.1-1.8-1.8-4.5-2.4-6.5-3.9-5.3-4-4.5-12.2-7.4-18.2-3.3-7-11.9-10.3-19.5-9-7.5 1.2-14 6.4-18.5 12.6a73.7 73.7 0 01-5 6.9c-1.8 2-4.1 3.6-6 5.7a19.5 19.5 0 00-4.6 17.2c.8 3.4 2.5 6.5 3.6 9.8 1.6 4.8 2 10.1 3.8 15 1.9 4.8 5.8 9.4 11 9.8 2 .1 4-.4 6-.4 4.2 0 8.1 2.4 12.2 3.8 13 4.7 15-5.7 17.4-15.6z" fill="#1280FF"/><path d="M266.5 103.2l.9 1.9s-1.2 3.5-3 4c-1.8.4-2 0-2 0l-.6-.7a6.3 6.3 0 004.7-5.2z" fill="url(#paint7_linear)"/><path d="M239.2 89.2c1.2.4 2.4.4 3.5.1 1.8-.2 3.6-.3 5.4 0 0 0-2.3 3.6-6.1 2.7-3.9-1-2.8-2.8-2.8-2.8z" fill="#1280FF"/><path d="M239.2 89.2c1.2.4 2.4.4 3.5.1 1.8-.2 3.6-.3 5.4 0 0 0-2.3 3.6-6.1 2.7-3.9-1-2.8-2.8-2.8-2.8z" fill="url(#paint8_linear)"/><path d="M243.5 187.4s1.1 6.8 3.9 8.5l7.6 5-13.7 1 2.2-14.5z" fill="#1280FF"/><path d="M243.5 187.4s1.1 6.8 3.9 8.5l7.6 5-13.7 1 2.2-14.5z" fill="url(#paint9_linear)"/><path d="M226 184.8s-1.2 9.8 4.3 9.4c5.4-.4 8.8-7.5 8.8-7.5l5.3 11.4-3.5 8.5-20.9 3.3-3.9-8 9.8-17z" fill="#1280FF"/><path d="M226 184.8s-1.2 9.8 4.3 9.4c5.4-.4 8.8-7.5 8.8-7.5l5.3 11.4-3.5 8.5-20.9 3.3-3.9-8 9.8-17z" fill="url(#paint10_linear)"/><path d="M333.1 269.8c5.7 1.8 3 9 3 9l-26.6-8.2s9.6-5.2 23.6-.8z" fill="#1280FF"/><path d="M333.1 269.8c5.7 1.8 3 9 3 9l-26.6-8.2s9.6-5.2 23.6-.8z" fill="url(#paint11_linear)"/><path d="M309.5 270.6l-1.7-11a1 1 0 011-1 1 1 0 01.7.5v.3l1.8 11a.9.9 0 01-.8 1 .9.9 0 01-.6-.2 1 1 0 01-.4-.6zM326.5 271l1.8-11a1 1 0 011.8.3l-1.8 11a.9.9 0 01-.4.6.9.9 0 01-1.2-.3 1 1 0 01-.2-.6zM225 255.8a14 14 0 0111.4-3c7 1 8 4 8 4l-5 1.4s-8.4-3-11.4 1.5l-3-4z" fill="#1280FF"/><path d="M225 255.8a14 14 0 0111.4-3c7 1 8 4 8 4l-5 1.4s-8.4-3-11.4 1.5l-3-4z" fill="url(#paint12_linear)"/><path d="M242 258c1.1 17.9 3.3 35.7 6.7 53.3.6 3 .8 6.6-1.8 8-1.1.3-2.3.5-3.5.3-4.8-.4-10.2-1-13.4-4.6-2.3-2.5-3.1-6-3.7-9.3a158 158 0 01-2.5-34.7c.2-4 .3-10.8 4.2-13.4 1.7-1.2 14-1.2 14 .3z" fill="#1280FF"/><path d="M242 258c1.1 17.9 3.3 35.7 6.7 53.3.6 3 .8 6.6-1.8 8-1.1.3-2.3.5-3.5.3-4.8-.4-10.2-1-13.4-4.6-2.3-2.5-3.1-6-3.7-9.3a158 158 0 01-2.5-34.7c.2-4 .3-10.8 4.2-13.4 1.7-1.2 14-1.2 14 .3z" fill="url(#paint13_linear)"/><path d="M98.6 175.5c-.1 3.9-.9 20-3.9 22.5-2.8 2.3-7.6 1.1-9.8 4-2 2.7-2.1 6.7-2.7 10-.2 1.4-3.2-1.6-4.3-.7-2 1.5-9.7 3.6-9.2 1.1.6-3.1.7-6.4.2-9.6l-2-13.3a66.9 66.9 0 01-1-18.5c.8-6.1 3.5-12.2 8.6-15.8 7-5 13.4-.8 17.7 5.4 4 5.6 6.7 8.5 6.4 14.9z" fill="url(#paint14_linear)"/><path d="M64.7 145.2c-6.3 3.6-9.5 11-10.7 18.2-1.3 7.2-1 14.6-2.7 21.7-1.6 7-5.7 14.2-12.5 16.8 4 2 8.1 4 12.6 4.8 4.4 1 9.2.8 13.1-1.4L64 208a29 29 0 0013.5-3c5.3-3.1 8-9.2 9.5-15.2 2.8-10.7 2.6-22 2.4-33 0-2.1-.3-4.3-1-6.4-3.2-8.3-17.1-9-23.6-5.2z" fill="#25233A"/><path d="M99.6 148.6c1.2.7 2.2 1.7 3 3a32.1 32.1 0 011 11.4c-.3 2.3-1.3 4.6-3 6.3a16 16 0 01-5.4 3l.8-3.5-4 3.6c-.1-.9 0-1.8.6-2.6l-3.8 1.8c.5-3.8.6-7.7.1-11.6-.4-3.6-2.2-4.2-4.5-6.5-2.1-2-2.4-3.6 0-5.3 4.4-3 11-2.2 15.2.4z" fill="#25233A"/><path d="M86.2 212.7c1.8 1.2 3.4 2.8 5.2 4 1.1.7 2.1 1.6 3 2.7a82 82 0 013.4 12.3c0 4-2.6-.4-2.7 3.6l-.8 54.5c0 2.3 0 4.6-1.1 6.6-1.9 3.4-6 4.7-9.8 5.4-5 1-10.1 1.6-15.2 1.8-2.3.2-4.6 0-6.8-.6-4-1.3-7-4.9-8.4-8.8-1.5-3.9-1.8-8.1-2-12.3-1-20.4-.3-41.3 7.4-60.2 1.7-4.4 5.2-10.2 9.8-12 5.7-2.2 13.2-.4 18 3z" fill="#1280FF"/><path d="M87 235.1s-2.9.7-3.8 12.2c-1 11.4 5.4 52.4-3.4 54.3 0 0 8.3 1 11.7-3.2 3.5-4 3-25 3-25v-40L87 235z" fill="url(#paint15_linear)"/><path d="M111.8 354.7c-5.2-19-12.7-39-19.5-57.5a.5.5 0 01-.1.5c-.9 1.1-5.9 2-9.3 2.8h-.1l-.6.1a43.5 43.5 0 01-26-1c-6.2 16.8-12 34.6-18.4 51.5-.2.5-.3 1.1-.2 1.7.2.5.6 1 1 1.2l5 3.8 1.4-4.2c-.2 4.2-2.8 10.7-3 14.9.5.5 1 .7 1.6.9 3.2.9 8.5-1.3 11.4 0 3.4 1.6 8 2.4 10.5-.5-.8 2.3-.7 5.7 1.6 6 1.1 0 2.2-.3 3-1 4.7-2.5 10.4-1.9 15.7-2 4.8 0 10.3-1.1 13.1-4.8a2.7 2.7 0 002 2.5c1.6.3 3.3-.6 4.8-1.5l1.4-.7a3.7 3.7 0 002.3-3.7v-1a2 2 0 003.6-1c0-2.3-.5-4.7-1.2-7zm-12.1 11.1c-.3.1-.5.3-.6.6-.3-.3.2-.9.6-.6zm-.4.7l.4-.6c.2.2-.1.6-.4.6z" fill="#1280FF"/><path d="M111.8 354.7c-5.2-19-12.7-39-19.5-57.5l-.1.5c-.8 1.7-5.8 2-9.3 2.8h-.1l-.6.1c-10.2 2.6-15.7 1.2-25.8-1.6-6.3 17-12.3 35.2-18.6 52.1-.2.6-.3 1.2-.2 1.7.2.5.6 1 1 1.3l5 3.8 1.4-4.3c-.2 4.2-2.8 10.8-3 15l1.6.8c3.2.9 8.5-1.3 11.4 0 3.5-.8 7.7 2.1 10.2-.2l.3-.3c-.7 2.3-.7 5.8 1.7 6 1 0 2-.3 3-1 4.6-2.5 10.3-1.8 15.6-2 4.8 0 10.3-1.1 13.1-4.8a2.7 2.7 0 002 2.5c1.6.4 3.3-.6 4.8-1.5l1.5-.6a3.5 3.5 0 002.2-3.6v-1a2 2 0 003.6-1 24 24 0 00-1.2-7.2z" fill="url(#paint16_linear)"/><path d="M56.3 446.8c-1.3 0-2.8 0-3.4 1-.3.7-.4 1.3-.3 2l.9 11.3c.1 1.6.3 3.4 1.5 4.4.8.6 1.7.9 2.7.9 2.1 0 4.2-.5 6.2-1.4.8-.3 1.5-.8 2-1.5.5-.8.6-1.7.5-2.6l-.5-9c0-2 0-5.6-2.2-6.1-2-.5-5.2 1-7.4 1zM80.2 448.1c-.7 5-.4 10 .8 14.8 0 .6.3 1.1.7 1.6a3.7 3.7 0 003 1c2.3 0 4.6-.5 6.8-1.4.4-.1.7-.4 1-.7.3-.4.4-1 .3-1.6l-.5-7.9c-.1-1.8.3-4.9-1-6.5-1-1.3-2.4-1.2-4-1-.6.1-7 1.4-7.1 1.7z" fill="#1280FF"/><path d="M56.3 446.8c-1.3 0-2.8 0-3.4 1-.3.7-.4 1.3-.3 2l.9 11.3c.1 1.6.3 3.4 1.5 4.4.8.6 1.7.9 2.7.9 2.1 0 4.2-.5 6.2-1.4.8-.3 1.5-.8 2-1.5.5-.8.6-1.7.5-2.6l-.5-9c0-2 0-5.6-2.2-6.1-2-.5-5.2 1-7.4 1z" fill="url(#paint17_linear)"/><path d="M80.2 448.1c-.7 5-.4 10 .8 14.8 0 .6.3 1.1.7 1.6a3.7 3.7 0 003 1c2.3 0 4.6-.5 6.8-1.4.4-.1.7-.4 1-.7.3-.4.4-1 .3-1.6l-.5-7.9c-.1-1.8.3-4.9-1-6.5-1-1.3-2.4-1.2-4-1-.6.1-7 1.4-7.1 1.7z" fill="url(#paint18_linear)"/><path d="M53 476.4c.2.3.3.7.6 1l.8.2c6.9 1.2 14 .7 20.6-1.4 2.5-.8 5.2-2.4 5.3-5a6 6 0 00-1.5-3.7 18 18 0 00-10.3-6.4 5.9 5.9 0 00-4.5.4c-.6.4-1.1 1.1-1.7 1.6-2.5 1.8-6.8.2-9 2.4-2 2.2-1.1 8.2-.2 10.9z" fill="#25233A"/><path d="M79.3 474.3c0 1 .4 2 1 2.9 1 .7 2.2 1 3.4 1 7 .2 14-1 20.5-3.3 1.7-.6 3.3-1.4 4.6-2.6a5 5 0 001.5-4.8c-.6-2-2.7-3.2-4.7-4-2.2-1-4.5-2-6.8-2.8-1.2-.5-2.6-.8-4-.8-2.5 0-4.5 2-6.8 2.7-2.3.8-4 .2-6.3.1-5 0-2.8 8.3-2.4 11.6z" fill="#25233A"/><path d="M225.3 193c0 2.1 0 4.4 1 6.1 2 2.9 6.4 3.2 9.2 1.3 2.8-2 4.1-5.6 4.1-9 0-3.5-1-6.8-2.2-10l5.7-.6a97 97 0 001.4 14.1 9 9 0 001.4 4.1c2 2.6 6 2.4 9.1 1.9l-.8 33.9-41 .1-3-25a5 5 0 010-2.8c.7-.8 1.4-1.6 2.3-2 3.4-2.7 5.8-6.4 6.8-10.5.6-3.7 1-7.4 1.1-11.2.9-.9 3-.7 5.7-.8-.1 3.5-.7 7-.8 10.4z" fill="#1280FF"/><path d="M225.3 193c0 2.1 0 4.4 1 6.1 2 2.9 6.4 3.2 9.2 1.3 2.8-2 4.1-5.6 4.1-9 0-3.5-1-6.8-2.2-10l5.7-.6a97 97 0 001.4 14.1 9 9 0 001.4 4.1c2 2.6 6 2.4 9.1 1.9l-.8 33.9-41 .1-3-25a5 5 0 010-2.8c.7-.8 1.4-1.6 2.3-2 3.4-2.7 5.8-6.4 6.8-10.5.6-3.7 1-7.4 1.1-11.2.9-.9 3-.7 5.7-.8-.1 3.5-.7 7-.8 10.4z" fill="url(#paint19_linear)"/><path d="M301.7 278.3c-.6 5 3.3 9.1 5 13.9a19 19 0 01-1.2 14 32 32 0 01-9.6 11.5l-.4.8c0 .3.1.7.3 1 3 6 9.6 9.4 16.2 10.4s13.3 0 19.9-1.2c4.8-1 10-2 13.4-5.7-7.3-9.8-13.8-21.7-11.5-33.7.7-3.5 2.2-6.9 2.2-10.4 0-10.6-9.5-6.4-16-8.2-6.5-1.8-17.3-1.3-18.3 7.6zM219.2 259.5a31 31 0 00-6 10.2 219.2 219.2 0 00-12.2 40l11.4 3a3 3 0 001.8 0c1.1-.4 1.4-1.8 1.5-3l1.2-21.4.1 26.7a2.8 2.8 0 002 3.2c4 2 8.2 4.2 12.7 4.1.3 0-1.2-38-1.3-41.4-.4-7-.5-14-1.2-21-.6-6.6-6.3-4.2-10-.4z" fill="#1280FF"/><path d="M219.2 259.5a31 31 0 00-6 10.2 219.2 219.2 0 00-12.2 40l11.4 3a3 3 0 001.8 0c1.1-.4 1.4-1.8 1.5-3l1.2-21.4.1 26.7a2.8 2.8 0 002 3.2c4 2 8.2 4.2 12.7 4.1.3 0-1.2-38-1.3-41.4-.4-7-.5-14-1.2-21-.6-6.6-6.3-4.2-10-.4z" fill="url(#paint20_linear)"/><path d="M243.4 324c5.4-2 10.4-4.8 14.9-8.4a2.6 2.6 0 001.2-3.2l-4.1-25.1c1.5 8.2 3.6 16.4 6 24.5l12-4.9c-1-8.1-4-15.9-7-23.5a67 67 0 00-10.3-18.6c-2.8-3.3-10.6-10.7-15.5-7.7-4.7 3-2.8 14.6-2.7 19.2 0 4.2 5.7 47.6 5.5 47.7z" fill="#1280FF"/><path d="M243.4 324c5.4-2 10.4-4.8 14.9-8.4a2.6 2.6 0 001.2-3.2l-4.1-25.1c1.5 8.2 3.6 16.4 6 24.5l12-4.9c-1-8.1-4-15.9-7-23.5a67 67 0 00-10.3-18.6c-2.8-3.3-10.6-10.7-15.5-7.7-4.7 3-2.8 14.6-2.7 19.2 0 4.2 5.7 47.6 5.5 47.7z" fill="url(#paint21_linear)"/><path d="M267.2 151h-.2c-.6.1-1 .4-1.4.8l-.5.3a10.7 10.7 0 01-13-.8 5.6 5.6 0 01-10.2 1 5.8 5.8 0 01-7.8 2.1c-.6-.5-1.3-.8-2-1-1 0-1.6.8-2.3 1.3a5.8 5.8 0 01-8.5-2.8c-1.4 2-4.1 2.3-6.4 1.9a48.2 48.2 0 01-6.8-2c4.7-9 12-17.8 16-27.2 1.3-3.1 3-4.8 3.6-8.1.4-2-2-8.5-1.5-11.3a1.5 1.5 0 01.7-1c-2 1-4 1.2-5.9 2.3 0 0-5-5.3-4.7-7.6 4.3-2.2 8.2-5.5 12.4-7.7.8-.4 8.5-2 10-1.3 2.6 1.1 4.3 1.4 6.9.6 1.2-.3 2.5-.4 3.8-.4 2.3 0 9.2 1.6 13.2 6.4 1.1 1.4 4 5.2 4 7 0 1.8-3 5.1-4.7 4.9-1.5-1.5-4-2.7-5.6-4l-2 13a9.8 9.8 0 00-.2 3.4l.8 2.2c4 9.4 8.2 18.7 12.3 28z" fill="#1280FF"/><path d="M267.7 152l-.5-1c.4.2.7.6.5 1zM88.8 220c3-.7 5.5-2.2 6.5.7 1.7 4.8 5.3 15.5 8.4 20.6 3 4.7 6.4 9.2 8.5 12a2.3 2.3 0 004-.4l4-15.4 13.2 20.9s-10.1 22-16.3 22.8c-10.4 1.4-29.3-34-29.3-34s-15.8-23.6 1-27.3z" fill="#1280FF"/><path d="M120.2 237.5l1-21.3-3-6.8s1-2.6 3-1.4c2.2 1.2 3.2 6.7 6.7 2.3 2-2.3 3.5-5 4.6-7.9 0 0 .7.2.9 2.9v7.4s-.7 5.4-2 7.3c-1.2 1.9-3.2 1.9-3.5 6.7-.3 4.8.5 23.8.5 23.8l-8.2-13z" fill="url(#paint22_linear)"/><path d="M312.6 312.4c-7.3 10.2-9.2 14.6-9.2 14.6l-4.6-3.5a16.6 16.6 0 01-3-4 2 2 0 01-.2-1 2.2 2.2 0 011-1.4 32 32 0 009-11 19 19 0 001-14c-1.2-3.8-4-7.3-4.8-11 .3.3 4.1 6 6 6.2 0 0 12.2 15 4.8 25.1z" fill="url(#paint23_linear)"/><path d="M336 278.8c0 2-.4 4-1 6 0 0 1-6.3-.4-9.5-1.5-3.2-5.3-2.6-5.9-2.7-.6-.2-4.8.8-7.8-.5s-4.7-1-9.2-1.5c-4.4-.3-8.2 3-8.2 3 1.8-2.2 4.7-3.3 7.8-3.7 3-.3 6 0 8.8.7 6.4 1.8 16-2.4 16 8.2z" fill="url(#paint24_linear)"/><path d="M340 233h2.1c.4-3.6-1.2-7-2.5-10.2-2.8-7-5.5-15-5.9-22.6l.7-3.3a2 2 0 00-1.4-.3 6501.2 6501.2 0 00-40.5.4c-.3 0-.5.4-.7.7a99.8 99.8 0 00-6.4 35.6c6 .7 17.8 1.8 18.4 1.8 12.3-.6 23.8-2 36.1-2.2z" fill="#1280FF"/><path d="M293 204s-4.5 22-2.4 29.9l-5.2-.6s.4-21.9 5.2-32.2l2.3 2.8z" fill="url(#paint25_linear)"/><path d="M293 204l1.5.8s-1.5 26.6 2.2 29.6l-6-.5s-2.1-8 2.2-30z" fill="url(#paint26_linear)"/><path d="M302.4 204.6s-1.3 22.7 1.4 30.5l-7-.7s-1.1-21.8 3-32.4l2.6 2.6z" fill="url(#paint27_linear)"/><path d="M302.4 204.6l1.6.8s.2 26.6 4 29.4l-4.2.3s-3.2-10.5-1.4-30.5z" fill="url(#paint28_linear)"/><path d="M315.5 203.6s-1.3 22.7 1.4 30.5l-7.7.7s-.4-23.3 3.8-33.9l2.5 2.7z" fill="url(#paint29_linear)"/><path d="M315.5 203.6l1.6.8s2.1 26.6 6 29.4l-6.3.3s-3.1-10.5-1.3-30.5z" fill="url(#paint30_linear)"/><path d="M327.9 202.7s-1.8 18.4 5.8 30.5l-7.6.7s-5.1-20.6-1-31.2h2.8z" fill="url(#paint31_linear)"/><path d="M327.9 202.7l2.8.3s5.4 27.1 9.3 29.9l-6.3.3s-7.6-10.5-5.8-30.5z" fill="url(#paint32_linear)"/><path d="M292.2 200.2s31.7 1.8 41.5 0l.7-3.3h-41.9l-.3 3.3z" fill="url(#paint33_linear)"/><path d="M345.3 110.6c-.2 18.8-.7 57.7-1.1 58-.4.4-12 .1-17 0l-1.7-44.8a334.1 334.1 0 00-11.7 43 1.5 1.5 0 01-2 .7c-5.2-1-10.5-3.2-15.5-1.4a334.9 334.9 0 018.4-44.3 41.5 41.5 0 001.3-8.2c0-1.5-.5-4 .6-5.2.7-.8 3.2-1 6.6-1 11 0 32 2.7 32 3.2z" fill="#1280FF"/><path d="M313.2 107.4v1s-2.3 8.7-7.1 9.4l-.4-.8.3-3.3c0-1.6-.5-4 .6-5.3.7-.7 3.2-1 6.6-1z" fill="url(#paint34_linear)"/><path d="M304.9 166l9.4-41.2 11.2-1s-11.1 37-12.2 43.7l-8.4-1.6z" fill="url(#paint35_linear)"/><path d="M336 168.9l-1.7-47.3h11l-1.1 47-8.2.3z" fill="url(#paint36_linear)"/><path d="M338.9 109.5s-1.4 9.8 6.3 12.1v-11l-6.3-1.1z" fill="url(#paint37_linear)"/><path d="M324.4 108.7s-2 8.9-1.3 10a27 27 0 002.3 3.6l2.9-14-4 .4z" fill="url(#paint38_linear)"/><path d="M239 89c.6.9 1.6 1.6 2.7 2 0 0-3.3 1.3-3.8.5a1.4 1.4 0 010-1.4s-1.4 1-2 .3c-.5-.7 3.1-1.5 3.1-1.5z" fill="#1280FF"/><path d="M239 89c.6.9 1.6 1.6 2.7 2 0 0-3.3 1.3-3.8.5a1.4 1.4 0 010-1.4s-1.4 1-2 .3c-.5-.7 3.1-1.5 3.1-1.5z" fill="url(#paint39_linear)"/><path d="M243.5 91s2.6 2.2 3.3 1c.7-1.1.3-1.4.3-1.4a1.6 1.6 0 001.6.4c.9-.4-.4-2-.4-2a10 10 0 01-4.8 2z" fill="url(#paint40_linear)"/><path d="M216.3 99l-2 1.4s3 6.3 4.7 7l2-.8s-4.8-4.9-4.7-7.7z" fill="url(#paint41_linear)"/><path d="M267.7 152H265c-2.7-.1-5.2-1.3-7.1-3.3-5.2-5.3-8.4-27.4-9-28.4-.6-1 4.2-9.9 4.7-17.9l2.5 2-2 13.1a9.8 9.8 0 00-.2 3.4l.8 2.2 12.4 28c.4 0 .7.5.5.8z" fill="url(#paint42_linear)"/><path d="M227.9 123L210 152.2l-2-.4c4.8-9.2 12-17.9 16-27.3 1.4-3.1 3-4.8 3.7-8.1.4-2-2-8.5-1.5-11.3l.7-1s.7 6 2.7 8.8c2 2.7-1.7 10-1.7 10z" fill="url(#paint43_linear)"/><path d="M45 353.6l9.7-41.5-16 42 4.9 3.7 1.4-4.2z" fill="url(#paint44_linear)"/><path d="M51.7 368.1L64 313.5l-2.5 56.6-10-2z" fill="url(#paint45_linear)"/><path opacity=".4" d="M109.4 362.8L93.9 309l11.8 59.3s4.8-1.4 3.7-5.4z" fill="url(#paint46_linear)"/><path opacity=".4" d="M87.2 313.5s11.6 48 11.7 53.6c0 0-3.5 4-8.3 4.4l-3.4-58z" fill="url(#paint47_linear)"/><path d="M67.3 208.7s9.3-2.5 15.7 0l3.2 4.9s-14.2-2.6-20.6-1c-6.3 1.6 1.7-3.9 1.7-3.9z" fill="#1280FF"/><path d="M67.3 208.7s9.3-2.5 15.7 0l3.2 4.9s-14.2-2.6-20.6-1c-6.3 1.6 1.7-3.9 1.7-3.9z" fill="url(#paint48_linear)"/><path d="M306.5 370h-42.2a5.2 5.2 0 100 10.5h42.2a5.2 5.2 0 100-10.4z" fill="#1280FF"/><path d="M306.5 370h-42.2a5.2 5.2 0 100 10.5h42.2a5.2 5.2 0 100-10.4z" fill="url(#paint49_linear)"/><path d="M264.4 38.8h-4.1v-1.2c0-.4 0-.8-.2-1.1a.6.6 0 00-.5-.3.7.7 0 00-.6.3c-.2.3-.2.7-.2 1 0 .5 0 1 .2 1.3.4.4.8.8 1.3 1 1.4.7 2.6 1.7 3.7 2.9.6 1 .8 2.3.7 3.6 0 .9 0 1.8-.4 2.6-.4.7-1 1.2-1.6 1.5-1 .4-1.9.6-2.9.6s-2-.3-3-.7c-.7-.4-1.3-1-1.6-1.7-.3-1-.4-2-.4-3v-1h4v2c0 .4.1.9.3 1.3a.7.7 0 00.6.2.7.7 0 00.6-.3c.2-.3.3-.7.2-1 .1-.7 0-1.4-.4-2l-2-1.6a19 19 0 01-2.2-1.5c-.4-.4-.7-.9-.9-1.4a6 6 0 01-.3-2.2c-.1-1 0-2 .5-2.9.3-.6.9-1 1.6-1.4.8-.3 1.7-.5 2.6-.5 1 0 2 .2 3 .6a3 3 0 011.6 1.4c.3.9.4 1.9.4 2.8v.7zM280 33.7v17h-4.4v-7.2h-1.3v7.1h-4.4V33.7h4.4v6h1.3v-6h4.4zM295.6 43.6l-.1 3.6a4 4 0 01-2.5 3.3 6.6 6.6 0 01-5 0 4 4 0 01-2.4-3.2l-.2-3.7v-2.9c0-1.7 0-2.9.2-3.6a4 4 0 012.4-3.3c.8-.3 1.7-.5 2.5-.4.9 0 1.7 0 2.5.4a4 4 0 012.5 3.3l.1 3.6v3zm-4.4-5.6l-.1-1.5a.5.5 0 00-.5-.3.6.6 0 00-.6.3l-.2 1.5v8c0 .5 0 1.2.2 1.8a.5.5 0 00.5.3.5.5 0 00.6-.4 8 8 0 00.1-1.9V38zM301 33.7h4.5c.9 0 1.8 0 2.7.3.6.1 1.1.4 1.5.8.3.4.6.8.7 1.3.1.8.2 1.6.1 2.3V40c0 .8 0 1.6-.3 2.4-.3.5-.7 1-1.2 1.1-.8.3-1.6.5-2.4.4h-1.2v6.9H301v-17zm4.4 2.9v4.3h.4a1 1 0 00.8-.3c.2-.4.3-.8.2-1.2V38c.1-.4 0-.8-.2-1.1-.4-.3-.8-.3-1.2-.3z" fill="#1280FF"/><defs><linearGradient id="paint0_linear" x1="140.5" y1="189.9" x2="124.9" y2="198.4" gradientUnits="userSpaceOnUse"><stop stop-opacity="0"/><stop offset="1"/></linearGradient><linearGradient id="paint1_linear" x1="1859.4" y1="26660.2" x2="5280.3" y2="26711.3" gradientUnits="userSpaceOnUse"><stop stop-opacity="0"/><stop offset="1"/></linearGradient><linearGradient id="paint2_linear" x1="1142.7" y1="16274" x2="1142.7" y2="25398.6" gradientUnits="userSpaceOnUse"><stop stop-opacity="0"/><stop offset="1"/></linearGradient><linearGradient id="paint3_linear" x1="3079.8" y1="5486" x2="2150.9" y2="10471.3" gradientUnits="userSpaceOnUse"><stop stop-opacity="0"/><stop offset="1"/></linearGradient><linearGradient id="paint4_linear" x1="49.9" y1="404.7" x2="70.8" y2="404.7" gradientUnits="userSpaceOnUse"><stop stop-color="#ECC4D7"/><stop offset=".4" stop-color="#EFD4D1"/><stop offset="1" stop-color="#F2EAC9"/></linearGradient><linearGradient id="paint5_linear" x1="2392.4" y1="43110.4" x2="2862.8" y2="43110.4" gradientUnits="userSpaceOnUse"><stop stop-color="#ECC4D7"/><stop offset=".4" stop-color="#EFD4D1"/><stop offset="1" stop-color="#F2EAC9"/></linearGradient><linearGradient id="paint6_linear" x1="271.3" y1="-219.2" x2="283.6" y2="401.4" gradientUnits="userSpaceOnUse"><stop stop-color="#fff" stop-opacity="0"/><stop offset=".8" stop-color="#fff" stop-opacity=".8"/><stop offset="1" stop-color="#fff"/></linearGradient><linearGradient id="paint7_linear" x1="1910.6" y1="711" x2="1912.1" y2="775.9" gradientUnits="userSpaceOnUse"><stop stop-color="#fff" stop-opacity="0"/><stop offset=".8" stop-color="#fff" stop-opacity=".8"/><stop offset="1" stop-color="#fff"/></linearGradient><linearGradient id="paint8_linear" x1="2728.5" y1="355.2" x2="2728.7" y2="375.3" gradientUnits="userSpaceOnUse"><stop stop-opacity="0"/><stop offset="1"/></linearGradient><linearGradient id="paint9_linear" x1="4144.3" y1="2984.1" x2="4018.6" y2="3186" gradientUnits="userSpaceOnUse"><stop stop-opacity="0"/><stop offset="1"/></linearGradient><linearGradient id="paint10_linear" x1="7800.7" y1="4822.1" x2="7511.3" y2="6202.6" gradientUnits="userSpaceOnUse"><stop stop-opacity="0"/><stop offset="1"/></linearGradient><linearGradient id="paint11_linear" x1="10075.7" y1="3158" x2="10038.5" y2="3396.4" gradientUnits="userSpaceOnUse"><stop stop-opacity="0"/><stop offset="1"/></linearGradient><linearGradient id="paint12_linear" x1="5432.5" y1="2050.8" x2="5434.9" y2="2119.9" gradientUnits="userSpaceOnUse"><stop stop-opacity="0"/><stop offset="1"/></linearGradient><linearGradient id="paint13_linear" x1="6758.1" y1="18385.8" x2="7402.6" y2="18385.8" gradientUnits="userSpaceOnUse"><stop stop-opacity="0"/><stop offset="1"/></linearGradient><linearGradient id="paint14_linear" x1="3794.4" y1="11349.7" x2="5036.7" y2="11698.8" gradientUnits="userSpaceOnUse"><stop stop-color="#ECC4D7"/><stop offset=".4" stop-color="#EFD4D1"/><stop offset="1" stop-color="#F2EAC9"/></linearGradient><linearGradient id="paint15_linear" x1="1576.6" y1="18346.8" x2="3316.9" y2="18397.8" gradientUnits="userSpaceOnUse"><stop stop-opacity="0"/><stop offset="1"/></linearGradient><linearGradient id="paint16_linear" x1="8257.2" y1="22566.9" x2="8257.2" y2="33452.8" gradientUnits="userSpaceOnUse"><stop stop-opacity="0"/><stop offset="1"/></linearGradient><linearGradient id="paint17_linear" x1="1350.2" y1="10058.7" x2="1315.4" y2="9561" gradientUnits="userSpaceOnUse"><stop stop-color="#fff" stop-opacity="0"/><stop offset=".8" stop-color="#fff" stop-opacity=".8"/><stop offset="1" stop-color="#fff"/></linearGradient><linearGradient id="paint18_linear" x1="86.5" y1="459.5" x2="85.3" y2="443.7" gradientUnits="userSpaceOnUse"><stop stop-color="#fff" stop-opacity="0"/><stop offset=".7" stop-color="#fff" stop-opacity=".6"/><stop offset=".8" stop-color="#fff" stop-opacity=".8"/><stop offset="1" stop-color="#fff"/></linearGradient><linearGradient id="paint19_linear" x1="12442.4" y1="11544.1" x2="15260.6" y2="12069" gradientUnits="userSpaceOnUse"><stop stop-opacity="0"/><stop offset="1"/></linearGradient><linearGradient id="paint20_linear" x1="7632.3" y1="19265.2" x2="9509.7" y2="19412.6" gradientUnits="userSpaceOnUse"><stop stop-color="#fff" stop-opacity="0"/><stop offset=".8" stop-color="#fff" stop-opacity=".8"/><stop offset="1" stop-color="#fff"/></linearGradient><linearGradient id="paint21_linear" x1="11037.8" y1="19069.4" x2="9053.6" y2="19596.5" gradientUnits="userSpaceOnUse"><stop stop-color="#fff" stop-opacity="0"/><stop offset=".8" stop-color="#fff" stop-opacity=".8"/><stop offset="1" stop-color="#fff"/></linearGradient><linearGradient id="paint22_linear" x1="2424.7" y1="11077.7" x2="2654" y2="11077.7" gradientUnits="userSpaceOnUse"><stop stop-color="#ECC4D7"/><stop offset=".4" stop-color="#EFD4D1"/><stop offset="1" stop-color="#F2EAC9"/></linearGradient><linearGradient id="paint23_linear" x1="6779.8" y1="14266.7" x2="8428.6" y2="14206.4" gradientUnits="userSpaceOnUse"><stop stop-opacity="0"/><stop offset="1"/></linearGradient><linearGradient id="paint24_linear" x1="11784.3" y1="4182.6" x2="11788" y2="4592.1" gradientUnits="userSpaceOnUse"><stop stop-color="#fff" stop-opacity="0"/><stop offset=".8" stop-color="#fff" stop-opacity=".8"/><stop offset="1" stop-color="#fff"/></linearGradient><linearGradient id="paint25_linear" x1="2712" y1="7043.1" x2="2805.4" y2="8106.6" gradientUnits="userSpaceOnUse"><stop stop-color="#fff" stop-opacity="0"/><stop offset=".8" stop-color="#fff" stop-opacity=".8"/><stop offset="1" stop-color="#fff"/></linearGradient><linearGradient id="paint26_linear" x1="2464.1" y1="6888.4" x2="1782.9" y2="6894.9" gradientUnits="userSpaceOnUse"><stop stop-opacity="0"/><stop offset="1"/></linearGradient><linearGradient id="paint27_linear" x1="2713.7" y1="6425" x2="1049.1" y2="8951.7" gradientUnits="userSpaceOnUse"><stop stop-color="#fff" stop-opacity="0"/><stop offset=".8" stop-color="#fff" stop-opacity=".8"/><stop offset="1" stop-color="#fff"/></linearGradient><linearGradient id="paint28_linear" x1="2879.6" y1="6747.4" x2="2373.8" y2="6785.3" gradientUnits="userSpaceOnUse"><stop stop-opacity="0"/><stop offset="1"/></linearGradient><linearGradient id="paint29_linear" x1="3016.7" y1="6502.5" x2="1278.4" y2="9286.8" gradientUnits="userSpaceOnUse"><stop stop-color="#fff" stop-opacity="0"/><stop offset=".8" stop-color="#fff" stop-opacity=".8"/><stop offset="1" stop-color="#fff"/></linearGradient><linearGradient id="paint30_linear" x1="3660.4" y1="6690" x2="2751.9" y2="6760.5" gradientUnits="userSpaceOnUse"><stop stop-opacity="0"/><stop offset="1"/></linearGradient><linearGradient id="paint31_linear" x1="4074.2" y1="6107" x2="2883.6" y2="8858.5" gradientUnits="userSpaceOnUse"><stop stop-color="#fff" stop-opacity="0"/><stop offset=".8" stop-color="#fff" stop-opacity=".8"/><stop offset="1" stop-color="#fff"/></linearGradient><linearGradient id="paint32_linear" x1="5398.9" y1="6570.9" x2="3361.4" y2="6741.6" gradientUnits="userSpaceOnUse"><stop stop-opacity="0"/><stop offset="1"/></linearGradient><linearGradient id="paint33_linear" x1="14749.7" y1="994.6" x2="14820.5" y2="1491.7" gradientUnits="userSpaceOnUse"><stop stop-opacity="0"/><stop offset="1"/></linearGradient><linearGradient id="paint34_linear" x1="2868.4" y1="1272" x2="2973.1" y2="1315.8" gradientUnits="userSpaceOnUse"><stop stop-opacity="0"/><stop offset="1"/></linearGradient><linearGradient id="paint35_linear" x1="7512" y1="5569.2" x2="6560.3" y2="11045.5" gradientUnits="userSpaceOnUse"><stop stop-opacity="0"/><stop offset="1"/></linearGradient><linearGradient id="paint36_linear" x1="4078.6" y1="6055.9" x2="1567.1" y2="9199.7" gradientUnits="userSpaceOnUse"><stop stop-opacity="0"/><stop offset="1"/></linearGradient><linearGradient id="paint37_linear" x1="2778.6" y1="1510" x2="2593.8" y2="1529.9" gradientUnits="userSpaceOnUse"><stop stop-opacity="0"/><stop offset="1"/></linearGradient><linearGradient id="paint38_linear" x1="2241.2" y1="1664.3" x2="2100.9" y2="2254.4" gradientUnits="userSpaceOnUse"><stop stop-opacity="0"/><stop offset="1"/></linearGradient><linearGradient id="paint39_linear" x1="1816.6" y1="342.3" x2="1814.3" y2="355.4" gradientUnits="userSpaceOnUse"><stop stop-color="#fff" stop-opacity="0"/><stop offset=".8" stop-color="#fff" stop-opacity=".8"/><stop offset="1" stop-color="#fff"/></linearGradient><linearGradient id="paint40_linear" x1="1804.7" y1="390.9" x2="1804.9" y2="411.9" gradientUnits="userSpaceOnUse"><stop stop-color="#fff" stop-opacity="0"/><stop offset=".8" stop-color="#fff" stop-opacity=".8"/><stop offset="1" stop-color="#fff"/></linearGradient><linearGradient id="paint41_linear" x1="1886.9" y1="890.7" x2="1890.1" y2="1018.2" gradientUnits="userSpaceOnUse"><stop stop-color="#fff" stop-opacity="0"/><stop offset=".8" stop-color="#fff" stop-opacity=".8"/><stop offset="1" stop-color="#fff"/></linearGradient><linearGradient id="paint42_linear" x1="5812" y1="6422.3" x2="3276.7" y2="6446.4" gradientUnits="userSpaceOnUse"><stop stop-opacity="0"/><stop offset="1"/></linearGradient><linearGradient id="paint43_linear" x1="6078.5" y1="6443.4" x2="5393.8" y2="6367.1" gradientUnits="userSpaceOnUse"><stop stop-color="#fff" stop-opacity="0"/><stop offset=".8" stop-color="#fff" stop-opacity=".8"/><stop offset="1" stop-color="#fff"/></linearGradient><linearGradient id="paint44_linear" x1="1103.9" y1="15681.1" x2="-1389.1" y2="15624.6" gradientUnits="userSpaceOnUse"><stop stop-opacity="0"/><stop offset="1"/></linearGradient><linearGradient id="paint45_linear" x1="1022.5" y1="19487.4" x2="-376.2" y2="19539.3" gradientUnits="userSpaceOnUse"><stop stop-opacity="0"/><stop offset="1"/></linearGradient><linearGradient id="paint46_linear" x1="2092.6" y1="20364.8" x2="2337.8" y2="20364.8" gradientUnits="userSpaceOnUse"><stop stop-opacity="0"/><stop offset="1"/></linearGradient><linearGradient id="paint47_linear" x1="1567.9" y1="18025.4" x2="1567.9" y2="24072.6" gradientUnits="userSpaceOnUse"><stop stop-opacity="0"/><stop offset="1"/></linearGradient><linearGradient id="paint48_linear" x1="2558.7" y1="1429.8" x2="2558.7" y2="1698.2" gradientUnits="userSpaceOnUse"><stop stop-opacity="0"/><stop offset="1"/></linearGradient><linearGradient id="paint49_linear" x1="15313" y1="4136.9" x2="15314.2" y2="5215.8" gradientUnits="userSpaceOnUse"><stop stop-opacity="0"/><stop offset="1"/></linearGradient></defs></svg>